<svg viewBox="280 0 2920 2080" xmlns="http://www.w3.org/2000/svg" xmlns:xlink="http://www.w3.org/1999/xlink" overflow="visible">
    <defs>
        <rect id="masterbackgroundwork-from-home-path-1" x="0" y="0" width="569" height="356"/>
    </defs>
    <g id="Master/Background/Work From home" stroke="none" stroke-width="1" fill="none" fill-rule="evenodd">
        <path d="M1013.485,1606 C1015.14185,1606 1016.485,1607.34395 1016.485,1609.0008 C1016.485,1610.59848 1015.23608,1611.90446 1013.66127,1611.99571 L1013.485,1612.0008 L933.202,1612 L933.202,1671.462 L1060.65059,1671.4628 C1062.24828,1671.4628 1063.55426,1672.71172 1063.6455,1674.28653 L1063.65059,1674.4628 C1063.65059,1676.06048 1062.40167,1677.36646 1060.82687,1677.45771 L1060.65059,1677.4628 L1016.485,1677.462 L1016.485,1736.926 L1100.405,1736.9266 C1102.06185,1736.9266 1103.405,1738.26975 1103.405,1739.9266 C1103.405,1741.52428 1102.15608,1742.83026 1100.58127,1742.92151 L1100.405,1742.9266 L933.202,1742.926 L933.202,1802.386 L1031.15928,1802.3866 C1032.75696,1802.3866 1034.06294,1803.63552 1034.15419,1805.21033 L1034.15928,1805.3866 C1034.15928,1806.98428 1032.91036,1808.29026 1031.33555,1808.38151 L1031.15928,1808.3866 L842.84,1808.3866 C841.183146,1808.3866 839.84,1807.04245 839.84,1805.3856 C839.84,1803.78792 841.08892,1802.48194 842.663727,1802.39069 L842.84,1802.3856 L927.202,1802.385 L927.202,1742.925 L842.84,1742.9256 C841.242319,1742.9256 839.936339,1741.67668 839.845093,1740.10187 L839.84,1739.9256 C839.84,1739.35179 840.001101,1738.8156 840.280541,1738.3598 L840.280541,1676.0278 C840.001101,1675.572 839.84,1675.03581 839.84,1674.462 C839.84,1672.86432 841.08892,1671.55834 842.663727,1671.46709 L842.84,1671.462 L927.202,1671.461 L927.202,1612 L868.53,1612 C866.932319,1612 865.626339,1610.75108 865.535093,1609.17627 L865.53,1609 C865.53,1607.40232 866.77892,1606.09634 868.353727,1606.00509 L868.53,1606 L1013.485,1606 Z M1010.485,1677.463 L846.281,1677.463 L846.281,1736.925 L1010.485,1736.925 L1010.485,1677.463 Z" id="Bricks" fill-opacity=".08" fill="#000" fill-rule="nonzero"/>
        <path d="M2099.316,770.244 L2464.996,770.244 L2464.996,1244.071 L2099.316,1244.072 L2099.316,770.244 Z M2872.84,770.244 L2872.84,1244.072 L2507.16,1244.071 L2507.16,770.244 L2872.84,770.244 Z M2872.84,727.527 L2507.16,727.528 L2507.16,210.151 L2872.84,210.152 L2872.84,727.527 Z M2464.996,210.151 L2464.996,727.528 L2099.316,727.527 L2099.316,210.152 L2464.996,210.151 Z" id="Window" fill="#F0F1FF" fill-rule="nonzero" opacity=".5"/>
        <path d="M2313.484,387.0036 L2117,387.0036 C2117,387.0036 2131.4,327.9916 2182.216,327.9916 C2219.868,327.9916 2239.404,351.8036 2247.012,364.1436 C2261.864,358.3356 2293.84,351.2836 2313.484,387.0036" id="Fill-17" fill="#FFF"/>
        <path d="M2608.306,1000.5192 C2613.35,1000.5192 2618.074,1001.8872 2622.174,1004.2552 C2630.01,990.5912 2644.462,981.3952 2661.046,981.3952 C2676.534,981.3952 2690.19,989.3992 2698.306,1001.5832 C2702.594,986.9032 2715.862,976.1992 2731.582,976.1992 C2749.422,976.1992 2764.106,989.9872 2766.082,1007.7272 C2767.518,1007.4952 2768.978,1007.3432 2770.478,1007.3432 C2781.362,1007.3432 2790.794,1013.6432 2795.53,1022.8712 L2580.778,1022.8712 C2583.718,1010.0672 2594.91,1000.5192 2608.306,1000.5192" id="Fill-18" fill="#FFF"/>
        <path d="M2927.34,165.572 L2044.34,165.572 L2044.34,1295.572 L2927.34,1295.572 L2927.34,165.572 Z M2920.34,172.571 L2920.34,1288.572 L2051.34,1288.572 L2051.34,172.571 L2920.34,172.571 Z" id="Window-Frame" fill-opacity=".08" fill="#000" fill-rule="nonzero"/>
        <path d="M1959.4854,803 C1961.14225,803 1962.4854,804.343946 1962.4854,806.0008 C1962.4854,807.598481 1961.23648,808.904461 1959.66167,808.995707 L1959.4854,809.0008 L1879.2034,809 L1879.2034,868.462 L2046.4054,868.4628 C2048.00308,868.4628 2049.30906,869.71172 2049.40031,871.286527 L2049.4054,871.4628 C2049.4054,873.060481 2048.15648,874.366461 2046.58167,874.457707 L2046.4054,874.4628 L1962.4854,874.462 L1962.4854,933.926 L2046.4054,933.9266 C2048.06225,933.9266 2049.4054,935.269746 2049.4054,936.9266 C2049.4054,938.524281 2048.15648,939.830261 2046.58167,939.921507 L2046.4054,939.9266 L1879.2034,939.926 L1879.2034,999.386 L2046.4054,999.3866 C2048.00308,999.3866 2049.30906,1000.63552 2049.40031,1002.21033 L2049.4054,1002.3866 C2049.4054,1003.98428 2048.15648,1005.29026 2046.58167,1005.38151 L2046.4054,1005.3866 L1792.2824,1005.387 L1792.2824,1064.849 L1876.2032,1064.8496 C1877.80088,1064.8496 1879.10686,1066.09852 1879.19811,1067.67333 L1879.2032,1067.8496 C1879.2032,1069.44728 1877.95428,1070.75326 1876.37947,1070.84451 L1876.2032,1070.8496 L1789.2832,1070.8496 C1787.68552,1070.8496 1786.37954,1069.60068 1786.28829,1068.02587 L1786.2832,1067.8496 L1786.2824,1005.385 L1739.959,1005.3856 C1738.30215,1005.3856 1736.959,1004.04245 1736.959,1002.3856 C1736.959,1000.78792 1738.20792,999.481939 1739.78273,999.390693 L1739.959,999.3856 L1873.2024,999.385 L1873.2024,939.925 L1739.959,939.9256 C1738.36132,939.9256 1737.05534,938.67668 1736.96409,937.101873 L1736.959,936.9256 C1736.959,935.327919 1738.20792,934.021939 1739.78273,933.930693 L1739.959,933.9256 L1786.2814,933.925 L1786.2814,874.461 L1706.0004,874.462 C1704.34355,874.462 1703.0004,873.118854 1703.0004,871.462 C1703.0004,869.864319 1704.24932,868.558339 1705.82413,868.467093 L1706.0004,868.462 L1873.2024,868.461 L1873.2024,809 L1814.5304,809 C1812.93272,809 1811.62674,807.75108 1811.53549,806.176273 L1811.5304,806 C1811.5304,804.402319 1812.77932,803.096339 1814.35413,803.005093 L1814.5304,803 L1959.4854,803 Z M1956.4854,874.463 L1792.2814,874.463 L1792.2814,933.925 L1956.4854,933.925 L1956.4854,874.463 Z" id="Bricks" fill-opacity=".08" fill="#000" fill-rule="nonzero"/>
        <path d="M3094.485,202 C3096.14185,202 3097.485,203.343946 3097.485,205.0008 C3097.485,206.598481 3096.23608,207.904461 3094.66127,207.995707 L3094.485,208.0008 L3014.202,208 L3014.202,267.462 L3141.65059,267.4628 C3143.24828,267.4628 3144.55426,268.71172 3144.6455,270.286527 L3144.65059,270.4628 C3144.65059,272.060481 3143.40167,273.366461 3141.82687,273.457707 L3141.65059,273.4628 L3097.485,273.462 L3097.485,332.926 L3181.405,332.9266 C3183.06185,332.9266 3184.405,334.269746 3184.405,335.9266 C3184.405,337.524281 3183.15608,338.830261 3181.58127,338.921507 L3181.405,338.9266 L3014.202,338.926 L3014.202,398.386 L3112.15928,398.3866 C3113.75696,398.3866 3115.06294,399.63552 3115.15419,401.210327 L3115.15928,401.3866 C3115.15928,402.984281 3113.91036,404.290261 3112.33555,404.381507 L3112.15928,404.3866 L2923.84,404.3866 C2922.18315,404.3866 2920.84,403.042454 2920.84,401.3856 C2920.84,399.787919 2922.08892,398.481939 2923.66373,398.390693 L2923.84,398.3856 L3008.202,398.385 L3008.201,338.925 L2923.84,338.9256 C2922.24232,338.9256 2920.93634,337.67668 2920.84509,336.101873 L2920.84,335.9256 C2920.84,335.351785 2921.0011,334.815597 2921.28054,334.359799 L2921.28054,272.027801 C2921.0011,271.572003 2920.84,271.035815 2920.84,270.462 C2920.84,268.864319 2922.08892,267.558339 2923.66373,267.467093 L2923.84,267.462 L3008.202,267.461 L3008.202,208 L2949.53,208 C2947.93232,208 2946.62634,206.75108 2946.53509,205.176273 L2946.53,205 C2946.53,203.402319 2947.77892,202.096339 2949.35373,202.005093 L2949.53,202 L3094.485,202 Z M3091.485,273.463 L2927.281,273.463 L2927.281,332.925 L3091.485,332.925 L3091.485,273.463 Z" id="Bricks" fill-opacity=".08" fill="#000" fill-rule="nonzero"/>
        <g id="Lamp" transform="translate(812.000000, 0.000000)">
            <path d="M231,621.003035 C231,640.879963 214.884674,657 195,657 C175.115326,657 159,640.879963 159,621.003035 C159,601.120037 175.115326,585 195,585 C214.884674,585 231,601.120037 231,621.003035" id="Fill-5" fill="#FFF"/>
            <polygon id="Fill-3" fill="#090E2B" points="193 490 198 490 198 0 193 0"/>
            <path d="M186.507779,462.266165 C168.684301,497.567794 118.938893,573.423586 2.3418784,627.372619 C-1.53986671,629.171929 -0.31627314,635 3.95726302,635 L386.043944,635 C390.31748,635 391.541074,629.171929 387.653301,627.372619 C271.056287,573.423586 221.316907,497.567794 203.4874,462.266165 C199.943198,455.244612 190.058009,455.244612 186.507779,462.266165" id="Fill-1" fill="#0084FF"/>
        </g>
        <g id="Medium Plants" transform="translate(2111.000000, 1253.000000) scale(1 1)">
            <defs>
                <polygon id="medium-plantsplant-4-path-1" points="0.885 0.4042 225.003 0.4042 225.003 229 0.885 229"/>
            </defs>
            <g id="Medium Plants/Plant 4" stroke="none" stroke-width="1" fill="none" fill-rule="evenodd">
                <g id="Group-16" transform="translate(94.000000, 144.000000)">
                    <path d="M662.512,98.475 C662.512,98.475 654.898,157.099 541.284,228.111 C510.266,247.427 495.952,267.763 485.27,286.623 C475.046,289.917 459.708,294.121 450.39,293.439 C450.39,293.439 464.366,297.417 479.476,297.417 C464.82,325.253 450.172,348.431 395.524,357.747 C395.524,357.747 337.882,323.167 382.904,223.567 C394.72,233.791 410.058,253.105 410.058,253.105 C408.24,238.223 394.606,221.181 387.79,213.453 C387.902,213.341 387.902,213.227 388.016,213.113 C421.08,151.081 484.704,148.921 545.942,145.173 C545.26,153.465 543.216,165.851 537.876,175.393 C537.876,175.393 554.122,163.123 559.122,144.263 C569.232,143.581 579.232,142.673 589.002,141.309 C617.178,137.445 647.174,121.881 662.512,98.475" id="Fill-1" fill="#009BA0"/>
                    <path d="M10.3910291,113.374429 C25.9612131,111.077316 44.3658046,110.707752 64.7231199,113.490176 C92.7811,117.325122 121.021718,126.762182 148.555346,143.024165 C148.887306,143.220228 149.073691,143.586985 149.043724,143.964048 L149.025625,144.089897 L141.939,177.971 L157.743907,149.967727 C158.008197,149.499404 158.589421,149.329819 159.058442,149.562859 L159.164491,149.623832 C168.811192,155.971576 178.331005,163.262123 187.817736,171.593001 C223.39881,202.762455 245.340792,234.773338 256.182175,266.376895 C263.611965,288.035365 265.047051,306.790526 263.048678,321.394825 C262.965152,322.005241 262.878548,322.576963 262.790336,323.109279 L262.656999,323.878111 L262.522354,324.587303 L262.387427,325.234372 L262.270923,325.733668 L262.231693,325.848056 L262.19283,325.931313 L262.135104,326.027965 L262.067638,326.116488 L261.991346,326.196343 L261.937861,326.243242 L261.839616,326.313749 L261.734763,326.371215 L261.723,326.375 C261.685299,326.393589 261.651094,326.406878 261.616178,326.418272 L261.510483,326.446248 L261.39938,326.463179 L261.286874,326.467227 L261.15729,326.45616 L261.040332,326.431323 L260.925944,326.392093 L260.842687,326.35323 L260.746035,326.295504 L260.710128,326.269686 C256.52596,323.158633 252.280858,320.451042 247.848299,318.035552 L246.822015,317.483266 L245.861482,316.978041 C245.701612,316.894826 245.541821,316.812091 245.382062,316.729817 L244.423531,316.241522 L243.46357,315.763265 C243.303334,315.684336 243.142946,315.605784 242.982361,315.527589 L242.016105,315.062517 L241.042887,314.604988 L240.060495,314.154002 C239.895875,314.079328 239.730781,314.004885 239.565167,313.930652 L238.564865,313.48761 C238.396984,313.414134 238.22849,313.340828 238.059338,313.267669 L237.036148,312.830324 L235.994935,312.395529 L234.933485,311.962285 C234.754768,311.890152 234.575115,311.818041 234.394481,311.745933 L233.298528,311.313144 C233.113784,311.240962 232.927966,311.16874 232.741028,311.096458 L231.605595,310.661878 L230.441076,310.224855 L229.245259,309.784392 L228.015931,309.339488 L226.104266,308.661626 L224.781482,308.201256 L223.417444,307.732952 L221.289196,307.013436 L219.812343,306.520928 L206.810764,302.22715 L202.409619,300.749307 L199.321756,299.691506 L196.319463,298.634097 L194.165491,297.849018 L192.409498,297.187179 L190.967544,296.62652 L189.08907,295.871239 L188.094412,295.46009 L187.031034,295.012617 L185.945089,294.548128 L184.825843,294.062648 L183.662562,293.5522 L181.811596,292.731019 L181.160962,292.440501 C165.668155,285.513952 150.417057,276.554523 133.881881,264.18801 C133.381817,263.814016 133.349536,263.089033 133.784048,262.669558 L133.884302,262.584585 L154.071,247.581 L128.318251,259.139532 C128.025678,259.270838 127.690765,259.252896 127.41632,259.097547 L127.302702,259.02259 L126.20091,258.173175 L124.740219,257.019217 L123.435516,255.968337 L121.948112,254.755968 C114.317692,248.488973 106.440774,241.063179 98.5597118,232.878472 L96.8083948,231.047319 C93.8897479,227.975117 90.972995,224.802876 88.070449,221.550911 L86.3307248,219.590328 C86.0410878,219.262024 85.7516174,218.932963 85.462326,218.603166 L83.7288245,216.615711 C83.4402984,216.28305 83.1519759,215.949693 82.8638695,215.615661 L81.1379203,213.603528 L79.417745,211.576162 L77.7039343,209.534539 C77.4188625,209.193134 77.1340804,208.851176 76.8496005,208.508685 L75.1464452,206.447503 C74.8632231,206.102961 74.5803277,205.757926 74.2977714,205.412419 L72.6066012,203.333873 C72.3254505,202.986559 72.0446635,202.638813 71.7642524,202.290656 L70.0863971,200.19694 L68.4181571,198.094331 C68.1409512,197.743209 67.8641706,197.391757 67.5878275,197.039995 L65.9351187,194.925873 C65.3860317,194.220035 64.8387936,193.513121 64.2935028,192.805294 L62.6635708,190.679234 L61.0459137,188.548669 C60.7773599,188.193253 60.5093422,187.837691 60.241873,187.482001 L58.6437364,185.346505 C58.37851,184.99039 58.1138565,184.634188 57.8497884,184.277921 L56.2725023,182.139689 C55.7491472,181.42679 55.228232,180.71379 54.7098551,180.000852 L53.162438,177.862384 L51.6308419,175.725263 L50.1156579,173.590461 L48.7570018,171.686355 L47.4092365,169.813079 C47.1855176,169.503427 46.9622533,169.195054 46.7394439,168.887957 L45.4080508,167.060658 L44.0875961,165.263833 L42.7780991,163.497338 L41.4795787,161.761033 L40.1920541,160.054772 L38.9155442,158.378416 L37.6500681,156.73182 L36.3956449,155.114842 L35.1522937,153.52734 L33.9200334,151.969172 L32.6988832,150.440194 C32.4962851,150.187789 32.2941507,149.936594 32.0924804,149.686607 L30.888031,148.201148 L29.6947393,146.744523 C29.4967882,146.504147 29.2993028,146.264966 29.1022835,146.026978 L27.925764,144.613338 L26.7604499,143.228175 C26.5671658,142.99968 26.3743493,142.772365 26.1820008,142.546228 L25.0335304,141.203515 L23.896313,139.888924 L22.7703676,138.602312 L21.6557133,137.343536 L20.5523691,136.112454 L19.4603542,134.908924 L18.3796874,133.732803 L17.310388,132.583948 C17.1331198,132.394736 16.956326,132.206655 16.780007,132.0197 L15.7277942,130.911478 L14.6869965,129.830165 L13.6576327,128.77562 C13.4870259,128.602086 13.3168964,128.42966 13.1472445,128.258341 L12.1115509,127.220503 C11.7708102,126.88174 11.4345633,126.550135 11.1028205,126.225611 L10.1211146,125.273206 C9.79839023,124.962768 9.48018011,124.659334 9.16649449,124.362829 L8.23902135,123.494021 L7.3387565,122.666324 C7.19098312,122.531774 7.04434597,122.398919 6.89884633,122.267748 L6.0395088,121.500855 L5.20753274,120.773924 L4.40297942,120.086498 C4.27117583,119.975193 4.14051741,119.865515 4.01100544,119.757455 L3.28328667,119.157441 L2.63493837,118.636079 C2.53098592,118.553585 2.42908819,118.473276 2.32924806,118.395131 L1.7549214,117.952054 C1.66332316,117.882478 1.57378826,117.815022 1.4863196,117.749665 L0.960618641,117.363961 L0.574456463,117.092618 L0.458066013,117.015105 C-0.270580867,116.544264 -0.0950827257,115.432463 0.74316699,115.208957 L1.39498615,115.046932 L2.25696813,114.847912 L2.91069485,114.704838 L3.26106716,114.630479 C3.77113547,114.523314 4.30265292,114.416183 4.85530049,114.309527 L5.98867462,114.096981 L7.17782865,113.886491 L8.42219547,113.678844 L9.72120796,113.474829 C9.94223234,113.441173 10.16551,113.407701 10.3910291,113.374429 Z" id="Fill-3" fill="#017C7F" fill-rule="nonzero"/>
                    <path d="M331.4778,356.7582 C331.4778,356.7582 277.8958,340.8782 240.0318,272.3862 C252.9298,268.6422 261.2518,259.9882 261.2518,259.9882 C252.0978,262.5682 235.4538,263.6502 235.4538,263.6502 C156.6878,164.7222 196.4138,0.0002 196.4138,0.0002 C205.1518,21.7202 248.5858,52.7902 283.7858,98.4742 C278.9598,102.7202 261.9898,119.9182 257.7458,126.6582 C257.7458,126.6582 276.8158,112.0302 286.9678,107.1182 C319.2578,149.3922 343.6278,201.9702 352.9478,243.4142 C373.2538,334.2902 331.4778,356.7582 331.4778,356.7582" id="Fill-5" fill="#009BA0"/>
                    <path d="M213.221,60.438 C226.283,96.12 240.029,131.57 255.003,166.488 C262.539,183.92 270.331,201.262 279.167,218.048 C280.291,220.136 281.347,222.262 282.525,224.314 L286.103,230.45 C288.467,234.544 290.993,238.608 293.429,242.688 C298.161,250.948 302.817,259.266 306.883,267.89 C315.213,285.026 321.729,303.09 326.015,321.68 C328.191,330.966 329.851,340.356 331.375,349.74 C332.161,354.422 332.873,359.132 333.519,363.866 C334.091,368.594 334.659,373.322 335.121,378.058 C337.053,396.988 338.417,415.954 339.741,434.92 C341.031,453.89 342.175,472.864 343.191,491.852 C343.229,492.542 342.699,493.13 342.011,493.167922 C341.321,493.204 340.733,492.674 340.695,491.984 L340.695,491.978 C339.745,473.004 338.665,454.032 337.443,435.072 C336.185,416.118 334.887,397.158 333.023,378.268 C332.579,373.544 332.031,368.834 331.477,364.126 C330.853,359.442 330.163,354.754 329.391,350.06 C327.903,340.684 326.283,331.34 324.153,322.112 C319.963,303.64 313.561,285.704 305.337,268.63 C301.325,260.042 296.717,251.744 292.033,243.502 C289.611,239.416 287.133,235.398 284.759,231.256 L281.177,225.064 C279.997,222.994 278.945,220.858 277.825,218.758 C269.013,201.874 261.271,184.486 253.789,167.008 C238.919,132.004 225.293,96.5 212.347,60.75 C212.259,60.51 212.385,60.244 212.625,60.156 C212.867,60.068 213.135,60.196 213.221,60.438" id="Fill-7" fill="#000"/>
                    <path d="M58.6878,139.4418 L153.4198,205.0718 C169.2218,216.0298 184.2658,228.1018 198.3638,241.1918 C201.9418,244.4078 205.3158,247.8418 208.7858,251.1738 C212.1118,254.6498 215.5678,258.0038 218.7678,261.6018 C225.3598,268.6178 231.4738,276.0698 237.3678,283.6838 C243.1938,291.3578 248.5438,299.3918 253.4298,307.7118 C258.1358,316.1338 262.3558,324.8458 265.4158,334.0538 C266.1898,336.3418 266.7758,338.6818 267.4658,340.9938 C268.0938,343.3198 268.8798,345.6138 269.3718,347.9698 C270.4218,352.6678 271.6798,357.3278 272.5558,362.0598 C274.4938,371.4878 276.1238,380.9718 277.5998,390.4738 C283.3618,428.5118 286.8678,466.8138 289.3598,505.1878 C289.4038,505.8758 288.8818,506.4718 288.1938,506.518389 C287.5038,506.5598 286.9098,506.0378 286.8638,505.3478 L286.8638,505.3438 L286.8638,505.3238 C284.5258,467.0358 281.1658,428.7338 275.5658,390.7818 C274.1318,381.3018 272.5418,371.8418 270.6478,362.4498 C269.7938,357.7338 268.5618,353.1058 267.5358,348.4278 C267.0558,346.0778 266.2858,343.8158 265.6738,341.5038 C264.9998,339.2138 264.4258,336.8858 263.6718,334.6258 C260.7018,325.5678 256.5598,316.9238 251.9298,308.5658 C247.1198,300.3038 241.8418,292.3078 236.0798,284.6578 C230.2478,277.0678 224.1958,269.6298 217.6578,262.6198 C214.4898,259.0258 211.0598,255.6718 207.7598,252.1978 C204.3158,248.8658 200.9678,245.4318 197.4158,242.2138 C183.4138,229.1118 168.4698,217.0238 152.7458,206.0318 L58.2718,140.0418 C58.1058,139.9278 58.0638,139.6998 58.1798,139.5338 C58.2938,139.3678 58.5218,139.3258 58.6878,139.4418" id="Fill-9" fill="#000"/>
                    <path d="M613.0178,154.895 C580.8438,175.235 548.4818,195.275 516.1918,215.435 L492.0098,230.555 C484.1098,235.679 476.6958,241.627 469.5438,247.821 C462.3498,253.985 455.6518,260.705 449.0918,267.533 C445.9438,271.073 442.6298,274.465 439.6618,278.159 L435.1058,283.605 L430.7858,289.241 C424.9858,296.729 419.8638,304.697 415.0098,312.811 C413.8498,314.867 412.7758,316.973 411.6538,319.053 C410.5878,321.159 409.3378,323.179 408.4198,325.355 L405.5198,331.817 L404.0758,335.049 L402.8718,338.375 L400.4638,345.027 C399.6238,347.235 399.1718,349.559 398.5058,351.819 C397.9038,354.099 397.2478,356.353 396.6858,358.655 L395.1518,365.619 L389.1638,393.517 C381.4018,430.763 373.9698,468.091 366.9418,505.483 C366.8158,506.161 366.1658,506.611 365.4858,506.487 C364.8078,506.361 364.3578,505.707 364.4818,505.027 C371.4418,467.595 378.6498,430.215 386.5218,392.961 L392.5418,365.043 L394.0878,358.073 C394.6538,355.753 395.3278,353.437 395.9418,351.117 C396.6218,348.817 397.0918,346.445 397.9438,344.203 L400.3998,337.437 L401.6298,334.055 L403.0978,330.773 L406.0518,324.217 C406.9858,322.007 408.2518,319.963 409.3358,317.829 C410.4758,315.721 411.5658,313.587 412.7438,311.505 C417.6658,303.293 422.8598,295.237 428.7238,287.677 L433.0958,281.991 L437.6998,276.495 C440.7018,272.771 444.0478,269.349 447.2258,265.781 C453.8518,258.899 460.6138,252.127 467.8818,245.911 C475.1158,239.665 482.5858,233.675 490.6638,228.445 C498.7658,223.347 506.8838,218.467 514.9938,213.467 C547.4558,193.603 579.8478,173.621 612.4238,153.939 C612.6898,153.777 613.0358,153.861 613.1978,154.127 C613.3578,154.389 613.2758,154.731 613.0178,154.895" id="Fill-11" fill="#000"/>
                    <g id="Group-15" transform="translate(216.000000, 426.090000)">
                        <mask id="medium-plantsplant-4-mask-2" fill="#fff">
                            <use xlink:href="#medium-plantsplant-4-path-1"/>
                        </mask>
                        <g id="Clip-14"/>
                        <path d="M73.761,229.0002 L152.127,229.0002 C180.031,229.0002 203.369,225.7942 206.035,198.0182 L225.003,0.4042 L0.885,0.4042 L19.851,198.0182 C22.517,225.7942 45.855,229.0002 73.761,229.0002" id="Fill-13" fill="#F0F1FF" mask="url(#medium-plantsplant-4-mask-2)"/>
                    </g>
                </g>
            </g>
        </g>
        <g id="Table" transform="translate(545.000000, 1458.053163)">
            <rect id="Rectangle" fill="#F0F1FF" x="0" y="0" width="1057" height="40" rx="13"/>
            <rect id="Rectangle-Copy-3" fill="#BACCFF" x="0" y="0" width="369" height="40" rx="13"/>
            <rect id="Rectangle" fill="#C7D2F2" x="728" y="40" width="239" height="552"/>
            <rect id="Rectangle-Copy-2" fill="#C7D2F2" x="86" y="40" width="239" height="552"/>
        </g>
        <g id="Monitor" transform="translate(791.000000, 936.053163)">
            <rect id="Rectangle" fill="#FFB201" x="0" y="0" width="619" height="441" rx="20"/>
            <rect id="Rectangle-Copy-5" fill="#FFF" x="26" y="24" width="569" height="356"/>
            <g id="Character" transform="translate(26.000000, 24.000000)">
                <mask id="masterbackgroundwork-from-home-mask-2" fill="#fff">
                    <use xlink:href="#masterbackgroundwork-from-home-path-1"/>
                </mask>
                <use id="Mask" fill="#FBFDFF" xlink:href="#masterbackgroundwork-from-home-path-1"/>
                <g mask="url(#masterbackgroundwork-from-home-mask-2)">
                    <g transform="translate(-256.103516, -533.853963) scale(1 1)" id="Master/Character/Avatar">
                        <g id="Master/Character/Avatar" stroke="none" stroke-width="1" fill="none" fill-rule="evenodd">
                            <path d="M568.972307,747.517402 C568.972307,747.517402 562.254058,789.694548 568.762956,802.264565 C573.945634,812.273819 604.523831,825.962858 604.523831,825.962858 L610,855.345184 L496.468913,867 C483.331918,864.085547 435.777296,851.899195 450.956711,832.851838 C466.135125,813.804481 498.290964,808.552071 503.517715,800.109448 C513.553518,783.900611 515.387589,750.951401 515.111126,738.505277 C515.111126,735.413978 568.972307,747.517402 568.972307,747.517402" id="neck" fill="#ff8282"/>
                            <g id="t-shirt" transform="translate(386.000000, 812.000000)">
                                <path d="M89.4468,0.0136764189 C102.8688,2.67167642 149.2358,34.6536764 177.6858,31.5776764 C192.0658,30.0236764 203.8198,5.46367642 204.2708,4.91467642 C204.576334,4.54492662 218.843092,11.9835019 231.055751,19.7322048 L231.0582,19.7031764 L231.0582,19.7031764 C231.135221,19.7651796 231.222432,19.8308242 231.319419,19.9003197 C231.863961,20.2463015 232.403006,20.5926111 232.936312,20.9387644 C239.599781,25.0355541 258.899602,36.4407721 265.3982,68.0261764 C268.0352,80.8401764 285.0832,128.800176 300.1392,167.597176 C288.335776,185.699803 275.3929,186.242882 241.16511,186.259174 L237.927661,186.259678 L237.927661,186.259678 C229.857644,186.259678 155.328216,189.846496 72.662627,186.259678 C38.2055127,184.764601 8.73269423,183.264728 1.25005975,158 C-2.84486358,144.173704 13.2909823,83.3129264 12.1768,74.8846764 C8.8578,49.7816764 26.8658,32.3416764 33.1348,27.1536764 C54.0788,9.82167642 87.2148,-0.427323581 89.4468,0.0136764189 Z" id="T-Shirt" fill="#FF0057"/>
                                <path d="M255.6453,102.608676 C258.0363,112.136676 258.064419,120.171504 257.606419,129.951504 C256.453079,147.259988 253.873594,145.961005 249.782594,166.732005 C247.698594,177.309005 246.534594,183.736005 245.868594,185.399005 C244.964594,187.656005 245.234594,181.318005 247.753594,166.371005 C250.267594,149.368005 252.892902,151.271638 254.510902,134.292638 C256.128902,117.313638 255.5623,114.940676 252.8243,102.383676 C250.3413,91.3246764 246.4643,81.4866764 243.1413,70.6196764 C242.9503,69.1046764 239.1053,59.6106764 241.0533,61.0176764 C245.5873,74.8956764 251.9913,88.4526764 255.6453,102.608676 Z" id="Fill-15" fill="#090E2B"/>
                                <path d="M96.8404,74.2851764 C93.7574,101.612176 89.1684,128.761176 83.1614,155.596176 C82.2654,157.756176 75.4204,187.256176 75.1164,182.060176 C75.0774,181.382176 75.2134,180.032176 75.3544,179.363176 C80.6594,154.144176 86.1554,126.484176 90.7034,101.126176 C90.7044,101.126176 95.4114,74.0911764 95.4114,74.0911764 C95.5384,73.2221764 96.9564,73.3601764 96.8404,74.2851764" id="Fill-17" fill="#090E2B"/>
                            </g>
                            <g id="Head" transform="translate(398.000000, 525.000000) scale(1 1)">
                                <g id="Head/Ponytail Blue" stroke="none" stroke-width="1" fill="none" fill-rule="evenodd">
                                    <path d="M186.9964,62.8355 C217.2344,59.0265 198.7284,80.4845 209.6584,91.4535 C220.2254,102.0605 236.9284,103.5395 237.5074,152.7225 C237.7864,176.3945 249.110317,198.629791 229.121449,243.279848 C221.151174,261.083419 203.0324,276.4905 190.8944,276.4905 C159.5154,276.4905 114.5994,224.9675 114.5994,224.9675 C111.678535,222.113515 109.230749,218.089598 107.213306,213.593181 C99.2318415,214.610508 84.28954,210.476592 79.7281,197.7576 C76.4331,188.5696 78.6431,175.6606 85.5011,173.7346 C91.6130979,172.016106 96.5055762,174.28179 100.299595,177.50238 C107.532681,158.534519 158.929296,66.3728944 186.9964,62.8355 Z" id="Combined-Shape" fill="#ff8282"/>
                                    <path d="M102.4979,192.4939 C99.6249,186.7259 92.7039,183.1519 86.7259,187.1879 C85.3729,188.1009 87.2409,188.1409 87.8109,188.0779 C94.9129,187.1489 97.6879,189.6729 100.0209,193.7109 C97.7899,194.2579 95.5609,196.2429 95.2749,198.4849 C95.1019,199.8609 95.8059,204.2659 96.2729,202.6739 C96.5259,201.8099 95.9119,195.5269 101.2009,196.0799 C101.2809,196.0979 103.1299,199.2849 103.6499,199.5149 C104.5389,199.9079 103.8099,195.1309 102.4979,192.4939" id="Fill-10" fill="#090E2B"/>
                                    <path d="M138.080287,248.001974 C138.792924,248.108023 144.270382,252.072286 145.939382,253.386286 C152.268382,258.363286 157.59636,262.084659 165.385454,267.257016 C166.885041,268.252818 170.414336,270.174143 170.322336,270.650143 C170.189336,271.322143 165.46035,270.219413 164.070319,269.514911 C155.808854,265.327792 147.737728,257.41647 141.985788,252.274316 C140.105418,250.593292 137.509424,247.917023 138.080287,248.001974 Z" id="Fill-12" fill="#090E2B"/>
                                    <path d="M150.6438,159.4289 C163.984666,146.458309 179.2618,130.0339 179.2618,124.3129 C176.5508,140.2049 176.4468,144.5609 170.5558,158.0789 C179.5208,154.1709 199.725465,124.3129 201.3348,106.377934 C213.9648,132.779934 228.478637,120.306515 237.1438,152.9279 C246.6318,140.8489 240.4388,89.8279 220.3338,70.9229 C211.6178,62.7269 205.1038,63.8029 201.3348,64.9799 C195.935366,37.9444845 157.374931,41.3367027 147.9268,45.1285 C149.2828,21.6085 130.4668,-22.9851 111.4908,-23.6201 C92.5158,-24.2561 52.2558,-29.6931 26.6028,33.8829 C16.2298,59.5889 16.2568,72.5719 39.1068,138.3549 C48.9488,166.6939 7.8818,175.9439 11.1898,178.9579 C18.8538,185.9379 59.6718,185.0439 65.5088,154.3809 C71.4848,122.9839 70.1318,121.3729 71.5848,111.8539 C70.3138,128.9209 72.127286,151.126397 90.373286,171.901397 C97.223286,177.556397 100.6148,174.0549 110.0338,188.1449 C111.8428,190.8499 117.6018,205.7239 119.8378,200.8289 C122.5318,194.9299 115.5928,174.7089 117.4608,174.5329 C124.2378,173.8969 140.347601,169.439329 150.6438,159.4289 Z" id="Fill-3" fill="#001386"/>
                                    <path d="M122.036418,49.6342397 C130.50821,45.6673042 140.939866,43.6629013 147.9268,45.1285 C151.0178,37.6225 147.8908,35.6535 147.8908,35.6535 C147.8908,35.6535 140.5188,28.6145 126.1018,34.7965 C111.6838,40.9785 106.434868,52.0960291 106.661062,54.6087238 C106.811407,56.2788379 107.62493,57.5814173 109.9168,57.7575 C109.9168,57.7575 115.59775,52.6491608 122.036418,49.6342397 Z" id="Fill-6" fill="#FF00A4"/>
                                </g>
                            </g>
                            <g id="Expressions" transform="translate(519.000000, 658.000000) scale(1 1)">
                                <g id="Expressions/Closed Eyes" stroke="none" stroke-width="1" fill="none" fill-rule="evenodd">
                                    <path d="M24.0758,24.1794 C25.8519526,16.1964843 49.2248,13.3983582 59.5098,19.5793582 C63.0658,21.6923582 69.6698,27.4974 63.8228,30.6574 C62.2788,31.3294 60.7788,30.6404 59.5098,29.8214 C45.4918,20.0794 22.8376733,29.744159 24.0758,24.1794 Z" id="Fill-1" fill="#090E2B" transform="translate(45.086940, 23.571248) rotate(-18.000000) translate(-45.086940, -23.571248)"/>
                                    <path d="M104.459159,16.8614287 C107.81301,18.3491596 112.277799,23.2873 108.5609,23.2873 C104.844001,23.2873 96.7934026,22.2328903 91.3964026,24.4598903 C89.5114026,24.9418903 88.0809,25.8643 86.1879,26.0893 C81.8799,26.9283 79.5392891,21.768575 82.5852341,18.6492261 C86.0262801,15.1252544 97.6431592,13.4544287 104.459159,16.8614287 Z" id="Fill-4" fill="#090E2B" transform="translate(95.584306, 20.590227) rotate(7.000000) translate(-95.584306, -20.590227)"/>
                                    <path d="M85.9879908,71.3386563 C85.0131141,76.2575144 78.9689699,76.7359636 75.0323155,75.6212963 C71.832522,74.7152719 71.0034674,72.851321 72.0853454,72.2537752 C73.8485675,71.2799076 79.4997296,73.9889887 81.5858367,71.4027854 C85.305606,66.7912866 73.8914605,49.8346319 77.5177277,52.5592059 C82.3102149,56.1600121 86.6386051,68.0559034 85.9879908,71.3386563 Z" id="nose" fill="#090E2B"/>
                                    <path d="M94.6387968,89.5818454 C93.8707672,90.1602445 92.0677709,92.5463983 90.244688,94.0617056 C86.1444698,97.4697185 79.4745751,98.2530639 75.5444286,97.4697185 C68.1559339,95.997065 64.9595527,91.178225 63.0067117,89.8585998 C61.0538707,88.5389745 64.7200172,86.8442758 67.5249361,87.0931395 C70.3298551,87.3420033 72.2123883,88.156182 77.5654423,90.4592717 C81.0199316,91.9455259 88.8310598,89.8585998 91.0381944,88.5389745 C95.2484115,86.021725 96.5113061,88.1716685 94.6387968,89.5818454 Z" id="Fill-18" fill="#090E2B" transform="translate(78.969908, 92.408667) rotate(-6.000000) translate(-78.969908, -92.408667)"/>
                                    <path d="M62.9346,45.1127 C63.5536,52.7587 53.9286,57.6257 45.7636,53.8057 C41.5576,51.8397 39.4146,48.8787 40.4396,47.6417 C41.0956,46.8497 42.9666,47.9757 43.5896,48.3457 C51.8656,53.2667 58.4216,48.8247 60.4226,44.4177 C61.2046,42.6977 62.7356,42.6557 62.9346,45.1127" id="Fill-5" fill="#090E2B"/>
                                    <path d="M105.17,42.8109 C104.522,45.9149 103.316,47.4849 101.796,48.5889 C97.365,51.8059 90.136,48.5859 88.754,45.6209 C87.72,43.4039 89.161,43.3499 90.849,44.4009 C93.526,46.0709 96.073,46.4129 97.758,46.0939 C100.996,45.4829 102.535,42.2249 103.701,40.8829 C104.335,40.1539 105.675,40.3949 105.17,42.8109" id="Fill-7" fill="#090E2B"/>
                                </g>
                            </g>
                            <g id="Facial Accesories" transform="translate(516.000000, 708.000000) scale(1 1)" fill="#000">
                                <g id="Facial Accesories/None" stroke="none" stroke-width="1" fill="none" fill-rule="evenodd" fill-opacity="0"/>
                            </g>
                            <g id="Glass" transform="translate(519.000000, 663.000000) scale(1 1)" fill="#000">
                                <g id="Glass/None" stroke="none" stroke-width="1" fill="none" fill-rule="evenodd" fill-opacity="0"/>
                            </g>
                        </g>
                    </g>
                </g>
                <path d="M49.0625,50 L49.0625,46.71875 L41.5332031,46.71875 L41.5332031,46.6455078 L48.8867188,37.0068359 L48.8867188,34.296875 L36.2158203,34.296875 L36.2158203,37.5634766 L43.9208984,37.5634766 L43.9208984,37.6513672 L36.0986328,47.5683594 L36.0986328,50 L49.0625,50 Z M58.7597656,50.3369141 C63.5058594,50.3369141 66.5380859,47.3046875 66.5380859,42.1337891 C66.5380859,37.0361328 63.4619141,33.9599609 58.7597656,33.9599609 C54.0576172,33.9599609 50.9814453,37.0507812 50.9814453,42.1337891 C50.9814453,47.2900391 54.0136719,50.3369141 58.7597656,50.3369141 Z M58.7597656,47.0703125 C56.6503906,47.0703125 55.3173828,45.2978516 55.3173828,42.1484375 C55.3173828,39.0283203 56.6796875,37.2265625 58.7597656,37.2265625 C60.8398438,37.2265625 62.1875,39.0283203 62.1875,42.1484375 C62.1875,45.2978516 60.8544922,47.0703125 58.7597656,47.0703125 Z M77.1142578,50.46875 C82.4316406,50.46875 85.6542969,46.2060547 85.6542969,39.3798828 C85.6542969,32.5537109 82.4023438,28.3789062 77.1142578,28.3789062 C71.8261719,28.3789062 68.5595703,32.5683594 68.5595703,39.3945312 C68.5595703,46.2353516 71.796875,50.46875 77.1142578,50.46875 Z M77.1142578,46.9238281 C74.5947266,46.9238281 73.0566406,44.1992188 73.0566406,39.3945312 C73.0566406,34.6337891 74.6240234,31.9238281 77.1142578,31.9238281 C79.6191406,31.9238281 81.1572266,34.6191406 81.1572266,39.3945312 C81.1572266,44.2138672 79.6337891,46.9238281 77.1142578,46.9238281 Z M95.46875,50.3369141 C100.214844,50.3369141 103.24707,47.3046875 103.24707,42.1337891 C103.24707,37.0361328 100.170898,33.9599609 95.46875,33.9599609 C90.7666016,33.9599609 87.6904297,37.0507812 87.6904297,42.1337891 C87.6904297,47.2900391 90.7226562,50.3369141 95.46875,50.3369141 Z M95.46875,47.0703125 C93.359375,47.0703125 92.0263672,45.2978516 92.0263672,42.1484375 C92.0263672,39.0283203 93.3886719,37.2265625 95.46875,37.2265625 C97.5488281,37.2265625 98.8964844,39.0283203 98.8964844,42.1484375 C98.8964844,45.2978516 97.5634766,47.0703125 95.46875,47.0703125 Z M109.72168,50 L109.72168,40.5224609 C109.72168,38.7646484 110.820312,37.5341797 112.446289,37.5341797 C114.02832,37.5341797 114.980469,38.5302734 114.980469,40.2148438 L114.980469,50 L119.09668,50 L119.09668,40.4638672 C119.09668,38.7207031 120.166016,37.5341797 121.791992,37.5341797 C123.447266,37.5341797 124.355469,38.5302734 124.355469,40.3466797 L124.355469,50 L128.632812,50 L128.632812,39.2773438 C128.632812,36.1132812 126.567383,34.0039062 123.491211,34.0039062 C121.191406,34.0039062 119.316406,35.2490234 118.613281,37.2265625 L118.525391,37.2265625 C117.998047,35.1757812 116.416016,34.0039062 114.145508,34.0039062 C112.006836,34.0039062 110.322266,35.2490234 109.663086,37.1386719 L109.575195,37.1386719 L109.575195,34.296875 L105.444336,34.296875 L105.444336,50 L109.72168,50 Z" id="zo0om" fill="#000" fill-rule="nonzero" mask="url(#masterbackgroundwork-from-home-mask-2)"/>
            </g>
            <rect id="Rectangle" fill="#F67A49" x="254" y="441" width="119" height="57"/>
            <path d="M198,498 L428,498 C436.284271,498 443,504.715729 443,513 L443,524 L443,524 L183,524 L183,513 C183,504.715729 189.715729,498 198,498 Z" id="Rectangle-Copy-4" fill="#FFB201"/>
        </g>
        <g id="Chair" transform="translate(1776.000000, 1654.000000) scale(-1, 1) translate(-1776.000000, -1654.000000) translate(1476.000000, 1254.000000) scale(0.8571428571428571 1)">
            <g id="Chair/Tall Chair 2" stroke="none" stroke-width="1" fill="none" fill-rule="evenodd">
                <g id="Group" transform="translate(150.000000, 169.000000)">
                    <path d="M322.77787,249.880468 C322.347405,248.021078 320.683897,246.630108 318.692311,246.622411 L318.658182,246.622411 L156.340052,245.99972 L156.32574,245.99972 C154.122775,245.990152 152.127886,247.502075 151.614851,249.737523 L74.0695961,627.630966 C73.7349127,629.095607 74.638778,630.563547 76.1052196,630.917612 C77.5826705,631.273876 79.0700298,630.367822 79.4278327,628.892185 L160.163589,255.682956 L315.32566,255.088083 L395.570401,628.892185 C395.922699,630.356826 397.393544,631.269478 398.866592,630.928608 C400.348446,630.586639 401.271027,629.111001 400.928637,627.630966 L322.77787,249.880468 Z" id="Fill-4" fill="#090E2B"/>
                    <path d="M265.77787,249.880468 C265.347405,248.021078 263.683897,246.630108 261.692311,246.622411 L261.658182,246.622411 L99.3400519,245.99972 L99.3257398,245.99972 C97.1227746,245.990152 95.1278856,247.502075 94.6148512,249.737523 L17.0695961,627.630966 C16.7349127,629.095607 17.638778,630.563547 19.1052196,630.917612 C20.5826705,631.273876 22.0700298,630.367822 22.4278327,628.892185 L103.163589,255.682956 L258.32566,255.088083 L338.570401,628.892185 C338.922699,630.356826 340.393544,631.269478 341.866592,630.928608 C343.348446,630.586639 344.271027,629.111001 343.928637,627.630966 L265.77787,249.880468 Z" id="Fill-4-Copy" fill="#090E2B"/>
                    <path d="M58.1921488,41.2196463 C66.3085398,81.4190302 112.030062,206.924243 136.697616,221.042896 C161.365171,235.160391 305.423549,232.409824 322.322031,233.819837 C339.220514,235.231007 357.527877,245.104572 354.711271,263.44053 C351.894665,281.777645 344.853727,276.135278 295.566004,276.135278 C246.278282,276.135278 130.805511,276.954891 130.805511,276.954891 C130.805511,276.954891 71.0083919,280.665147 46.3951587,220.787056 C23.8530616,165.945883 3.90856718,64.7475273 1.09196081,46.4104117 C-1.72348979,28.0732961 0.311817478,5.58486122 14.2642476,1.0202623 C24.8279662,-2.43531157 50.0757579,1.0202623 58.1921488,41.2196463 Z" id="Fill-1" fill="#008BF2"/>
                </g>
            </g>
        </g>
        <g id="Clock" transform="translate(1467.000000, 353.000000)">
            <path d="M299.456,151.596 C299.456,235.32 232.42,303.192 149.724,303.192 C67.036,303.192 -8.52651283e-13,235.32 -8.52651283e-13,151.596 C-8.52651283e-13,67.872 67.036,0 149.724,0 C232.42,0 299.456,67.872 299.456,151.596" id="Fill-1" fill="#C7D2F2"/>
            <path d="M283.2176,151.596 C283.2176,226.24 223.4536,286.752 149.7256,286.752 C76.0016,286.752 16.2376,226.24 16.2376,151.596 C16.2376,76.952 76.0016,16.44 149.7256,16.44 C223.4536,16.44 283.2176,76.952 283.2176,151.596" id="Fill-3" fill="#F9FAFA"/>
            <path d="M160.9052,151.596 C160.9052,157.844 155.9012,162.912 149.7252,162.912 C143.5532,162.912 138.5492,157.844 138.5492,151.596 C138.5492,145.344 143.5532,140.276 149.7252,140.276 C155.9012,140.276 160.9052,145.344 160.9052,151.596" id="Fill-5" fill="#C7D2F2"/>
            <polygon id="Fill-7" fill="#C7D2F2" points="147.194 46.1016 152.566 46.1016 152.566 21.3776 147.194 21.3776"/>
            <polygon id="Fill-9" fill="#C7D2F2" points="147.194 281.9576 152.566 281.9576 152.566 257.2336 147.194 257.2336"/>
            <polygon id="Fill-10" fill="#C7D2F2" points="254.146 154.3856 278.562 154.3856 278.562 148.9456 254.146 148.9456"/>
            <polygon id="Fill-11" fill="#C7D2F2" points="21.19 154.3856 45.61 154.3856 45.61 148.9456 21.19 148.9456"/>
            <polygon id="Fill-12" fill="#C7D2F2" points="146.9248 147.68 149.9288 61.968 152.9368 147.68"/>
            <polygon id="Fill-13" fill="#C7D2F2" points="146.452 153.1252 88.768 90.3172 150.704 148.8252"/>
        </g>
        <g id="Floor" transform="translate(465.209230, 2052.500000)">
            <line x1="0" y1=".5" x2="639.291" y2="1" id="Path-4" stroke="#090E2B" stroke-width="7" stroke-linecap="round" stroke-linejoin="round"/>
            <path d="M740.002105,-2.99999937 L1571.29288,-2.49999937 C1573.22587,-2.49883672 1574.79077,-0.930891115 1574.79077,1.00210516 C1574.79077,2.87066823 1573.32445,4.39635027 1571.4807,4.49493601 L1571.28866,4.50000063 L739.997895,4.00000063 C738.064899,3.99883672 736.5,2.43089112 736.5,0.49789484 C736.5,-1.37066823 737.96632,-2.89635027 739.810067,-2.99493601 L740.002105,-2.99999937 Z" id="Path-4-Copy-2" fill="#090E2B" fill-rule="nonzero"/>
            <path d="M2161.29077,-2.5 C2163.22377,-2.5 2164.79077,-0.932996624 2164.79077,1 C2164.79077,2.8685634 2163.32649,4.39512645 2161.48281,4.49482114 L2161.29077,4.5 L1875.29077,4.5 C1873.35777,4.5 1871.79077,2.93299662 1871.79077,1 C1871.79077,-0.868563404 1873.25505,-2.39512645 1875.09873,-2.49482114 L1875.29077,-2.5 L2161.29077,-2.5 Z" id="Path-4-Copy-3" fill="#090E2B" fill-rule="nonzero"/>
            <path d="M0.00273740768,-2.99999893 L639.293507,-2.49999893 C641.226503,-2.4984871 642.79077,-0.930258626 642.79077,1.00273741 C642.79077,2.87130024 641.323836,4.39671758 639.480072,4.49497026 L639.288032,4.50000107 L-0.00273740768,4.00000107 C-1.93573344,3.9984871 -3.50000002,2.43025863 -3.50000002,0.497262592 C-3.50000002,-1.37130024 -2.03306639,-2.89671758 -0.189301787,-2.99497026 L0.00273740768,-2.99999893 Z" id="Path-4-Copy" fill="#090E2B" fill-rule="nonzero"/>
        </g>
        <g id="Medium Plants" transform="translate(213.000000, 1254.000000) scale(1 1)">
            <defs>
                <polygon id="medium-plantsplant-4-path-1" points="0.885 0.4042 225.003 0.4042 225.003 229 0.885 229"/>
            </defs>
            <g id="Medium Plants/Plant 4" stroke="none" stroke-width="1" fill="none" fill-rule="evenodd">
                <g id="Group-16" transform="translate(94.000000, 144.000000)">
                    <path d="M662.512,98.475 C662.512,98.475 654.898,157.099 541.284,228.111 C510.266,247.427 495.952,267.763 485.27,286.623 C475.046,289.917 459.708,294.121 450.39,293.439 C450.39,293.439 464.366,297.417 479.476,297.417 C464.82,325.253 450.172,348.431 395.524,357.747 C395.524,357.747 337.882,323.167 382.904,223.567 C394.72,233.791 410.058,253.105 410.058,253.105 C408.24,238.223 394.606,221.181 387.79,213.453 C387.902,213.341 387.902,213.227 388.016,213.113 C421.08,151.081 484.704,148.921 545.942,145.173 C545.26,153.465 543.216,165.851 537.876,175.393 C537.876,175.393 554.122,163.123 559.122,144.263 C569.232,143.581 579.232,142.673 589.002,141.309 C617.178,137.445 647.174,121.881 662.512,98.475" id="Fill-1" fill="#009BA0"/>
                    <path d="M10.3910291,113.374429 C25.9612131,111.077316 44.3658046,110.707752 64.7231199,113.490176 C92.7811,117.325122 121.021718,126.762182 148.555346,143.024165 C148.887306,143.220228 149.073691,143.586985 149.043724,143.964048 L149.025625,144.089897 L141.939,177.971 L157.743907,149.967727 C158.008197,149.499404 158.589421,149.329819 159.058442,149.562859 L159.164491,149.623832 C168.811192,155.971576 178.331005,163.262123 187.817736,171.593001 C223.39881,202.762455 245.340792,234.773338 256.182175,266.376895 C263.611965,288.035365 265.047051,306.790526 263.048678,321.394825 C262.965152,322.005241 262.878548,322.576963 262.790336,323.109279 L262.656999,323.878111 L262.522354,324.587303 L262.387427,325.234372 L262.270923,325.733668 L262.231693,325.848056 L262.19283,325.931313 L262.135104,326.027965 L262.067638,326.116488 L261.991346,326.196343 L261.937861,326.243242 L261.839616,326.313749 L261.734763,326.371215 L261.723,326.375 C261.685299,326.393589 261.651094,326.406878 261.616178,326.418272 L261.510483,326.446248 L261.39938,326.463179 L261.286874,326.467227 L261.15729,326.45616 L261.040332,326.431323 L260.925944,326.392093 L260.842687,326.35323 L260.746035,326.295504 L260.710128,326.269686 C256.52596,323.158633 252.280858,320.451042 247.848299,318.035552 L246.822015,317.483266 L245.861482,316.978041 C245.701612,316.894826 245.541821,316.812091 245.382062,316.729817 L244.423531,316.241522 L243.46357,315.763265 C243.303334,315.684336 243.142946,315.605784 242.982361,315.527589 L242.016105,315.062517 L241.042887,314.604988 L240.060495,314.154002 C239.895875,314.079328 239.730781,314.004885 239.565167,313.930652 L238.564865,313.48761 C238.396984,313.414134 238.22849,313.340828 238.059338,313.267669 L237.036148,312.830324 L235.994935,312.395529 L234.933485,311.962285 C234.754768,311.890152 234.575115,311.818041 234.394481,311.745933 L233.298528,311.313144 C233.113784,311.240962 232.927966,311.16874 232.741028,311.096458 L231.605595,310.661878 L230.441076,310.224855 L229.245259,309.784392 L228.015931,309.339488 L226.104266,308.661626 L224.781482,308.201256 L223.417444,307.732952 L221.289196,307.013436 L219.812343,306.520928 L206.810764,302.22715 L202.409619,300.749307 L199.321756,299.691506 L196.319463,298.634097 L194.165491,297.849018 L192.409498,297.187179 L190.967544,296.62652 L189.08907,295.871239 L188.094412,295.46009 L187.031034,295.012617 L185.945089,294.548128 L184.825843,294.062648 L183.662562,293.5522 L181.811596,292.731019 L181.160962,292.440501 C165.668155,285.513952 150.417057,276.554523 133.881881,264.18801 C133.381817,263.814016 133.349536,263.089033 133.784048,262.669558 L133.884302,262.584585 L154.071,247.581 L128.318251,259.139532 C128.025678,259.270838 127.690765,259.252896 127.41632,259.097547 L127.302702,259.02259 L126.20091,258.173175 L124.740219,257.019217 L123.435516,255.968337 L121.948112,254.755968 C114.317692,248.488973 106.440774,241.063179 98.5597118,232.878472 L96.8083948,231.047319 C93.8897479,227.975117 90.972995,224.802876 88.070449,221.550911 L86.3307248,219.590328 C86.0410878,219.262024 85.7516174,218.932963 85.462326,218.603166 L83.7288245,216.615711 C83.4402984,216.28305 83.1519759,215.949693 82.8638695,215.615661 L81.1379203,213.603528 L79.417745,211.576162 L77.7039343,209.534539 C77.4188625,209.193134 77.1340804,208.851176 76.8496005,208.508685 L75.1464452,206.447503 C74.8632231,206.102961 74.5803277,205.757926 74.2977714,205.412419 L72.6066012,203.333873 C72.3254505,202.986559 72.0446635,202.638813 71.7642524,202.290656 L70.0863971,200.19694 L68.4181571,198.094331 C68.1409512,197.743209 67.8641706,197.391757 67.5878275,197.039995 L65.9351187,194.925873 C65.3860317,194.220035 64.8387936,193.513121 64.2935028,192.805294 L62.6635708,190.679234 L61.0459137,188.548669 C60.7773599,188.193253 60.5093422,187.837691 60.241873,187.482001 L58.6437364,185.346505 C58.37851,184.99039 58.1138565,184.634188 57.8497884,184.277921 L56.2725023,182.139689 C55.7491472,181.42679 55.228232,180.71379 54.7098551,180.000852 L53.162438,177.862384 L51.6308419,175.725263 L50.1156579,173.590461 L48.7570018,171.686355 L47.4092365,169.813079 C47.1855176,169.503427 46.9622533,169.195054 46.7394439,168.887957 L45.4080508,167.060658 L44.0875961,165.263833 L42.7780991,163.497338 L41.4795787,161.761033 L40.1920541,160.054772 L38.9155442,158.378416 L37.6500681,156.73182 L36.3956449,155.114842 L35.1522937,153.52734 L33.9200334,151.969172 L32.6988832,150.440194 C32.4962851,150.187789 32.2941507,149.936594 32.0924804,149.686607 L30.888031,148.201148 L29.6947393,146.744523 C29.4967882,146.504147 29.2993028,146.264966 29.1022835,146.026978 L27.925764,144.613338 L26.7604499,143.228175 C26.5671658,142.99968 26.3743493,142.772365 26.1820008,142.546228 L25.0335304,141.203515 L23.896313,139.888924 L22.7703676,138.602312 L21.6557133,137.343536 L20.5523691,136.112454 L19.4603542,134.908924 L18.3796874,133.732803 L17.310388,132.583948 C17.1331198,132.394736 16.956326,132.206655 16.780007,132.0197 L15.7277942,130.911478 L14.6869965,129.830165 L13.6576327,128.77562 C13.4870259,128.602086 13.3168964,128.42966 13.1472445,128.258341 L12.1115509,127.220503 C11.7708102,126.88174 11.4345633,126.550135 11.1028205,126.225611 L10.1211146,125.273206 C9.79839023,124.962768 9.48018011,124.659334 9.16649449,124.362829 L8.23902135,123.494021 L7.3387565,122.666324 C7.19098312,122.531774 7.04434597,122.398919 6.89884633,122.267748 L6.0395088,121.500855 L5.20753274,120.773924 L4.40297942,120.086498 C4.27117583,119.975193 4.14051741,119.865515 4.01100544,119.757455 L3.28328667,119.157441 L2.63493837,118.636079 C2.53098592,118.553585 2.42908819,118.473276 2.32924806,118.395131 L1.7549214,117.952054 C1.66332316,117.882478 1.57378826,117.815022 1.4863196,117.749665 L0.960618641,117.363961 L0.574456463,117.092618 L0.458066013,117.015105 C-0.270580867,116.544264 -0.0950827257,115.432463 0.74316699,115.208957 L1.39498615,115.046932 L2.25696813,114.847912 L2.91069485,114.704838 L3.26106716,114.630479 C3.77113547,114.523314 4.30265292,114.416183 4.85530049,114.309527 L5.98867462,114.096981 L7.17782865,113.886491 L8.42219547,113.678844 L9.72120796,113.474829 C9.94223234,113.441173 10.16551,113.407701 10.3910291,113.374429 Z" id="Fill-3" fill="#017C7F" fill-rule="nonzero"/>
                    <path d="M331.4778,356.7582 C331.4778,356.7582 277.8958,340.8782 240.0318,272.3862 C252.9298,268.6422 261.2518,259.9882 261.2518,259.9882 C252.0978,262.5682 235.4538,263.6502 235.4538,263.6502 C156.6878,164.7222 196.4138,0.0002 196.4138,0.0002 C205.1518,21.7202 248.5858,52.7902 283.7858,98.4742 C278.9598,102.7202 261.9898,119.9182 257.7458,126.6582 C257.7458,126.6582 276.8158,112.0302 286.9678,107.1182 C319.2578,149.3922 343.6278,201.9702 352.9478,243.4142 C373.2538,334.2902 331.4778,356.7582 331.4778,356.7582" id="Fill-5" fill="#009BA0"/>
                    <path d="M213.221,60.438 C226.283,96.12 240.029,131.57 255.003,166.488 C262.539,183.92 270.331,201.262 279.167,218.048 C280.291,220.136 281.347,222.262 282.525,224.314 L286.103,230.45 C288.467,234.544 290.993,238.608 293.429,242.688 C298.161,250.948 302.817,259.266 306.883,267.89 C315.213,285.026 321.729,303.09 326.015,321.68 C328.191,330.966 329.851,340.356 331.375,349.74 C332.161,354.422 332.873,359.132 333.519,363.866 C334.091,368.594 334.659,373.322 335.121,378.058 C337.053,396.988 338.417,415.954 339.741,434.92 C341.031,453.89 342.175,472.864 343.191,491.852 C343.229,492.542 342.699,493.13 342.011,493.167922 C341.321,493.204 340.733,492.674 340.695,491.984 L340.695,491.978 C339.745,473.004 338.665,454.032 337.443,435.072 C336.185,416.118 334.887,397.158 333.023,378.268 C332.579,373.544 332.031,368.834 331.477,364.126 C330.853,359.442 330.163,354.754 329.391,350.06 C327.903,340.684 326.283,331.34 324.153,322.112 C319.963,303.64 313.561,285.704 305.337,268.63 C301.325,260.042 296.717,251.744 292.033,243.502 C289.611,239.416 287.133,235.398 284.759,231.256 L281.177,225.064 C279.997,222.994 278.945,220.858 277.825,218.758 C269.013,201.874 261.271,184.486 253.789,167.008 C238.919,132.004 225.293,96.5 212.347,60.75 C212.259,60.51 212.385,60.244 212.625,60.156 C212.867,60.068 213.135,60.196 213.221,60.438" id="Fill-7" fill="#000"/>
                    <path d="M58.6878,139.4418 L153.4198,205.0718 C169.2218,216.0298 184.2658,228.1018 198.3638,241.1918 C201.9418,244.4078 205.3158,247.8418 208.7858,251.1738 C212.1118,254.6498 215.5678,258.0038 218.7678,261.6018 C225.3598,268.6178 231.4738,276.0698 237.3678,283.6838 C243.1938,291.3578 248.5438,299.3918 253.4298,307.7118 C258.1358,316.1338 262.3558,324.8458 265.4158,334.0538 C266.1898,336.3418 266.7758,338.6818 267.4658,340.9938 C268.0938,343.3198 268.8798,345.6138 269.3718,347.9698 C270.4218,352.6678 271.6798,357.3278 272.5558,362.0598 C274.4938,371.4878 276.1238,380.9718 277.5998,390.4738 C283.3618,428.5118 286.8678,466.8138 289.3598,505.1878 C289.4038,505.8758 288.8818,506.4718 288.1938,506.518389 C287.5038,506.5598 286.9098,506.0378 286.8638,505.3478 L286.8638,505.3438 L286.8638,505.3238 C284.5258,467.0358 281.1658,428.7338 275.5658,390.7818 C274.1318,381.3018 272.5418,371.8418 270.6478,362.4498 C269.7938,357.7338 268.5618,353.1058 267.5358,348.4278 C267.0558,346.0778 266.2858,343.8158 265.6738,341.5038 C264.9998,339.2138 264.4258,336.8858 263.6718,334.6258 C260.7018,325.5678 256.5598,316.9238 251.9298,308.5658 C247.1198,300.3038 241.8418,292.3078 236.0798,284.6578 C230.2478,277.0678 224.1958,269.6298 217.6578,262.6198 C214.4898,259.0258 211.0598,255.6718 207.7598,252.1978 C204.3158,248.8658 200.9678,245.4318 197.4158,242.2138 C183.4138,229.1118 168.4698,217.0238 152.7458,206.0318 L58.2718,140.0418 C58.1058,139.9278 58.0638,139.6998 58.1798,139.5338 C58.2938,139.3678 58.5218,139.3258 58.6878,139.4418" id="Fill-9" fill="#000"/>
                    <path d="M613.0178,154.895 C580.8438,175.235 548.4818,195.275 516.1918,215.435 L492.0098,230.555 C484.1098,235.679 476.6958,241.627 469.5438,247.821 C462.3498,253.985 455.6518,260.705 449.0918,267.533 C445.9438,271.073 442.6298,274.465 439.6618,278.159 L435.1058,283.605 L430.7858,289.241 C424.9858,296.729 419.8638,304.697 415.0098,312.811 C413.8498,314.867 412.7758,316.973 411.6538,319.053 C410.5878,321.159 409.3378,323.179 408.4198,325.355 L405.5198,331.817 L404.0758,335.049 L402.8718,338.375 L400.4638,345.027 C399.6238,347.235 399.1718,349.559 398.5058,351.819 C397.9038,354.099 397.2478,356.353 396.6858,358.655 L395.1518,365.619 L389.1638,393.517 C381.4018,430.763 373.9698,468.091 366.9418,505.483 C366.8158,506.161 366.1658,506.611 365.4858,506.487 C364.8078,506.361 364.3578,505.707 364.4818,505.027 C371.4418,467.595 378.6498,430.215 386.5218,392.961 L392.5418,365.043 L394.0878,358.073 C394.6538,355.753 395.3278,353.437 395.9418,351.117 C396.6218,348.817 397.0918,346.445 397.9438,344.203 L400.3998,337.437 L401.6298,334.055 L403.0978,330.773 L406.0518,324.217 C406.9858,322.007 408.2518,319.963 409.3358,317.829 C410.4758,315.721 411.5658,313.587 412.7438,311.505 C417.6658,303.293 422.8598,295.237 428.7238,287.677 L433.0958,281.991 L437.6998,276.495 C440.7018,272.771 444.0478,269.349 447.2258,265.781 C453.8518,258.899 460.6138,252.127 467.8818,245.911 C475.1158,239.665 482.5858,233.675 490.6638,228.445 C498.7658,223.347 506.8838,218.467 514.9938,213.467 C547.4558,193.603 579.8478,173.621 612.4238,153.939 C612.6898,153.777 613.0358,153.861 613.1978,154.127 C613.3578,154.389 613.2758,154.731 613.0178,154.895" id="Fill-11" fill="#000"/>
                    <g id="Group-15" transform="translate(216.000000, 426.090000)">
                        <mask id="medium-plantsplant-4-mask-2" fill="#fff">
                            <use xlink:href="#medium-plantsplant-4-path-1"/>
                        </mask>
                        <g id="Clip-14"/>
                        <path d="M73.761,229.0002 L152.127,229.0002 C180.031,229.0002 203.369,225.7942 206.035,198.0182 L225.003,0.4042 L0.885,0.4042 L19.851,198.0182 C22.517,225.7942 45.855,229.0002 73.761,229.0002" id="Fill-13" fill="#F0F1FF" mask="url(#medium-plantsplant-4-mask-2)"/>
                    </g>
                </g>
            </g>
        </g>
    </g>
</svg>
