<svg viewBox="147.6 110.7 1180.8 1254.6" xmlns="http://www.w3.org/2000/svg" overflow="visible">
    <g id="Master/Spot Illustrations/Directions" stroke="none" stroke-width="1" fill="none" fill-rule="evenodd">
        <g id="Group-563" transform="translate(150.000000, 126.000000)">
            <path d="M285.2795,767.9397 C279.6435,771.3567 282.3315,772.2897 286.2205,775.4117 C290.2045,772.2347 288.4975,770.7937 285.2795,767.9397 M201.2595,1077.9127 C204.0495,1073.7447 204.1335,1072.5687 201.0235,1069.4217 C197.8115,1072.8527 197.1505,1073.8757 201.2595,1077.9127 M251.6855,1041.5097 C254.5195,1038.9617 256.8765,1036.8427 259.2325,1034.7227 C256.7795,1031.3517 244.5905,1037.4247 251.6855,1041.5097 M280.8215,739.0377 C276.8705,742.7867 275.5895,746.0657 281.0085,747.2577 C285.7845,744.8567 285.8495,742.3927 280.8215,739.0377 M417.4195,988.5637 C415.7535,989.9587 413.8225,991.4077 413.9035,991.5317 C417.9115,1001.7447 427.7305,993.8697 417.4195,988.5637 M444.4895,671.7357 C439.1485,667.2097 437.7805,661.4947 432.4615,668.8207 C436.9765,671.9107 438.3555,676.1567 444.4895,671.7357 M384.9535,901.7407 C380.5305,910.0687 391.6015,911.1117 396.5515,905.9387 C394.1525,902.6777 389.2085,903.4577 384.9535,901.7407 M331.2375,795.9167 C337.6225,790.9757 341.4585,786.2647 333.2235,782.7097 C326.2805,782.3297 335.2845,791.1137 328.6605,791.6747 C329.2115,792.5817 329.7615,793.4877 331.2375,795.9167 M222.6635,833.3377 C217.0075,829.0037 215.2905,827.0677 210.9805,832.8127 C215.7545,836.4407 216.7765,839.0147 222.6635,833.3377 M251.7445,827.1167 C247.1805,839.9127 270.0025,846.1557 265.8875,829.9487 C264.2425,806.4337 241.6515,798.6017 251.7445,827.1167 M436.5735,1035.0177 C456.4415,1029.1787 410.3225,1000.4397 403.1745,1001.3837 C396.8625,1017.7877 425.3345,1027.3227 436.5735,1035.0177 M138.0905,1002.1817 C131.4115,989.2987 110.4655,981.0567 97.1545,982.1077 C94.5665,997.0167 118.6805,1000.2067 126.8305,1008.7537 C133.5635,1014.3357 134.9485,1007.4357 138.0905,1002.1817 M251.0525,1081.6607 C262.4725,1105.2397 283.9535,1051.5267 278.2065,1042.8277 C263.8705,1043.0687 257.0985,1068.2147 251.0525,1081.6607 M660.0125,985.0587 C658.4015,948.0977 637.7925,993.3467 639.5245,1008.9717 C650.2435,1041.0767 658.0575,995.8737 660.0125,985.0587 M438.5345,833.1607 C372.2555,833.5247 449.5945,857.9487 466.8675,851.8837 C475.4315,836.0407 445.5895,836.3927 438.5345,833.1607 M309.0735,975.3637 C364.6345,971.2057 392.6125,874.5757 318.1335,871.1777 C238.4435,866.2237 214.3065,980.9317 309.0735,975.3637 M530.2825,974.3027 C530.3315,934.7107 573.2975,957.0017 551.3025,972.1077 C549.8495,972.4937 549.4835,976.9137 548.6185,979.4737 C572.2125,989.0737 568.6055,946.4877 549.9695,944.0397 C501.3135,940.0327 516.6175,1033.1717 562.1815,1014.1317 C620.4555,985.1037 589.6655,901.4517 527.5925,923.3907 C478.2935,932.4187 464.5575,1005.2947 504.1105,1034.0167 C531.4105,1042.6117 597.1035,1044.8857 590.7565,1003.9247 C546.9445,1052.5067 463.1445,1015.7337 502.2795,950.9007 C517.3925,931.2087 549.1855,924.4737 569.8815,937.6267 C609.5145,969.0997 536.9455,1041.0767 530.2825,974.3027 M37.8765,1114.0007 C75.2625,1034.6507 197.6735,1086.6527 141.5545,1163.0307 C109.0355,1203.7997 23.2035,1141.2897 66.0165,1103.1337 C82.7685,1092.8067 105.3605,1089.5407 121.1335,1103.7747 C146.0915,1118.6047 109.5435,1162.8557 95.6655,1134.1797 C91.6955,1124.3417 98.8625,1106.6907 111.0805,1113.7247 C114.5385,1115.7637 115.0685,1121.8247 111.3215,1123.2247 C100.0985,1128.7567 120.7325,1135.3247 121.4245,1124.8677 C124.0245,1090.8687 76.0105,1108.9857 85.5515,1135.9117 C95.9585,1176.3407 149.7075,1145.9077 139.2985,1111.7657 C99.5925,1036.0437 -9.4495,1122.2687 73.0925,1176.2347 C141.0695,1225.0497 205.0915,1131.4517 146.1015,1078.4797 C114.5195,1044.2537 43.1355,1066.7777 37.8765,1114.0007 M357.5175,710.0797 C385.2185,720.8817 384.4895,676.9237 355.2285,682.0587 C335.1335,688.6327 339.5075,727.4357 351.5575,739.3397 C378.7985,750.9367 408.0555,714.5977 397.5725,688.2107 C385.4255,654.0417 331.4405,654.2607 318.5205,687.4037 C291.5845,755.6677 368.4695,806.1357 418.2625,754.4307 C432.1345,748.6677 431.2475,698.2587 418.8685,713.5127 C416.8445,779.5487 317.8185,774.5327 327.8665,704.0467 C325.7855,673.3267 371.1765,659.8207 384.8765,689.5627 C401.8705,715.7167 342.2805,746.9917 357.5175,710.0797 M307.6465,1095.7467 C302.4365,1091.8237 298.7975,1094.4627 296.4115,1099.0407 C293.2125,1115.0467 320.5915,1110.8607 307.6465,1095.7467 M3.1795,946.2607 C-0.1765,937.3887 23.8175,943.2177 39.7285,925.7197 C65.4235,897.6787 11.2995,921.6697 5.8755,932.0727 C3.7075,929.0397 3.4075,922.6127 6.8755,920.9407 C0.2685,912.7987 7.5045,892.4117 6.0185,880.0377 C10.2155,864.9407 21.1175,859.4017 33.7695,852.3007 C46.0375,862.0597 51.6025,877.3257 65.2545,886.2717 C169.2425,957.6357 221.7315,833.6897 170.0975,751.1627 C167.2275,738.8727 195.5385,725.2027 206.4025,724.6287 C204.5635,710.9537 215.5395,720.0167 219.9165,711.8517 C232.4965,689.7737 244.7555,765.3317 253.9045,739.7077 C236.9725,689.2477 233.2385,693.9147 287.0935,673.4487 C274.8965,686.4987 282.3095,688.8737 294.3825,680.2727 C302.9865,673.3587 303.2575,663.2137 303.6205,653.2677 C321.3335,647.3277 333.5795,635.0857 348.4695,624.9917 C356.5645,616.4977 362.2395,635.7937 368.1875,624.8587 C368.3385,624.5137 370.6095,625.0807 371.8855,625.2677 C403.6395,623.1047 389.7525,652.7557 411.9385,634.0577 C436.0405,642.8517 437.0155,645.0297 449.0465,663.9277 C466.0835,663.3327 457.1775,655.3037 472.7845,671.5337 C493.6955,684.1287 508.3525,707.5957 530.0555,720.4417 C540.3795,746.2087 527.5915,737.6017 510.3525,753.6137 C473.5155,789.3347 495.3655,860.0807 550.5085,857.8327 C579.4295,870.7867 612.8755,822.6877 630.8935,852.8007 C634.5935,870.1897 645.3795,885.0407 657.3835,897.9877 C679.3445,930.8197 696.6185,969.7607 718.8845,1003.6957 C711.1975,1090.2737 606.3545,1121.1717 536.8815,1147.4537 C530.4165,1153.4667 531.7735,1071.4897 516.2345,1105.7827 C523.4075,1169.8187 548.2125,1140.7127 477.5145,1165.0207 C471.0895,1166.5657 466.5475,1166.5407 461.1855,1166.8067 C456.4545,1172.3247 433.7945,1180.4207 433.5445,1169.5827 C437.8375,1114.9907 371.9895,1090.8607 333.7455,1127.3037 C297.8705,1148.4647 318.1545,1188.9257 307.1585,1193.5487 C295.9955,1194.6887 284.6875,1196.6617 273.5945,1194.3547 C264.6995,1195.8797 250.0735,1207.1837 247.2985,1191.9107 C237.6275,1139.6777 212.9665,1140.2937 231.6865,1194.2997 C232.8175,1211.3457 63.4055,1215.4607 60.2145,1194.2657 C28.4555,1158.8347 18.0625,1111.0857 13.8185,1067.6977 C16.0485,1063.7897 17.2965,1059.9107 13.3925,1056.2207 C21.5905,1050.8987 33.1855,1046.1747 40.7755,1037.5347 C46.6245,1025.3917 29.6285,1027.2517 24.8615,1034.3917 C6.5085,1049.2277 3.8205,957.5717 3.1795,946.2607" id="Fill-1" fill="#0C4568"/>
            <path d="M1121.2493,1190.1336 C1116.3153,1172.5686 1102.1403,1154.8976 1085.4653,1147.9106 C1091.7733,1165.2246 1106.4823,1178.8376 1121.2493,1190.1336 M904.6613,992.0496 C899.0913,1012.9546 951.0863,989.2246 966.9913,1002.8426 C1001.4823,1010.1056 915.3053,909.9546 904.6613,992.0496 M936.2653,1007.7536 C919.2413,1009.6376 899.4673,1008.2846 896.2233,1029.3216 C895.0273,1035.2386 884.6923,1053.3296 897.3093,1051.1576 C930.9423,1050.4926 1018.7173,1009.0036 936.2653,1007.7536 M991.6763,1049.6166 C991.0253,1026.1146 984.2403,1016.1196 966.9353,1037.8886 C946.8033,1063.0826 887.3793,1046.9866 883.3833,1076.9826 C878.5173,1091.5196 951.9983,1070.4246 969.6613,1081.9446 C983.3313,1081.8436 992.5623,1062.6386 991.6763,1049.6166 M874.6703,1162.9386 C878.5153,1199.9626 899.0863,1209.5086 920.3843,1174.5886 C944.7153,1150.6266 973.8323,1136.1206 1007.7953,1131.6446 C1011.9813,1131.0916 1013.8783,1129.3146 1012.1933,1124.9606 C981.9923,1069.5076 968.2333,1107.4586 928.2823,1125.6086 C913.6213,1141.6446 867.7513,1137.0096 874.6703,1162.9386 M948.0213,951.2506 C946.6243,959.1326 989.9493,980.8626 986.1563,1005.3676 C996.6513,1030.3876 1010.7573,1057.8506 988.9593,1083.1726 C983.3063,1092.5456 999.3853,1093.1846 1002.8873,1099.2766 C1022.5873,1127.8276 1024.0973,1129.8856 1059.2313,1128.3746 C1075.9263,1134.3206 1052.1003,1088.6956 1057.6513,1077.2116 C1046.6403,1052.5616 1016.8263,1043.2376 1017.3063,1007.4286 C1016.4273,925.7766 1041.2083,948.0266 948.0213,951.2506 M477.5193,1165.0206 C494.3733,1155.4656 516.8863,1160.0546 530.5203,1145.9046 C544.8463,1149.2366 559.9993,1139.1606 573.0263,1132.8786 C612.1513,1123.2406 643.7123,1103.3156 675.2303,1079.7866 C699.4913,1062.3276 718.2783,1034.3876 718.8833,1003.6966 C703.9383,983.5756 695.6703,957.4776 679.7403,937.9426 C674.6443,930.1426 669.8103,921.7496 668.9433,912.1326 C657.2623,899.7866 646.8413,886.5436 638.6393,871.8616 C618.1833,843.1666 623.5273,807.6156 623.3543,772.8246 C629.1333,769.1916 636.0403,769.9046 641.9893,768.7026 C642.4273,761.2956 650.1303,760.8476 653.5593,756.3856 C659.6963,743.2536 663.8543,761.9046 665.6523,746.0936 C671.0273,747.1386 675.7593,742.8136 675.4773,738.2826 C683.3743,727.2476 696.9123,735.1126 700.7763,720.1726 C719.8083,715.8106 740.3953,727.4236 757.6103,720.6806 C816.5623,728.9126 788.6643,722.5646 800.3593,753.7966 C806.4763,746.8086 810.1113,738.0326 815.0213,730.1916 C817.8703,732.3986 819.4823,735.6556 824.8363,732.8876 C856.8343,733.7556 887.8513,745.0486 919.7933,747.1986 C917.2023,747.6696 914.6123,748.1396 910.0203,748.9726 C972.3633,768.8626 1049.9143,775.7366 1083.5953,836.6186 C1118.7573,870.4256 1095.7123,935.4226 1086.5743,977.8006 C1076.6493,973.3436 1038.5703,946.6566 1031.2363,957.7536 C1018.4003,990.4826 1022.1903,1032.7656 1051.5423,1055.5426 C1065.2323,1061.6096 1064.7063,999.9036 1101.0453,993.4466 C1071.7653,1032.5316 1029.2713,1080.8406 1123.6223,1076.7796 C1201.4463,1067.4106 1094.8743,1101.5896 1069.6653,1075.2946 C1058.1703,1076.7136 1070.3423,1117.0296 1073.9333,1127.0976 C1079.9603,1135.1716 1090.7663,1117.7106 1097.6863,1115.3276 C1115.6833,1104.2056 1139.3143,1090.8996 1160.3563,1096.5806 C1135.3303,1107.8806 1105.5823,1110.7816 1085.8723,1133.2206 C1083.6293,1135.3866 1083.0033,1136.4576 1086.3033,1138.1346 C1120.7623,1150.6166 1121.2573,1193.7206 1149.3953,1209.6436 C1144.1083,1214.7126 1137.2923,1212.6066 1131.1183,1213.5206 C1080.7173,1175.5326 1076.1153,1098.0736 1047.1783,1198.1436 C1030.4023,1201.4566 1056.8433,1149.7166 1065.0703,1143.5296 C1072.0343,1130.5546 1038.7653,1136.8176 1030.6643,1134.4026 C1020.6683,1134.8816 1027.3353,1147.8016 1026.6033,1153.9006 C1025.7453,1174.8866 1020.8053,1220.6626 995.6843,1221.3006 C1007.9043,1205.5956 1037.7673,1139.1446 1005.8173,1138.2376 C962.6983,1146.5626 927.8083,1170.8446 903.2733,1206.0356 C810.7223,1196.1146 719.1613,1187.6876 627.9123,1172.1336 C557.3883,1157.0956 549.1223,1146.1736 477.5193,1165.0206" id="Fill-3" fill="#2B7164"/>
            <path d="M583.4924,323.4964 C585.2394,318.6554 587.7964,314.9914 583.3934,312.8034 C575.9744,315.5914 578.7564,317.6414 583.4924,323.4964 M443.2974,301.8544 C443.1484,297.4654 436.5084,301.6914 433.5754,301.8764 C431.6294,310.3864 440.6764,306.6354 443.2974,301.8544 M473.8444,303.7434 C467.1624,299.6374 456.1664,303.4964 458.8794,312.0094 C467.4624,321.4344 471.8364,315.7104 473.8444,303.7434 M421.1034,140.6234 C427.7814,136.6084 418.2524,131.6274 417.7394,128.2944 C418.9334,123.0774 410.1124,118.0324 406.1224,119.4804 C417.4374,136.5764 397.9104,129.3564 421.1034,140.6234 M586.9434,198.9984 C563.8714,192.4104 578.7064,266.9334 575.2464,282.9224 C572.2054,291.8444 608.1854,292.0644 604.9974,282.9084 C604.2554,261.3164 603.9104,239.6514 604.9734,218.0674 C605.9854,199.5224 606.1314,199.3244 586.9434,198.9984 M437.0154,337.0214 C429.7974,339.8924 433.3514,347.7034 439.4714,348.9384 C439.7724,346.1004 440.4424,343.2824 439.4964,340.5024 C446.5354,341.8604 453.6024,328.3614 445.6124,324.2994 C437.4824,294.9914 427.6464,320.6064 437.0154,337.0214 M377.6564,100.0564 C370.1584,105.5244 381.8784,106.0424 380.4254,110.1254 C380.3714,110.2754 383.3724,111.6674 385.0484,112.1224 C382.9564,95.5144 389.5764,98.8284 394.2224,83.6214 C387.0144,86.4214 383.3024,94.8884 377.6564,100.0564 M491.1374,170.1724 C474.3754,191.4004 576.3194,174.5344 594.2754,179.7934 C647.3834,181.9504 700.6254,179.7454 753.7434,182.6364 C759.2124,182.8884 759.6484,180.4474 759.3044,176.1054 C756.0314,123.4864 759.9394,70.6104 759.82021,17.9034 C759.5444,5.7354 739.8444,14.6014 731.8884,12.8724 C721.8464,14.9134 705.0134,12.6584 697.0424,16.9754 C689.8244,26.0544 688.8544,10.8714 683.1964,14.7924 C659.6724,21.0774 633.4244,11.1124 608.5954,18.2954 C600.7504,23.0284 597.9414,15.3304 590.2544,16.5574 C576.3064,19.9294 560.6004,14.3824 548.2794,19.9664 C520.6994,20.7344 497.8164,18.8644 470.8164,20.7334 C464.4614,20.3574 475.0964,37.0514 470.9834,43.9744 C468.0224,47.3764 467.1764,43.4824 467.6014,40.3834 C461.0384,33.7484 461.0454,33.7624 460.4204,23.9594 C441.2594,14.7214 433.3114,43.0414 419.6994,55.4994 C433.4054,49.8674 425.4864,63.0674 435.8224,66.2324 C427.4144,75.2914 446.3754,106.5544 425.4294,102.3164 C419.8484,103.3704 414.2204,94.9554 412.8364,90.7524 C419.3344,88.8084 413.7414,81.2624 410.2224,80.3934 C396.8194,75.1474 399.3324,83.0774 403.8004,92.8124 C402.0694,96.7974 405.5804,98.1624 407.5444,100.3004 C407.1834,109.1114 404.5394,120.5254 416.5064,113.8144 C418.1744,109.0474 427.0334,103.6464 428.7974,111.1704 C426.1054,122.7864 432.1154,116.5584 439.2754,116.9294 C442.0684,123.6164 434.6784,128.3964 440.3914,134.5834 C435.0574,138.1244 439.6874,138.9574 441.9774,140.4264 C439.2924,144.9774 430.2204,141.5524 425.1614,143.0944 C422.5804,144.3294 422.9174,146.5764 426.1464,146.7104 C469.2634,150.0154 418.4034,150.1854 454.7804,174.4804 C456.9154,181.5884 463.9114,180.0604 469.7044,180.0194 C473.5084,178.5544 475.0454,172.5704 480.6414,174.4954 C481.5504,167.7554 464.3694,166.8814 474.3384,159.4064 C481.6714,150.9034 491.4564,158.6414 495.3214,146.5194 C504.7014,144.3224 497.5824,168.3544 491.1374,170.1724 M573.3644,361.9544 C561.8414,356.2054 571.3444,378.5974 559.9134,364.4004 C558.2174,362.5724 556.7784,360.7464 554.8174,364.0254 C547.2414,368.9964 555.1814,354.9374 544.9534,360.4634 C541.1184,360.9564 541.7514,356.3164 543.7774,355.2154 C548.9434,356.2254 547.0664,351.9374 548.0584,349.8714 C558.0214,346.3554 557.7604,350.2874 564.8834,354.0744 C564.3564,346.1314 555.3154,339.5464 571.5964,340.1814 C558.5024,330.8344 578.0934,331.3704 567.8554,322.0334 C551.2874,315.5914 574.3404,307.1304 566.7014,304.8084 C543.0964,303.9074 522.0584,300.4234 497.1794,303.3804 C497.5054,306.3684 505.3584,306.1974 507.2344,304.2414 C512.0994,314.7374 498.3144,318.1504 500.1224,326.6904 C526.2634,329.5414 493.5654,303.9964 531.0864,319.5494 C537.6794,314.5504 531.4964,310.0674 545.1834,312.1004 C553.0624,318.3044 538.6544,331.5104 549.2934,329.6394 C557.7204,321.9984 555.9074,331.8224 563.6044,332.1464 C560.9424,335.2944 556.6664,338.1224 555.9564,341.6654 C551.7174,354.7004 540.4154,343.9854 543.7934,334.9134 C543.1804,329.4514 538.5774,332.2354 535.8654,331.8294 C530.6474,330.7674 534.4594,338.3914 531.7234,340.1144 C523.7254,339.9484 516.1364,329.3564 511.5114,340.9294 C508.0864,347.6774 514.0814,354.4994 504.9594,355.8214 C496.6114,355.9934 491.1374,342.2814 500.3954,340.2494 C498.9064,337.3764 497.3054,326.7754 493.6584,330.6974 C488.3624,328.7474 482.6934,330.3934 484.0204,332.5884 C488.6084,341.2904 488.4974,371.7734 478.9064,357.0884 C487.7734,348.0404 473.9844,337.1784 464.2744,341.6834 C469.1754,353.8894 466.7244,367.9874 455.4774,352.2734 C462.7084,348.6574 448.6234,339.2474 461.3694,337.2894 C462.8824,336.7904 464.4794,334.8094 464.8924,333.2124 C465.3614,330.4064 463.2164,327.2174 460.6714,325.7524 C464.5474,322.9364 460.7584,321.8714 459.4144,320.2464 C451.2184,323.9464 453.9554,332.2924 451.6984,339.1664 C452.4564,359.9024 460.0974,353.5404 434.0324,352.9614 C445.6044,361.9284 443.3464,361.2714 442.6364,375.0964 C443.4494,379.5044 433.6064,383.4604 433.9504,389.0604 C431.7224,413.9724 438.6184,439.7554 432.0874,463.4824 C431.0234,471.4354 431.6094,471.6774 440.6614,470.6214 C459.0224,469.3724 477.7564,472.2364 493.0614,463.8664 C494.2354,476.7514 527.3444,461.3144 505.7464,464.2314 C504.4754,460.4074 508.6484,457.5214 509.6354,458.3294 C516.1004,463.6224 521.8274,455.8954 527.8194,457.9524 C516.8894,480.2084 609.1484,461.8794 629.3914,467.7574 C664.0764,465.8864 701.7734,472.5634 735.0304,464.9564 C760.7644,441.2994 786.2034,417.2494 812.9034,394.6854 C819.9154,382.6564 789.5644,366.4954 783.7164,354.4184 C765.3534,342.5604 757.9024,308.2904 734.3554,309.6364 C693.6404,305.0764 652.3424,310.8184 613.5484,306.1654 L613.6384,306.1644 C593.0964,300.5134 592.4294,319.9154 611.3444,307.8134 C617.3384,310.7484 610.0814,318.8634 618.3774,318.4954 C618.2274,321.4194 618.0874,331.2254 614.0284,327.3234 C609.2244,319.4614 602.1514,330.3444 611.3104,331.5194 C612.0434,337.6214 604.3374,340.3314 601.9154,334.2884 C598.8994,323.7444 595.7644,343.0874 589.3804,332.5644 C588.7644,336.4264 588.1164,340.2694 584.6564,342.8184 C590.4184,344.8724 591.4734,351.3884 583.5824,349.0664 C571.7994,341.7884 573.6564,353.8084 573.3644,361.9544 M623.3524,772.8254 C623.1384,796.5884 623.2314,820.3504 623.5354,844.1124 C600.6684,835.7624 603.2794,805.8704 602.7484,785.6694 C606.7564,713.9254 605.3394,641.7434 604.3394,569.8334 C600.0814,550.4484 613.9344,494.2424 598.6054,486.5204 C591.8044,489.0944 575.2844,482.8224 574.8634,492.7034 C570.7374,586.2654 576.7014,681.0234 570.1384,774.2474 C532.9584,741.9134 557.7184,686.7224 551.1524,642.3204 C546.9504,619.5794 569.3034,454.7954 530.4164,487.9744 C491.5494,479.8874 517.5634,507.2444 498.5494,538.8164 C487.3274,567.3234 471.4074,593.7984 462.7314,623.5644 C459.1714,635.7774 459.9974,647.1624 461.4774,659.0454 C454.1094,670.1374 441.0814,662.3924 443.4294,650.4224 C445.0314,591.7404 499.8014,542.6394 495.6394,486.6434 C475.0474,486.7114 450.9974,487.2424 429.0184,484.9104 C395.8864,477.7424 419.6744,407.6404 413.7364,380.6694 C414.7784,369.9824 404.5744,374.2124 399.8934,378.9274 C345.2354,422.5194 336.7894,503.6464 353.6434,567.4544 C358.5794,583.1804 366.0204,598.1374 372.6624,613.2984 C374.3594,630.1054 357.6274,616.2904 356.2584,607.0894 C340.0214,571.9354 327.3214,534.6854 308.0734,501.0754 C256.3454,427.8774 147.7464,371.4994 62.6674,418.8864 C9.8974,487.2224 279.2014,585.6764 300.3494,649.7774 C320.1844,667.5944 263.9434,705.3224 287.0844,673.4494 C269.2444,676.4864 254.9654,689.0524 238.9224,696.8044 C48.1374,781.6024 52.0204,558.5304 238.8834,621.8404 C244.3964,624.0434 247.8744,639.3794 238.8934,632.9474 C50.4084,590.2814 91.4974,763.4714 256.5814,669.2094 C293.8454,647.7094 191.9234,669.1624 193.2754,653.6594 C199.7364,639.1624 230.4114,646.9914 245.1404,642.7464 C257.8354,641.5964 268.5094,648.8664 277.8414,656.4904 C322.5594,646.9694 57.4514,511.3114 46.5434,461.4904 C7.9984,367.8304 175.8254,384.1024 223.2584,411.3574 C306.6894,443.6164 336.6094,547.7204 333.8684,495.2514 C334.0814,438.0934 361.4034,380.2064 411.8704,355.0684 C420.5794,334.7334 403.5334,293.8144 433.3204,288.4684 C461.8774,282.0604 540.0234,299.5364 552.9604,278.4324 C553.0934,254.8774 553.3254,231.3304 553.3484,207.7834 C555.9534,191.1334 532.8144,202.9434 523.0384,199.3014 C499.9254,194.8474 467.4724,208.2034 450.2254,189.8374 C424.0894,163.7564 392.7034,141.5144 365.5184,116.1154 C334.2754,97.6204 436.6694,9.6924 455.1684,3.6214 C554.5994,1.4744 658.1204,-1.2826 760.8134,0.6624 C791.5774,8.0154 772.7114,117.2194 779.3224,147.1844 C785.2924,202.9344 768.0704,198.4224 720.4564,198.5704 C700.5184,203.2324 633.9214,189.3144 627.3564,205.5234 C634.9324,225.1734 615.1674,283.9104 635.4114,289.6394 C719.0604,293.1694 738.3484,273.9054 798.3034,343.4064 C860.1564,395.6124 824.8834,404.5564 778.3494,446.0634 C724.1204,495.4634 734.0044,486.6684 662.1164,486.3724 C651.2894,489.4464 623.8654,479.3714 623.3054,494.9724 C622.4674,540.3234 621.4124,585.8204 623.4034,630.8634 C620.2244,675.2524 623.4674,703.4764 622.5284,750.7774 C625.1104,757.9334 616.3544,765.4964 623.3524,772.8254" id="Fill-5" fill="#fcfcfc"/>
            <path d="M700.7746,720.1692 C668.4686,761.7782 704.1026,653.7422 712.5626,644.0362 C735.4626,592.3872 776.1946,552.3592 820.5796,518.6322 C1001.6836,397.2302 1102.8126,462.3422 910.3096,622.2972 C903.3606,632.7182 918.7046,625.3412 930.5386,621.2712 C985.9286,604.1242 1056.6286,591.1682 1106.0136,629.4052 C1200.8616,733.0062 964.0546,752.3782 902.5306,744.1112 C1316.5796,707.6162 1019.1156,520.6292 849.5406,687.1192 C830.1816,707.1052 815.3906,730.7042 800.3686,753.7972 C786.2206,715.5802 855.5896,666.7512 878.0156,636.6282 C918.4176,589.3272 973.9596,552.9172 1001.9616,496.2832 C1009.9936,429.0342 875.6586,497.0172 849.2646,514.4982 C776.2326,558.9532 714.2076,631.7202 700.7746,720.1692" id="Fill-7" fill="#fcfcfc"/>
            <path d="M1149.4006,1209.639 C1121.2586,1193.72 1120.7626,1150.631 1086.2976,1138.14 C1084.0166,1124.1 1119.2156,1111.228 1132.5146,1105.834 C1138.8966,1103.633 1170.8186,1098.999 1153.7256,1094.231 C1133.5656,1097.243 1114.4086,1103.131 1097.6856,1115.325 C1090.7356,1117.752 1079.9806,1135.107 1073.9376,1127.103 C1070.2786,1117.098 1058.2206,1076.598 1069.6576,1075.302 C1101.2826,1101.577 1152.2846,1064.26 1164.6806,1092.306 C1169.8166,1127.354 1192.3136,1193.484 1149.4006,1209.639" id="Fill-9" fill="#A5D353"/>
            <path d="M903.2697,1206.0311 C920.3897,1187.0531 933.3337,1165.4401 958.6297,1154.9931 C972.8087,1151.3101 1014.3987,1124.0011 1018.0487,1146.4331 C1023.2997,1233.6311 969.0477,1233.1491 903.2697,1206.0311" id="Fill-11" fill="#A5D353"/>
            <path d="M45.3019,847.7932 C46.3509,818.2412 67.2369,860.4812 77.2529,863.5062 C125.0739,876.8082 180.0009,816.2932 142.3619,774.1312 C134.6559,762.6762 152.3259,757.8722 158.1149,749.9262 C182.1449,782.2262 181.1559,833.6522 168.4659,869.8952 C138.3689,917.4822 67.4409,889.8592 45.3019,847.7932" id="Fill-13" fill="#0C4568"/>
            <path d="M1003.3156,1221.7034 C1053.6896,1169.0304 990.4676,1122.0384 1063.2586,1136.6314 C1067.8156,1137.1304 1068.4526,1140.0684 1065.0736,1143.5274 C1052.0216,1156.8884 1046.9306,1174.1434 1041.9226,1191.3984 C1040.0896,1207.0994 1051.0696,1195.8144 1050.8076,1186.8454 C1063.1486,1150.9364 1070.3956,1129.0784 1094.1186,1173.9584 C1116.8396,1205.6794 1162.2186,1223.8194 1088.9776,1217.0714 C1075.1626,1213.4024 1038.9166,1228.4864 1047.2076,1204.9934 C1046.8676,1203.2864 1043.7556,1200.3444 1041.9786,1203.1824 C1038.3086,1211.4334 1050.4276,1225.3554 1032.5356,1220.1414 C1022.1416,1215.7224 1014.5206,1223.3914 1003.3156,1221.7034" id="Fill-15" fill="#A5D353"/>
            <path d="M1151.8274,1072.201 C1085.5864,1090.421 1029.0444,1063.369 1096.1524,1003.07 C1111.1114,978.127 1149.3404,1058.844 1151.8274,1072.201" id="Fill-17" fill="#A5D353"/>
            <path d="M1101.0403,993.4407 C1064.4403,1000.1277 1065.4733,1061.3637 1051.5473,1055.5487 C1024.2453,1036.5307 1010.7123,972.3967 1038.5043,954.8717 C1056.7733,960.8977 1070.4453,967.8137 1086.5683,977.8037 C1091.0843,983.6527 1101.5593,985.4097 1101.0403,993.4407" id="Fill-19" fill="#A5D353"/>
            <path d="M477.5197,1165.0203 C479.5487,1165.7043 481.5787,1166.3873 483.6087,1167.0713 C461.1477,1173.1113 438.9457,1179.0903 415.4787,1178.9583 C450.8327,1108.8073 323.7677,1098.7373 321.4107,1169.3453 C321.6347,1191.4893 318.1087,1191.2733 341.6907,1190.3763 C356.5387,1188.8263 341.2707,1169.5233 354.0007,1162.1813 C372.0167,1131.9673 441.3877,1166.5183 401.6187,1181.9823 C409.5657,1166.4373 396.5687,1158.9023 382.5377,1158.6733 C361.9277,1157.5863 343.6817,1194.1813 375.5837,1189.7893 C347.7627,1193.1523 316.9157,1199.4593 289.6767,1195.7903 C335.6247,1196.6183 285.7247,1161.6563 333.7477,1127.2973 C386.6397,1085.5873 430.0617,1121.4493 437.6517,1174.4933 C446.4307,1174.6283 454.8317,1172.6243 461.1857,1166.8093 C466.5457,1166.3693 471.1587,1166.8073 477.5197,1165.0203" id="Fill-21" fill="#8ED7EC"/>
            <path d="M45.3019,847.7932 C67.4159,889.8542 138.3919,917.4902 168.4599,869.8952 C181.1779,833.6362 182.1209,782.2532 158.1229,749.9272 C174.1039,729.7232 188.1809,792.9832 187.5419,806.7602 C204.2559,888.7452 132.7209,936.4582 65.2479,886.2692 C57.2489,878.1472 19.1209,845.6342 45.3019,847.7932" id="Fill-23" fill="#8ED7EC"/>
            <path d="M64.5813,825.7664 C78.2613,813.7144 89.4573,800.1614 104.2533,789.7634 C120.6483,792.9854 103.4753,819.1204 92.4713,811.9834 C92.4543,841.1354 136.5033,802.6434 116.5453,782.7374 C122.3623,778.0874 130.0483,772.9594 135.1453,781.3994 C173.0113,825.3294 78.0403,888.8054 64.5813,825.7664" id="Fill-25" fill="#0C4568"/>
            <path d="M910.466,271.0164 C953.382,267.1234 949.078,211.7074 902.81,226.3214 C889.283,240.2694 881.743,269.2264 910.466,271.0164 M923.227,210.1384 C981.29,213.2344 953.307,297.5904 904.164,286.4324 C850.144,278.4614 882.587,207.2294 923.227,210.1384" id="Fill-27" fill="#fcfcfc"/>
            <path d="M64.5813,825.7664 C78.0423,888.8104 173.0183,825.3174 135.1413,781.3994 C130.0243,772.9894 122.3813,778.0634 116.5503,782.7364 C128.1373,798.6784 117.1023,820.7634 97.6223,822.0014 C90.4023,822.1774 92.4593,816.8874 92.4693,811.9874 C101.9543,814.1904 107.6383,810.9604 110.7243,798.3724 C111.8923,792.8444 109.7233,790.1424 104.2543,789.7644 C112.0033,780.9454 120.4433,773.3474 132.8613,771.8404 C139.0723,762.8624 139.8063,764.9634 142.3613,774.1344 C189.1143,820.3654 96.5783,902.7904 61.6193,847.1184 C48.8253,830.6864 38.1443,839.5894 64.5813,825.7664" id="Fill-29" fill="#8ED7EC"/>
            <path d="M270.7111,285.0008 C262.5191,281.1628 261.2621,267.1678 255.0781,261.6578 C252.4771,260.0648 243.5611,268.1288 238.9981,268.9598 C233.7031,268.7108 229.4781,265.5548 233.6051,260.4298 C268.5621,239.6508 232.4051,233.2958 249.1001,217.0878 C263.8231,215.2818 260.5431,245.6458 277.4341,229.8788 C304.5481,213.4168 296.4721,243.9748 275.7771,248.0428 C265.1101,257.1418 300.4811,283.3168 270.7111,285.0008" id="Fill-31" fill="#fcfcfc"/>
            <path d="M662.4133,590.865 C663.2653,601.025 678.8003,606.739 679.4043,594.455 C677.8863,580.848 668.3503,580.757 662.4133,590.865 M696.424505,593.709 C696.5363,626.892 650.7673,624.99 649.6573,595.166 C650.5583,565.86 695.3593,557.468 696.424505,593.709" id="Fill-33" fill="#fcfcfc"/>
            <path d="M375.5842,1189.7894 C343.6862,1194.1744 361.9262,1157.5874 382.5402,1158.6734 C396.5632,1158.9094 409.5732,1166.4354 401.6132,1181.9764 C392.4582,1186.4984 381.4312,1179.9804 375.5842,1189.7894" id="Fill-35" fill="#0C4568"/>
            <path d="M210.7902,1204.5408 C216.7502,1199.4778 233.9362,1205.0778 231.6872,1194.3008 C229.8932,1184.4548 216.5042,1152.6048 230.4972,1152.8288 C247.8382,1161.8348 238.0232,1197.9818 257.6472,1199.8948 C242.9102,1203.9118 225.8672,1206.8278 210.7902,1204.5408" id="Fill-37" fill="#8ED7EC"/>
            <path d="M211.6779,706.4856 C220.7599,703.2586 229.8409,700.0326 238.9229,696.8056 C243.0899,713.0706 257.1989,728.6366 252.5699,746.0546 C239.1299,739.6776 236.6359,721.7596 229.2069,709.8896 C223.0989,699.9196 218.3039,722.2716 209.5789,714.8656 C210.0199,712.0086 218.1879,711.0806 211.6779,706.4856" id="Fill-39" fill="#8ED7EC"/>
            <path d="M3.9123,927.8929 C6.3423,930.4129 4.5913,933.3589 5.3393,935.1629 C5.6983,926.3249 39.2683,908.5879 44.9673,912.8979 C50.7073,928.4439 -3.4837,957.8009 3.9123,927.8929" id="Fill-41" fill="#8ED7EC"/>
            <path d="M14.0676,1030.222 C16.8146,1038.039 18.5516,1038.727 24.8586,1034.39 C29.8276,1027.198 46.3496,1025.469 40.7796,1037.54 C25.7246,1055.02 2.4406,1061.312 14.0676,1030.222" id="Fill-43" fill="#8ED7EC"/>
            <path d="M623.3527,772.825 C615.8357,762.861 625.4447,749.512 626.4317,767.638 C638.3077,767.528 646.1247,757.571 656.4307,751.972 C653.8097,759.996 643.1987,759.674 641.9877,768.698 C636.0427,769.957 629.1287,769.116 623.3527,772.825" id="Fill-45" fill="#8ED7EC"/>
            <path d="M2.8674,958.1053 C7.5014,969.8113 3.1274,983.2623 5.7894,995.7573 C1.9644,984.5653 -3.3756,968.1683 2.8674,958.1053" id="Fill-47" fill="#8ED7EC"/>
            <path d="M413.6369,1179.074 C412.1009,1168.575 407.9239,1159.95 421.9679,1160.122 C420.3669,1166.854 423.8489,1179.272 413.6369,1179.074" id="Fill-49" fill="#2B7164"/>
            <path d="M6.0226,880.0364 C5.5026,891.4054 4.9846,902.7734 4.4656,914.1394 C1.6016,902.7854 5.0016,891.4194 6.0226,880.0364" id="Fill-51" fill="#8ED7EC"/>
            <path d="M260.7795,1198.6409 C267.7065,1196.0559 274.2465,1192.6459 281.7045,1195.5019 C275.2565,1200.0599 268.0695,1199.6959 260.7795,1198.6409" id="Fill-53" fill="#8ED7EC"/>
            <path d="M205.7853,723.971 C187.6633,728.801 215.5343,704.921 205.6563,724.101 L205.7853,723.971 Z" id="Fill-55" fill="#8ED7EC"/>
            <path d="M665.341,746.2586 C663.693,748.4966 664.733,750.3076 665.971,752.4026 C656.25,754.6536 655.35,745.1846 665.341,746.2586" id="Fill-57" fill="#8ED7EC"/>
            <path d="M13.3928,1056.2205 C17.2958,1059.9105 16.0478,1063.7895 13.8128,1067.6995 C13.6728,1063.8715 13.5328,1060.0455 13.3928,1056.2205" id="Fill-59" fill="#8ED7EC"/>
            <path d="M675.9123,738.5794 C674.2783,743.5244 671.5433,746.9644 665.6523,746.0934 C669.0733,743.5884 672.4933,741.0834 675.9123,738.5794" id="Fill-61" fill="#8ED7EC"/>
            <path d="M622.8527,705.9485 C619.2537,700.2125 621.3897,694.3545 622.4807,688.5235 C622.6047,694.3355 622.7287,700.1415 622.8527,705.9485" id="Fill-63" fill="#8ED7EC"/>
            <path d="M5.9103,998.2459 C6.8623,1001.5859 7.8153,1004.9259 8.7673,1008.2649 C5.3863,1005.6179 3.4363,1002.5619 5.9103,998.2459" id="Fill-65" fill="#8ED7EC"/>
            <path d="M622.4484,683.7034 C616.7434,684.2534 617.4484,683.4454 621.3134,679.9884 C624.0784,677.3524 622.3624,681.9114 622.4484,683.7034" id="Fill-67" fill="#8ED7EC"/>
            <path d="M622.4142,731.7464 C622.6332,728.7024 622.8512,725.6574 623.0722,722.6214 C626.8382,725.9564 624.2472,728.8244 622.4142,731.7464" id="Fill-69" fill="#8ED7EC"/>
            <path d="M622.7863,615.8255 C622.7573,611.7995 622.7283,607.7725 622.6993,603.7505 C622.7273,607.7795 622.7573,611.8025 622.7863,615.8255" id="Fill-71" fill="#8ED7EC"/>
            <path d="M687.0939,728.1931 C689.5989,731.1341 683.7529,730.9551 681.8099,732.2181 C683.5729,730.8751 685.3329,729.5341 687.0939,728.1931" id="Fill-73" fill="#8ED7EC"/>
            <path d="M3.1799,946.261 C3.2429,948.076 3.3069,949.89 3.3719,951.702 C3.3089,949.886 3.2439,948.073 3.1799,946.261" id="Fill-75" fill="#8ED7EC"/>
            <path d="M621.9445,671.8113 C622.2705,668.5743 622.5965,665.3373 622.9205,662.1043 C622.5935,665.3423 622.2695,668.5773 621.9445,671.8113" id="Fill-77" fill="#8ED7EC"/>
            <path d="M155.5256,752.5139 C154.3466,753.5469 153.1686,754.5799 151.9926,755.6079 C153.1716,754.5729 154.3486,753.5429 155.5256,752.5139" id="Fill-79" fill="#8ED7EC"/>
            <path d="M680.1603,734.7351 C678.7533,736.0011 677.3463,737.2661 675.9383,738.5321 C675.3003,734.9931 677.2393,734.3191 680.1603,734.7351" id="Fill-81" fill="#8ED7EC"/>
            <path d="M13.8908,1070.3025 C16.4348,1072.7075 18.1538,1075.2145 14.8908,1078.3365 C14.5598,1075.6555 14.2248,1072.9795 13.8908,1070.3025" id="Fill-83" fill="#8ED7EC"/>
            <path d="M937.006,747.1746 C939.774,746.9436 942.54,746.7116 945.309,746.4806 C942.542,746.7116 939.775,746.9436 937.006,747.1746" id="Fill-85" fill="#2B7164"/>
            <path d="M45.3732,840.1604 C45.0032,841.5634 44.6332,842.9674 44.2632,844.3694 C41.6452,842.1784 41.8202,840.7234 45.3732,840.1604" id="Fill-87" fill="#8ED7EC"/>
            <path d="M623.2131,715.7478 C622.8091,715.1468 622.0701,714.6588 623.0481,714.2738 C624.1471,714.8438 624.4531,715.1038 623.2131,715.7478" id="Fill-89" fill="#8ED7EC"/>
            <path d="M622.5285,643.2478 C622.5695,642.0608 622.6115,640.8728 622.6505,639.6888 C622.6085,640.8778 622.5685,642.0628 622.5285,643.2478" id="Fill-91" fill="#8ED7EC"/>
            <path d="M622.343,623.5501 C622.522,622.3761 622.7,621.2031 622.879,620.0341 C622.699,621.2101 622.521,622.3801 622.343,623.5501" id="Fill-93" fill="#8ED7EC"/>
            <path d="M687.2404,718.6472 C687.1344,719.6302 687.0274,720.6132 686.9224,721.5892 C687.0284,720.6032 687.1344,719.6252 687.2404,718.6472" id="Fill-95" fill="#8ED7EC"/>
            <path d="M622.8674,745.8255 C623.0074,744.8835 623.1464,743.9405 623.2894,743.0085 C623.1504,743.9545 623.0094,744.8895 622.8674,745.8255" id="Fill-97" fill="#8ED7EC"/>
            <path d="M996.0578,1221.5906 C996.8498,1221.9666 997.6428,1222.3436 998.4218,1222.7196 C997.6248,1222.3436 996.8418,1221.9666 996.0578,1221.5906" id="Fill-99" fill="#A5D353"/>
            <path d="M4.0812,918.1165 C4.5452,918.8455 5.4942,919.4065 4.6712,920.2705 C4.2062,919.5425 3.2822,918.9845 4.0812,918.1165" id="Fill-101" fill="#8ED7EC"/>
            <path d="M5.4582,920.847 C5.9312,920.878 6.4022,920.91 6.8752,920.941 C6.3092,920.981 5.4022,921.735 5.4582,920.847" id="Fill-103" fill="#8ED7EC"/>
            <path d="M622.7844,752.0071 C622.1484,751.6771 622.0734,751.3181 622.5284,750.7771 C623.1754,751.1151 623.2434,751.4401 622.7844,752.0071" id="Fill-105" fill="#8ED7EC"/>
            <path d="M623.4748,631.4724 C622.9858,631.2304 622.8698,631.1634 623.4038,630.8634 C623.7998,631.0854 623.8708,631.1844 623.4748,631.4724" id="Fill-107" fill="#8ED7EC"/>
            <path d="M622.8771,657.8885 C622.1701,657.6765 622.1621,657.3515 622.5401,656.7865 C623.2041,657.0425 623.2891,657.3105 622.8771,657.8885" id="Fill-109" fill="#8ED7EC"/>
            <path d="M37.8762,1114.0008 C49.8212,1043.1768 160.8142,1047.5618 168.1822,1119.4728 C183.1742,1195.4768 76.9392,1212.3088 48.2092,1148.6068 C26.8162,1110.4608 70.6892,1075.0308 106.9032,1084.3088 C148.5282,1086.5038 150.3922,1153.7088 108.1012,1155.7328 C51.4382,1144.7208 113.9492,1069.7108 121.4312,1124.8688 C120.7262,1135.3238 100.1022,1128.7578 111.3192,1123.2238 C121.2382,1114.7378 100.3912,1106.4518 97.0652,1117.9518 C81.7942,1167.3478 155.4472,1131.1258 121.1292,1103.7728 C105.3662,1089.5398 82.7622,1092.8058 66.0212,1103.1348 C23.1992,1141.2898 109.0362,1203.7978 141.5492,1163.0228 C197.6862,1086.6068 75.2092,1034.6828 37.8762,1114.0008" id="Fill-111" fill="#8ED7EC"/>
            <path d="M530.28241,974.3025 C536.9294,1041.1125 609.5414,969.0535 569.8774,937.6275 C549.1734,924.4695 517.4084,931.2165 502.2784,950.9025 C463.1374,1015.7655 546.9854,1052.4915 590.7534,1003.9245 C597.0574,1044.9135 531.4674,1042.5905 504.1134,1034.0125 C450.3204,992.6995 497.8334,903.0035 562.6984,922.3275 C621.5854,936.9965 585.1164,1043.2325 531.8454,1008.6325 C499.4824,984.6985 539.7274,908.9655 564.1674,960.2865 C574.4004,976.0855 542.6494,992.0925 551.2944,972.1045 C573.3044,956.9995 530.3244,934.7125 530.28241,974.3025" id="Fill-113" fill="#8ED7EC"/>
            <path d="M353.6457,711.9969 C365.4347,766.7299 424.1807,660.9449 346.6267,674.8149 C320.0407,684.3349 323.8687,734.5609 341.2657,749.6399 C368.8907,774.2679 422.4727,752.8049 418.8707,713.5179 C431.3077,698.2609 432.0857,748.6619 418.2547,754.4269 C368.4467,806.1359 291.5827,755.6529 318.5267,687.4019 C336.8667,639.1749 421.6587,668.7359 394.9467,717.9369 C388.2227,737.7729 353.8587,753.4549 344.8767,730.2189 C343.5927,714.4769 335.0647,688.4269 355.2317,682.0549 C371.1117,680.3709 387.6987,695.7339 373.7037,708.1809 C360.7517,721.6439 345.8807,699.2049 368.6617,694.9819 C353.3137,688.8579 351.0087,698.8859 353.6457,711.9969" id="Fill-115" fill="#8ED7EC"/>
            <path d="M317.3478,905.9607 C310.1118,912.6247 307.5648,940.0287 320.4098,932.4307 C340.6148,914.4077 316.7198,884.1427 295.5218,898.9957 C250.3488,970.7347 396.5588,955.1217 340.6058,891.6217 C275.0478,847.3657 213.9358,967.5937 310.3908,963.3717 C315.2468,958.0047 289.5548,954.6097 286.5868,946.8097 C259.3418,913.4107 306.9248,862.7157 332.5918,905.3887 C347.1288,955.2467 277.3058,944.0027 317.3478,905.9607 M309.0738,975.3637 C214.2838,980.9327 238.4798,866.1917 318.1418,871.1797 C392.6178,874.5987 364.6308,971.2077 309.0738,975.3637" id="Fill-117" fill="#8ED7EC"/>
            <path d="M530.0568,720.4402 C559.3518,742.5652 534.6258,749.2922 515.2658,763.4132 C480.1398,800.5852 520.0448,858.6232 567.7048,845.1842 C600.0698,831.9482 643.0568,827.3312 586.0398,854.7492 C519.5228,879.1402 459.7338,809.1832 510.3588,753.6072 C527.8368,737.3752 540.3158,746.4142 530.0568,720.4402" id="Fill-119" fill="#8ED7EC"/>
            <path d="M393.3195,628.4309 C393.9465,611.2439 406.2695,493.5329 425.2675,514.5919 C418.8435,554.0639 411.1195,593.7599 411.9395,634.0559 C405.2125,643.1819 391.6225,641.1879 393.3195,628.4309" id="Fill-121" fill="#fcfcfc"/>
            <path d="M438.5344,833.1609 C445.5914,836.3809 475.4304,836.0479 466.8684,851.8829 C449.5574,857.9439 372.2754,833.5229 438.5344,833.1609" id="Fill-123" fill="#8ED7EC"/>
            <path d="M660.0129,985.0589 C658.0649,995.8629 650.2359,1041.0869 639.5179,1008.9729 C637.7889,993.3499 658.4039,948.0959 660.0129,985.0589" id="Fill-125" fill="#8ED7EC"/>
            <path d="M251.0529,1081.6604 C257.0779,1068.2374 263.8849,1043.0514 278.1999,1042.8214 C283.9699,1051.4654 262.4739,1105.2634 251.0529,1081.6604" id="Fill-127" fill="#8ED7EC"/>
            <path d="M138.09,1002.1819 C134.943,1007.4289 133.57,1014.3449 126.831,1008.7529 C118.695,1000.2229 94.554,997.0029 97.152,982.1139 C110.479,981.0599 131.391,989.2919 138.09,1002.1819" id="Fill-129" fill="#8ED7EC"/>
            <path d="M531.4592,1145.9222 C530.9842,1145.8702 530.0572,1145.9452 529.5982,1146.0772 C513.6872,1140.3142 512.3742,1075.9492 527.5472,1105.0652 C528.4372,1118.6612 538.4632,1132.8912 531.4592,1145.9222" id="Fill-131" fill="#8ED7EC"/>
            <path d="M436.5734,1035.0179 C427.5164,1032.7169 382.6874,1001.4609 409.5994,1002.0499 C416.5714,1011.0049 454.3484,1023.7669 436.5734,1035.0179" id="Fill-133" fill="#8ED7EC"/>
            <path d="M251.7443,827.1165 C241.6503,798.5775 264.2543,806.4635 265.8853,829.9505 C269.9963,846.1495 247.1833,839.9185 251.7443,827.1165" id="Fill-135" fill="#8ED7EC"/>
            <path d="M311.3576,1103.6092 C310.7116,1114.8802 292.1066,1108.3162 296.4096,1099.0402 C298.7966,1094.4632 302.4366,1091.8232 307.6466,1095.7472 C304.3136,1101.3542 305.2326,1103.3012 311.3576,1103.6092" id="Fill-137" fill="#2B7164"/>
            <path d="M353.6457,711.9969 C351.0077,698.8709 353.3207,688.8669 368.6617,694.9819 C351.6517,698.0839 361.7517,706.7079 353.6457,711.9969" id="Fill-139" fill="#2B7164"/>
            <path d="M222.6633,833.3377 C216.7793,839.0147 215.7493,836.4417 210.9803,832.8107 C215.2933,827.0677 217.0063,829.0037 222.6633,833.3377" id="Fill-141" fill="#8ED7EC"/>
            <path d="M331.2375,795.9163 C329.7615,793.4873 329.2115,792.5813 328.6605,791.6743 C335.2845,791.1133 326.2805,782.3293 333.2245,782.7093 C341.4585,786.2733 337.6215,790.9723 331.2375,795.9163" id="Fill-143" fill="#2B7164"/>
            <path d="M384.9533,901.741 C389.2103,903.458 394.1503,902.678 396.5523,905.938 C391.5993,911.114 380.5303,910.066 384.9533,901.741" id="Fill-145" fill="#2B7164"/>
            <path d="M444.4894,671.7356 C438.3594,676.1576 436.9704,671.9096 432.4604,668.8196 C437.7804,661.4946 439.1494,667.2106 444.4894,671.7356" id="Fill-147" fill="#2B7164"/>
            <path d="M417.4191,988.5633 C427.7341,993.8743 417.9071,1001.7413 413.9041,991.5313 C413.8221,991.4083 415.7531,989.9593 417.4191,988.5633" id="Fill-149" fill="#2B7164"/>
            <path d="M465.174,664.7864 C464.783,664.0144 464.394,663.2424 464.003,662.4704 C474.822,664.4904 466.187,667.3504 472.804,671.5364 C470.248,669.2804 467.711,667.0334 465.174,664.7864" id="Fill-151" fill="#fcfcfc"/>
            <path d="M280.8215,739.0374 C285.8495,742.3914 285.7855,744.8604 281.0075,747.2584 C275.5895,746.0614 276.8695,742.7874 280.8215,739.0374" id="Fill-153" fill="#2B7164"/>
            <path d="M251.6857,1041.5096 C244.5987,1037.4256 256.7667,1031.3536 259.2327,1034.7206 C256.8757,1036.8426 254.5197,1038.9616 251.6857,1041.5096" id="Fill-155" fill="#2B7164"/>
            <path d="M201.2599,1077.9129 C197.1509,1073.8769 197.8119,1072.8499 201.0259,1069.4219 C204.1329,1072.5719 204.0499,1073.7429 201.2599,1077.9129" id="Fill-157" fill="#8ED7EC"/>
            <path d="M311.3576,1103.6092 C305.2326,1103.3012 304.3136,1101.3542 307.6466,1095.7472 C308.8836,1098.3672 310.1216,1100.9882 311.3576,1103.6092" id="Fill-159" fill="#8ED7EC"/>
            <path d="M285.2795,767.9397 C288.4965,770.7947 290.2055,772.2357 286.2185,775.4117 C282.3305,772.2867 279.6435,771.3567 285.2795,767.9397" id="Fill-161" fill="#2B7164"/>
            <path d="M205.6564,724.1009 C205.9054,724.2769 206.1544,724.4529 206.4024,724.6289 C206.1424,724.4619 205.9034,723.8239 205.6564,724.1009" id="Fill-163" fill="#8ED7EC"/>
            <path d="M948.0285,951.2405 C1041.3605,948.0375 1016.3695,925.7965 1017.2945,1007.4305 C1016.8545,1043.3105 1046.6025,1052.4995 1057.6545,1077.2065 C1052.1185,1089.0195 1075.8705,1133.8685 1059.2335,1128.3815 C1023.9085,1129.7525 1022.7905,1128.0635 1002.8915,1099.2695 C999.3785,1093.2195 983.3145,1092.5065 988.9655,1083.1725 C1010.7755,1057.8045 996.6375,1030.4195 986.1545,1005.3675 C987.3215,979.6495 955.8825,966.4635 948.0285,951.2405" id="Fill-165" fill="#A5D353"/>
            <path d="M874.6701,1162.9388 C867.6581,1137.0728 913.6901,1141.5968 928.2791,1125.6028 C968.6691,1107.4518 981.4971,1069.2698 1012.1931,1124.9618 C1013.8781,1129.3138 1011.9821,1131.0918 1007.7951,1131.6448 C973.8321,1136.1208 944.7151,1150.6258 920.3871,1174.5918 C899.1831,1209.4028 878.4701,1200.0528 874.6701,1162.9388" id="Fill-167" fill="#A5D353"/>
            <path d="M991.6769,1049.6155 C992.6159,1062.6415 983.2859,1081.8345 969.6649,1081.9405 C951.3639,1070.3915 878.7889,1091.5405 883.3859,1076.9965 C887.1779,1047.0915 946.9629,1062.9915 966.9299,1037.8785 C984.1509,1016.1945 991.0829,1026.0595 991.6769,1049.6155" id="Fill-169" fill="#A5D353"/>
            <path d="M936.2648,1007.7537 C1018.7258,1009.0057 930.9198,1050.4957 897.3108,1051.1517 C884.6368,1053.3537 895.0918,1035.2177 896.2198,1029.3217 C899.4688,1008.2847 919.2398,1009.6387 936.2648,1007.7537" id="Fill-171" fill="#A5D353"/>
            <path d="M904.6613,992.0491 C915.3433,909.9541 1001.4473,1010.0901 966.9953,1002.8421 C950.9073,989.1791 899.2733,1013.0001 904.6613,992.0491" id="Fill-173" fill="#A5D353"/>
            <path d="M1121.2493,1190.1336 C1106.4853,1178.8416 1091.7703,1165.2216 1085.4603,1147.9136 C1102.1423,1154.9006 1116.3113,1172.5626 1121.2493,1190.1336" id="Fill-175" fill="#A5D353"/>
            <path d="M946.3967,953.0882 C945.6537,952.2842 944.9097,951.4812 944.1667,950.6772 C946.4997,951.1352 949.2417,950.6592 946.3967,953.0882" id="Fill-177" fill="#A5D353"/>
            <path d="M607.9142,829.573 C555.6482,870.803 467.4522,829.254 515.2682,763.411 C526.8192,756.303 548.1012,733.05 553.8412,755.699 C520.4382,755.791 521.1762,798.985 546.5762,810.261 C571.3742,825.133 604.0102,785.134 607.9142,829.573" id="Fill-179" fill="#0C4568"/>
            <path d="M589.5021,804.0291 C551.3101,843.2131 492.4131,765.2511 553.8431,755.6971 C572.9001,771.0741 538.8091,758.8651 537.3001,774.3621 C540.0571,835.9661 597.9391,771.4861 589.5021,804.0291" id="Fill-181" fill="#8ED7EC"/>
            <path d="M559.9992,774.5545 C559.3382,775.0555 559.3482,775.3615 560.0392,775.8205 C560.3822,775.2575 560.8722,774.7505 559.9992,774.5545 M583.8522,792.2345 C567.1742,812.0545 533.4462,801.6215 537.3012,774.3575 C539.2892,757.5215 580.5392,765.2335 564.8692,777.8915 C551.2282,786.0695 585.4292,777.2375 583.8522,792.2345" id="Fill-183" fill="#0C4568"/>
            <path d="M454.5793,153.7083 C452.7263,146.0033 442.4933,140.1423 454.9273,138.0853 C447.7783,146.6513 461.4193,142.9223 464.5143,149.3793 C472.7383,141.1113 472.6983,153.4513 477.1983,154.5013 C480.5353,158.1183 463.9173,163.5373 475.4203,168.3753 C487.5913,174.0843 474.0783,174.4083 469.7053,180.0213 C467.1493,180.7703 463.2533,179.7123 465.6293,176.7803 C467.7333,175.7493 470.6293,175.2623 468.0263,172.1673 C466.4143,170.2513 464.4983,168.6133 461.6033,171.1473 C454.0453,178.4183 444.7423,168.1583 442.2593,160.1983 C453.4143,165.9533 474.0593,150.0693 454.5793,153.7083" id="Fill-185" fill="#8ED7EC"/>
            <path d="M631.8439,62.4505 C627.2149,65.1685 607.4989,73.5065 614.4019,62.5115 C619.3829,60.6195 618.1169,58.5595 615.4229,55.4575 C594.8319,30.6045 617.5789,41.1915 600.1899,20.6165 C616.3739,12.6985 602.4939,32.4835 614.1869,35.9445 C629.5389,47.2135 607.7329,48.0915 631.8439,62.4505" id="Fill-187" fill="#2B7164"/>
            <path d="M563.6037,332.1429 C562.3377,332.0459 560.5127,332.4389 559.9147,331.7569 C555.7917,321.4059 552.5577,331.0489 544.7597,329.6299 C551.9147,310.2459 534.0947,299.8779 566.7027,304.8089 C567.0497,304.8219 570.8797,306.1629 567.1907,308.4399 C555.7567,313.9939 569.4157,324.3349 563.6037,332.1429" id="Fill-189" fill="#8ED7EC"/>
            <path d="M635.9074,319.7141 C633.6764,314.9591 634.5354,306.6341 627.4144,307.8951 C631.7714,303.7811 636.9784,310.0071 641.8914,309.5931 C652.1844,307.1981 662.9074,305.7631 673.5334,308.3291 C645.8764,308.7321 673.8134,324.6421 641.8094,322.1301 C644.6954,316.7831 639.2434,319.3261 635.9074,319.7141" id="Fill-191" fill="#8ED7EC"/>
            <path d="M499.9074,155.1258 C503.9764,151.2638 507.8714,157.5368 510.6464,155.8868 C512.9204,154.1578 520.9134,139.3078 519.3034,149.2408 C514.7204,175.3238 510.6804,159.5328 496.5554,170.3238 C489.8914,172.0808 499.3574,159.0598 499.9074,155.1258" id="Fill-193" fill="#A5D353"/>
            <path d="M589.5021,804.0291 C588.5091,794.1551 595.2931,790.4181 602.7521,785.6671 C601.8211,801.0151 608.8611,819.0271 589.5021,804.0291" id="Fill-195" fill="#2B7164"/>
            <path d="M584.2707,351.6736 C570.8397,347.0276 583.1587,348.6326 590.2727,349.0886 C588.4227,347.0316 587.8787,342.7196 584.6567,342.8176 C590.5427,339.2256 586.8727,328.2926 593.9167,336.6966 C589.6797,348.8886 609.0187,344.0586 606.5817,353.6856 C597.0767,347.6806 594.9147,360.5156 584.2707,351.6736" id="Fill-197" fill="#2B7164"/>
            <path d="M436.006,450.3953 C449.829,444.3773 448.093,467.9283 437.035,468.4573 C432.985,469.4523 439.058,469.9953 440.675,470.6163 C424.627,474.7523 434.144,458.1363 436.006,450.3953" id="Fill-199" fill="#2B7164"/>
            <path d="M529.6476,452.0052 C533.5146,446.1742 541.1496,452.1562 543.3326,444.2112 C547.7026,454.7562 532.9846,458.9682 536.2426,468.3862 C520.5846,469.0242 527.5246,462.2882 529.6476,452.0052" id="Fill-201" fill="#8ED7EC"/>
            <path d="M455.5998,352.3797 C447.8828,345.1527 450.8318,326.1017 459.4118,320.2467 C460.7578,321.8707 464.5468,322.9367 460.6708,325.7527 C465.3038,328.1237 466.7128,335.1477 461.3678,337.2877 C448.5538,339.2357 462.8028,348.6697 455.4808,352.2737 C455.4828,352.2727 455.5998,352.3797 455.5998,352.3797" id="Fill-203" fill="#8ED7EC"/>
            <path d="M421.1037,140.6233 C398.2317,129.6313 417.2467,136.3083 406.1217,119.4813 C410.0727,118.0073 418.9557,123.0973 417.7417,128.2943 C418.2457,131.6183 427.7907,136.6213 421.1037,140.6233" id="Fill-205" fill="#8ED7EC"/>
            <path d="M548.0588,349.8714 C542.4198,342.7764 555.5308,352.2504 555.9548,341.6644 C556.6658,338.1224 560.9428,335.2944 563.6048,332.1424 C565.0388,332.9064 575.8038,341.6944 567.2728,340.1994 C555.3438,341.2094 566.2688,348.9374 564.8868,354.0704 C557.7258,350.2864 558.0848,346.3484 548.0588,349.8714" id="Fill-207" fill="#8ED7EC"/>
            <path d="M403.798,92.8118 C402.435,88.1208 399.604,83.5298 399.138,78.7428 C414.042,77.1638 424.527,91.3718 403.798,92.8118" id="Fill-209" fill="#8ED7EC"/>
            <path d="M563.5334,18.4109 C571.6884,26.0789 563.8044,37.1319 561.0124,29.9709 C558.3184,20.9629 554.4194,15.0039 547.9974,25.3439 C547.5544,14.4169 556.3864,17.7529 563.5334,18.4109" id="Fill-211" fill="#2B7164"/>
            <path d="M517.3166,20.2088 C510.0336,25.1588 518.7586,28.1628 519.3726,33.1298 C515.7576,38.6998 492.4206,14.1508 517.3166,20.2088" id="Fill-213" fill="#2B7164"/>
            <path d="M444.3098,28.3743 C450.9028,22.8723 454.0168,28.0593 452.9178,35.3383 C444.1878,41.9783 428.5228,29.8023 444.3098,28.3743" id="Fill-215" fill="#2B7164"/>
            <path d="M536.048,311.9143 C536.329,302.3653 528.549,304.7173 523.323,303.2953 C534.542,293.7213 558.133,313.9583 536.048,311.9143" id="Fill-217" fill="#2B7164"/>
            <path d="M509.4689,317.6311 C519.3889,324.7541 504.6189,328.0081 500.1239,326.6921 C497.4289,322.2961 506.6709,312.2441 509.4689,317.6311" id="Fill-219" fill="#8ED7EC"/>
            <path d="M547.4406,379.9754 C531.5206,384.8974 546.9506,364.5844 541.2986,364.0374 C545.5736,358.2144 547.4476,366.5274 550.8806,365.6644 C570.0806,366.9774 533.1216,369.5904 547.4406,379.9754" id="Fill-221" fill="#8ED7EC"/>
            <path d="M377.6564,100.0559 C383.3024,94.8869 387.0144,86.4239 394.2174,83.6199 C392.1334,90.4329 386.0204,105.9059 377.6564,100.0559" id="Fill-223" fill="#2B7164"/>
            <path d="M462.8224,360.6013 C468.1034,375.8663 459.2934,360.9343 452.0624,360.4903 C443.9364,359.4013 451.9394,353.0843 455.6004,352.3793 C457.4434,354.5603 460.5504,357.9913 462.8224,360.6013" id="Fill-225" fill="#A5D353"/>
            <path d="M454.7785,174.4812 C459.3705,173.5422 464.6635,166.6672 468.0265,172.1682 C470.6295,175.2622 467.7335,175.7492 465.6285,176.7802 C464.4885,183.2992 456.1845,179.7892 454.7785,174.4812" id="Fill-227" fill="#2B7164"/>
            <path d="M377.6564,100.0559 C385.3034,99.8809 390.7724,116.6239 380.4254,110.1269 C381.8784,106.0419 370.1584,105.5249 377.6564,100.0559" id="Fill-229" fill="#8ED7EC"/>
            <path d="M613.6389,306.1643 C608.3509,309.7103 598.9499,317.1043 596.1169,307.2803 C601.5989,304.4573 607.7519,306.2533 613.6389,306.1643" id="Fill-231" fill="#8ED7EC"/>
            <path d="M450.0021,354.9588 C448.7551,357.5208 447.0231,360.2628 452.0611,360.4918 C435.7521,363.8558 428.0931,347.1848 450.0021,354.9588" id="Fill-233" fill="#8ED7EC"/>
            <path d="M441.1594,142.3772 C444.2204,152.0822 428.7364,146.5932 422.8854,145.5712 C426.7524,140.2652 435.2904,143.6322 441.1594,142.3772" id="Fill-235" fill="#2B7164"/>
            <path d="M494.0353,344.1189 C492.2283,331.4309 495.9093,324.3179 500.3963,340.2479 C500.5723,340.9829 496.2703,342.8009 494.0353,344.1189" id="Fill-237" fill="#2B7164"/>
            <path d="M478.217,366.093 C478.123,355.817 492.055,360.445 493.041,367.872 C488.696,372.186 483.232,367.089 478.217,366.093" id="Fill-239" fill="#8ED7EC"/>
            <path d="M448.8918,160.4358 C444.5498,160.6678 440.7808,160.0008 437.3528,157.1868 C442.7728,150.2908 452.3618,149.4308 448.8918,160.4358" id="Fill-241" fill="#A5D353"/>
            <path d="M557.0822,368.1624 C553.5152,364.5384 556.2212,359.3964 559.9132,364.4004 C570.5472,370.3634 560.2562,381.4834 557.0822,368.1624" id="Fill-243" fill="#A5D353"/>
            <path d="M433.9211,422.2869 C437.4441,416.7569 443.7131,417.7499 445.628201,422.7009 C445.6481,426.1509 442.6991,426.8569 439.1231,425.8229 C434.3601,427.2649 433.3661,429.0829 433.9211,422.2869" id="Fill-245" fill="#2B7164"/>
            <path d="M403.798,92.8118 C411.042,90.2348 414.722,90.7978 413.767,98.2888 C409.22,101.0668 401.961,99.7058 403.798,92.8118" id="Fill-247" fill="#2B7164"/>
            <path d="M437.0158,337.0213 C440.3608,340.3383 440.3328,344.5893 439.4708,348.9393 C433.3528,347.7043 429.7968,339.8923 437.0158,337.0213" id="Fill-249" fill="#A5D353"/>
            <path d="M419.7863,108.052 C415.2243,104.206 410.7643,104.448 413.5663,98.507 C415.2553,98.921 417.5723,100.635 417.2003,96.759 C420.6403,102.466 435.3913,108.354 419.7863,108.052" id="Fill-251" fill="#2B7164"/>
            <path d="M494.2082,170.888 C486.3282,179.654 495.6432,178.032 502.7642,179.594 C490.7962,182.284 479.5432,174.697 494.2082,170.888" id="Fill-253" fill="#A5D353"/>
            <path d="M443.2971,301.8543 C440.6751,306.6373 431.6261,310.3833 433.5731,301.8763 C436.5061,301.6893 443.1491,297.4673 443.2971,301.8543" id="Fill-255" fill="#8ED7EC"/>
            <path d="M565.5949,326.0789 C561.7019,313.3929 580.0739,330.4399 565.1089,332.7869 C565.9219,330.9429 565.2959,328.2189 565.5949,326.0789" id="Fill-257" fill="#0C4568"/>
            <path d="M519.674,302.9607 C511.888,303.0357 505.26,306.2317 497.641,305.0967 C499.195,299.4147 513.685,303.7257 519.674,302.9607" id="Fill-259" fill="#2B7164"/>
            <path d="M616.5266,328.6971 C617.2956,334.2561 612.8626,330.2411 611.3106,331.5251 C601.5546,328.4081 608.4306,320.0151 616.5266,328.6971" id="Fill-261" fill="#A5D353"/>
            <path d="M583.4924,323.4964 C578.7554,317.6404 575.9754,315.5894 583.3954,312.8044 C587.7954,315.0004 585.2404,318.6464 583.4924,323.4964" id="Fill-263" fill="#8ED7EC"/>
            <path d="M495.9826,145.7957 C495.3106,141.6487 493.8316,138.8447 499.7956,139.0417 C498.9266,141.9987 500.4486,147.2577 495.9826,145.7957" id="Fill-265" fill="#A5D353"/>
            <path d="M551.5266,487.8054 C545.5286,487.4874 539.5306,487.1694 533.5316,486.8504 C536.2996,484.2514 538.5586,481.2474 542.8056,485.6274 C544.5776,487.4534 548.5526,487.1434 551.5266,487.8054" id="Fill-267" fill="#0C4568"/>
            <path d="M550.881,365.6648 C547.447,366.5268 545.573,358.2138 541.301,364.0368 C535.956,358.8798 540.377,358.4698 544.955,360.4638 C551.408,357.2918 551.611,360.8688 550.881,365.6648" id="Fill-269" fill="#A5D353"/>
            <path d="M529.6476,452.0052 C529.1096,453.3192 529.3936,459.9802 527.8216,457.9522 C520.5426,456.6122 525.3766,447.1492 529.6476,452.0052" id="Fill-271" fill="#A5D353"/>
            <path d="M493.0588,366.5701 C490.1588,363.4961 487.4568,360.2901 486.2018,356.1871 C494.1988,358.1121 494.1988,358.1121 493.0588,366.5701" id="Fill-273" fill="#2B7164"/>
            <path d="M506.383,467.3577 C504.188,462.5937 509.892991,464.3697 513.099,463.8487 C515.094,467.9427 509.137,466.6417 506.383,467.3577" id="Fill-275" fill="#8ED7EC"/>
            <path d="M509.4689,317.6311 C505.9649,315.4641 507.5029,311.9911 507.8039,308.5491 C510.3199,311.7401 512.7699,314.0631 509.4689,317.6311" id="Fill-277" fill="#2B7164"/>
            <path d="M440.3898,134.5833 C443.2778,135.8913 446.0708,137.2233 441.9778,140.4263 C439.6878,138.9573 435.0578,138.1243 440.3898,134.5833" id="Fill-279" fill="#2B7164"/>
            <path d="M573.1955,362.0896 C574.3945,364.4556 577.5195,366.6806 573.5755,367.6736 C573.5045,366.2316 570.3575,360.4856 573.1955,362.0896" id="Fill-281" fill="#8ED7EC"/>
            <path d="M624.9748,308.2996 C621.1658,307.5886 617.3588,306.8766 613.5488,306.1656 L624.9748,308.2996 Z" id="Fill-283" fill="#8ED7EC"/>
            <path d="M573.9474,352.9827 C573.7514,355.9747 573.5544,358.9667 573.3614,361.9567 C573.5584,358.9627 573.7534,355.9727 573.9474,352.9827" id="Fill-285" fill="#8ED7EC"/>
            <path d="M579.2971,346.7918 C577.8801,349.3968 577.2071,350.0418 575.3621,347.3708 C576.6741,347.1788 577.9851,346.9848 579.2971,346.7918" id="Fill-287" fill="#8ED7EC"/>
            <path d="M434.2287,430.2278 C434.1217,432.2678 434.0147,434.3078 433.9087,436.3458 C434.0157,434.3048 434.1227,432.2668 434.2287,430.2278" id="Fill-289" fill="#2B7164"/>
            <path d="M552.134,497.9265 C552.102,496.1625 552.07,494.3995 552.037,492.6405 C552.07,494.4055 552.102,496.1665 552.134,497.9265" id="Fill-291" fill="#0C4568"/>
            <path d="M446.0451,22.6585 C445.3061,23.9575 444.5661,25.2565 443.8281,26.5545 C444.5671,25.2555 445.3071,23.9565 446.0451,22.6585" id="Fill-293" fill="#2B7164"/>
            <path d="M527.548,487.0882 C526.223,487.2982 524.898,487.5082 523.574,487.7172 C524.9,487.5072 526.224,487.2972 527.548,487.0882" id="Fill-295" fill="#0C4568"/>
            <path d="M429.1476,103.0613 C427.9306,102.7923 426.7136,102.5243 425.4976,102.2563 C426.7136,102.5243 427.9306,102.7923 429.1476,103.0613" id="Fill-297" fill="#2B7164"/>
            <path d="M493.5578,170.3875 C492.7528,170.3155 491.9488,170.2435 491.1398,170.1715 C492.3088,169.6375 495.4978,168.0725 493.5578,170.3875" id="Fill-299" fill="#2B7164"/>
            <path d="M508.1193,179.6775 C508.3773,179.7105 508.6343,179.7435 508.8843,179.7745 C508.5393,180.1115 508.3593,180.1035 508.1193,179.6775" id="Fill-301" fill="#A5D353"/>
            <path d="M562.9357,319.7547 C562.3707,319.1817 561.6387,318.8087 562.7167,318.3897 C563.1647,318.7577 563.2627,319.2607 562.9357,319.7547" id="Fill-303" fill="#0C4568"/>
            <path d="M530.4103,487.9739 C530.4083,487.9759 530.4053,487.9789 530.4013,487.9819 C530.4003,487.9829 530.4103,487.9739 530.4103,487.9739" id="Fill-305" fill="#0C4568"/>
            <path d="M1044.4426,1218.053 C1041.0536,1213.883 1038.5136,1203.148 1044.2916,1201.851 C1049.4706,1204.718 1046.6066,1214.334 1044.4426,1218.053" id="Fill-307" fill="#2B7164"/>
            <path d="M421.966,1160.1194 C418.368,1160.8554 414.77,1161.5914 411.172,1162.3294 C393.533,1139.8904 343.488,1149.8084 348.309,1182.0854 C349.554,1187.1044 348.66,1190.1114 341.691,1190.3764 C318.109,1191.2734 321.635,1191.4894 321.408,1169.3414 C321.129,1115.4284 418.522,1097.7594 421.966,1160.1194" id="Fill-309" fill="#0C4568"/>
            <path d="M5.7053,931.9373 C5.3843,932.8713 5.8833,935.9613 4.6183,934.6953 C4.8173,933.8073 5.9543,932.6763 5.7053,931.9373" id="Fill-311" fill="#0C4568"/>
            <path d="M210.9455,498.9388 C271.2625,517.0728 314.3655,570.1958 324.8775,627.9178 C300.9145,615.2108 297.2165,568.4558 269.2435,552.1918 C255.7005,541.3558 239.7775,531.5538 230.4735,516.8948 C221.9035,516.4958 193.5975,505.2388 210.9455,498.9388" id="Fill-313" fill="#fcfcfc"/>
            <path d="M317.3478,905.9607 C277.2888,944.0667 347.1668,955.1757 332.5858,905.3837 C306.9168,862.7127 259.3388,913.4257 286.5868,946.8117 C289.5358,954.6757 315.2598,957.9287 310.3918,963.3697 C213.9038,967.5757 275.0928,847.3597 340.6108,891.6277 C396.5408,955.1867 250.3448,970.6787 295.5218,898.9897 C316.7258,884.1657 340.6168,914.3947 320.4078,932.4287 C307.5858,940.0147 310.0888,912.6497 317.3478,905.9607" id="Fill-315" fill="#0C4568"/>
            <path d="M839.1682,595.6419 C806.1102,633.4049 775.0082,671.3279 748.7232,714.1929 C702.7012,741.0729 822.8182,574.8619 839.1682,595.6419" id="Fill-317" fill="#fcfcfc"/>
            <path d="M881.8,724.5213 C882.945,702.8713 1010.461,647.7223 990.569,681.2293 C951.245,688.4003 918.64,708.5073 881.8,724.5213" id="Fill-319" fill="#fcfcfc"/>
            <path d="M507.6447,107.6551 C504.5067,117.5381 498.4617,101.0501 496.7397,97.0091 C502.3007,93.1481 501.2837,91.0111 495.0487,90.1371 C490.3377,89.4761 484.9287,86.9201 483.5347,94.8061 C484.4117,100.5811 475.1507,109.8041 475.4037,100.4511 C482.7347,95.5781 475.3847,94.2961 473.3997,91.7461 C479.5317,86.5691 472.2817,82.0311 469.6247,75.6381 C459.1617,64.7491 478.5097,76.7041 482.3257,70.1311 C491.2117,67.1151 510.4657,62.8831 490.4777,74.1021 C491.9767,76.9151 493.5067,79.7161 494.9697,82.5511 C497.7717,88.6451 510.3887,72.9491 505.6207,96.5841 C503.2857,100.8231 505.5077,104.2321 507.6447,107.6551" id="Fill-321" fill="#2B7164"/>
            <path d="M459.5529,114.5144 C451.5269,112.6634 449.5149,106.8524 446.5479,100.1354 C442.5039,97.9394 435.0999,96.0244 446.3559,93.3364 C449.6089,88.2224 443.7479,80.5104 443.1749,74.7114 C445.8839,73.0294 451.4979,78.8864 451.9449,71.3314 C451.5769,83.5114 456.7469,94.4794 469.2859,100.0414 C463.0299,110.5244 460.3989,101.8904 453.1569,103.6774 C454.3339,109.3724 457.6299,107.4714 461.7149,106.4484 C466.4719,112.5084 468.9429,113.0154 459.5529,114.5144" id="Fill-323" fill="#2B7164"/>
            <path d="M451.9445,71.3318 C451.4985,78.8868 445.8835,73.0298 443.1735,74.7108 C435.6865,81.3108 435.5305,66.4818 435.4685,61.7368 C435.9015,59.0948 432.7675,51.5408 440.3625,57.8688 C440.5465,42.8008 462.3585,35.6188 452.3255,54.8618 C449.1445,61.4728 443.8525,66.5828 451.9445,71.3318" id="Fill-325" fill="#fcfcfc"/>
            <path d="M454.9269,138.0852 C442.0179,145.1362 454.0769,130.6282 446.8269,123.7862 C445.2669,117.8452 456.0159,117.3882 459.7039,114.3222 C455.6949,147.9092 472.5579,101.3482 469.9519,128.1122 C463.2359,130.1802 462.5199,137.9922 454.9269,138.0852" id="Fill-327" fill="#2B7164"/>
            <path d="M522.632,72.7908 C518.961,73.5128 518.587,71.5228 518.404,68.4448 C518.175,64.5968 520.786,67.0388 521.9,66.3458 C526.109,63.7258 530.128,60.7988 534.207,57.9878 C561.778,62.9648 534.625,68.6048 522.632,72.7908" id="Fill-329" fill="#2B7164"/>
            <path d="M495.0871,52.345 C493.9491,58.533 500.4451,58.654 501.1541,63.291 C492.1621,71.916 467.3811,56.065 484.9991,48.413 C487.0911,52.981 490.4861,54.208 495.0871,52.345" id="Fill-331" fill="#2B7164"/>
            <path d="M495.0871,52.345 C489.1841,55.969 480.6201,47.81 488.9301,44.846 C477.1211,43.349 479.1781,24.657 491.8151,37.227 C493.0321,46.093 500.2721,45.802 495.0871,52.345" id="Fill-333" fill="#fcfcfc"/>
            <path d="M589.09,84.8699 C587.606,82.0599 587.241,78.3079 590.481,76.9649 C598.347,73.7219 594.42,64.8059 606.163,70.2459 C604.462,74.5519 597.353,74.2509 601.493,78.5769 C599.98,80.3219 598.957,82.3649 597.943,84.4239 C596.029,89.4839 580.179,93.4929 589.09,84.8699" id="Fill-335" fill="#fcfcfc"/>
            <path d="M517.7072,105.1546 C511.3422,109.9166 511.3812,105.2176 511.5322,98.4506 C512.5852,96.7246 506.1832,90.7366 514.5862,93.0466 C514.6862,91.1176 516.8232,88.7406 519.4302,88.6296 C519.6712,95.5456 530.7722,95.0096 529.3462,103.0686 C525.0892,101.6516 520.7962,100.0536 517.7072,105.1546" id="Fill-337" fill="#2B7164"/>
            <path d="M540.5529,153.0525 C545.0809,155.5765 559.2479,156.2945 554.2229,161.1245 C547.1759,157.5185 514.1279,170.0995 540.5529,153.0525" id="Fill-339" fill="#A5D353"/>
            <path d="M495.2228,78.5491 C497.4628,81.0061 498.5348,76.1821 495.9158,75.5361 C494.2938,75.6951 494.5088,77.3931 495.2228,78.5491 M501.2248,81.8511 C495.9588,89.2171 493.3638,78.6921 490.4768,74.0981 C497.5448,70.6161 503.7438,63.1251 508.1978,74.2211 C504.6668,77.3871 495.7318,75.6641 501.2248,81.8511" id="Fill-341" fill="#A5D353"/>
            <path d="M543.2326,59.7913 C529.4916,58.3703 539.9236,57.2413 537.9266,47.7203 C536.9716,45.2703 538.8076,41.7333 539.3806,38.6883 C545.9456,39.2263 547.0956,53.9473 543.2326,59.7913" id="Fill-343" fill="#A5D353"/>
            <path d="M631.8439,62.4505 C628.6399,58.8805 638.6559,57.8255 641.2359,57.2005 C638.8459,62.1595 640.2639,71.9435 645.5699,64.3205 C646.5609,62.7555 646.5949,59.7485 649.1339,62.5695 C651.3749,75.8035 635.3769,71.5305 631.8439,62.4505" id="Fill-345" fill="#8ED7EC"/>
            <path d="M568.6662,106.638 C564.1132,103.269 548.1782,91.664 558.7772,88.877 C564.2432,95.023 571.9472,96.122 568.6662,106.638" id="Fill-347" fill="#A5D353"/>
            <path d="M583.5666,90.2718 C575.8636,98.8468 580.2476,82.6818 564.3016,84.3138 C565.6796,79.4118 573.5126,79.7248 577.0536,80.4408 C583.2806,82.3888 575.9906,91.8678 583.7076,90.4208 C583.7066,90.4198 583.5666,90.2718 583.5666,90.2718" id="Fill-349" fill="#A5D353"/>
            <path d="M517.7072,105.1546 C519.5032,98.1276 537.0372,103.7236 530.1522,107.3346 C516.5542,116.3636 519.4172,118.7976 517.7072,105.1546" id="Fill-351" fill="#8ED7EC"/>
            <path d="M595.0705,69.0706 C597.8615,76.2966 590.3535,75.2746 587.5285,80.2926 C584.6985,77.4376 589.4565,70.9496 582.6095,70.0186 C585.4415,69.9006 591.6335,61.9626 595.0705,69.0706" id="Fill-353" fill="#2B7164"/>
            <path d="M647.6428,36.7722 C645.1288,35.9112 633.8348,39.0082 637.4978,34.1322 C633.6028,21.9392 647.9608,28.9572 647.6428,36.7722" id="Fill-355" fill="#2B7164"/>
            <path d="M531.6896,78.4427 C528.6686,80.7567 525.9706,85.5607 521.5826,81.3157 C518.8166,78.6407 517.6626,87.1867 516.4426,81.9837 C515.1176,76.3257 520.4256,76.8817 524.0536,76.4237 C527.8866,72.2257 528.6636,79.5887 531.6896,78.4427" id="Fill-357" fill="#2B7164"/>
            <path d="M543.6252,117.1687 C538.6692,123.9267 537.2832,122.9047 535.4552,115.5617 C536.6722,109.2097 540.1272,114.1617 543.6252,117.1687" id="Fill-359" fill="#2B7164"/>
            <path d="M495.5998,52.2244 C495.0688,50.0954 499.8488,48.0764 495.3298,45.5334 C485.2428,26.7324 520.4758,50.3424 495.5998,52.2244" id="Fill-361" fill="#8ED7EC"/>
            <path d="M515.6916,89.8357 C513.7716,97.5757 507.8396,86.7057 511.5336,98.4527 C499.3276,98.2867 508.8146,75.3687 515.6916,89.8357" id="Fill-363" fill="#fcfcfc"/>
            <path d="M531.6896,78.4427 C520.6646,73.9047 520.2436,73.1347 533.0746,68.3087 C533.5936,71.8387 538.3386,79.1377 531.6896,78.4427" id="Fill-365" fill="#fcfcfc"/>
            <path d="M593.8498,36.2288 C582.5688,32.1038 584.5158,32.0508 593.7628,27.5388 C601.1708,23.5018 595.6248,33.8168 593.8498,36.2288" id="Fill-367" fill="#8ED7EC"/>
            <path d="M690.5012,38.3553 C688.5052,42.8243 684.7752,39.7593 682.2672,38.2403 C678.2152,28.9523 686.2272,34.4233 690.5012,38.3553" id="Fill-369" fill="#2B7164"/>
            <path d="M470.3937,78.4915 C476.4277,83.2325 477.8267,89.3065 472.5067,91.8265 C468.7047,89.0955 466.9627,82.6305 470.3937,78.4915" id="Fill-371" fill="#8ED7EC"/>
            <path d="M647.6428,36.7722 C646.5928,34.2382 651.7288,38.3412 654.5798,35.4212 C655.3618,45.1822 644.2938,49.0912 647.6428,36.7722" id="Fill-373" fill="#A5D353"/>
            <path d="M499.6808,38.7112 C497.5378,38.0762 491.8138,40.0782 491.8138,37.2282 C497.1528,29.3332 501.3458,28.3072 499.6808,38.7112" id="Fill-375" fill="#A5D353"/>
            <path d="M463.2668,61.0208 C464.0418,53.6928 470.5038,53.4078 469.3418,61.2328 C470.7488,70.3808 463.8598,64.2638 463.2668,61.0208" id="Fill-377" fill="#2B7164"/>
            <path d="M489.798,138.7791 C482.972,135.4141 488.644,131.2501 489.638,126.2371 C496.194,129.8331 492.012,133.4131 489.798,138.7791" id="Fill-379" fill="#A5D353"/>
            <path d="M444.9025,44.8963 C441.6005,59.0013 437.0055,51.2383 437.4665,40.7043 C439.7515,42.5193 441.9665,44.3353 444.9025,44.8963" id="Fill-381" fill="#2B7164"/>
            <path d="M449.548,60.4212 C453.689,52.3972 464.272,57.4092 458.374,67.2752 C455.562,63.3382 455.556,59.3392 449.548,60.4212" id="Fill-383" fill="#2B7164"/>
            <path d="M593.7326,88.4265 C597.7116,83.8935 597.6186,92.1665 599.5736,95.2815 C592.8076,94.6355 586.0806,95.4825 593.7326,88.4265" id="Fill-385" fill="#A5D353"/>
            <path d="M503.7219,49.7039 C504.2089,41.8839 518.4929,52.9329 510.8449,55.0519 C508.2099,53.8589 505.9809,51.5489 503.7219,49.7039" id="Fill-387" fill="#2B7164"/>
            <path d="M518.049,115.7371 C524.158,112.6671 523.207,118.3231 520.735,122.0411 C516.239,123.0011 516.585,119.2031 518.049,115.7371" id="Fill-389" fill="#2B7164"/>
            <path d="M505.6203,96.5823 C513.1903,97.1383 513.3783,103.8023 507.6403,107.6633 C505.5083,104.2313 503.2853,100.8233 505.6203,96.5823" id="Fill-391" fill="#8ED7EC"/>
            <path d="M467.8469,83.7864 C470.3069,88.4664 473.3269,93.8404 466.0969,91.9784 C464.6319,89.1174 463.7009,85.7254 467.8469,83.7864" id="Fill-393" fill="#2B7164"/>
            <path d="M580.2443,43.1697 C581.9613,45.2097 589.1703,48.3347 584.7773,49.3787 C582.1213,47.3337 575.3573,46.7977 580.2443,43.1697" id="Fill-395" fill="#8ED7EC"/>
            <path d="M641.2365,57.1995 C634.0275,59.4945 633.5045,58.0645 635.1385,51.0325 C637.1715,53.0895 639.2035,55.1445 641.2365,57.1995" id="Fill-397" fill="#2B7164"/>
            <path d="M496.5588,170.3274 C499.6138,166.3304 503.6628,165.2494 508.4318,166.2784 C506.0398,172.2174 501.6328,172.2484 496.5588,170.3274" id="Fill-399" fill="#2B7164"/>
            <path d="M539.381,38.6883 C538.668,36.2943 533.008,31.6353 536.422,30.6463 C537.098,33.0983 541.18,36.8083 539.381,38.6883" id="Fill-401" fill="#A5D353"/>
            <path d="M459.4435,63.6638 C459.2625,60.6578 463.2145,59.6618 464.0325,62.6048 C463.9145,64.3498 460.7805,63.2408 459.4435,63.6638" id="Fill-403" fill="#8ED7EC"/>
            <path d="M593.7326,88.4265 C591.4396,90.8405 590.1176,94.8125 587.8296,90.3175 C589.7966,89.6875 591.7646,89.0575 593.7326,88.4265" id="Fill-405" fill="#2B7164"/>
            <path d="M493.9836,65.3753 C495.2516,65.6103 499.6706,63.8263 498.8956,66.0623 C497.4476,65.6913 494.5766,66.7583 493.9836,65.3753" id="Fill-407" fill="#A5D353"/>
            <path d="M601.6037,78.3679 C599.7927,76.3689 598.6407,74.5719 602.8157,74.4049 C602.4117,75.7279 602.0067,77.0479 601.6037,78.3679" id="Fill-409" fill="#2B7164"/>
            <path d="M499.7238,38.5437 C500.2728,37.8027 500.8218,37.0617 501.3698,36.3197 C500.8218,37.0597 500.2728,37.8017 499.7238,38.5437" id="Fill-411" fill="#8ED7EC"/>
            <path d="M485.2873,44.7102 C486.5013,44.7552 487.7153,44.8002 488.9303,44.8462 C487.2903,45.6812 485.9453,47.2252 485.2873,44.7102" id="Fill-413" fill="#2B7164"/>
            <path d="M463.4933,54.5296 C460.6593,54.7016 461.8743,52.3216 463.6263,54.4126 C463.6263,54.4116 463.4933,54.5296 463.4933,54.5296" id="Fill-415" fill="#8ED7EC"/>
            <path d="M465.5246,55.3255 C465.0206,56.2635 464.5176,57.2015 464.0196,58.1375 C463.8376,56.0765 462.5886,53.3395 465.5246,55.3255" id="Fill-417" fill="#8ED7EC"/>
            <path d="M589.09,84.8699 C588.469,85.4169 587.848,85.9639 587.228,86.5079 C586.095,84.8779 587.88,85.2159 589.09,84.8699" id="Fill-419" fill="#2B7164"/>
            <path d="M589.4377,94.3362 C589.2387,95.0292 589.0387,95.7212 588.8387,96.4142 C588.9847,95.7292 589.4957,94.9682 589.4377,94.3362" id="Fill-421" fill="#A5D353"/>
            <path d="M517.8576,105.9212 C521.0236,106.7442 520.1066,107.3262 517.8866,108.9302 C517.8786,107.9302 517.8686,106.9252 517.8576,105.9212" id="Fill-423" fill="#2B7164"/>
            <path d="M469.7424,128.2693 C470.1104,128.7143 470.4784,129.1593 470.8464,129.6033 C470.4734,129.2453 470.1964,127.9513 469.7424,128.2693" id="Fill-425" fill="#2B7164"/>
            <path d="M585.9142,89.7708 C585.2272,90.0528 584.3352,90.0738 583.5652,90.2708 C584.2022,90.5608 585.1582,89.8588 585.9142,89.7708" id="Fill-427" fill="#2B7164"/>
            <path d="M597.2639,85.5286 L597.1879,84.7166 C598.5899,84.0636 598.6889,85.3236 597.2639,85.5286" id="Fill-429" fill="#2B7164"/>
            <path d="M599.8049,80.7947 C600.3679,80.0547 600.9309,79.3147 601.4929,78.5767 C600.9299,79.3167 600.3669,80.0557 599.8049,80.7947" id="Fill-431" fill="#2B7164"/>
            <path d="M500.6154,64.0203 C500.3384,63.4363 500.6214,63.3413 501.1544,63.2913 C501.2034,63.7253 501.0724,63.9873 500.6154,64.0203" id="Fill-433" fill="#A5D353"/>
            <path d="M537.9943,359.823 C553.0843,372.793 530.3643,364.422 528.1033,375.89 C530.7653,385.29 521.9263,374.268 521.6773,382.367 C521.3983,386.581 522.7173,388.834 527.2863,388.139 C528.1573,397.064 521.0933,391.281 525.5873,404.155 C515.2633,411.974 514.6173,400.039 505.1263,403.676 C493.5033,410.734 494.1803,396.845 505.8423,400.381 C516.1333,397.985 493.1803,379.615 518.2843,365.667 C525.2173,360.677 525.6193,361.235 520.7943,354.87 C542.2403,350.354 516.2923,374.563 537.9943,359.823" id="Fill-435" fill="#fcfcfc"/>
            <path d="M469.5441,388.2644 C470.0321,400.6984 468.7541,412.0424 472.7281,424.2644 C466.2311,419.8054 465.2521,412.0504 457.6231,410.0414 C452.5981,403.3594 453.9831,417.2004 450.5091,409.6774 C451.2381,399.8374 433.5201,393.8844 450.8881,391.5834 C452.7031,391.4614 455.3531,399.5124 456.3591,391.0204 C458.5061,387.1914 465.5621,388.4294 469.5441,388.2644" id="Fill-437" fill="#fcfcfc"/>
            <path d="M489.5334,424.0554 C492.8104,439.6784 468.7064,475.6804 474.3934,452.8854 C475.9334,451.7924 468.5244,450.0814 473.0104,446.7084 C473.3204,446.4744 473.2214,445.6944 473.3114,445.1684 C466.4384,451.2224 467.6724,440.1374 463.4814,440.5184 C465.3724,436.6024 467.2634,432.6864 468.9434,429.2084 C466.8194,434.6784 477.7354,438.4254 473.3314,431.7894 C476.7554,425.2004 479.0274,433.0994 482.3784,428.0764 C484.7624,426.7354 487.1484,425.3954 489.5334,424.0554" id="Fill-439" fill="#fcfcfc"/>
            <path d="M703.509,360.2478 C698.766,360.3098 691.29,363.3538 688.431,358.2378 C687.273,353.8958 694.74,357.9008 695.545,353.5348 C698.563,344.3108 707.381,340.3918 716.425,339.2428 C723.924,336.2018 722.507,345.3468 728.707,346.3648 C734.585,350.1848 718.119,356.3268 715.208,355.4318 C711.613,346.3028 705.06,353.7548 701.518,354.3468 C696.646,355.0378 702.229,358.5778 703.509,360.2478" id="Fill-441" fill="#8ED7EC"/>
            <path d="M478.217,366.093 C489.826,367.791 491.671,377.88 493.749,387.907 C484.488,382.701 477.293,400.593 472.344,388.622 C472.239,388.26 470.515,388.372 469.544,388.264 C457.12,378.51 482.018,381.627 476.555,371.238 C475.932,370.323 477.604,367.848 478.217,366.093" id="Fill-443" fill="#fcfcfc"/>
            <path d="M671.5978,432.9734 C665.0898,439.1544 659.3718,442.4794 662.6238,431.3154 C675.6088,427.0944 666.7858,426.9904 661.7098,426.1614 C659.9878,419.2974 680.0758,423.2554 669.6918,417.7334 C669.1958,406.3684 683.4798,426.6714 681.9088,432.2524 C678.2698,434.6614 676.6958,438.7294 671.5978,432.9734" id="Fill-445" fill="#8ED7EC"/>
            <path d="M594.174,356.18 C599.81,359.586 600.349,362.233 607.36,356.14 C607.982,367.595 592.567,378.797 582.286,385.129 C580.226,366.417 593.969,378.664 594.174,356.18" id="Fill-447" fill="#A5D353"/>
            <path d="M547.7844,402.0799 C524.0844,393.5469 558.0444,380.0969 554.6344,398.0799 C553.7164,401.7419 552.4114,404.7509 547.7844,402.0799" id="Fill-449" fill="#fcfcfc"/>
            <path d="M557.0822,368.1624 C561.4362,372.8364 558.5212,380.3554 564.2642,383.1504 C565.0442,383.3334 565.2532,385.9154 565.7252,387.3904 C559.1542,387.5914 558.7182,380.8454 555.8722,376.4504 C550.6022,369.9594 553.8812,385.4434 547.4432,379.9774 C538.2672,371.9204 550.6522,369.0244 557.0822,368.1624" id="Fill-451" fill="#2B7164"/>
            <path d="M527.2863,388.1389 C519.5333,390.4599 519.7893,375.7399 527.0683,379.8189 C529.1673,380.2609 528.6053,379.8219 528.1053,375.8889 C528.6613,370.3119 536.1783,368.6809 541.1473,368.4929 C542.1623,379.8319 529.9683,378.1509 527.2863,388.1389" id="Fill-453" fill="#2B7164"/>
            <path d="M594.174,356.18 C592.974,359.834 592.587,364.342 590.579,367.176 C599.002,364.425 586.649,376.671 587.176,369.894 C577.011,362.485 582.91,346.283 594.174,356.18" id="Fill-455" fill="#8ED7EC"/>
            <path d="M483.7062,409.8025 C481.9422,392.2815 485.2982,408.6625 490.2272,395.4885 C491.0832,405.6555 504.7642,421.1355 483.7062,409.8025" id="Fill-457" fill="#2B7164"/>
            <path d="M617.3566,463.5061 C614.4816,457.1951 607.3826,456.3571 609.8266,452.2281 C612.5326,446.5841 616.3866,450.0401 619.9246,450.4231 C633.7786,450.7721 618.5836,455.1611 620.0926,461.0161 C620.2096,461.4111 618.7626,462.2621 617.3566,463.5061" id="Fill-459" fill="#8ED7EC"/>
            <path d="M477.0402,427.9676 C472.1312,430.3036 476.6062,434.8936 472.1102,435.5406 C469.9922,435.4896 468.5452,430.7356 468.9432,429.2086 C467.2642,432.6866 465.3722,436.6026 463.4812,440.5186 C463.8382,426.0026 463.8002,412.1466 477.0402,427.9676" id="Fill-461" fill="#2B7164"/>
            <path d="M538.1642,439.8079 C530.4372,431.2019 542.9772,415.1589 546.0272,426.1719 C530.6132,424.6609 555.2432,439.0409 538.1642,439.8079" id="Fill-463" fill="#A5D353"/>
            <path d="M512.8762,419.3211 C525.7802,422.3231 510.6162,430.1071 508.6032,420.9011 C504.5412,421.4301 500.1742,422.9811 502.0942,415.8691 C504.6052,407.8361 510.9932,416.1941 512.8762,419.3211" id="Fill-465" fill="#fcfcfc"/>
            <path d="M684.6555,371.9661 C676.9985,378.8791 683.0725,395.7571 672.9685,383.1251 C674.2215,380.1611 674.3715,378.3541 671.0445,377.2021 C673.1575,370.1871 680.1175,377.6901 684.6555,371.9661" id="Fill-467" fill="#8ED7EC"/>
            <path d="M458.5842,465.4939 C445.8222,463.2169 465.6382,456.5419 456.0172,451.6709 C465.9672,442.9289 463.0712,460.5779 458.5842,465.4939" id="Fill-469" fill="#2B7164"/>
            <path d="M669.34,397.0838 C665.255,401.4998 662.891,408.0468 656.116,408.3748 C654.216,400.7898 662.092,394.9538 669.34,397.0838" id="Fill-471" fill="#8ED7EC"/>
            <path d="M473.0939,379.0271 C465.5939,383.6171 462.7119,380.7691 454.0259,376.6631 C461.6999,376.6691 464.4899,374.9891 460.0449,369.7971 C474.0359,360.9021 459.2849,380.0241 473.0939,379.0271" id="Fill-473" fill="#2B7164"/>
            <path d="M483.7062,409.8025 C493.1782,413.9105 483.4762,419.7225 477.8782,414.3195 C469.0802,413.2255 475.8842,399.5135 483.7062,409.8025" id="Fill-475" fill="#fcfcfc"/>
            <path d="M547.0617,424.2273 C533.2787,421.3563 544.4427,418.1023 530.2797,422.1563 C532.7877,413.5303 550.8907,413.4503 547.0617,424.2273" id="Fill-477" fill="#8ED7EC"/>
            <path d="M501.1144,452.3665 C483.4134,459.5365 500.1164,434.4505 503.2894,450.0735 C505.5764,453.5925 504.2834,453.8045 501.1144,452.3665" id="Fill-479" fill="#A5D353"/>
            <path d="M607.5236,372.2903 C607.0426,378.5143 593.6566,394.8653 598.1236,379.8733 C600.7616,377.1313 601.7956,370.6033 607.5236,372.2903" id="Fill-481" fill="#A5D353"/>
            <path d="M533.9572,416.5554 C529.7322,424.2784 520.1762,429.9744 511.6052,426.3044 C518.9462,422.8084 526.4682,419.7134 533.9572,416.5554" id="Fill-483" fill="#2B7164"/>
            <path d="M686.3371,413.1057 C679.4781,406.3857 684.3941,405.0557 689.6181,400.9877 C693.8551,402.8287 687.7441,408.0207 686.3371,413.1057" id="Fill-485" fill="#A5D353"/>
            <path d="M483.6291,418.0891 C484.5201,416.9301 485.4101,415.7711 486.3021,414.6111 C484.9241,421.2831 491.4381,419.5051 495.2871,421.3061 C491.2581,421.5791 483.3621,430.2861 481.8721,426.2711 C481.9311,424.8731 471.5571,421.4061 482.6631,421.9851 C482.9171,421.9981 483.3041,419.4451 483.6291,418.0891" id="Fill-487" fill="#2B7164"/>
            <path d="M632.6974,346.0262 C641.8014,349.0792 635.9784,350.6862 630.6754,353.8582 C626.7424,351.3592 628.3974,348.6822 632.6974,346.0262" id="Fill-489" fill="#8ED7EC"/>
            <path d="M596.2668,436.7947 C600.2738,440.0007 587.1058,450.5527 585.2558,440.7357 C586.0938,436.0107 595.8108,440.6067 596.2668,436.7947" id="Fill-491" fill="#8ED7EC"/>
            <path d="M538.1642,439.8079 C543.9512,438.0359 545.4492,437.8999 543.3322,444.2099 C538.5102,454.5609 528.2522,446.8089 538.1642,439.8079" id="Fill-493" fill="#fcfcfc"/>
            <path d="M498.009,406.3577 C504.395,404.3837 512.712,398.3477 515.224,408.0497 C510.476,406.8967 499.641,410.2617 498.009,406.3577" id="Fill-495" fill="#8ED7EC"/>
            <path d="M542.1281,416.3562 C531.1901,418.1352 543.0971,406.4072 535.9161,402.5002 C544.4761,400.4242 541.6961,411.4422 542.1281,416.3562" id="Fill-497" fill="#2B7164"/>
            <path d="M607.3586,356.1414 C601.0656,361.1074 599.8106,361.1274 595.2426,356.3404 C596.9456,348.4324 605.9266,351.2404 607.3586,356.1414" id="Fill-499" fill="#8ED7EC"/>
            <path d="M450.8869,391.5838 C447.2119,394.0678 434.0479,393.4948 441.9329,387.6448 C444.6309,377.7758 446.0389,386.7728 450.8869,391.5838" id="Fill-501" fill="#2B7164"/>
            <path d="M452.1877,412.0935 C453.9957,411.3965 453.6467,404.9955 457.6247,410.0395 C457.0017,413.6025 450.6027,417.0765 457.4467,420.8655 C454.8057,428.6465 449.1347,417.1395 452.1877,412.0935" id="Fill-503" fill="#2B7164"/>
            <path d="M635.9074,319.7141 C651.5324,317.3271 636.2134,324.9751 629.3704,322.1161 C617.4324,317.1001 630.0134,316.3071 635.9074,319.7141" id="Fill-505" fill="#2B7164"/>
            <path d="M695.7814,375.9407 C692.7764,373.4617 690.1944,371.3317 687.6134,369.2007 C691.6234,364.8857 701.9154,371.4287 695.7814,375.9407" id="Fill-507" fill="#8ED7EC"/>
            <path d="M444.4875,430.8157 C447.4605,433.2507 447.9745,439.5387 452.4585,441.8887 C445.6485,447.3847 441.4755,435.2527 444.4875,430.8157" id="Fill-509" fill="#A5D353"/>
            <path d="M525.5842,404.1546 C526.5392,400.3216 519.9122,395.0046 527.8612,392.5436 C535.4482,396.0346 527.8852,399.6296 525.5842,404.1546" id="Fill-511" fill="#2B7164"/>
            <path d="M547.7844,402.0799 C552.4114,404.7509 553.7164,401.7419 554.6344,398.0819 C556.5694,402.0069 556.8494,414.7559 551.9024,407.3799 C546.7824,408.4089 547.7534,404.9069 547.7844,402.0799" id="Fill-513" fill="#8ED7EC"/>
            <path d="M730.9816,360.513 C732.7086,364.182 739.1236,368.239 733.8756,370.045 C729.7376,366.516 725.0486,366.91 730.9816,360.513" id="Fill-515" fill="#8ED7EC"/>
            <path d="M634.4445,402.3557 C629.7745,407.5647 628.7325,404.9817 624.8765,401.7627 C628.8225,400.6427 630.8655,398.2687 634.4445,402.3557" id="Fill-517" fill="#8ED7EC"/>
            <path d="M473.7228,460.2762 C478.6828,456.4592 479.4358,459.5292 480.2648,464.5552 C477.2748,468.6002 475.5268,462.9072 473.7228,460.2762" id="Fill-519" fill="#2B7164"/>
            <path d="M511.6047,426.304 C531.5097,428.395 501.5387,437.884 510.3797,426.123 C510.7877,426.847 511.1067,426.417 511.6047,426.304" id="Fill-521" fill="#fcfcfc"/>
            <path d="M512.8762,419.3211 C511.3152,416.6521 508.3702,414.5111 512.9512,413.8661 C512.9262,415.6841 512.9002,417.5031 512.8762,419.3211" id="Fill-523" fill="#8ED7EC"/>
            <path d="M747.1105,342.1868 C749.0105,343.2998 750.3905,344.3668 748.5945,345.8328 C746.2955,345.3728 745.7665,344.6088 747.1105,342.1868" id="Fill-525" fill="#8ED7EC"/>
            <path d="M703.4318,360.3147 C705.5368,361.4547 706.3148,363.3527 706.9108,365.5437 C705.0388,364.2247 703.7748,362.3027 703.4318,360.3147" id="Fill-527" fill="#8ED7EC"/>
            <path d="M553.5666,410.3133 C552.5366,411.0343 551.4066,414.3033 550.3486,412.7013 C551.4256,411.9703 552.5016,410.8323 553.5666,410.3133" id="Fill-529" fill="#8ED7EC"/>
            <path d="M466.259,384.5428 C467.345,385.7798 468.431,387.0168 469.518,388.2538 C466.239,388.4418 465.422,387.8208 466.259,384.5428" id="Fill-531" fill="#2B7164"/>
            <path d="M607.2707,372.0696 C607.5807,371.6376 607.8897,371.2046 608.1997,370.7726 C607.8897,371.1566 607.7447,372.6056 607.2707,372.0696" id="Fill-533" fill="#A5D353"/>
            <path d="M511.5197,426.2532 C510.7197,427.1582 510.2747,425.8962 509.9867,425.2242 C510.9327,423.9472 510.9937,425.4502 511.5197,426.2532" id="Fill-535" fill="#2B7164"/>
            <path d="M483.6291,418.0891 C483.3041,419.4451 482.9171,421.9981 482.6631,421.9851 C471.5571,421.4061 481.9311,424.8731 481.8731,426.2691 C476.7981,439.3311 465.1951,407.3331 470.2681,400.7931 C483.0631,398.3471 467.4571,414.3641 477.8761,414.3191 C479.9201,414.5761 481.7191,416.7751 483.6291,418.0891" id="Fill-537" fill="#8ED7EC"/>
            <path d="M493.7756,382.0833 C488.6346,378.7423 485.9926,370.8093 493.0416,367.8723 C498.1776,372.6733 499.4406,377.0373 493.7756,382.0833" id="Fill-539" fill="#2B7164"/>
            <path d="M507.2121,394.3792 C515.0211,400.4182 503.4491,401.1622 498.9621,399.8382 C500.7931,396.6162 502.5201,393.2582 507.2121,394.3792" id="Fill-541" fill="#2B7164"/>
            <path d="M493.7756,382.0833 C496.6026,377.7903 496.9366,383.7513 498.4966,386.1523 C493.4306,388.7833 493.4416,387.0563 493.7756,382.0833" id="Fill-543" fill="#0C4568"/>
            <path d="M535.2746,360.7083 C533.4246,362.7833 531.6126,364.7393 528.7736,365.3513 C527.1726,360.4443 531.3166,357.1313 535.2746,360.7083" id="Fill-545" fill="#2B7164"/>
            <path d="M448.8918,160.4358 C448.0608,153.9508 458.9818,149.3758 463.0348,154.9138 C460.2258,158.9028 453.1418,163.2868 448.8918,160.4358" id="Fill-547" fill="#2B7164"/>
            <path d="M447.8176,141.6848 C449.1116,143.4138 450.4056,145.1438 451.6996,146.8738 C447.8546,147.0518 447.1676,144.8688 447.8176,141.6848" id="Fill-549" fill="#2B7164"/>
            <path d="M451.6164,161.9803 C452.0484,161.5263 452.5754,161.2673 453.1894,161.2093 C453.0004,162.8693 452.9094,163.4013 451.6164,161.9803" id="Fill-551" fill="#A5D353"/>
            <path d="M565.5949,326.0789 C564.9979,328.3079 566.9539,333.6189 563.4179,332.3579 C564.1439,330.2649 564.8689,328.1719 565.5949,326.0789" id="Fill-553" fill="#fcfcfc"/>
            <path d="M445.5314,324.3753 C445.5384,328.3343 445.5444,332.2933 445.5514,336.2523 C443.2544,330.9573 434.1534,321.8513 445.5314,324.3753" id="Fill-555" fill="#8ED7EC"/>
            <path d="M439.1682,325.0149 C438.3702,324.2939 435.1392,323.6459 436.6842,322.6319 C437.8142,323.3489 440.7302,323.4759 439.1682,325.0149" id="Fill-557" fill="#8ED7EC"/>
            <path d="M461.7141,106.4485 C457.6281,107.4685 454.3341,109.3765 453.1581,103.6815 C456.7331,100.9515 458.9291,104.8495 461.7141,106.4485" id="Fill-559" fill="#8ED7EC"/>
            <path d="M591.5412,366.3396 C591.2212,366.6186 590.8992,366.8976 590.5792,367.1756 C590.4932,366.5986 591.0682,366.1786 591.5412,366.3396" id="Fill-561" fill="#A5D353"/>
        </g>
    </g>
</svg>
