<svg viewBox="202.95 110.7 1070.1 1254.6" xmlns="http://www.w3.org/2000/svg" xmlns:xlink="http://www.w3.org/1999/xlink" overflow="visible">
    <defs>
        <polygon id="masterspot-illustrationseducation-path-1" points="0.6193 0.312 80.9015831 0.312 80.9015831 80.4483562 0.6193 80.4483562"/>
        <polygon id="masterspot-illustrationseducation-path-3" points="0.926328082 0.6977242 64.96 0.6977242 64.96 66.6016449 0.926328082 66.6016449"/>
        <polygon id="masterspot-illustrationseducation-path-5" points="0 0.126627056 168.1208 0.126627056 168.1208 38.6955 0 38.6955"/>
    </defs>
    <g id="Master/Spot Illustrations/Education" stroke="none" stroke-width="1" fill="none" fill-rule="evenodd">
        <g id="Group-466" transform="translate(203.000000, 114.000000)">
            <path d="M496.8293,827.1729 C492.8853,822.3039 491.6503,825.8289 488.0763,828.0789 C491.5003,832.1029 492.9533,830.2319 496.8293,827.1729 M187.0903,523.5499 C182.3083,519.6409 177.5993,525.0229 172.6813,526.2849 C172.4553,534.7999 183.5973,527.4959 187.0903,523.5499 M164.9143,541.0219 C161.3353,535.3689 152.9513,549.0449 153.0533,553.2859 C158.8113,552.5799 160.8933,544.7829 164.9143,541.0219 M150.4383,860.9769 C125.8133,830.0589 206.0823,851.9419 172.8953,879.9759 C153.8183,899.2489 139.1133,852.9729 133.2363,866.4569 C134.1043,909.4529 186.5583,905.2189 198.7203,870.2939 C192.9883,799.9629 95.1993,843.8379 150.4383,860.9769 M274.9243,542.3069 C273.4303,489.8669 219.9593,489.3739 192.1953,522.6689 C173.6943,548.1729 190.3973,578.0449 213.4023,592.9119 C239.4383,589.6509 275.1903,572.9709 274.9243,542.3069 M339.3603,785.9639 C341.8943,771.5639 318.6093,735.0909 301.2573,745.6249 C293.5763,752.5449 290.8043,734.2819 282.0493,740.4409 C246.5303,747.2229 248.1423,790.1709 266.0753,814.3959 C287.9573,846.9829 344.6623,822.3259 339.3603,785.9639 M129.4963,635.3399 C71.4793,637.2099 83.9703,745.1359 131.6953,750.3429 C193.9813,740.5669 195.0383,639.1549 129.4963,635.3399 M241.6223,999.0749 C245.5923,1065.6849 339.2573,1035.2769 337.5603,983.4719 C337.4953,953.6629 309.8493,923.7389 278.7923,928.6949 C243.8793,934.4609 254.4653,974.3099 241.6223,999.0749 M454.0963,842.9429 C455.1493,800.8949 403.3763,814.9789 421.1633,823.6799 C456.9543,827.9809 426.6443,862.9069 418.9513,835.7169 C419.7793,828.6369 413.5903,827.9019 409.2833,832.0399 C400.6933,842.7059 407.7113,858.6199 421.8873,861.6139 C435.8583,866.5009 443.5203,851.1639 455.5643,853.4139 C466.6953,856.3149 476.6863,853.6419 482.6883,842.6809 C472.8983,842.0809 463.8783,848.4699 454.0963,842.9429 M168.1213,492.5629 C206.7973,445.6719 277.5083,456.1929 324.4583,482.9619 C353.5343,510.0939 368.9533,548.8239 389.6933,579.6619 C415.1523,607.4119 370.2593,598.4339 373.6203,637.7559 C367.6043,675.6289 411.2533,692.3739 442.1003,669.0589 C464.9383,637.1129 523.0053,695.5359 567.1263,675.8029 C571.3473,674.8879 573.0803,679.6209 576.0943,680.7969 C603.7683,674.3799 549.9383,713.6669 554.2453,729.3279 C501.5033,775.2309 523.6063,872.0719 583.3983,910.6249 C609.2193,921.6169 537.6353,948.9339 528.8103,956.4489 C516.1213,967.7149 524.2543,904.2279 482.1323,915.8749 C440.8923,925.0189 464.5813,974.3799 448.3833,997.8669 C445.0983,997.3709 441.9503,997.0939 441.8423,1001.8279 C432.9873,1001.9849 426.4103,1000.8599 422.8053,1011.4469 C418.6953,1011.8559 416.0403,1013.2019 416.6823,1017.8609 C379.5283,1046.5099 405.1043,1092.5479 429.0513,1120.9349 C440.9353,1148.4559 458.7073,1180.9669 480.5183,1201.8849 C466.6103,1220.3129 385.5863,1214.1799 355.6663,1191.6779 C368.4053,1167.2239 340.2063,1125.9409 313.5093,1142.2789 C296.8843,1157.5179 288.6753,1161.9149 270.2253,1145.8079 C217.0203,1094.1229 186.6033,1021.8299 146.7093,959.6239 C86.2433,874.2469 65.7513,771.8489 49.3783,669.9419 C51.8603,597.2579 134.3383,553.1739 168.1213,492.5629" id="Fill-1" fill="#102c82"/>
            <path d="M324.9958,407.3105 C316.9868,408.1875 320.0518,411.5965 324.2178,414.5245 C331.3118,414.1985 330.3668,410.4565 324.9958,407.3105 M822.8818,412.3665 C817.9528,404.5075 818.9738,381.3665 805.5848,386.2335 C799.0508,392.9675 771.8548,394.9045 778.1458,405.9015 C794.1498,421.4225 791.0558,441.6715 784.2328,461.3245 C804.1748,469.7815 825.4498,435.2215 822.8818,412.3665 M605.4198,461.5505 C579.3308,428.7595 609.1138,388.9785 593.7778,385.1525 C574.4618,385.1685 539.2378,362.0445 535.7258,393.0755 C526.1958,439.7345 565.5578,456.6255 605.4198,461.5505 M104.5988,206.2615 C103.5698,224.7675 153.5148,217.3995 168.2498,222.8215 C175.8948,228.5435 204.4078,170.4175 193.6848,169.8825 C179.5138,164.7175 164.2678,140.2045 149.4338,148.5425 C119.0538,174.3835 103.7318,156.1855 104.5988,206.2615 M516.7838,101.4445 C403.5978,113.8205 517.7808,266.7205 563.6098,159.6935 C577.9098,102.0815 515.6848,167.7885 493.2978,172.2085 C468.6008,166.2105 542.4298,134.1335 551.3388,125.1735 C566.0308,113.2935 530.0128,99.2655 516.7838,101.4445 M676.4728,106.2215 C655.7698,101.8795 615.3118,135.7385 633.4798,148.5235 C642.6968,145.4255 654.1258,127.5115 663.2148,136.2305 C666.1758,161.2775 611.7428,149.0845 635.4858,180.9195 C651.0088,192.8935 682.2468,145.0225 703.2878,149.5085 C709.1298,164.0785 637.2858,184.8025 650.5768,196.7845 C727.9958,242.7335 760.8648,103.2195 676.4728,106.2215 M583.9818,471.5715 C508.7248,450.7095 427.6158,431.4515 350.3758,417.1485 C322.3198,435.2365 291.8898,442.5815 344.8588,450.2015 C402.7408,462.6175 460.8928,474.0905 517.9538,489.9845 C541.3888,496.8435 561.2348,475.8355 583.9818,471.5715 M301.1298,308.6545 C372.6558,325.4245 450.4748,338.3575 523.6248,356.1535 C568.0268,363.2915 610.7198,386.6215 649.8128,356.1135 C654.9168,346.9605 606.0658,346.9575 596.8238,342.7035 C529.7098,329.3565 462.3238,318.8925 395.2068,305.4315 C363.0218,295.2725 332.5498,296.4455 301.1298,308.6545 M606.9888,416.0385 C606.1568,428.6365 611.4218,454.8305 626.5098,453.2725 C685.4178,428.1215 741.4178,396.8795 800.8208,372.8525 C858.1478,354.3485 811.3218,351.2225 817.8068,307.1145 C818.1008,300.5635 815.5888,301.3465 811.2378,303.1905 C760.3528,324.0605 710.0158,346.2225 659.4488,367.8445 C634.3378,375.5105 604.1098,384.1255 606.9888,416.0385 M831.8638,197.8765 C806.6948,197.1895 743.2618,163.2285 732.2338,191.6785 C683.9978,250.1745 631.6968,213.4265 606.0208,156.5885 C570.9138,146.3095 573.3818,212.9905 524.7628,212.2305 C499.9098,215.5715 471.1118,200.6215 461.9658,176.6865 C451.6628,161.4535 405.5398,191.4775 386.8638,192.7195 C369.4728,200.9895 348.3258,203.6605 331.0788,209.6345 C376.5958,222.3555 434.9638,225.1985 484.3358,237.6025 C549.1238,246.9025 612.8928,261.8365 677.7258,270.7995 C692.6998,275.2705 701.3068,254.6825 716.1918,252.6745 C757.4018,234.8955 798.0848,214.1475 840.9628,202.3525 C847.9648,196.0655 834.7378,200.7525 831.8638,197.8765 M280.9018,345.8805 C264.3598,361.3615 295.7398,408.1195 304.8758,384.3145 C282.1418,321.6795 333.3038,326.0215 294.2428,316.9825 C281.8648,309.2945 278.0898,324.7465 276.2998,333.5775 C265.0668,335.3855 274.9128,344.7295 280.9018,345.8805 M362.1968,333.7835 C350.7878,333.2855 335.3648,321.5645 332.3358,336.9985 C317.3118,312.8745 328.3358,335.9065 318.4848,337.8695 C314.3068,339.0025 313.4668,353.8355 316.9798,356.7495 C327.2968,353.0635 325.1468,366.1675 324.2158,371.4705 C312.4578,373.8345 325.7678,384.3065 327.1398,390.0135 C358.5618,411.8605 407.7408,409.5505 445.1628,422.2395 C458.0888,421.1685 536.2558,454.1675 523.2888,431.7965 C505.5438,350.2065 574.2088,383.9565 457.2098,354.9165 C423.6938,349.6335 395.1468,340.4165 362.1968,333.7835 M583.7158,483.1905 C554.7928,488.7255 573.4848,516.6175 556.2488,498.1855 C552.8488,488.7365 537.3438,498.4315 544.9108,504.0335 C557.9568,522.8785 561.8928,543.4245 557.6968,564.7305 C572.6038,567.7585 561.2348,557.7265 568.3578,557.9685 C578.6558,559.8045 587.6308,551.7295 598.1968,550.8005 C616.5728,533.2795 607.5048,474.1315 583.7158,483.1905 M850.3608,207.9875 C801.5138,231.6835 750.0308,249.9015 700.1628,271.4305 C689.9858,279.6235 715.0978,300.4455 705.2018,317.4005 C707.1248,350.1835 839.3638,266.8635 862.8618,261.0705 C893.6058,249.7835 888.7788,187.5715 850.3608,207.9875 M621.2958,496.4295 C634.4018,535.8905 610.4318,549.6725 663.6988,522.5785 C708.6868,497.4495 802.9268,479.9565 765.7858,410.2535 C751.1298,404.9035 726.9858,421.6375 713.7028,431.6705 C692.6378,432.1445 672.1098,450.3745 649.8638,454.8245 C642.8298,461.2605 598.8828,471.0095 607.5548,479.3625 C628.9188,475.8065 607.1318,483.0515 621.2958,496.4295 M579.7618,325.2155 C606.4498,320.3205 671.9928,361.3095 687.5278,327.0565 C694.1158,314.8415 698.0988,287.2305 680.2238,283.8805 C626.4138,274.1225 573.9738,267.9095 520.1368,256.2755 C464.7628,248.2045 409.9988,236.6465 355.0508,226.1595 C339.5498,226.6675 362.1928,259.2645 349.1328,272.4555 C326.5768,297.9485 553.8438,314.1945 579.7618,325.2155 M316.0778,475.4195 C310.6908,474.3935 305.3038,473.3675 299.9168,472.3405 C319.1818,468.0975 290.2388,449.7145 290.1018,440.0965 C291.1688,437.0635 307.0558,426.3725 309.9338,424.1595 C312.1458,414.0715 302.3488,403.2655 293.0138,400.4495 C264.0898,397.6665 251.7448,357.1605 267.1998,336.3245 C262.8198,332.2285 263.5908,328.3685 265.7758,323.4015 C263.5898,304.8345 250.4508,287.1715 244.3868,269.1975 C217.1998,214.1685 214.0858,145.7955 181.9718,244.1025 C208.0748,296.6075 229.5638,351.1655 254.0868,404.4025 C284.5518,456.0035 280.1448,503.8835 247.4788,423.0635 C247.4638,415.0385 242.6268,417.6105 238.3628,418.9195 C242.5418,404.7785 234.4188,393.0465 229.4678,379.2135 C209.2118,347.7525 189.0618,243.1315 158.1268,235.8015 C144.7108,238.3165 100.8938,218.9205 109.0058,232.6685 C127.0588,262.0815 129.7758,310.9765 158.6928,329.1225 C151.6218,343.2585 161.4848,354.6225 166.0988,367.6165 C167.6408,377.0885 176.2808,371.5355 182.6588,370.6365 C187.3298,382.5375 177.8918,374.6905 170.7998,378.8225 C188.8448,404.0775 191.0378,445.5205 209.9398,458.7745 C187.2688,503.8485 146.9588,337.4965 132.3858,318.1675 C116.5978,271.3725 82.6118,227.8815 96.9108,176.8205 C107.5418,48.6195 103.0958,104.1895 202.9548,159.8665 C229.7048,197.4405 243.9008,244.9405 264.5068,286.8635 C268.3388,291.8755 271.9748,314.2355 279.9768,307.6135 C286.5138,298.5835 296.9888,296.6085 306.2488,294.0045 C339.2988,285.0835 349.2878,235.4175 321.7418,220.7065 C315.0178,218.5195 297.9498,208.6095 309.5558,203.7245 C357.0888,193.3125 401.2988,172.3055 447.5948,157.6285 C453.3028,155.6065 456.3138,152.3945 456.3608,145.5045 C456.9378,115.9205 486.5308,84.6885 515.9258,85.2795 C535.2198,84.7605 551.9318,91.9965 564.8138,106.5155 C571.6078,113.2055 574.2838,125.5855 582.9088,130.1715 C594.5088,129.8295 615.0518,143.4945 621.3328,129.8345 C634.3968,98.3195 672.0958,80.6875 703.9208,95.8375 C731.3668,107.8815 743.2918,129.3765 743.5898,158.2795 C766.9068,186.2575 880.2938,170.7565 891.6248,217.3015 C917.4998,294.4165 775.3088,255.7805 846.7038,352.2465 C869.4898,368.5945 817.0658,369.0875 824.0988,382.8915 C849.3648,416.2165 821.4408,435.6085 828.2858,456.2895 C842.0718,441.5205 847.0918,418.3545 861.4798,404.6815 C910.7508,311.4415 1071.2148,330.5995 959.3988,350.5365 C897.4848,362.6345 857.0788,420.3765 835.2958,475.8455 C833.9918,484.1095 826.2628,503.1045 822.1408,493.9465 C814.0808,485.5665 822.8288,476.3285 825.2958,467.8475 C806.7278,465.2845 783.0288,488.6875 761.4178,490.2975 C775.4298,497.6865 833.6978,495.6635 796.6288,511.1755 C747.2648,495.0695 741.6348,500.5855 696.9268,523.0735 C519.1458,609.7375 547.7228,581.6615 367.8668,544.0365 C339.0148,506.9605 499.3638,570.9925 529.5078,570.2505 C553.2728,572.0805 543.1128,530.6175 537.6678,516.9835 C520.7018,497.4525 488.4048,501.4965 464.7298,492.2815 C425.0058,482.6265 383.3338,477.6975 346.1458,460.9985 C328.4548,465.7945 302.9568,440.2705 316.0778,475.4195" id="Fill-3" fill="#07143c"/>
            <path d="M781.0675,848.5586 C781.3025,848.0996 781.6235,847.8286 780.8615,847.8566 L781.0675,848.5586 Z M787.9045,841.7786 C784.7125,839.7076 784.1755,840.6296 782.1885,842.8396 C784.4475,845.0586 785.3965,843.2966 787.9045,841.7786 L787.9045,841.7786 Z M678.8945,799.0966 C683.7415,796.0936 694.5975,784.6106 693.6855,778.1216 C680.7195,774.6136 680.2095,790.2846 678.8945,799.0966 L678.8945,799.0966 Z M665.0395,834.3826 C663.1315,827.4456 657.1225,840.3956 654.7655,843.0746 C642.1035,859.5106 664.0935,886.4276 665.0395,834.3826 L665.0395,834.3826 Z M908.8425,941.4386 C907.6185,925.1916 907.9025,912.0706 901.1905,897.9536 C896.6745,902.3296 900.3985,959.3196 908.8425,941.4386 L908.8425,941.4386 Z M642.3055,828.2266 C629.9825,828.4356 622.6235,829.0096 635.2645,841.1526 C642.3385,848.4256 642.5715,848.6036 649.8185,842.4766 C654.7755,833.1576 656.1285,824.5846 642.3055,828.2266 L642.3055,828.2266 Z M891.9565,796.3016 C885.8395,800.1946 863.3085,835.4346 885.6375,834.6166 C904.2005,836.8736 889.8375,807.3516 891.9565,796.3016 L891.9565,796.3016 Z M893.2025,684.4666 C895.3525,697.9756 891.2495,715.7966 908.8385,704.0616 C920.6745,696.1516 930.3675,704.4836 937.4275,690.5266 C929.1875,681.3846 912.2525,680.5226 900.9735,675.5936 C895.2435,673.3156 894.3395,682.6986 893.2025,684.4666 L893.2025,684.4666 Z M896.0525,595.4206 C904.0285,579.0806 814.2335,649.4326 833.9855,649.0406 C911.7035,675.8266 885.0465,661.5066 896.0525,595.4206 L896.0525,595.4206 Z M684.7225,767.0526 C705.6095,790.1056 781.3565,670.6216 807.8785,655.6226 C808.8395,639.0766 753.2095,640.1916 737.3015,634.9346 C711.4025,640.4666 696.6165,738.9286 684.7225,767.0526 L684.7225,767.0526 Z M888.8425,682.2946 C889.2895,676.9746 889.9965,671.6856 882.9475,669.7846 C861.1695,668.2326 833.5865,646.6796 814.2765,658.6536 C801.6395,674.7916 706.8905,758.6056 727.4835,762.9956 C778.6475,749.1726 829.1335,733.2866 879.0135,715.4196 C892.5975,711.2496 885.7185,693.1056 888.8425,682.2946 L888.8425,682.2946 Z M529.7315,842.5676 C540.6895,824.3526 581.5885,832.2876 603.1465,824.5096 C616.9645,822.7036 599.2745,811.8556 596.2485,805.3846 C577.6865,792.8896 548.3525,809.3856 526.3065,808.3876 C530.2685,795.2456 564.9515,800.9416 579.6925,795.5496 C596.6475,786.2216 539.1945,743.6736 550.3645,727.7556 C567.4545,745.0176 575.5105,776.1026 598.2215,790.6766 C602.7425,796.9076 611.5515,819.2436 622.2005,822.0256 C643.1535,820.4926 673.1205,827.2226 671.6715,796.8036 C681.9235,767.4896 625.0155,796.7246 610.2265,795.1596 C602.3755,781.2156 677.5615,787.6816 678.4415,766.6956 C694.3455,654.6636 770.1895,621.5936 649.9715,628.9296 C638.6915,629.4946 651.6495,620.3076 654.6855,615.8396 C656.1275,614.3736 658.6475,613.9676 660.6755,613.0786 C667.9965,628.3546 700.0075,619.1296 715.7395,625.2466 C747.0955,608.6896 742.7165,548.0366 777.9585,528.8756 C771.6005,545.9986 722.4685,621.0786 737.8355,628.2986 C838.3995,654.7316 816.4035,642.6786 892.4535,585.4026 C910.4425,563.6826 906.1465,528.6256 918.9345,502.8846 C921.0045,495.5926 919.3095,493.5296 911.6105,491.9016 C905.6125,486.3846 896.7765,482.6856 889.3855,489.0956 C884.9555,481.6266 878.9235,488.8416 873.8475,487.3936 C868.8825,486.0796 862.1795,484.5266 870.4005,481.9826 C903.6625,475.2236 930.7465,492.2876 952.1765,516.1386 C961.7745,536.3516 938.2185,512.5366 933.4215,505.2516 C919.7005,493.8666 911.7415,562.8746 908.0885,573.7186 C931.5605,571.4266 968.1545,519.0966 976.4645,558.4686 C955.7925,540.9506 931.9365,570.4576 912.2835,578.5296 C900.9425,585.9696 890.9045,660.7216 901.2125,668.5416 C925.5415,675.2906 944.0605,691.7076 957.5425,661.1506 C940.2995,704.6376 981.6545,665.0576 998.0575,653.2476 C1006.0745,647.4166 1003.5445,638.9446 1002.8885,630.4776 C1013.9505,633.6036 1008.8715,646.9966 1009.3565,655.2806 C964.6905,689.8416 941.6365,683.3916 1008.6345,708.1876 C1037.7825,712.0196 1030.5045,733.1516 999.6995,710.2606 C978.5435,703.7866 946.7435,678.7786 934.1255,709.6276 C913.5915,746.6756 888.0085,782.1376 901.0485,826.3216 C901.9405,836.0196 902.2775,836.6336 911.5825,838.7316 C959.2665,847.5916 1005.1475,863.2106 1051.5055,877.1696 C1068.5465,883.4906 1058.2485,857.6226 1058.7125,849.0146 C1067.0515,861.5286 1066.1505,876.3716 1066.1945,890.6966 C1040.5355,886.8596 1018.3175,914.4266 993.3895,921.0266 C977.1665,933.9526 913.7195,938.6036 918.7455,960.6386 C930.0955,997.1826 911.4145,1047.9256 965.4925,1034.8466 C903.0185,1069.0936 928.6485,983.6426 908.7205,952.1016 C890.5625,972.2556 905.1735,1004.5116 903.4985,1029.4786 C908.0995,1035.7116 914.4995,1027.5786 919.7675,1036.9336 C898.9235,1035.0376 903.3775,1039.2616 902.5335,1057.4006 C903.9925,1121.9526 878.2655,1192.1496 810.7865,1211.5126 C839.2555,1094.3766 860.6865,975.3086 869.0705,855.0556 C869.8575,832.1096 896.6285,862.4786 894.6255,875.8216 C894.3345,879.9496 898.3425,885.9726 902.1315,888.3986 C920.6595,896.7496 902.7535,943.5116 924.7975,939.6086 C964.8025,925.9926 1003.0945,908.4396 1040.6865,889.2136 C1055.1875,871.9906 933.3215,855.6226 915.1705,845.8286 C905.2345,843.1826 903.7365,844.6556 904.7445,855.0636 C908.3765,868.8196 904.0475,892.1626 899.3895,865.7686 C896.4485,838.4216 901.1705,844.9706 874.0195,839.2186 C870.6625,838.0306 853.4105,835.5616 863.4305,830.8166 C878.0405,812.4546 890.4715,784.8386 889.1185,760.2626 C885.0035,723.1616 893.8075,724.9006 898.0825,760.2106 C921.3615,729.3386 946.2095,677.9456 890.1815,726.7276 C884.6705,708.6096 852.3185,739.5126 836.9845,738.1046 C800.3135,746.1636 765.7245,764.6116 727.8455,766.3686 C703.8385,773.9886 688.0035,797.2336 675.8625,818.1236 C705.8625,824.9726 746.3905,814.0576 770.9755,826.2386 C794.1395,816.4756 823.7345,829.2376 849.0645,828.5306 C856.3505,829.2936 856.5315,830.1596 854.2915,837.3046 C854.3295,847.8336 849.1055,860.2316 856.7385,869.5216 C856.6695,892.8946 845.4345,917.0986 847.3905,939.3366 C851.4895,953.3096 842.6175,965.3806 838.4125,976.9546 C838.6185,983.1076 840.2405,988.6956 835.3465,993.6446 C838.7055,1004.9356 826.2945,1014.6466 832.0005,1026.3976 C832.5075,1027.4436 828.3135,1032.1256 828.0695,1031.9876 C818.3265,1026.4936 819.6715,1035.6346 818.5785,1039.6716 C803.0435,1080.4556 794.7695,1213.0936 764.6175,1227.9156 C751.9195,1165.6286 720.6535,1102.2956 726.0715,1037.5696 C729.3465,1025.0326 811.0665,801.2916 765.3175,886.7686 L765.4445,886.6366 C749.7345,919.6076 714.9225,1079.5136 711.0355,949.9106 C715.7015,923.4306 690.8735,866.5746 723.2845,857.0056 C746.0355,853.3696 762.3515,835.1946 786.4355,836.9296 C804.8845,822.5176 697.2145,830.2886 679.9055,827.4216 C663.8555,828.5576 673.7935,853.0446 667.3445,863.4906 C662.4855,870.8746 675.0085,890.8616 660.1055,881.0786 C653.4615,877.1386 647.2015,856.0366 638.8285,865.2916 C635.1775,874.8316 606.8665,898.4126 617.8485,901.8296 C628.5725,897.4406 640.5555,893.3866 650.9285,889.4486 C653.1995,896.1376 648.5005,906.4466 639.9345,908.1966 C628.7085,910.2336 639.7415,922.8256 631.9965,927.9526 C619.2915,948.2106 608.0415,966.9966 595.0415,986.7486 C570.0405,996.6156 586.4765,937.9366 585.5965,924.2846 C599.7635,910.1646 634.5895,868.9956 634.8385,851.1416 C612.9735,813.1986 564.7585,842.2966 529.7315,842.5676 L529.7315,842.5676 Z" id="Fill-5" fill="#bfbfbf"/>
            <path d="M484.882,1206.4736 C478.059,1188.5766 507.293,1168.6576 514.242,1150.8936 C532.473,1126.1046 546.607,1097.1176 563.385,1072.5996 C573.64,1079.6506 565.571,1105.4096 567.131,1119.2906 C567.029,1148.6966 573.347,1177.9536 574.047,1207.5556 C577.126,1214.3046 576.538,1250.9136 585.463,1239.4566 C587.259,1167.6916 563.984,1085.2216 593.929,1018.6826 C612.696,993.7806 624.918,965.4586 641.564,939.3986 C650.477,925.7416 684.793,845.8546 695.869,888.7466 C693.529,933.0746 702.347,975.9076 703.969,1020.8676 C703.7,1026.0906 694.989,1023.5256 697.046,1028.5526 C700.751,1046.5216 686.939,1061.5106 681.622,1077.8116 C681.61,1085.1976 686.704,1112.3106 676.91,1107.4136 C676.404,1109.8116 680.339,1116.9786 672.039,1115.9726 C668.475,1115.5036 663.301,1116.0666 661.011,1121.7546 C643.125,1162.1466 624.691,1202.8446 611.028,1244.8056 C600.477,1249.5996 585.508,1247.3126 573.277,1245.7816 C540.76,1237.8006 508.56,1232.2046 484.882,1206.4736" id="Fill-7" fill="#bfbfbf"/>
            <path d="M858.3214,888.2578 C856.8794,887.2788 856.3654,887.6298 855.9614,889.2188 C857.3934,890.1888 857.8994,889.8118 858.3214,888.2578 M777.1944,1222.7988 C790.8874,1161.7398 805.4544,1100.8228 818.5794,1039.6728 C819.6714,1035.6348 818.3264,1026.4928 828.0694,1031.9868 C828.3134,1032.1258 832.5084,1027.4438 832.0004,1026.3978 C826.2944,1014.6468 838.7054,1004.9358 835.3464,993.6448 C841.3374,983.4268 837.1364,972.0868 845.5094,961.6958 C849.2354,942.1428 845.7154,922.6808 852.4584,902.5308 C858.8224,879.7888 850.9544,859.4248 854.2894,837.3048 C859.9494,820.4868 812.9784,828.7358 801.4514,824.0948 C791.1824,824.6018 779.5674,818.1558 770.9754,826.2368 C759.3554,812.4438 665.2794,831.0968 679.1904,811.0228 C692.6704,794.6498 703.3164,775.2498 724.1534,767.5568 C752.8754,765.8228 779.1494,753.4128 807.3134,747.7798 C830.5654,737.0618 857.2294,735.2788 879.4364,721.4728 C885.7854,717.1628 887.2174,720.7678 890.1844,726.7328 C895.4354,713.5728 938.7834,695.2268 921.9434,719.3748 C903.6484,744.9688 900.5594,785.3268 891.2774,730.8948 C884.7214,738.8538 888.6684,750.8018 889.1114,760.2598 C892.3954,783.9118 877.3044,803.5298 869.4994,824.6028 C868.5784,830.1408 854.4584,832.5348 863.2464,836.0188 C887.9164,845.8328 900.5554,833.4788 899.3894,865.7688 C903.9344,892.2558 908.4924,868.6938 904.7404,855.0648 C899.8584,827.6328 1008.6814,876.8108 1029.2684,876.5898 C1085.0414,886.5788 939.0634,931.7468 924.8034,939.6088 C908.1654,945.5928 914.5784,910.9608 909.9784,900.7378 C910.1194,890.0718 894.1984,886.6008 894.6254,875.8228 C896.6924,862.4438 869.8084,832.1648 869.0724,855.0538 C861.1744,907.8748 840.2464,1244.3658 777.1944,1222.7988" id="Fill-9" fill="#284fc7"/>
            <path d="M611.0304,1244.8057 C624.6914,1202.8447 643.1244,1162.1467 661.0104,1121.7537 C664.3304,1111.3357 679.2534,1120.6547 677.6274,1110.1987 C690.2564,1092.0857 674.3234,1076.8017 695.2924,1047.6727 C701.6124,1040.4287 691.5244,1026.5307 701.3584,1024.3767 C706.2624,1003.4887 700.3164,974.6697 698.4974,952.0407 C689.4284,939.8397 707.5274,865.9557 682.8264,877.3107 C643.9264,916.6017 628.1964,974.8637 593.9364,1018.6817 C566.2764,1076.4007 584.8054,1149.6887 584.3224,1212.5717 C588.4584,1260.9477 577.3064,1241.3987 574.0514,1207.5537 C559.4964,1003.5777 584.1914,1063.7397 482.6154,1197.9587 C478.7694,1209.6137 475.9134,1191.2317 468.9344,1189.9277 C464.4374,1188.6967 461.9844,1180.0017 458.6134,1174.6597 C481.6294,1159.9757 494.5934,1104.4927 517.3094,1105.1177 C524.2864,1102.8377 517.4014,1099.6727 521.3204,1095.5927 C537.6374,1085.6267 547.6754,1063.8457 555.8634,1047.7347 C553.2194,1033.2097 566.0714,1021.2697 561.8494,1018.6307 C558.1184,1015.0137 557.0594,1010.9097 564.5924,1009.6047 C573.2244,1004.9777 565.1744,992.8797 564.9984,985.3727 C553.5294,981.0067 562.1864,971.3397 559.7084,964.4907 C556.7094,958.4857 563.5264,946.5447 554.4554,944.2017 C565.0934,937.9617 572.4924,926.6557 585.6014,924.2797 C580.3464,949.4427 576.6474,1025.4767 606.9924,966.3687 C618.2154,959.6767 618.9954,944.2647 627.3564,934.4437 C630.2644,928.4547 638.4854,924.4857 634.6184,916.5827 C631.9754,905.4457 652.2214,908.6597 651.8594,892.8747 C653.2374,880.5867 609.1694,913.3247 614.8894,897.7297 C649.7074,857.4137 627.8184,852.6797 667.6564,884.4187 C667.3334,875.0667 666.1784,824.1217 679.8964,827.4247 C715.5684,827.9397 751.2554,827.8117 786.8644,830.5347 C804.5984,835.6507 772.7644,838.8907 765.8334,839.1287 C751.3794,844.5527 739.4234,855.4827 723.2924,857.0057 C692.7244,854.5237 713.7654,977.7437 718.0704,999.5417 C724.6614,1002.9187 729.1004,992.6937 728.0714,986.8207 C739.9174,975.7217 734.9864,957.6217 745.9134,945.4527 C756.8894,929.1407 754.4524,901.0637 766.2294,887.1457 C807.6574,803.3787 739.0974,997.1247 735.8464,1010.3197 C711.5204,1059.7867 736.1324,1115.1387 746.8864,1165.6777 C747.9874,1184.7147 773.9254,1217.1377 759.3514,1229.7037 C719.0214,1207.7137 724.7324,1136.7687 707.7534,1096.3167 C675.7724,1133.0187 670.8644,1261.2827 611.0304,1244.8057" id="Fill-11" fill="#284fc7"/>
            <path d="M1058.7125,849.0147 C1057.9555,858.1477 1066.1905,872.3817 1057.4735,878.3987 C1024.9895,870.3077 992.7395,858.3617 960.1755,849.7067 C942.9775,840.1337 904.7105,848.8837 901.0385,826.3277 C900.0995,806.7087 892.2895,785.8137 903.0855,767.6577 C920.7705,746.2427 926.9815,689.7277 961.1695,695.2987 C998.9415,709.3297 1024.6885,712.7247 1034.1205,753.5737 C1034.7025,759.1587 1027.1505,759.8367 1034.4845,763.4587 C1031.2975,776.4457 1037.8465,784.5997 1044.9185,794.9127 C1039.8415,813.6317 1059.4735,830.6577 1058.7125,849.0147" id="Fill-13" fill="#284fc7"/>
            <path d="M865.4747,484.7539 C873.7217,491.2139 882.5397,481.2469 889.3877,489.0909 C892.0597,485.7399 895.7447,486.5029 899.4027,486.0469 C905.7407,484.1499 906.8077,490.0479 911.6107,491.9019 C919.3087,493.5289 921.0047,495.5929 918.9277,502.8819 C911.3347,525.4629 905.2737,548.4479 901.2717,571.9639 C896.5907,589.2379 875.6507,594.4099 864.1017,606.5339 C847.5077,618.2049 834.1477,641.9429 813.0837,643.8619 C798.7167,636.7569 729.1517,635.6969 733.6827,620.1199 C757.9837,571.9279 771.9937,506.9709 830.4107,494.5249 C844.0847,503.7909 851.1547,482.1179 865.4747,484.7539" id="Fill-15" fill="#284fc7"/>
            <path d="M988.4083,938.8301 C982.3323,945.7631 982.1603,947.3481 988.5133,952.3221 C993.1003,946.9751 993.6513,945.5421 988.4083,938.8301 M965.4963,1034.8501 C938.0553,1037.8191 928.0153,1039.6491 925.9463,1007.7931 C927.5633,989.8111 906.8263,955.0641 926.7443,946.3081 C1037.2243,919.8081 1078.5483,833.2691 1067.7423,948.2731 C1060.8193,995.7321 1015.5283,1038.3621 965.4963,1034.8501" id="Fill-17" fill="#284fc7"/>
            <path d="M957.5421,661.1504 C950.5841,667.0164 947.7441,683.7554 936.7131,680.2504 C925.2491,673.0224 898.8701,675.3754 896.5601,660.4684 C901.2501,634.3844 895.2261,599.1614 912.2781,578.5294 C932.0201,570.3594 955.9981,540.7944 976.7311,558.6464 C1002.4391,624.3124 991.1671,599.6634 957.4181,661.2614 L957.5421,661.1504 Z" id="Fill-19" fill="#284fc7"/>
            <path d="M635.6896,1247.1084 C665.0946,1234.7884 694.8246,1078.4034 711.5546,1107.5444 C723.0716,1143.9194 723.5316,1212.6914 759.3426,1229.7024 C718.3376,1240.9784 678.9336,1249.9214 635.6896,1247.1084" id="Fill-21" fill="#bfbfbf"/>
            <path d="M927.0016,456.8408 C965.7306,460.2828 968.8256,397.9348 927.9586,398.6438 C891.1606,399.2118 889.3056,457.0558 927.0016,456.8408 M928.3026,469.5568 C878.3536,471.8048 873.8186,385.3208 928.6536,385.2488 C982.6576,382.4978 987.0856,472.4378 928.3026,469.5568" id="Fill-23" fill="#07143c"/>
            <g id="Group-27" transform="translate(271.000000, 0.690000)">
                <mask id="masterspot-illustrationseducation-mask-2" fill="#fff">
                    <use xlink:href="#masterspot-illustrationseducation-path-1"/>
                </mask>
                <g id="Clip-26"/>
                <path d="M25.4333,17.2007 C17.7233,18.6947 1.0633,23.0147 0.6193,11.0537 C3.3143,1.0307 17.2393,7.9757 25.0343,3.2897 C35.7563,1.2847 58.5273,-5.8873 53.5013,13.3087 C47.7953,41.6337 96.2913,-11.2993 75.8383,74.4817 C74.0223,81.3137 63.8293,82.5687 60.0373,76.7337 C52.5973,68.1897 72.3013,37.7317 55.9183,41.6477 C11.6943,55.4297 48.3203,12.4297 25.4333,17.2007" id="Fill-25" fill="#07143c" mask="url(#masterspot-illustrationseducation-mask-2)"/>
            </g>
            <g id="Group-30" transform="translate(1005.000000, 329.690000)">
                <mask id="masterspot-illustrationseducation-mask-4" fill="#fff">
                    <use xlink:href="#masterspot-illustrationseducation-path-3"/>
                </mask>
                <g id="Clip-29"/>
                <path d="M50.8287,34.5698 C53.1957,6.6288 12.8727,9.9728 11.2917,31.5598 C9.9787,56.0058 50.1177,59.3368 50.8287,34.5698 M31.3837,0.6998 C75.5257,0.2828 75.8967,62.8278 33.9547,66.5678 C-9.6743,68.3218 -9.6163,1.3198 31.3837,0.6998" id="Fill-28" fill="#07143c" mask="url(#masterspot-illustrationseducation-mask-4)"/>
            </g>
            <path d="M76.3224,435.9092 C114.5744,428.7202 96.1754,371.8092 61.8814,387.2102 C34.5724,399.8472 48.9244,438.2102 76.3224,435.9092 M109.7164,409.3492 C112.9904,457.4392 36.7884,457.6772 37.6934,411.2382 C35.5864,363.2772 110.1594,361.0912 109.7164,409.3492" id="Fill-31" fill="#07143c"/>
            <path d="M72.32,542.3574 C74.045,518.5974 36.769,513.1174 36.187,540.9104 C35.99,568.4394 72.557,570.1974 72.32,542.3574 M25.723,542.4304 C25.3,496.1784 87.354,501.8534 86.295,543.4554 C87.577,584.3784 25.887,586.9114 25.723,542.4304" id="Fill-33" fill="#07143c"/>
            <g id="Group-37" transform="translate(0.000000, 467.690000)">
                <mask id="masterspot-illustrationseducation-mask-6" fill="#fff">
                    <use xlink:href="#masterspot-illustrationseducation-path-5"/>
                </mask>
                <g id="Clip-36"/>
                <path d="M168.1208,24.8725 C164.9438,29.4805 161.7678,34.0905 158.5928,38.6955 C139.8728,21.4985 104.2718,18.0115 77.7768,13.4925 C51.8708,7.3565 22.8678,21.2475 -0.0002,16.5935 C45.8508,-16.2945 117.7508,7.3405 168.1208,24.8725" id="Fill-35" fill="#07143c" mask="url(#masterspot-illustrationseducation-mask-6)"/>
            </g>
            <path d="M964.7408,539.9814 C896.8108,585.4544 902.3838,588.8604 923.5328,510.4834 C930.7978,488.0994 943.0498,525.0574 955.5078,525.2794 C950.4478,530.8884 960.1258,527.6724 964.7408,539.9814" id="Fill-38" fill="#284fc7"/>
            <path d="M926.1539,314.4531 C943.8139,314.7721 942.0369,286.8991 925.2159,286.6551 C906.0309,287.2681 908.4299,314.6831 926.1539,314.4531 M923.9839,327.5541 C892.5349,326.0731 892.9529,276.9251 925.5339,274.0531 C958.4349,271.4511 964.3179,327.1041 923.9839,327.5541" id="Fill-40" fill="#07143c"/>
            <path d="M1021.1871,709.3691 C945.4301,686.5571 954.0691,697.2751 1005.4311,656.1991 C1016.5091,652.7591 1009.4781,674.7551 1015.0681,676.4841 C1017.4241,687.4151 1021.8101,697.9741 1021.1871,709.3691" id="Fill-42" fill="#284fc7"/>
            <path d="M292.1769,1159.7402 C365.4299,1078.5552 374.3819,1259.6872 334.2449,1160.1332 C321.8349,1145.5282 308.1819,1173.3152 292.1769,1159.7402" id="Fill-44" fill="#bfbfbf"/>
            <path d="M926.8678,127.0323 C926.5638,144.7563 912.1398,134.5613 912.9528,122.5153 C913.0708,105.5863 894.6308,123.3503 888.7218,112.8933 C899.6598,96.2143 913.1538,115.2213 909.8618,83.0743 C922.4568,66.0493 916.4848,107.9023 931.6338,99.3263 C939.6258,95.0793 951.0288,103.9023 940.9648,109.9573 C927.1888,112.2673 920.9048,110.8073 926.8678,127.0323" id="Fill-46" fill="#07143c"/>
            <path d="M919.7692,1036.9307 C904.8422,1023.4857 902.1292,1042.9907 903.0452,1011.4657 C900.2642,992.6857 894.5792,966.5347 908.7152,952.1017 C917.0252,975.1507 927.2182,1018.3927 919.7692,1036.9307" id="Fill-48" fill="#284fc7"/>
            <path d="M1002.8898,630.4775 C1009.5468,658.5505 972.0768,672.3725 952.0458,683.3005 C953.7278,676.0925 956.0628,667.8855 957.4188,661.2615 C960.2308,664.9145 961.8778,663.4305 964.0008,660.2625 C974.7108,650.0075 995.5788,595.7805 1002.8898,630.4775" id="Fill-50" fill="#284fc7"/>
            <path d="M308.0421,1164.6797 C324.0861,1146.2547 346.2351,1161.2537 337.6681,1183.3237 C325.9461,1180.0427 315.1651,1175.2687 308.0421,1164.6797" id="Fill-52" fill="#102c82"/>
            <path d="M998.5948,617.458 C981.5798,617.625 972.3418,665.93 957.4188,661.265 C966.3418,639.207 992.9848,620.205 991.3798,596.292 C993.5418,603.185 1003.9108,610.642 998.5948,617.458" id="Fill-54" fill="#bfbfbf"/>
            <path d="M1057.1061,836.2608 C1039.5551,807.7978 1040.8131,770.8798 1057.1111,826.2728 C1058.9491,829.9658 1060.7091,832.8978 1057.1061,836.2608" id="Fill-56" fill="#bfbfbf"/>
            <path d="M861.0651,484.4102 C856.4121,487.1492 850.7511,488.9502 846.4011,491.9442 C840.1061,498.4182 838.9441,498.7352 830.4101,494.5242 C831.6841,483.8052 852.1341,487.5722 861.0651,484.4102" id="Fill-58" fill="#bfbfbf"/>
            <path d="M1034.129,753.5694 C1027.251,747.0294 1026.46,738.6754 1027.079,729.9044 C1033.943,736.4494 1035.61,744.5404 1034.129,753.5694" id="Fill-60" fill="#bfbfbf"/>
            <path d="M982.8497,573.3975 C980.9157,568.4375 975.0137,565.1245 976.7327,558.6485 C985.2857,563.4615 985.6747,564.4015 982.8497,573.3975" id="Fill-62" fill="#bfbfbf"/>
            <path d="M1038.5118,784.7705 C1034.3518,779.7445 1031.5888,774.4155 1034.8368,767.7865 C1036.0618,773.4485 1037.2868,779.1095 1038.5118,784.7705" id="Fill-64" fill="#bfbfbf"/>
            <path d="M976.0128,1034.8565 C980.2208,1034.6305 984.4288,1034.4075 988.6338,1034.1815 C984.6308,1038.2465 980.3848,1037.7335 976.0128,1034.8565" id="Fill-66" fill="#bfbfbf"/>
            <path d="M1021.0704,701.6426 C1020.1614,697.1576 1019.2534,692.6706 1018.3444,688.1846 C1023.5404,691.8026 1022.2134,696.7416 1021.0704,701.6426" id="Fill-68" fill="#bfbfbf"/>
            <path d="M987.9542,586.7285 C982.5442,585.4375 981.3352,582.2085 983.6332,577.3625 C985.0752,580.4845 986.5142,583.6065 987.9542,586.7285" id="Fill-70" fill="#bfbfbf"/>
            <path d="M1001.0773,1030.1445 C1003.9693,1028.5345 1006.8613,1026.9235 1009.7493,1025.3165 C1006.8573,1026.9275 1003.9673,1028.5365 1001.0773,1030.1445" id="Fill-72" fill="#bfbfbf"/>
            <path d="M1034.4825,763.459 C1032.0625,761.496 1027.7825,759.623 1034.1795,757.233 C1037.1945,759.167 1037.5355,761.23 1034.4825,763.459" id="Fill-74" fill="#bfbfbf"/>
            <path d="M1015.0699,676.4853 C1011.6719,674.5543 1010.2349,672.4333 1014.4189,669.7683 C1014.6369,672.0083 1014.8529,674.2473 1015.0699,676.4853" id="Fill-76" fill="#bfbfbf"/>
            <path d="M958.735,530.415 C957.402,528.922 950.325,530.919 955.67,525.369 C956.692,527.051 957.713,528.733 958.735,530.415" id="Fill-78" fill="#bfbfbf"/>
            <path d="M1068.0631,897.1162 C1062.8231,896.2952 1065.6571,893.2342 1066.3061,890.7802 C1066.8921,892.8912 1067.4781,895.0042 1068.0631,897.1162" id="Fill-80" fill="#bfbfbf"/>
            <path d="M1042.6193,791.1074 C1041.5573,789.5004 1040.4943,787.8914 1039.4333,786.2844 C1040.4953,787.8924 1041.5573,789.5004 1042.6193,791.1074" id="Fill-82" fill="#bfbfbf"/>
            <path d="M1057.9996,846.4785 C1057.4756,845.8895 1056.4816,845.6155 1057.4456,844.8575 C1057.9646,845.2845 1058.1496,845.8245 1057.9996,846.4785" id="Fill-84" fill="#bfbfbf"/>
            <path d="M1018.2516,688.0273 C1017.9196,687.3303 1017.5886,686.6333 1017.2556,685.9373 C1017.5856,686.6343 1017.9186,687.3313 1018.2516,688.0273" id="Fill-86" fill="#bfbfbf"/>
            <path d="M996.6617,1031.3379 C997.3867,1031.1009 998.1107,1030.8619 998.8317,1030.6239 C998.1057,1030.8619 997.3837,1031.1009 996.6617,1031.3379" id="Fill-88" fill="#bfbfbf"/>
            <path d="M430.1662,1090.7881 C429.3042,1091.8971 431.5932,1092.0281 430.8082,1090.8611 C430.7302,1090.7461 430.3892,1090.8071 430.1662,1090.7881 M497.8882,1093.8111 C502.9472,1090.0271 505.2002,1088.9071 499.7012,1084.8381 C496.3732,1088.0231 493.5902,1089.1681 497.8882,1093.8111 M554.4552,944.2011 C568.1652,950.2841 550.1012,979.5061 564.9962,985.3731 C577.3942,1017.9471 551.3932,1005.4741 561.8422,1018.6301 C566.3752,1020.4971 552.9122,1034.4521 555.8642,1047.7311 C547.6752,1063.8691 537.6502,1085.5991 521.3252,1095.5981 C520.5372,1095.7631 519.3982,1099.0881 519.9412,1099.8091 C522.9582,1103.8241 518.7742,1103.5441 517.3122,1105.1201 C514.2522,1108.4171 513.5072,1106.2051 512.7092,1103.5531 C482.8772,1124.2021 461.0952,1219.1421 439.5792,1137.3171 C456.5432,1096.9781 459.7702,998.5241 493.6112,978.8701 C518.1032,975.1841 509.9502,931.1091 489.0322,928.3511 C447.0282,931.9691 479.0412,995.3421 453.2622,1024.6961 C446.3942,1033.9281 453.6202,1047.9431 444.7962,1056.9061 C438.0352,1067.8731 442.2832,1082.9851 435.0572,1094.0521 C436.1952,1150.4711 409.8762,1092.7341 400.4572,1071.8911 C384.7852,1041.0431 416.3812,1017.1891 438.0452,1002.2381 C444.6762,1000.3741 445.3482,1009.7431 448.3762,997.8641 C453.0202,995.1511 454.2982,988.8401 454.6892,983.9341 C438.9542,925.5201 507.9622,877.8611 521.9202,953.5111 C522.7042,965.9541 536.5912,949.2061 544.0272,948.8571 C550.1832,951.8441 550.2242,946.6371 554.4552,944.2011" id="Fill-90" fill="#bfbfbf"/>
            <path d="M644.2955,627.9365 C657.9335,632.1595 725.5165,621.2035 717.1215,642.7265 C701.3615,683.1315 687.9635,724.3405 678.4445,766.6945 C666.6255,788.3195 630.0215,780.7125 608.9825,790.8825 C606.4765,801.9095 644.1755,785.5935 653.7385,786.1365 C672.3185,779.2155 675.5655,784.9905 670.6215,802.9585 C669.9435,828.6655 639.4325,819.3385 622.1975,822.0295 C617.1545,821.1155 601.1895,801.9865 601.8375,796.6055 C585.0825,777.0195 564.7325,755.3285 554.2465,729.3255 C558.3095,704.1485 585.8405,688.7285 596.3185,667.4525 C617.7575,661.6385 623.3635,636.2275 644.2955,627.9365" id="Fill-92" fill="#284fc7"/>
            <path d="M381.36,562.5205 C564.326,591.6685 563.254,654.3175 736.801,542.0915 C743.296,541.8065 743.188,545.9205 742.4,550.4895 C736.328,551.8825 731.364,551.3635 729.993,558.9705 C693.638,584.4195 651.585,601.1565 610.047,617.1475 C592.932,622.5555 597.498,642.7125 594.109,655.5285 C597.173,665.2525 596.043,680.6085 581.775,677.8595 C577.336,672.2965 584.13,658.1075 573.681,661.1255 C569.511,660.8255 547.813,665.2605 558.635,655.1745 C558.758,655.0465 556.987,652.4555 556.623,652.5765 C550.514,654.6195 548.705,651.6045 546.808,646.2585 C545.719,642.4725 531.13,637.5695 543.476,638.4655 C570.154,651.7165 561.068,620.6665 570.1,652.6265 C585.236,651.2685 586.348,624.2395 571.333,619.7185 C560.63,616.8575 549.226,629.7215 542.405,616.2645 C515.536,601.7255 529.277,636.7135 527.258,649.3155 C527.734,659.0935 534.615,668.4405 537.565,677.8885 C510.197,681.5635 513.862,658.5255 509.158,638.0855 C508.08,627.2005 523.659,596.4165 498.772,607.2885 C477.232,594.5525 444.915,593.5975 418.763,584.7135 C404.583,580.8895 379.072,583.1335 381.36,562.5205" id="Fill-94" fill="#07143c"/>
            <path d="M529.7316,842.5674 C564.7396,842.2864 612.9896,813.2094 634.8296,851.1344 C633.9866,872.6874 607.4926,891.7804 598.3776,912.6814 C587.8116,929.5324 532.9676,861.8804 529.7316,842.5674" id="Fill-96" fill="#284fc7"/>
            <path d="M257.5304,989.2383 C267.1254,1073.2293 368.0204,966.3663 290.0024,944.6843 C257.5514,938.1763 264.7414,970.6393 257.5304,989.2383 M241.6224,999.0753 C254.4684,974.2953 243.8774,934.4803 278.7914,928.6953 C309.8564,923.7543 337.4864,953.6523 337.5594,983.4733 C339.2494,1035.2713 245.5924,1065.6913 241.6224,999.0753" id="Fill-98" fill="#bfbfbf"/>
            <path d="M163.506,690.1543 C168.505,660.1823 123.862,629.8433 109.281,662.0473 C108.948,671.3553 120.295,662.3583 111.874,678.9373 C102.015,738.7973 152.816,756.1223 163.506,690.1543 M129.497,635.3403 C195.033,639.1693 193.986,740.5693 131.695,750.3403 C83.973,745.1413 71.477,637.2123 129.497,635.3403" id="Fill-100" fill="#bfbfbf"/>
            <path d="M265.9235,756.3653 C252.1435,784.0993 283.6395,831.2613 319.0815,806.2073 C344.2515,763.6833 263.5505,726.1423 280.8105,788.1433 C272.6195,798.2513 267.2595,764.0953 265.9235,756.3653 M339.3605,785.9643 C344.6535,822.3103 287.9595,846.9993 266.0745,814.3923 C248.1445,790.1753 246.5275,747.2173 282.0505,740.4403 C290.8095,734.2883 293.5715,752.5443 301.2545,745.6303 C318.6745,735.0933 341.8185,771.5353 339.3605,785.9643" id="Fill-102" fill="#bfbfbf"/>
            <path d="M199.1051,542.5234 C208.5161,626.3944 309.1501,520.6724 228.3691,514.0494 C213.8151,514.2544 196.5461,523.2204 199.1051,542.5234 M274.9241,542.3064 C275.1781,572.9834 239.4501,589.6334 213.4001,592.9134 C190.4111,578.0474 173.6771,548.1654 192.1971,522.6614 C219.9571,489.3954 273.4481,489.8494 274.9241,542.3064" id="Fill-104" fill="#bfbfbf"/>
            <path d="M150.4386,860.9766 C95.1736,843.7756 193.0676,800.0286 198.7246,870.3046 C186.5436,905.2116 134.1046,909.4586 133.2306,866.4556 C140.1706,854.8326 146.4876,884.7126 159.7296,883.3986 C181.3876,887.3076 188.2046,852.7126 166.0566,847.9856 C154.5826,844.3326 134.5936,846.3636 150.4386,860.9766" id="Fill-106" fill="#bfbfbf"/>
            <path d="M446.4499,646.7441 C469.3979,657.1941 455.0849,656.0821 442.0969,669.0611 C422.3999,683.9901 393.9499,682.7371 381.2929,667.9311 C367.2209,647.6001 370.2819,611.1971 395.2769,600.2321 C400.5549,598.0111 398.6789,594.3031 397.3309,590.6841 C408.3869,605.5071 403.9119,603.9281 393.3579,615.1291 C373.3869,659.2171 414.9559,676.6931 446.4499,646.7441" id="Fill-108" fill="#bfbfbf"/>
            <path d="M547.4415,734.0176 C551.3835,746.7836 594.1335,790.5666 579.7025,795.5556 C507.4855,814.9736 517.9525,786.2476 547.4415,734.0176" id="Fill-110" fill="#284fc7"/>
            <path d="M480.7209,984.5938 C472.7319,1009.2308 423.7769,1210.9458 435.7379,1100.6388 C437.0369,1086.5578 439.9599,1070.5048 444.7919,1056.9058 C453.6269,1047.9438 446.3839,1033.9268 453.2669,1024.6988 C458.5099,1018.5878 456.2329,1009.8558 463.0669,1003.8478 C468.4799,994.5928 463.0339,980.2928 480.7209,984.5938" id="Fill-112" fill="#284fc7"/>
            <path d="M526.3058,808.3946 C556.4288,807.3136 593.4418,786.4486 609.6268,822.1006 C584.7268,823.9636 512.0078,856.3006 526.3058,808.3946" id="Fill-114" fill="#284fc7"/>
            <path d="M449.4523,852.5401 C395.7833,890.6941 401.6663,807.2401 418.9603,835.7121 C416.5353,845.4431 432.5153,848.7001 437.0803,841.3931 C444.2443,831.6911 428.3693,824.2561 421.1673,823.6751 C409.6943,823.1781 422.6733,813.8191 426.6593,813.5811 C446.3613,810.5331 461.2333,836.6861 449.4523,852.5401" id="Fill-116" fill="#bfbfbf"/>
            <path d="M449.4523,852.5401 C452.6403,837.1861 466.7923,849.1811 478.0483,842.4941 C491.1773,847.4561 459.2333,858.9641 449.4523,852.5401" id="Fill-118" fill="#284fc7"/>
            <path d="M254.3185,439.7803 C270.2165,463.4833 249.3365,470.6063 245.3925,444.1153 C248.7235,443.3953 253.1855,445.0123 254.3185,439.7803" id="Fill-120" fill="#bfbfbf"/>
            <path d="M245.3961,444.1152 C248.4771,452.9282 249.8561,466.0952 240.5971,452.3322 C235.0281,456.8782 235.7171,449.8562 233.3811,448.4252 C236.2871,440.6042 240.9011,432.0852 245.3961,444.1152" id="Fill-122" fill="#07143c"/>
            <path d="M206.0529,464.9443 C205.9399,460.7643 212.3289,458.4723 206.8329,458.7723 C189.4169,440.4843 245.0659,465.0293 206.0529,464.9443" id="Fill-124" fill="#284fc7"/>
            <path d="M233.381,448.4248 C235.717,449.8568 235.028,456.8778 240.599,452.3318 C252.102,462.7358 229.853,458.8798 222.493,461.5508 C224.346,455.9518 234.027,456.5848 233.381,448.4248" id="Fill-126" fill="#bfbfbf"/>
            <path d="M567.1251,675.8086 C569.4961,670.1556 564.6001,666.5906 563.1721,662.0376 C576.0921,655.5406 576.2551,675.5146 567.1251,675.8086" id="Fill-128" fill="#284fc7"/>
            <path d="M164.9147,541.0215 C160.8937,544.7845 158.8127,552.5785 153.0567,553.2895 C152.9497,549.0505 161.3297,535.3725 164.9147,541.0215" id="Fill-130" fill="#284fc7"/>
            <path d="M187.09,523.5498 C183.608,527.4918 172.447,534.8028 172.68,526.2858 C177.606,525.0218 182.3,519.6428 187.09,523.5498" id="Fill-132" fill="#284fc7"/>
            <path d="M438.0446,1002.2354 C434.1756,1007.3124 429.0076,1010.2384 422.8036,1011.4474 C426.1376,1003.2884 430.1746,1000.8484 438.0446,1002.2354" id="Fill-134" fill="#284fc7"/>
            <path d="M579.0592,667.7002 C583.9192,675.9842 578.4522,686.7772 570.9362,676.1122 C573.5152,673.2002 576.3752,670.5212 579.0592,667.7002" id="Fill-136" fill="#284fc7"/>
            <path d="M496.8293,827.1729 C492.9543,830.2319 491.4983,832.1029 488.0773,828.0779 C491.6543,825.8289 492.8823,822.3039 496.8293,827.1729" id="Fill-138" fill="#bfbfbf"/>
            <path d="M448.3766,997.8652 C445.8676,1005.5952 445.8676,1005.5952 441.8406,1001.8272 C441.9506,997.0942 445.0976,997.3712 448.3766,997.8652" id="Fill-140" fill="#284fc7"/>
            <path d="M551.9938,945.0537 C551.6118,951.0847 547.5918,949.4957 544.0268,948.8547 C546.6828,947.5857 549.3378,946.3197 551.9938,945.0537" id="Fill-142" fill="#284fc7"/>
            <path d="M422.2702,1011.6807 C420.4072,1013.7427 418.5432,1015.8027 416.6812,1017.8627 C416.1942,1013.6757 418.1522,1011.7017 422.2702,1011.6807" id="Fill-144" fill="#284fc7"/>
            <path d="M425.9953,1117.4736 C426.9753,1118.5856 427.9553,1119.6996 428.9333,1120.8136 C427.9533,1119.7016 426.9743,1118.5866 425.9953,1117.4736" id="Fill-146" fill="#284fc7"/>
            <path d="M552.3629,728.0264 C551.8199,728.1514 550.8529,728.0234 550.3649,727.7554 C551.0319,727.8454 551.6969,727.9354 552.3629,728.0264" id="Fill-148" fill="#284fc7"/>
            <path d="M451.7897,995.2842 C451.2357,995.6602 450.6817,996.0362 450.1287,996.4072 C450.6847,996.0292 451.2367,995.6572 451.7897,995.2842" id="Fill-150" fill="#284fc7"/>
            <path d="M560.3644,546.3398 C556.5834,537.1818 561.7764,531.4188 567.3284,527.4448 C565.8464,521.1898 559.8254,527.1748 556.1064,524.9808 C553.9274,516.1858 538.7214,503.7638 545.1214,496.5468 C558.6544,488.3048 552.2774,503.6638 562.8394,504.9138 C576.6324,524.6288 582.5894,493.2618 589.9974,507.8158 C593.5104,511.3008 597.0934,511.1798 597.3184,505.6988 C597.5654,493.9468 584.4564,505.6518 587.9494,494.4508 C599.5754,483.7148 609.1774,499.0158 606.2774,510.8998 C600.9184,514.4788 582.8134,512.9778 600.5074,519.9318 C608.1214,527.5348 599.6444,533.6798 594.6424,524.3068 C586.5144,525.4858 584.0184,521.7398 575.8764,519.9348 C569.5394,524.5878 579.3674,524.3728 579.6554,527.9428 C575.9094,538.4968 565.0774,532.4918 561.5734,540.7988 C559.9694,546.9028 571.2934,541.4678 560.3644,546.3398" id="Fill-152" fill="#bfbfbf"/>
            <path d="M372.7414,355.9355 C372.2384,350.5265 370.9434,351.1915 369.0804,355.5695 C369.3084,359.5375 370.8874,359.4655 372.7414,355.9355 M383.7614,389.8975 C380.4284,387.9935 376.6504,386.9535 377.1984,382.2835 C375.9174,383.2785 373.6934,384.1265 373.5124,385.2915 C372.0814,394.9825 358.8664,394.0265 363.1294,384.4895 C363.8384,380.3875 363.2364,380.0005 357.9704,381.4385 C344.4994,384.1265 355.9054,368.8515 353.5624,361.5675 C351.8984,351.8265 364.9924,353.1995 363.2684,343.0995 C361.0834,332.8325 374.3664,335.5675 380.7024,337.7235 C395.2484,345.2775 381.0244,338.1265 377.7634,346.0465 C376.3984,351.3585 381.9024,350.0895 384.1354,351.9835 C376.2964,356.9465 380.9224,366.7705 376.0174,372.7425 C364.1564,377.7475 389.3414,380.7375 393.7684,380.5605 C392.5464,391.6085 383.6974,382.5755 383.7614,389.8975" id="Fill-154" fill="#bfbfbf"/>
            <path d="M571.0284,265.8398 C565.8404,270.6848 559.1704,301.8848 556.5394,290.3208 C560.9724,284.4218 549.4794,276.5618 552.4364,285.7728 C544.2634,290.9228 542.6174,292.5438 540.8814,282.3638 C529.1474,283.1788 536.4054,273.8678 534.1084,269.9728 C517.5574,247.8658 557.9244,266.4588 571.0284,265.8398" id="Fill-156" fill="#bfbfbf"/>
            <path d="M595.8488,324.5478 C597.9118,322.2158 599.8188,320.6778 596.8138,319.2708 C593.2038,320.0588 593.8328,321.2798 595.8488,324.5478 M617.1908,303.4468 C628.7148,306.1298 619.6908,294.7058 627.2148,297.1218 C635.8258,296.5918 653.0678,308.4748 636.1878,308.0748 C633.7878,313.1588 628.1748,313.0978 623.1528,312.3778 C615.4688,312.9068 615.4748,313.0038 618.7638,319.0208 C615.8398,325.9888 615.9058,325.8028 609.6118,323.5688 C599.2348,325.3218 582.2648,330.0528 591.2898,313.2128 C614.3088,318.5778 597.8458,303.4518 617.1908,303.4468" id="Fill-158" fill="#284fc7"/>
            <path d="M183.1925,406.5107 C190.7235,406.0977 193.9985,416.3667 203.8545,418.8517 C211.9665,420.7577 203.9505,410.0627 219.5145,410.6777 C228.2675,406.9557 230.8605,414.2927 234.8075,419.1987 C231.4025,419.2667 219.6785,418.5257 226.9715,413.4907 C209.8595,413.7327 221.4185,415.0167 214.5125,425.6517 C199.9005,443.8887 186.6635,422.7847 183.1925,406.5107" id="Fill-160" fill="#bfbfbf"/>
            <path d="M640.611,506.7295 C633.972,503.6535 623.682,485.5095 621.296,496.4305 C618.165,493.8595 619.677,489.7925 618.727,486.3575 C613.297,486.3875 615.002,481.6695 619.719,480.1335 C582.604,480.2765 628.589,460.1515 623.541,473.9175 C623.733,476.9395 627.538,469.9815 627.273,475.3085 C626.445,494.6985 660.508,490.7645 640.611,506.7295" id="Fill-162" fill="#102c82"/>
            <path d="M193.362,432.1973 C205.644,431.3723 213.681,432.3423 218.421,419.2743 C224.748,425.4233 231.092,437.9793 217.204,439.5063 C210.237,439.5093 212.53,442.4643 215.314,446.2373 C226.819,457.1083 209.83,455.0223 203.738,448.2373 L203.793,448.3003 C201.145,440.4243 195.043,439.1803 193.362,432.1973" id="Fill-164" fill="#102c82"/>
            <path d="M368.5812,335.2939 C363.2602,335.4369 362.9282,340.6009 363.2682,343.0999 C364.0342,348.7169 360.7412,350.9429 357.2702,353.4079 C350.6662,359.3339 353.9972,372.5459 351.0922,381.1849 C340.8532,408.9349 343.7582,365.9709 347.7602,356.0379 C353.9362,352.6739 357.2622,348.0379 355.9802,340.0639 C361.9362,338.3989 361.8262,331.9949 368.5812,335.2939" id="Fill-166" fill="#102c82"/>
            <path d="M715.0514,438.3672 C700.7494,443.3392 720.7924,443.0652 720.5844,451.1462 C714.7634,455.2292 734.8724,460.2612 713.2024,457.9332 C707.4784,457.5322 710.0794,472.7532 704.0604,463.0612 C708.3704,460.1612 700.2144,453.4612 707.5874,451.4942 C702.6134,446.8492 696.2044,439.3742 702.7544,433.2632 C705.4204,438.4162 710.2464,438.3672 715.0514,438.3672" id="Fill-168" fill="#bfbfbf"/>
            <path d="M404.1242,412.8887 C407.4032,389.7077 387.7582,410.1517 395.9302,392.7007 C403.1832,380.0387 442.4352,430.5417 404.1242,412.8887" id="Fill-170" fill="#bfbfbf"/>
            <path d="M193.0026,381.3213 C185.5996,382.1483 181.3206,388.6543 181.2066,377.7453 C188.5056,376.7653 180.4866,372.6633 182.6606,370.6423 C176.9926,364.5883 174.8696,371.2703 173.9456,361.2943 C182.7676,344.4253 195.0416,360.8233 189.1186,373.1123 C184.1156,380.4603 194.5986,376.9993 193.0026,381.3213" id="Fill-172" fill="#bfbfbf"/>
            <path d="M234.1418,391.7695 C227.3888,396.8965 228.4468,384.8045 220.0988,387.9575 C219.8618,391.4645 222.5388,401.1045 216.2528,397.0005 C218.3568,392.4825 215.1548,391.8375 211.9908,391.1655 C217.0908,386.4605 213.5398,379.8695 211.4908,377.4995 C203.2938,364.6015 217.6698,359.1455 218.1618,380.6685 C222.6208,389.2365 228.7958,367.2765 234.1418,391.7695" id="Fill-174" fill="#bfbfbf"/>
            <path d="M587.2321,502.499 C577.2381,500.303 573.0411,493.876 567.1691,504.49 C555.6631,483.647 594.3131,481.919 587.2321,502.499" id="Fill-176" fill="#284fc7"/>
            <path d="M384.1349,351.9834 C363.5569,344.5654 397.0889,336.2124 403.9999,343.1434 C390.3179,369.2424 391.8809,336.1934 383.9959,352.0144 C383.9959,352.0134 384.1349,351.9834 384.1349,351.9834" id="Fill-178" fill="#102c82"/>
            <path d="M625.7902,523.6133 C642.4942,515.0193 631.4082,532.2323 642.1222,531.6873 C629.6482,540.7393 622.5342,540.5123 625.7902,523.6133" id="Fill-180" fill="#bfbfbf"/>
            <path d="M151.5417,327.1777 C151.1177,324.4017 161.1037,325.2057 153.9687,320.1207 C159.1177,317.8197 164.0757,308.3707 168.8127,315.6347 C163.8887,332.7197 178.7927,335.5397 151.5417,327.1777" id="Fill-182" fill="#bfbfbf"/>
            <path d="M281.9059,340.2178 C279.4549,341.0228 281.0059,342.2378 282.2099,343.4918 C285.1509,343.8218 282.7629,341.5998 281.9059,340.2178 M276.2989,333.5768 C279.0449,334.8348 281.8769,337.2838 284.5169,337.0938 C294.8299,334.8268 285.9509,357.3928 282.7329,351.2958 C282.9279,344.3038 261.2919,338.2358 276.2989,333.5768" id="Fill-184" fill="#284fc7"/>
            <path d="M649.8639,454.8281 C647.6749,460.7951 643.0609,470.5081 636.8639,472.7051 C632.8469,470.8541 639.1909,470.7861 637.7219,469.4611 C622.8049,461.5131 642.2189,460.0181 649.8639,454.8281" id="Fill-186" fill="#284fc7"/>
            <path d="M582.2535,554.7949 C582.4145,547.3839 587.2775,540.3149 595.9155,541.5189 C600.2625,543.5179 594.9125,545.6319 595.2235,547.7209 C602.0065,553.3069 586.8535,552.3669 582.2535,554.7949" id="Fill-188" fill="#284fc7"/>
            <path d="M362.1964,333.7832 C361.5664,340.8502 349.0894,342.7242 343.5874,340.7492 C343.0804,338.2532 347.5944,333.7292 340.7734,333.7922 C344.8864,326.3032 355.2024,333.8262 362.1964,333.7832" id="Fill-190" fill="#bfbfbf"/>
            <path d="M567.1681,504.4883 C575.1191,490.8673 588.3341,502.3543 578.0631,513.5693 C570.8961,511.0473 582.7481,504.8223 573.6791,506.5583 C569.1381,511.5013 558.2451,504.7933 567.1681,504.4883" id="Fill-192" fill="#102c82"/>
            <path d="M595.132,327.166 C604.218,319.779 615.69,330.084 618.764,319.02 C619.876,337.255 607.656,329.214 595.132,327.166" id="Fill-194" fill="#bfbfbf"/>
            <path d="M234.8073,419.1992 C253.8993,414.0272 247.6473,425.4472 235.2403,431.4502 C235.0413,427.4832 227.8163,417.3522 234.8073,419.1992" id="Fill-196" fill="#102c82"/>
            <path d="M173.944,361.2959 C174.878,371.2969 176.988,364.5719 182.662,370.6419 C162.124,379.4829 163.6,361.6299 173.944,361.2959" id="Fill-198" fill="#284fc7"/>
            <path d="M587.9489,494.4512 C582.8589,488.5432 594.3469,485.7042 583.7149,483.1912 C596.8639,476.8012 603.4469,489.7982 587.9489,494.4512" id="Fill-200" fill="#102c82"/>
            <path d="M299.9318,366.4648 C294.4188,371.3958 293.8158,384.5428 286.2208,375.7458 C284.4358,373.8178 285.3048,372.8338 288.7028,372.1018 C292.6718,370.9328 299.0038,354.4008 299.9318,366.4648" id="Fill-202" fill="#bfbfbf"/>
            <path d="M625.7623,506.8232 C634.1853,508.0792 633.3873,517.4662 625.6893,519.0142 C625.7143,514.9482 625.7383,510.8852 625.7623,506.8232" id="Fill-204" fill="#bfbfbf"/>
            <path d="M324.9958,407.3105 C330.3658,410.4565 331.3118,414.2025 324.2158,414.5235 C320.0528,411.5925 316.9868,408.1895 324.9958,407.3105" id="Fill-206" fill="#bfbfbf"/>
            <path d="M683.2965,327.9795 C693.6105,325.5595 680.4515,342.2465 673.4765,341.5335 C673.1525,336.8385 670.9775,331.0475 677.8345,333.1355 C683.1235,334.8835 683.8425,332.1975 683.2965,327.9795" id="Fill-208" fill="#bfbfbf"/>
            <path d="M715.0514,438.367217 C710.2464,438.367217 705.4204,438.4162 702.7534,433.2642 C707.9744,427.7382 715.5104,430.9482 715.0514,438.367217" id="Fill-210" fill="#102c82"/>
            <path d="M672.7003,333.0869 C678.8463,346.7519 659.0393,337.8769 665.1973,332.1659 C668.8783,330.9069 672.0653,327.3319 672.7003,333.0869" id="Fill-212" fill="#102c82"/>
            <path d="M583.7159,483.1904 C589.2539,485.1434 590.5219,486.1394 585.7579,490.3954 C578.8529,491.8374 576.2609,485.0904 583.7159,483.1904" id="Fill-214" fill="#bfbfbf"/>
            <path d="M325.1252,362.6728 C326.4502,354.7168 332.2782,354.8848 331.4762,362.7838 C328.3402,364.6728 323.5922,369.0348 325.1252,362.6728" id="Fill-216" fill="#284fc7"/>
            <path d="M634.0958,335.6309 C642.2128,337.0239 650.3298,338.4169 658.4438,339.8089 C650.3258,338.4159 642.2108,337.0239 634.0958,335.6309" id="Fill-218" fill="#284fc7"/>
            <path d="M834.2218,203.3917 C836.1858,199.2897 839.6088,196.2517 843.6278,199.9557 C841.4578,203.3107 837.6998,202.8517 834.2218,203.3917" id="Fill-220" fill="#102c82"/>
            <path d="M863.3961,204.1319 C859.2941,205.3709 855.1931,206.6109 851.0941,207.8509 C855.1961,206.6109 859.2961,205.3709 863.3961,204.1319" id="Fill-222" fill="#102c82"/>
            <path d="M562.588,504.7139 C559.751,503.2369 554.732,503.8779 556.247,498.1809 C558.361,500.3599 560.474,502.5369 562.588,504.7139" id="Fill-224" fill="#102c82"/>
            <path d="M614.7399,485.7041 C620.5779,485.0751 618.8509,489.3941 619.2669,493.2911 C617.7579,490.7631 616.2489,488.2331 614.7399,485.7041" id="Fill-226" fill="#bfbfbf"/>
            <path d="M621.3766,496.417 C624.7456,486.556 626.1426,495.79 624.7186,501.347 C623.6046,499.702 622.4906,498.06 621.3766,496.417" id="Fill-228" fill="#bfbfbf"/>
            <path d="M567.1539,323.3584 C571.2099,323.9134 575.2659,324.4674 579.3189,325.0204 C575.2619,324.4654 571.2079,323.9124 567.1539,323.3584" id="Fill-230" fill="#284fc7"/>
            <path d="M203.7926,451.4853 C202.2816,458.5763 198.3156,444.3793 203.7916,448.3003 C203.6426,449.0693 203.8346,450.4563 203.7926,451.4853" id="Fill-232" fill="#102c82"/>
            <path d="M831.8639,197.877 C829.2179,197.189 826.5719,196.501 823.9289,195.814 C826.5759,196.502 829.2199,197.19 831.8639,197.877" id="Fill-234" fill="#102c82"/>
            <path d="M695.6183,436.4697 C694.6673,436.7277 693.7163,436.9857 692.7743,437.2377 C693.7273,436.9777 694.6733,436.7237 695.6183,436.4697" id="Fill-236" fill="#bfbfbf"/>
            <path d="M579.7618,325.2158 C581.0998,325.5728 582.4388,325.9308 583.7738,326.2888 C582.4348,325.9318 581.0978,325.5728 579.7618,325.2158" id="Fill-238" fill="#284fc7"/>
            <path d="M850.3605,207.9874 C849.2325,208.6474 848.1035,209.3084 846.9765,209.9674 C848.1065,209.3064 849.2335,208.6474 850.3605,207.9874" id="Fill-240" fill="#102c82"/>
            <path d="M559.3873,550.8125 C559.5703,551.5085 560.1893,552.1265 559.0933,552.3295 C558.6593,551.7175 558.7573,551.2135 559.3873,550.8125" id="Fill-242" fill="#bfbfbf"/>
            <path d="M237.6862,414.7012 C238.0672,414.0272 238.4492,413.3532 238.8262,412.6802 C238.4432,413.3542 238.0642,414.0272 237.6862,414.7012" id="Fill-244" fill="#102c82"/>
            <path d="M619.338,493.958 C619.991,494.782 620.643,495.606 621.296,496.431 C620.643,495.605 619.99,494.781 619.338,493.958" id="Fill-246" fill="#bfbfbf"/>
            <path d="M888.8429,682.2949 C885.7579,693.0979 892.5589,711.2559 879.0159,715.4209 C829.1339,733.2859 778.6479,749.1729 727.4929,762.9959 C706.3259,759.2719 801.9809,674.4209 814.2679,658.6589 C833.6059,646.6509 861.1429,668.2609 882.9479,669.7769 C889.9959,671.6859 889.2899,676.9749 888.8429,682.2949" id="Fill-248" fill="#284fc7"/>
            <path d="M684.7223,767.0528 C696.6053,738.9418 711.3573,640.6138 737.2883,634.9328 C753.2673,640.1268 808.7453,639.1378 807.8793,655.6098 C780.9013,670.9698 706.2713,789.6088 684.7223,767.0528" id="Fill-250" fill="#284fc7"/>
            <path d="M740.816,551.4609 C783.69,524.7569 730.635,597.9719 726.086,619.7989 C727.725,630.0139 655.258,622.2799 660.676,613.0839 C686.525,591.3109 715.926,572.0949 740.816,551.4609" id="Fill-252" fill="#284fc7"/>
            <path d="M896.0529,595.4209 C885.0569,661.6129 911.6529,675.7829 833.9899,649.0399 C814.1059,649.5969 903.9149,579.1239 896.0529,595.4209" id="Fill-254" fill="#284fc7"/>
            <path d="M893.2023,684.4668 C896.3173,665.4058 920.4563,684.4898 932.4873,686.0298 C942.4383,689.0388 931.4883,698.8708 929.5863,699.8368 C921.2793,696.1318 915.6053,702.4588 908.8383,704.0638 C891.2543,715.7878 895.3473,697.9808 893.2023,684.4668" id="Fill-256" fill="#284fc7"/>
            <path d="M891.9562,796.3018 C889.8422,807.3328 904.1972,836.8828 885.6452,834.6198 C863.3112,835.4188 885.8332,800.2268 891.9562,796.3018" id="Fill-258" fill="#284fc7"/>
            <path d="M761.6632,542.5117 C733.1642,554.2877 751.5682,548.7327 736.8042,542.0977 C754.2002,531.9807 802.8582,508.9527 761.6632,542.5117" id="Fill-260" fill="#102c82"/>
            <path d="M642.3053,828.2266 C656.1133,824.5796 654.7953,833.1706 649.8183,842.4776 C642.5713,848.6036 642.3393,848.4256 635.2633,841.1506 C622.6303,829.0036 629.9763,828.4356 642.3053,828.2266" id="Fill-262" fill="#284fc7"/>
            <path d="M908.8429,941.4385 C900.4109,959.2525 896.6699,902.5005 901.1859,897.9555 C907.9049,912.0805 907.6169,925.1815 908.8429,941.4385" id="Fill-264" fill="#284fc7"/>
            <path d="M665.0397,834.3828 C664.2207,885.9328 642.0947,860.0418 654.7597,843.0748 C657.1147,840.3808 663.1367,827.4588 665.0397,834.3828" id="Fill-266" fill="#284fc7"/>
            <path d="M678.8947,799.0967 C680.2017,790.2957 680.7287,774.6007 693.6827,778.1197 C694.6047,784.6037 683.7397,796.0947 678.8947,799.0967" id="Fill-268" fill="#284fc7"/>
            <path d="M787.9049,841.7783 C785.3969,843.2973 784.4469,845.0583 782.1879,842.8393 C784.1769,840.6303 784.7119,839.7093 787.9049,841.7783" id="Fill-270" fill="#284fc7"/>
            <path d="M781.0675,848.5586 L780.8615,847.8566 C781.6245,847.8276 781.3025,848.1006 781.0675,848.5586" id="Fill-272" fill="#284fc7"/>
            <path d="M677.7877,1110.0586 C677.2627,1109.1116 675.3517,1108.1136 676.9127,1107.4116 C677.2507,1108.1166 677.2627,1110.0226 677.7877,1110.0586" id="Fill-274" fill="#284fc7"/>
            <path d="M858.3224,888.2608 C857.8984,889.8118 857.3924,890.1888 855.9614,889.2178 C856.3664,887.6288 856.8804,887.2788 858.3224,888.2608" id="Fill-276" fill="#bfbfbf"/>
            <path d="M765.317,886.7686 C765.621,886.8946 765.925,887.0196 766.229,887.1456 C765.917,887.0346 765.567,886.4886 765.317,886.7686" id="Fill-278" fill="#bfbfbf"/>
            <path d="M988.4083,938.8301 C993.6513,945.5391 993.1003,946.9791 988.5113,952.3221 C982.1603,947.3441 982.3323,945.7641 988.4083,938.8301" id="Fill-280" fill="#bfbfbf"/>
            <path d="M63.4093,433.9375 C67.0883,434.5115 70.7673,435.0855 74.4483,435.6605 C70.7693,435.0855 67.0893,434.5115 63.4093,433.9375" id="Fill-282" fill="#bfbfbf"/>
            <path d="M76.3224,435.9092 C78.5264,435.1982 80.7294,434.4862 82.9334,433.7742 C80.7304,434.4862 78.5264,435.1972 76.3224,435.9092" id="Fill-284" fill="#bfbfbf"/>
            <path d="M480.7209,984.5938 C451.3379,991.8488 462.6529,924.9468 489.0259,928.3548 C505.9379,930.0298 510.0349,954.0158 507.3739,967.8558 C497.7669,973.4478 486.2169,974.0638 480.7209,984.5938" id="Fill-286" fill="#102c82"/>
            <path d="M483.2223,981.6494 C487.8483,972.7734 499.5953,973.3924 507.3703,967.8554 C505.9843,978.1324 491.4663,978.5904 483.2223,981.6494" id="Fill-288" fill="#284fc7"/>
            <path d="M497.8883,1093.8115 C493.5903,1089.1685 496.3723,1088.0215 499.7033,1084.8365 C505.1993,1088.9095 502.9473,1090.0285 497.8883,1093.8115" id="Fill-290" fill="#284fc7"/>
            <path d="M430.1662,1090.7881 C430.3892,1090.8071 430.7302,1090.7461 430.8082,1090.8611 C431.5922,1092.0281 429.3042,1091.8971 430.1662,1090.7881" id="Fill-292" fill="#284fc7"/>
            <path d="M477.3629,627.793 C477.9219,624.308 479.2199,620.612 479.4049,617.227 C480.8769,622.285 481.6239,625.827 483.7969,618.921 C491.0729,624.85 513.6879,619.147 508.6129,633.462 C474.3849,612.966 486.6959,644.528 477.3629,627.793" id="Fill-294" fill="#284fc7"/>
            <path d="M686.297,592.5478 C680.843,576.9898 709.914,576.6548 718.314,568.2008 C711.702,576.1358 696.533,585.2448 686.297,592.5478" id="Fill-296" fill="#bfbfbf"/>
            <path d="M514.6984,608.8193 C505.5244,607.8803 505.5244,607.8803 496.5534,615.5683 C494.5314,613.8553 495.2804,609.0823 490.3694,610.4683 C480.7264,610.8783 486.8414,623.3703 479.4054,617.2263 C478.2114,607.2853 502.8674,605.1343 481.7554,600.7203 C487.2164,601.1133 493.9294,598.4403 496.2014,606.7153 C503.7724,606.0653 507.2784,603.1113 514.6984,608.8193" id="Fill-298" fill="#102c82"/>
            <path d="M571.3317,619.7158 C570.2047,629.9688 566.2947,640.6938 556.5817,642.6248 C562.6217,632.0238 553.5477,617.0688 571.3317,619.7158" id="Fill-300" fill="#102c82"/>
            <path d="M579.0592,667.7002 C569.2472,679.2082 572.3832,671.4532 573.6832,661.1272 C580.9342,658.8462 579.7562,663.4702 579.0592,667.7002" id="Fill-302" fill="#bfbfbf"/>
            <path d="M527.1158,630.0488 C529.9998,630.3058 533.8138,629.5178 533.1728,634.3928 C529.7808,642.9608 523.0438,636.5978 527.1158,630.0488" id="Fill-304" fill="#bfbfbf"/>
            <path d="M740.816,551.4609 C738.182,555.3669 735.526,559.2449 729.992,558.9699 C731.474,553.3999 734.56,550.1469 740.816,551.4609" id="Fill-306" fill="#102c82"/>
            <path d="M719.047,568.1982 C718.662,568.2592 717.973,568.1362 717.631,567.9522 C718.851,566.9502 720.071,565.9452 721.29,564.9402 C720.542,566.0252 719.794,567.1122 719.047,568.1982" id="Fill-308" fill="#102c82"/>
            <path d="M594.8556,663.4932 C595.3796,664.0292 595.5596,664.6632 595.3916,665.3912 C594.8876,664.6972 593.7816,664.2762 594.8556,663.4932" id="Fill-310" fill="#284fc7"/>
            <path d="M594.7003,655.0918 C594.9503,655.7698 595.6453,656.3818 594.6643,656.8118 C594.4203,656.1148 593.6543,655.4958 594.7003,655.0918" id="Fill-312" fill="#284fc7"/>
            <path d="M595.8683,640.7344 C596.1953,641.2904 596.0733,641.8484 595.5423,642.2054 C595.2733,641.4774 594.8363,640.8034 595.8683,640.7344" id="Fill-314" fill="#284fc7"/>
            <path d="M509.1564,638.0898 C508.5934,637.4308 508.6564,636.8388 509.3454,636.3188 C509.5694,637.0948 510.3804,637.7848 509.1564,638.0898" id="Fill-316" fill="#284fc7"/>
            <path d="M446.4499,646.7441 C399.9669,691.0241 363.2819,629.8521 406.4779,606.2611 C417.1009,621.2121 438.8949,632.9891 446.4499,646.7441" id="Fill-318" fill="#102c82"/>
            <path d="M462.4337,615.3994 C465.3387,614.6604 462.1297,605.1244 469.4267,610.5844 C478.9067,614.6934 463.7467,625.5934 462.4337,615.3994" id="Fill-320" fill="#284fc7"/>
            <path d="M485.7824,648.5322 C479.3834,650.6072 476.3674,655.1412 471.6524,650.2262 C477.1974,646.2072 478.5714,642.6252 485.7824,648.5322" id="Fill-322" fill="#bfbfbf"/>
            <path d="M477.3625,627.793 C481.6615,634.785 483.0605,636.952 473.7085,635.524 C474.7705,632.874 472.1515,628.484 477.3625,627.793" id="Fill-324" fill="#102c82"/>
            <path d="M456.0324,615.6914 C449.9154,616.3644 450.8534,610.6444 454.9904,607.9344 C455.2304,610.4304 457.9574,613.6104 456.0324,615.6914" id="Fill-326" fill="#bfbfbf"/>
            <path d="M447.3551,644.4473 C445.5291,643.0773 443.7021,641.7063 441.8761,640.3363 C443.3051,641.2843 451.7391,643.7683 447.3551,644.4473" id="Fill-328" fill="#bfbfbf"/>
            <path d="M462.4337,615.3994 C462.5657,619.6884 457.2407,619.2264 456.0337,615.6904 C457.2027,613.2954 460.2547,615.4214 462.4337,615.3994" id="Fill-330" fill="#bfbfbf"/>
            <path d="M257.5304,989.2383 C264.7314,970.6563 257.5614,938.1543 290.0094,944.6833 C368.0284,966.4133 267.1124,1073.2023 257.5304,989.2383" id="Fill-332" fill="#102c82"/>
            <path d="M163.506,690.1543 C152.782,756.1793 102.013,738.7353 111.877,678.9343 C120.296,662.3853 108.947,671.3453 109.28,662.0483 C123.866,629.8463 168.501,660.1793 163.506,690.1543" id="Fill-334" fill="#102c82"/>
            <path d="M265.9235,756.3653 C267.2205,764.0283 272.6475,798.2963 280.8105,788.1473 C263.5455,726.1253 344.2645,763.7103 319.0825,806.2113 C283.6255,831.2613 252.1475,784.0933 265.9235,756.3653" id="Fill-336" fill="#102c82"/>
            <path d="M199.1051,542.5234 C196.0851,501.9364 265.7411,505.6814 258.9071,545.3324 C251.4611,577.2024 198.1631,589.3964 199.1051,542.5234" id="Fill-338" fill="#102c82"/>
            <path d="M203.7926,451.4853 C203.0776,446.7173 205.1796,449.3243 207.8756,450.9463 C206.5136,451.1293 205.1526,451.3063 203.7926,451.4853" id="Fill-340" fill="#07143c"/>
            <path d="M629.8751,313.0498 C634.3001,309.2498 636.8531,312.5088 640.9771,314.7468 C645.7401,316.7728 649.7991,310.0638 644.2641,307.7508 C642.5691,305.3498 645.2491,304.1958 647.0291,304.5788 C674.2261,321.7428 639.3671,312.1938 641.9691,327.0258 C634.9531,323.8478 616.1161,321.5618 629.8751,313.0498" id="Fill-342" fill="#bfbfbf"/>
            <path d="M617.1906,303.4473 C599.8436,303.4603 611.8736,312.1403 600.3766,314.2803 C603.7696,306.7503 593.6986,292.3063 609.5556,294.2023 C605.2756,306.7753 619.3946,286.1383 617.1906,303.4473" id="Fill-344" fill="#bfbfbf"/>
            <path d="M609.5529,294.2021 C599.5819,296.7211 592.2979,284.5791 604.2069,281.0781 C604.8479,283.8891 606.8729,292.4041 611.3199,287.8431 C617.9759,285.3971 614.3439,300.1461 609.5529,294.2021" id="Fill-346" fill="#102c82"/>
            <path d="M575.088,289.3115 C568.951,287.2675 571.258,281.3545 569.773,277.2095 C578.359,269.8985 582.979,284.3655 575.088,289.3115" id="Fill-348" fill="#284fc7"/>
            <path d="M587.3463,304.6709 C580.4953,301.7909 585.7933,313.3749 579.8953,310.3769 C582.8953,297.6379 573.2473,300.5839 577.7033,296.0539 C585.2853,299.2269 587.1233,282.9279 587.3463,304.6709" id="Fill-350" fill="#bfbfbf"/>
            <path d="M641.9689,327.0254 C638.5749,323.4514 642.5669,323.2554 644.2199,321.7064 C664.3659,304.1134 657.9189,329.8754 641.9689,327.0254" id="Fill-352" fill="#102c82"/>
            <path d="M585.7169,291.8291 C579.5279,303.8771 571.7339,288.6881 580.0439,282.7321 C581.7489,283.5371 586.8149,280.9511 583.7799,286.6871 C583.2119,287.7601 585.0099,290.0831 585.7169,291.8291" id="Fill-354" fill="#102c82"/>
            <path d="M672.7003,333.0869 C668.8863,326.6839 679.2193,329.3959 683.2963,327.9789 C685.1533,336.2229 677.9323,332.4269 672.7003,333.0869" id="Fill-356" fill="#284fc7"/>
            <path d="M598.3409,303.7109 C606.1409,309.6859 600.3309,316.5529 592.1529,313.6089 C593.2789,309.6489 595.2059,306.4029 598.3409,303.7109" id="Fill-358" fill="#102c82"/>
            <path d="M615.2462,287.9375 C613.9372,287.9065 612.6282,287.8755 611.3202,287.8415 C629.1882,276.3765 629.9142,298.2635 615.2462,287.9375" id="Fill-360" fill="#bfbfbf"/>
            <path d="M615.2462,287.9375 C621.0242,290.0585 619.6642,297.5895 613.5322,295.4935 C614.1082,292.9705 614.6772,290.4545 615.2462,287.9375" id="Fill-362" fill="#284fc7"/>
            <path d="M594.3239,307.9248 C593.2959,309.3138 593.1499,314.1128 591.2899,313.2128 C587.4349,306.3898 586.0699,300.4668 594.3239,307.9248" id="Fill-364" fill="#bfbfbf"/>
            <path d="M578.0099,292.5117 C577.9199,293.6627 577.8299,294.8137 577.7409,295.9637 C577.8309,294.8127 577.9209,293.6617 578.0099,292.5117" id="Fill-366" fill="#bfbfbf"/>
            <path d="M647.153,505.0547 C657.571,514.7807 661.734,483.1327 667.794,496.7757 C672.557,506.0197 656.234,505.5537 656.386,515.2167 C647.778,512.2997 644.359,516.4717 647.153,505.0547" id="Fill-368" fill="#102c82"/>
            <path d="M752.5695,440.4082 C751.1505,433.4232 750.9895,431.2842 758.6605,434.0492 C762.4745,439.4202 749.6165,450.6982 752.5695,440.4082" id="Fill-370" fill="#bfbfbf"/>
            <path d="M662.7975,465.1943 C667.5285,469.7993 669.0795,472.9023 663.0215,477.4223 C661.4665,474.0403 657.8585,466.6923 662.7975,465.1943" id="Fill-372" fill="#102c82"/>
            <path d="M647.153,505.0547 C646.503,510.8357 647.08,516.3217 640.236,517.6177 C641.868,512.8107 640.055,495.1457 647.153,505.0547" id="Fill-374" fill="#bfbfbf"/>
            <path d="M735.7233,443.4639 C736.4993,448.6079 725.0923,456.0689 725.1673,448.4529 C728.4653,445.8709 731.5043,438.4719 735.7233,443.4639" id="Fill-376" fill="#bfbfbf"/>
            <path d="M674.2897,504.6182 C678.1217,503.6022 683.6557,497.0592 685.6147,500.7472 C684.9877,505.0822 677.5337,512.0562 674.2897,504.6182" id="Fill-378" fill="#bfbfbf"/>
            <path d="M651.1637,490.9258 C648.1647,488.5398 640.2927,486.4978 645.9117,483.9948 C649.4707,485.9938 656.4827,486.2828 651.1637,490.9258" id="Fill-380" fill="#bfbfbf"/>
            <path d="M649.8112,498.5654 C647.9512,496.9474 646.0912,495.3304 644.2292,493.7124 C649.5662,491.3304 650.5522,493.9544 649.8112,498.5654" id="Fill-382" fill="#bfbfbf"/>
            <path d="M655.1056,515.3027 C657.6846,514.1117 655.1616,519.0277 655.2216,520.3667 C653.2766,518.0647 651.8566,516.9727 655.1056,515.3027" id="Fill-384" fill="#bfbfbf"/>
            <path d="M649.0016,513.1064 C651.9976,513.4064 653.1696,514.3144 652.6786,517.1464 C651.4536,515.7994 650.2276,514.4534 649.0016,513.1064" id="Fill-386" fill="#bfbfbf"/>
            <path d="M746.0026,446.959 C746.8226,446.447 746.9486,446.971 747.0466,447.78 C746.4386,447.746 745.9956,447.702 746.0026,446.959" id="Fill-388" fill="#bfbfbf"/>
            <path d="M666.3624,449.4023 C666.1124,449.7433 665.8624,450.0843 665.6124,450.4253 C665.8634,450.1553 666.1134,449.3523 666.3624,449.4023" id="Fill-390" fill="#07143c"/>
            <path d="M211.9904,391.165 C217.5684,391.497 216.8704,394.759 216.2504,399.56 C212.0214,404.413 212.2554,405.213 219.5124,410.674 C200.6814,419.077 195.4504,397.607 211.9904,391.165" id="Fill-392" fill="#284fc7"/>
            <path d="M199.6794,406.5996 C204.5544,408.2646 214.9244,420.1716 203.8524,418.8556 C192.1984,416.3896 180.6044,398.5966 199.6794,406.5996" id="Fill-394" fill="#102c82"/>
            <path d="M149.0924,281.957 C154.6464,287.512 165.8384,295.114 162.5504,303.818 C156.4814,297.052 147.8024,292.097 149.0924,281.957" id="Fill-396" fill="#284fc7"/>
            <path d="M189.1628,340.6484 C183.3608,336.1234 177.7778,333.0304 182.4518,325.0054 C190.2978,327.3924 188.6998,334.0854 189.1628,340.6484" id="Fill-398" fill="#284fc7"/>
            <path d="M162.5485,303.8193 C172.2825,296.7963 167.4055,312.1673 156.7635,310.9093 C147.3175,311.4193 157.2335,302.9833 162.5485,303.8193" id="Fill-400" fill="#bfbfbf"/>
            <path d="M193.0026,381.3213 C193.5276,376.5363 199.2736,379.3043 202.6526,379.7893 C200.4476,388.9933 197.7956,389.8833 193.0026,381.3213" id="Fill-402" fill="#102c82"/>
            <path d="M149.0924,281.957 C150.9384,290.477 149.0114,291.724 140.1074,292.356 C141.3204,287.846 149.8814,287.614 144.5034,281.27 C143.4784,280.061 147.5274,280.246 149.0924,281.957" id="Fill-404" fill="#bfbfbf"/>
            <path d="M184.9357,314.6016 C185.4397,311.8736 183.2397,306.7476 187.5577,308.4506 C186.6487,310.3816 185.9257,313.0466 184.9357,314.6016" id="Fill-406" fill="#bfbfbf"/>
            <path d="M185.0221,314.6875 C184.0001,315.4905 182.9781,318.9995 181.8321,317.3355 C182.9011,316.5485 183.9621,315.1595 185.0221,314.6875" id="Fill-408" fill="#bfbfbf"/>
            <path d="M214.1466,364.6728 C214.3196,364.3908 214.4936,364.1078 214.6666,363.8248 C214.4796,364.0918 214.4176,364.9348 214.1466,364.6728" id="Fill-410" fill="#bfbfbf"/>
            <path d="M453.8039,387.79 C462.7799,394.529 483.3349,386.269 484.7239,397.445 C478.3299,401.485 473.0899,390.872 466.2669,397.209 C461.2689,400.346 459.7939,390.374 455.5639,395.682 C453.3959,393.256 449.9289,390.062 453.8039,387.79" id="Fill-412" fill="#284fc7"/>
            <path d="M408.0016,395.9902 C398.8376,384.6642 395.3946,394.8132 383.4006,389.9872 C393.8306,384.6042 395.7766,376.9192 409.2316,382.6232 C399.6896,386.2382 412.9176,391.9482 408.0016,395.9902" id="Fill-414" fill="#102c82"/>
            <path d="M439.7545,370.084 C414.4245,361.146 441.5895,351.6 441.2335,371.59 C446.5635,388.902 416.5435,369.972 439.7545,370.084" id="Fill-416" fill="#102c82"/>
            <path d="M384.1349,351.9834 C386.1939,359.4274 378.2599,365.6954 383.4519,373.6594 C383.4029,377.6904 380.2919,380.6324 376.2149,377.2444 C370.4969,375.8324 371.0389,374.9204 376.0139,372.7404 C380.9159,366.7804 376.3049,356.9324 384.1349,351.9834" id="Fill-418" fill="#284fc7"/>
            <path d="M440.444,391.8662 C428.911,399.4462 429.352,398.2592 422.738,386.6262 C430.489,380.3562 433.689,394.1232 440.444,391.8662" id="Fill-420" fill="#284fc7"/>
            <path d="M433.0705,387.335 C435.0775,383.97 436.3065,378.551 441.7045,383.681 C443.1345,388.069 435.9345,389.361 433.0705,387.335" id="Fill-422" fill="#284fc7"/>
            <path d="M433.8947,388.1475 C437.8947,388.1595 442.2197,386.2435 440.4437,391.8655 C437.4907,391.9835 434.0307,392.9935 433.8947,388.1475" id="Fill-424" fill="#102c82"/>
            <path d="M343.5861,340.7461 C369.3831,341.3081 345.6191,340.4721 347.7601,356.0391 C341.4791,353.2171 347.5351,348.3691 341.0051,345.7321 C337.6291,344.6451 340.6291,341.5431 343.5861,340.7461" id="Fill-426" fill="#284fc7"/>
            <path d="M357.9704,381.4385 C367.2094,377.9155 361.8104,386.9505 362.3244,391.5655 C357.5904,389.9695 358.6024,385.4175 357.9704,381.4385" id="Fill-428" fill="#102c82"/>
            <path d="M341.9513,390.292 C346.2873,389.498 351.5233,386.733 346.5183,392.372 C344.4973,394.846 343.6803,394.46 341.9513,390.292" id="Fill-430" fill="#bfbfbf"/>
            <path d="M345.8463,359.1631 C346.1003,359.6131 346.0423,360.0191 345.6703,360.3791 C344.2093,359.5491 344.0863,359.3801 345.8463,359.1631" id="Fill-432" fill="#284fc7"/>
            <path d="M292.0348,379.8437 C291.5038,380.6977 290.9728,381.5527 290.4428,382.4067 C290.9308,381.3127 290.5468,378.0767 292.0348,379.8437" id="Fill-434" fill="#bfbfbf"/>
            <path d="M587.2321,502.499 C590.5951,494.379 601.9781,503.246 595.4241,510.922 C591.1761,509.403 588.5041,506.885 587.2321,502.499" id="Fill-436" fill="#102c82"/>
            <path d="M592.7985,523.4102 C592.5435,534.7032 587.1645,535.5852 579.6535,527.9412 C581.9855,524.8442 588.9335,525.3772 592.7985,523.4102" id="Fill-438" fill="#284fc7"/>
            <path d="M572.7081,536.3018 C570.6401,548.2718 577.4141,544.0518 577.5481,551.5758 C570.9651,544.5848 559.6661,542.7858 572.7081,536.3018" id="Fill-440" fill="#284fc7"/>
            <path d="M580.9225,521.5107 C580.1775,521.9507 580.1565,522.2607 580.8295,522.8027 C581.5755,522.3637 581.5985,522.0537 580.9225,521.5107 M585.6825,525.4707 C581.2125,528.1077 569.5815,524.8237 575.8755,519.9377 C579.7215,520.6407 584.5595,520.8897 585.6825,525.4707" id="Fill-442" fill="#102c82"/>
            <path d="M571.2584,536.4561 C569.2854,538.5551 560.8624,549.1411 561.5754,540.8021 C562.7524,535.8201 566.7284,535.0351 571.2584,536.4561" id="Fill-444" fill="#07143c"/>
            <path d="M600.8058,514.7471 C601.9258,523.5001 595.2758,518.0221 591.3068,514.8101 C594.5568,514.6101 602.0168,509.0281 600.8058,514.7471" id="Fill-446" fill="#284fc7"/>
            <path d="M567.3131,509.4033 C570.7731,507.6933 574.0581,505.7613 578.0791,506.4003 C575.7981,511.8813 572.2191,510.7743 567.3131,509.4033" id="Fill-448" fill="#284fc7"/>
            <path d="M372.7414,355.9355 C370.8874,359.4635 369.3064,359.5385 369.0814,355.5685 C370.9444,351.1905 372.2394,350.5265 372.7414,355.9355" id="Fill-450" fill="#284fc7"/>
            <path d="M231.3058,418.9775 C247.4758,462.3935 199.3098,402.6115 224.6608,414.9155 C224.4308,420.2655 228.8758,417.9755 231.3058,418.9775" id="Fill-452" fill="#07143c"/>
            <path d="M347.8127,355.4375 C348.8147,350.3215 347.3017,343.4765 355.9377,343.5985 C356.7587,349.9635 353.1547,353.2965 347.8127,355.4375" id="Fill-454" fill="#bfbfbf"/>
            <path d="M216.2511,399.5596 C218.5861,394.9196 222.0301,400.9556 220.0961,387.9546 C225.8321,386.5036 226.9471,389.7106 230.6891,393.6386 C224.1811,392.3356 238.1541,415.6756 216.2511,399.5596" id="Fill-456" fill="#07143c"/>
            <path d="M683.9069,594.2607 C684.6869,593.6897 685.4659,593.1187 686.2459,592.5487 C685.4669,593.1197 684.6869,593.6907 683.9069,594.2607" id="Fill-458" fill="#bfbfbf"/>
            <path d="M483.7965,618.9219 C482.7265,613.5569 485.8855,611.7349 490.3695,610.4689 C503.2485,615.8769 500.6895,629.5439 483.7965,618.9219" id="Fill-460" fill="#07143c"/>
            <path d="M609.5524,294.2021 C614.5414,296.1751 611.0174,297.6781 608.3824,300.2681 C608.7734,298.2461 609.1624,296.2241 609.5524,294.2021" id="Fill-462" fill="#284fc7"/>
            <path d="M580.9225,521.5107 C581.5985,522.0537 581.5755,522.3637 580.8295,522.8027 C580.1565,522.2607 580.1775,521.9507 580.9225,521.5107" id="Fill-464" fill="#bfbfbf"/>
        </g>
    </g>
</svg>
