<?xml version="1.0" encoding="iso-8859-1"?>
<!-- Generator: Adobe Illustrator 19.0.0, SVG Export Plug-In . SVG Version: 6.00 Build 0)  -->
<svg version="1.1" id="Capa_1" xmlns="http://www.w3.org/2000/svg" xmlns:xlink="http://www.w3.org/1999/xlink" x="0px" y="0px"
	 viewBox="0 0 512 512" style="enable-background:new 0 0 512 512;" xml:space="preserve">
<g>
	<g>
		<path d="M256,339c-5.52,0-10,4.48-10,10c0,5.52,4.48,10,10,10s10-4.48,10-10C266,343.48,261.52,339,256,339z"/>
	</g>
</g>
<g>
	<g>
		<path d="M386,452.999V399c0-56.092-35.858-107.759-87.203-125.645C291.022,270.65,286,263.838,286,256
			c0-7.899,5.176-14.701,12.8-17.356C350.957,220.475,386,171.188,386,116V59.001c22.603-4.569,40-24.597,40-49.001
			c0-5.522-4.478-10-10-10H96c-5.522,0-10,4.478-10,10c0,24.146,17.205,44.348,40,48.994V116
			c0,55.188,35.043,104.475,87.203,122.645C220.978,241.35,226,248.162,226,256c0,7.899-5.176,14.701-12.8,17.356
			C161.858,291.241,126,342.908,126,399v54.006c-22.795,4.646-40,24.847-40,48.994c0,5.522,4.478,10,10,10h320
			c5.522,0,10-4.478,10-10c0-13.349-5.202-25.903-14.649-35.352C404.309,459.606,395.538,454.927,386,452.999z M107.714,19.9
			h296.585C400.104,31.779,389.003,40,376,40H136C122.963,40,111.841,31.541,107.714,19.9z M146,399
			c0-47.725,30.34-91.624,73.779-106.757C235.388,286.806,246,272.477,246,256c0-16.221-10.538-30.785-26.22-36.243
			C175.649,204.384,146,162.688,146,116V60h220v56c0,46.688-29.649,88.384-73.779,103.757C276.612,225.194,266,239.523,266,256
			c0,16.221,10.538,30.785,26.22,36.243C335.66,307.376,366,351.275,366,399v53h-20.624c-4.466-35.537-32.91-48.528-59.736-57.877
			c-8.444-2.931-16.247-7.824-22.563-14.149c-1.876-1.878-4.422-2.934-7.076-2.934s-5.2,1.056-7.076,2.934
			c-6.398,6.407-13.988,11.169-22.563,14.153c-26.821,9.344-55.27,22.334-59.736,57.873H146V399z M325.141,452H186.858
			c3.731-20.3,19.643-29.776,46.079-38.985c8.306-2.891,16.143-7.195,23.062-12.631c6.929,5.444,14.77,9.748,23.07,12.63
			C305.502,422.225,321.411,431.701,325.141,452z M107.714,492c4.127-11.641,15.249-20,28.286-20h240
			c8.008,0,15.54,3.122,21.209,8.79c3.22,3.221,5.618,7.042,7.089,11.21H107.714z"/>
	</g>
</g>
<g>
	<g>
		<path d="M341.257,107.493c-2.948-1.821-6.63-1.986-9.729-0.438C308.207,118.717,282.09,124.88,256,124.88
			c-26.09,0-52.207-6.163-75.528-17.824c-3.099-1.55-6.78-1.385-9.729,0.438c-2.949,1.823-4.743,5.04-4.743,8.506
			c0,38.186,24.252,72.293,60.36,84.877c8.444,2.931,16.247,7.824,22.563,14.149c1.876,1.878,4.422,2.934,7.076,2.934
			s5.2-1.056,7.076-2.934c6.398-6.407,13.988-11.169,22.563-14.153c17.719-6.171,32.838-17.522,43.721-32.828
			C340.246,152.735,346,134.739,346,116C346,112.534,344.205,109.315,341.257,107.493z M313.061,156.455
			c-8.465,11.904-20.223,20.732-33.998,25.53c-8.306,2.891-16.143,7.196-23.062,12.631c-6.929-5.444-14.77-9.748-23.07-12.63
			c-22.844-7.96-39.587-27.002-45.03-49.816c21.661,8.349,44.89,12.71,68.1,12.71c23.214,0,46.449-4.364,68.113-12.716
			C322.053,140.825,318.331,149.044,313.061,156.455z"/>
	</g>
</g>
<g>
	<g>
		<path d="M256,276c-5.522,0-10,4.478-10,10v23c0,5.522,4.478,10,10,10c5.522,0,10-4.478,10-10v-23C266,280.478,261.522,276,256,276
			z"/>
	</g>
</g>
<g>
</g>
<g>
</g>
<g>
</g>
<g>
</g>
<g>
</g>
<g>
</g>
<g>
</g>
<g>
</g>
<g>
</g>
<g>
</g>
<g>
</g>
<g>
</g>
<g>
</g>
<g>
</g>
<g>
</g>
</svg>
