<svg viewBox="166.05 147.6 1143.9 1180.8" xmlns="http://www.w3.org/2000/svg" xmlns:xlink="http://www.w3.org/1999/xlink" overflow="visible">
    <defs>
        <polygon id="masterspot-illustrationsnotifications-path-1" points="0 0.503023259 287.953222 0.503023259 287.953222 320.6631 0 320.6631"/>
    </defs>
    <g id="Master/Spot Illustrations/Notifications" stroke="none" stroke-width="1" fill="none" fill-rule="evenodd">
        <path d="M532.7113,896.3066 C532.8643,896.0566 532.9863,895.9466 532.5963,895.9516 L532.7113,896.3066 Z M1003.9473,686.9036 C1003.7133,686.5756 1003.5693,686.5786 1003.3493,686.9166 C1003.5933,687.0796 1003.8613,687.3336 1003.9473,686.9036 L1003.9473,686.9036 Z M657.0843,707.9846 C656.4183,707.7416 656.1243,707.5366 656.1113,708.2946 C656.4283,708.6516 656.7393,708.2446 657.0843,707.9846 L657.0843,707.9846 Z M696.9423,695.3206 C695.6723,695.8686 695.5953,696.3086 696.9483,696.5906 C698.2623,696.3106 698.1563,695.8496 696.9423,695.3206 L696.9423,695.3206 Z M919.2493,668.8236 C918.5803,667.3006 918.3443,667.0206 917.0133,667.4076 C916.5143,668.9056 917.7843,668.5906 919.2493,668.8236 L919.2493,668.8236 Z M658.4513,704.2916 C656.8623,703.5926 655.9173,702.4956 654.6303,704.0526 C656.3063,705.4726 656.9253,706.9396 658.4513,704.2916 L658.4513,704.2916 Z M752.5483,916.7466 C746.4343,925.2086 756.0013,951.0146 764.8093,943.0756 C776.8063,937.4026 759.2983,925.8726 752.5483,916.7466 L752.5483,916.7466 Z M858.9113,858.1556 C857.5303,837.0966 823.0633,836.6986 825.0803,861.3856 C829.1323,881.2736 860.4223,886.1576 858.9113,858.1556 L858.9113,858.1556 Z M517.1043,865.9766 C517.1293,878.8396 513.5283,894.2356 531.8403,889.1786 C538.0123,875.9156 542.7603,860.7126 550.9163,847.8416 C552.9653,836.6886 528.4683,845.0836 521.0013,842.4466 C512.6323,844.0836 519.0253,859.3226 517.1043,865.9766 L517.1043,865.9766 Z M588.4823,1087.5716 C605.7413,1088.1226 616.3443,1091.2336 612.2433,1069.5946 C601.9713,1057.4266 581.0113,1061.2556 567.1003,1055.0766 C562.3833,1061.6866 566.6273,1075.1376 565.3273,1083.9886 C567.3793,1091.7726 581.9533,1085.6996 588.4823,1087.5716 L588.4823,1087.5716 Z M774.6033,813.0156 C768.0373,814.1566 757.8413,817.2966 758.5933,826.8916 C765.7273,828.0696 776.5673,823.1986 781.4533,828.7946 C790.6183,853.0876 758.8453,862.8696 756.5023,833.5756 C756.3003,832.2396 754.5073,829.9046 754.2633,830.0056 C740.5553,833.6546 752.0023,849.3636 755.6633,857.1156 C786.2233,891.5996 821.4573,813.3206 774.6033,813.0156 L774.6033,813.0156 Z M491.3023,942.6366 C484.1933,943.8156 471.9433,939.1456 467.4133,945.8246 C468.9093,958.9056 463.5363,976.3716 469.7863,987.4126 C485.9713,985.3376 515.9883,996.6916 506.3513,970.4816 C508.1033,965.7416 513.8823,973.8186 510.3373,965.4606 C514.3893,941.9676 517.3203,941.3476 491.3023,942.6366 L491.3023,942.6366 Z M517.1293,1063.4406 C518.4113,1070.6816 513.6703,1082.7586 520.3253,1087.4116 C533.5733,1085.6266 552.4043,1091.9586 562.9613,1084.5146 C560.8183,1074.9006 569.0303,1054.7616 557.9353,1051.2476 C546.9313,1043.1236 535.7723,1037.2516 521.0853,1039.4906 C512.5683,1040.9126 519.0963,1056.7456 517.1293,1063.4406 L517.1293,1063.4406 Z M540.5803,1089.8446 C534.1473,1091.4566 518.6083,1085.3916 517.0563,1093.7016 C519.9443,1105.5216 511.3343,1128.2106 521.1073,1134.6566 C533.2383,1131.7006 556.5603,1140.7826 563.1163,1130.2796 C561.3853,1108.9926 572.5513,1083.1416 540.5803,1089.8446 L540.5803,1089.8446 Z M367.2293,965.2536 C365.3343,958.7586 371.7423,943.6606 363.0953,942.4836 C350.9723,945.5666 327.2473,936.2946 320.9793,946.8616 C324.1283,958.4826 314.8493,982.1636 325.6063,987.6456 C346.8273,985.3786 374.0843,997.6846 367.2293,965.2536 L367.2293,965.2536 Z M442.4403,1089.7786 C435.8243,1091.7636 420.5453,1085.2196 419.1013,1093.9146 C422.0523,1105.7246 413.2493,1128.3696 423.2223,1134.7416 C435.4653,1131.8216 458.1573,1140.3956 465.2433,1130.7836 C462.3163,1107.6806 476.8103,1083.5566 442.4403,1089.7786 L442.4403,1089.7786 Z M442.1103,987.5696 C474.9823,994.4796 463.5273,967.7646 465.0543,945.8456 C454.9003,937.8786 435.3823,944.6966 422.1383,942.6906 C414.8313,952.5986 421.2983,970.9716 419.1033,983.6696 C420.5843,992.0056 435.5983,985.6676 442.1103,987.5696 L442.1103,987.5696 Z M343.9113,1134.7096 C350.6043,1132.7866 365.7493,1139.2526 367.3043,1130.6626 C364.3673,1118.8386 373.0543,1096.1576 363.2683,1089.7146 C350.9463,1092.5506 328.4053,1084.0666 321.1293,1093.5766 C323.1313,1114.9686 311.4883,1141.5446 343.9113,1134.7096 L343.9113,1134.7096 Z M392.5553,987.5706 C399.3523,985.6126 414.7953,992.1676 416.3943,983.5166 C413.3253,971.8446 422.4843,948.1486 412.0023,942.5096 C399.5603,945.4726 376.1873,936.5926 369.1753,946.5926 C372.0853,970.2596 357.6723,993.7656 392.5553,987.5706 L392.5553,987.5706 Z M392.4773,1134.7016 C399.2583,1132.6696 414.6733,1139.2916 416.4093,1130.6596 C413.4513,1118.8876 422.2503,1095.9976 412.3033,1089.7496 C399.6703,1092.5886 376.7753,1084.0476 369.1893,1093.5726 C371.0803,1115.4476 359.6803,1141.5226 392.4773,1134.7016 L392.4773,1134.7016 Z M490.5033,1134.6186 C497.6943,1133.2676 509.8463,1138.2156 514.0973,1131.0666 C512.1813,1118.4396 519.1103,1099.2556 510.7653,1089.8926 C497.3483,1091.8146 477.8813,1085.0846 467.4123,1093.0976 C469.7693,1116.6826 455.8193,1140.9746 490.5033,1134.6186 L490.5033,1134.6186 Z M367.2303,1161.2606 C373.5983,1125.6846 349.3013,1140.3376 325.1963,1137.4556 C315.2093,1144.5306 324.1553,1168.2546 321.1263,1180.8126 C328.4643,1190.2546 350.9003,1181.7336 363.2263,1184.6526 C371.7783,1183.0546 365.2693,1167.9406 367.2303,1161.2606 L367.2303,1161.2606 Z M419.1623,1160.6666 C420.5733,1167.8896 415.5363,1180.1186 422.5673,1184.4186 C435.7013,1182.5526 454.8113,1189.1116 465.0323,1181.3926 C463.0343,1167.8846 469.9873,1148.0546 461.7643,1137.6496 C439.8663,1139.2516 412.0823,1127.5016 419.1623,1160.6666 L419.1623,1160.6666 Z M321.1423,1012.7666 C322.6773,1019.9056 317.5023,1032.2866 324.6103,1036.5686 C337.6193,1034.5216 357.5183,1041.8206 367.0683,1032.9806 C365.1173,1019.6516 372.0463,999.9146 363.7883,989.7376 C341.8543,991.3406 314.0843,979.5646 321.1423,1012.7666 L321.1423,1012.7666 Z M563.1763,1161.0526 C569.4773,1125.6226 544.8933,1140.4466 520.9063,1137.4586 C511.4443,1145.1346 519.9703,1167.8906 517.1203,1180.5386 C523.7603,1190.5356 547.2113,1181.6346 559.3983,1184.6426 C567.6093,1182.7386 561.2563,1167.7636 563.1763,1161.0526 L563.1763,1161.0526 Z M419.1773,1012.9736 C421.1283,1019.7736 414.5713,1035.2506 423.2843,1036.8166 C435.4703,1033.8856 458.3753,1042.5856 465.2673,1032.8146 C462.2543,1020.3766 471.2773,996.2556 461.1033,989.5556 C437.3283,992.4576 412.8003,977.7506 419.1773,1012.9736 L419.1773,1012.9736 Z M465.1963,866.4536 C463.2763,859.5666 469.6613,844.4336 461.3823,842.3516 C449.2003,845.4776 423.6803,834.8746 418.3733,846.8156 C421.5683,859.2236 413.1403,882.6506 423.0803,889.6296 C444.9243,887.5716 472.1633,899.5656 465.1963,866.4536 L465.1963,866.4536 Z M367.2273,1063.8586 C365.2593,1056.9856 371.8053,1041.1446 363.2683,1039.4756 C350.3893,1041.8806 330.8663,1034.4996 321.3423,1043.2006 C323.3883,1056.8066 316.1283,1077.1456 324.8513,1087.4186 C348.9663,1085.0546 373.6843,1099.3316 367.2273,1063.8586 L367.2273,1063.8586 Z M465.2103,1064.0776 C463.1663,1057.0406 470.0203,1041.0126 460.9363,1039.4576 C448.7903,1042.4816 425.8523,1033.6036 419.0993,1043.5666 C422.0393,1056.5226 413.4193,1079.7106 422.9433,1087.6516 C446.8703,1084.6266 471.6053,1099.5606 465.2103,1064.0776 L465.2103,1064.0776 Z M416.2983,1161.4336 C414.4623,1154.7006 420.7823,1139.2536 412.4643,1137.4336 C399.8253,1140.3526 376.6643,1131.7086 369.1913,1141.3546 C371.5623,1154.6616 364.3933,1174.1766 372.7613,1184.4046 C394.7013,1182.6506 423.4863,1194.9346 416.2983,1161.4336 L416.2983,1161.4336 Z M369.2583,1013.5706 C362.1213,1047.1376 390.5353,1034.5536 412.4623,1036.8056 C422.1523,1029.2536 413.6663,1005.9426 416.1663,993.2276 C406.1593,984.5746 386.3723,991.9726 373.1033,989.5226 C364.7393,991.3636 371.2203,1006.7636 369.2583,1013.5706 L369.2583,1013.5706 Z M318.2473,1013.2016 C316.7293,1006.8466 322.8453,990.7106 314.2063,989.5066 C301.6033,992.3976 278.7353,983.8446 271.1793,993.3406 C274.1263,1006.0266 265.4113,1029.3356 275.1283,1036.8106 C299.1743,1033.6546 324.7833,1049.0026 318.2473,1013.2016 L318.2473,1013.2016 Z M467.2563,1160.7936 C469.2143,1167.6026 462.6683,1182.9916 471.2753,1184.6476 C483.6153,1181.5116 507.9563,1190.8086 514.3403,1180.2916 C511.3653,1167.8306 520.2293,1144.4956 510.2383,1137.4386 C486.5173,1140.6546 460.7163,1125.2306 467.2563,1160.7936 L467.2563,1160.7936 Z M467.2543,865.5716 C460.7823,901.6636 485.7633,886.6406 510.1143,889.6296 C519.6883,886.5906 511.8343,867.1896 514.3083,858.4436 C521.0573,831.6996 487.7423,845.8036 471.4753,842.3766 C462.6443,843.4356 469.2343,859.0086 467.2543,865.5716 L467.2543,865.5716 Z M563.1843,1211.0696 C561.7423,1203.6876 566.8583,1191.2446 559.7743,1186.7926 C546.6623,1188.6746 527.4603,1182.0416 517.3223,1189.8446 C519.2793,1203.9856 512.5673,1224.1006 520.3493,1235.3536 C544.3153,1233.3126 569.8113,1246.6216 563.1843,1211.0696 L563.1843,1211.0696 Z M465.1983,1211.1856 C463.1833,1204.2026 469.6863,1188.8206 461.4363,1186.5446 C449.2113,1189.5146 425.8443,1180.6816 419.1083,1190.6146 C422.1083,1203.6656 413.1693,1227.8786 423.1883,1235.4816 C447.8173,1232.6956 471.5313,1247.2046 465.1983,1211.1856 L465.1983,1211.1856 Z M419.0983,915.5696 C421.3083,922.5296 414.1673,939.3456 423.6383,940.5216 C435.8093,937.6516 458.0903,946.1046 465.2573,936.6656 C462.6983,922.8576 470.4383,902.0616 461.4333,891.7676 C437.0653,894.0586 412.6713,879.9076 419.0983,915.5696 L419.0983,915.5696 Z M467.2563,1063.5796 C460.6623,1099.5816 486.0563,1084.9656 510.4773,1087.4196 C519.5433,1077.4456 512.0023,1056.6976 514.1493,1043.1276 C504.0373,1034.5646 484.3173,1041.9116 471.0093,1039.4706 C462.7813,1041.5416 469.2063,1056.7196 467.2563,1063.5796 L467.2563,1063.5796 Z M271.2583,1063.4376 C272.6823,1070.7406 267.4973,1083.2696 274.9393,1087.4216 C288.2923,1085.4806 307.9813,1092.3766 318.2273,1084.1626 C316.1193,1070.4906 323.5203,1049.9166 314.6443,1039.6756 C291.8253,1041.2446 264.0713,1029.2626 271.2583,1063.4376 L271.2583,1063.4376 Z M416.3433,1063.7906 C414.3553,1056.8686 421.0043,1041.1226 412.2503,1039.4656 C399.9363,1042.5976 375.4773,1033.2646 369.1973,1043.8486 C372.2093,1056.5476 363.1993,1080.4436 373.3193,1087.5976 C397.5253,1084.4656 422.9013,1099.8626 416.3433,1063.7906 L416.3433,1063.7906 Z M416.2953,1211.5286 C414.2993,1204.4676 420.9103,1188.4956 412.3803,1186.5456 C399.9293,1189.5456 376.0403,1180.5986 369.2053,1190.6586 C372.2223,1203.7296 363.1563,1227.9286 373.3263,1235.5156 C397.6463,1232.4196 422.8103,1247.6166 416.2953,1211.5286 L416.2953,1211.5286 Z M514.2863,915.6006 C520.7523,879.4686 495.8843,894.6886 471.5513,891.5066 C460.9953,899.2406 470.1113,923.7926 467.3843,937.1166 C477.5433,945.2196 497.3543,938.3436 510.6903,940.2926 C517.9663,935.6926 512.8763,923.1216 514.2863,915.6006 L514.2863,915.6006 Z M369.2543,915.5546 C371.2413,922.6346 364.6673,938.4646 373.1233,940.5356 C385.6153,937.5306 409.4773,946.4806 416.3813,936.3956 C413.4293,923.3046 422.2893,899.2856 412.4163,891.5256 C387.9853,894.5756 362.6563,879.3216 369.2543,915.5546 L369.2543,915.5546 Z M514.3183,1210.9146 C520.7113,1174.5366 496.0513,1189.4956 471.2683,1186.5596 C461.1873,1194.0266 470.2353,1218.3886 467.2013,1231.3986 C474.1703,1241.4756 498.0153,1232.5116 510.5423,1235.5596 C518.8453,1233.3556 512.3423,1217.9246 514.3183,1210.9146 L514.3183,1210.9146 Z M770.7683,755.4466 C768.4403,731.3586 733.1373,716.4316 713.4143,730.5186 C702.0103,737.3086 707.2083,752.1176 700.9583,759.9566 C695.3063,824.8586 768.5973,808.1026 770.7683,755.4466 L770.7683,755.4466 Z M618.5333,865.2846 C616.0183,902.3336 683.0413,955.0416 693.9093,895.9906 C685.9793,894.5946 703.1163,889.9836 698.3563,872.4006 C698.7523,812.0276 613.9343,811.7676 618.5333,865.2846 L618.5333,865.2846 Z M522.2993,922.2116 C534.0883,922.0036 553.9413,929.6406 557.2653,940.5566 C553.5973,960.0706 538.4353,979.3866 516.5513,974.9426 C507.4053,974.2796 515.1113,982.1636 511.7943,984.5336 C531.6283,1003.5046 564.4213,975.8386 570.8963,954.3146 C585.1883,923.8456 544.7783,906.0536 525.0623,908.0016 C530.1793,903.6136 526.5833,896.7596 531.9583,893.1076 C528.2323,890.5876 518.6903,890.1286 517.0833,895.3096 C519.3353,902.6646 513.8493,920.3586 522.2993,922.2116 L522.2993,922.2116 Z M513.3143,999.4626 C518.7303,979.9406 483.1913,993.4966 471.7863,989.5326 C460.7903,995.3956 470.4073,1020.1186 467.1783,1032.2876 C472.0953,1042.8166 495.0653,1034.2296 506.0473,1036.5676 C520.5683,1042.2916 509.2633,1008.8696 513.3143,999.4626 L513.3143,999.4626 Z M534.3923,1034.5156 C534.6953,1033.8086 534.8223,1031.2606 535.6713,1031.7926 C526.8673,1031.0136 532.9253,1021.3896 524.4093,1019.5156 C513.7083,1006.4516 517.5483,1024.4626 516.5023,1032.8656 C516.3383,1039.2126 538.5523,1037.1886 534.3923,1034.5156 L534.3923,1034.5156 Z M640.8763,707.9566 C642.6363,709.4656 641.4733,706.6826 641.9823,705.5256 C640.3833,705.7526 640.5613,706.6306 640.8763,707.9566 L640.8763,707.9566 Z M419.2053,1273.1316 C416.5683,1283.8736 418.6773,1271.0806 407.4823,1271.7616 C403.7163,1269.1136 408.4303,1268.4926 410.1083,1270.1096 C422.4923,1277.3396 414.0193,1248.2186 416.1433,1241.3896 C406.5083,1232.3776 386.1053,1239.8236 372.8733,1237.7286 C366.9683,1239.7156 369.8463,1247.9826 369.2143,1252.7416 C364.4393,1258.3796 370.6863,1237.8256 363.5423,1237.7376 C358.5543,1236.1926 337.3953,1241.5576 341.9463,1234.1796 C379.6063,1243.2366 364.5033,1214.6856 367.0773,1189.7716 C356.8183,1182.0876 337.7563,1188.6306 324.6143,1186.7656 C318.2503,1190.8376 321.6433,1223.5176 318.3553,1197.8376 C318.3613,1186.4996 318.3533,1186.4996 307.0933,1186.6546 C303.7823,1182.9546 310.8563,1184.7956 313.2813,1184.6226 C325.3523,1180.1456 315.0923,1153.8836 318.4823,1142.0126 C314.5353,1131.5516 292.8053,1140.2986 282.7253,1137.6216 C282.3273,1127.5286 315.5583,1142.3426 318.4633,1130.8116 C320.3373,1083.1876 320.7013,1089.2056 275.2383,1089.6906 C267.3413,1089.9516 272.9133,1102.7596 271.3383,1108.0596 C261.5803,1089.9266 272.6083,1073.4386 269.2483,1051.2046 C274.0023,1034.0916 248.3953,1042.1506 262.3423,1036.7086 C276.8023,1036.7416 266.0453,1009.2316 269.2643,998.9256 C269.2613,989.6956 269.2603,989.6956 260.3603,989.5566 C275.9533,987.4876 264.8993,970.7716 271.3603,958.8406 C265.1863,1000.4926 285.7063,984.8826 315.6423,986.6726 C323.2573,936.9556 324.4183,941.8226 281.1943,942.3776 C333.1763,937.7886 315.6583,943.9026 318.3243,893.5606 C326.9603,895.5176 313.1793,934.8556 325.0983,940.5446 C375.9963,942.4046 367.1423,943.2716 367.2963,895.4736 C363.1133,884.0456 320.7463,897.9346 323.0423,889.5026 C380.6183,890.8786 362.5133,894.4316 369.1153,846.2426 C372.1683,858.6576 362.8423,883.3166 373.6663,889.6526 C385.9323,886.4046 410.4613,896.0986 416.4383,884.9766 C416.0543,839.6956 425.0753,839.5916 376.1043,841.7486 C412.1343,832.6086 415.3523,856.3686 418.3083,811.6986 C412.9363,851.9336 431.3783,837.1656 460.7593,839.7746 C471.5323,833.2716 462.2173,808.4406 465.1713,795.8546 C473.6653,803.0126 459.3543,833.8986 471.3863,839.7646 C528.8283,840.9666 507.8363,843.1736 516.7333,803.2306 C516.6153,834.9656 511.4853,843.6016 548.3893,839.6656 C556.2913,840.2246 555.7123,833.7756 555.0343,827.8916 C563.8763,821.4476 564.9943,806.5696 573.4433,801.0336 C576.9933,801.7866 575.4553,800.7906 575.5203,798.6406 C580.2933,777.1066 608.3693,801.7896 621.1463,786.1596 C647.5863,769.5176 661.0093,733.1136 628.1303,715.9776 C625.8233,714.2146 627.5033,712.4806 629.3903,711.6566 C630.6503,711.1686 633.5793,712.2616 631.0733,709.2376 C634.5973,706.1116 639.5813,705.6926 643.8123,703.8756 C648.1253,702.5646 651.2393,699.7576 653.2183,703.1066 C652.4813,701.4186 652.6563,698.6006 654.2903,697.9086 C663.5733,699.0226 671.6283,697.2046 681.1273,696.7536 C681.6503,701.9356 683.9523,697.9926 685.3733,697.4826 C695.7293,699.4026 689.4913,691.9726 705.6003,694.1576 C722.8653,692.5786 739.2053,691.1156 757.0523,688.5166 C768.9363,685.0916 766.1583,700.8136 769.8733,707.4166 C786.4733,735.3486 816.0563,701.3416 808.7773,679.5696 C809.9063,670.6806 826.3063,682.4506 818.7833,674.0876 C841.9053,677.0956 867.6563,673.1906 890.9193,671.1186 C897.5123,666.5996 902.6743,665.3906 910.1333,668.3436 C915.8993,668.8586 921.7633,664.6806 927.5913,668.6726 C927.9683,668.9306 929.5523,667.4256 930.5743,666.7396 C934.6793,673.0506 943.0343,667.9996 948.0903,674.2266 C953.1303,668.8056 968.1293,672.7746 975.5383,675.3566 C977.4793,676.3896 981.2193,678.8826 981.9703,673.5326 C985.4373,681.8916 985.5683,676.7616 991.2743,679.0606 C997.5403,690.4806 1021.9613,680.9436 1011.5173,700.2096 C980.2483,750.1176 909.5393,708.7076 907.3993,793.0986 C910.6763,771.4426 896.0373,744.7486 871.2603,751.9136 C850.7523,742.3496 844.6083,776.5856 844.8383,792.2036 C852.2283,832.5216 897.2953,832.2376 907.4143,793.0326 C914.8633,893.6426 944.3183,841.4136 854.1873,882.8596 C850.7743,884.9456 848.4553,886.0776 846.2643,879.5926 C848.2343,892.3036 840.6733,879.9416 837.2873,889.8086 C822.8583,902.3856 804.6053,912.7666 788.9213,924.4616 C782.9963,913.6526 778.2183,911.1696 766.3743,912.9836 C755.5243,916.5286 781.2033,937.7676 788.0893,925.2226 C784.9553,934.0556 775.8723,934.8836 772.5563,942.4996 C770.0223,945.6126 767.4193,951.5926 763.8183,953.0596 C753.8313,949.4256 745.6813,978.0256 742.0773,959.2826 C711.4623,911.2336 640.5933,956.0076 669.0783,1005.0536 C671.2853,1015.3356 677.1853,1028.0826 687.7583,1018.1796 C674.5773,1032.1876 660.5263,1045.2496 647.3143,1059.9926 C639.8603,1068.2466 622.3613,1059.9586 615.2743,1068.0376 C621.8233,1104.6936 594.7283,1085.2386 568.4243,1089.9606 C560.8153,1099.9446 567.3863,1118.1386 565.1883,1130.8186 C565.5023,1140.7816 586.1573,1129.0156 586.2413,1137.5146 C580.2073,1139.2346 566.4543,1133.4206 565.1883,1141.3336 C568.2043,1153.7886 559.2823,1177.7276 569.2353,1184.6236 C586.5593,1183.0356 587.7623,1188.0176 569.7103,1186.5766 C562.5423,1181.7326 562.3533,1240.8916 570.0493,1235.5846 C583.4303,1231.8256 615.2703,1245.6236 612.4233,1223.5926 C618.1223,1230.6346 610.6173,1237.1516 624.7843,1235.5406 C632.9663,1239.3496 610.0473,1233.0336 614.9923,1250.1826 C615.4353,1257.8586 616.6943,1256.6966 622.1133,1252.9776 C625.1633,1256.3636 627.9973,1251.6836 630.9513,1252.7756 C628.6943,1255.3176 627.3473,1259.0086 622.6723,1258.2286 C618.2973,1258.2226 615.8733,1264.9296 611.1813,1261.3586 C620.4473,1227.1106 591.2523,1239.4646 568.9013,1237.7306 C561.1333,1242.7576 567.2073,1256.4486 565.2443,1264.6326 C564.3833,1273.5016 566.8123,1271.7106 574.0553,1272.6306 C570.6633,1278.3466 557.0333,1282.0006 550.5693,1276.6376 C555.1873,1273.3126 563.9633,1275.4886 563.2433,1267.8346 C567.7413,1224.9926 554.1163,1240.1046 521.3693,1237.5066 C509.5003,1239.3386 524.0083,1272.3116 514.1753,1271.3046 C511.6803,1261.8206 519.8083,1241.4976 510.2993,1237.5186 C497.8233,1240.5896 473.8863,1231.3976 467.1893,1241.7586 C464.3893,1252.1926 475.5993,1284.3486 457.2943,1278.4496 C461.4343,1273.8176 465.9783,1281.4156 465.1673,1273.2036 C462.6173,1263.1736 470.8313,1241.9686 461.1383,1237.5216 C422.7383,1238.3466 415.3983,1227.9366 419.2053,1273.1316 L419.2053,1273.1316 Z" id="Fill-1" fill="#32BDF3"/>
        <path d="M932.0821,629.1286 C931.9261,628.7936 931.6681,628.3686 931.4481,628.8686 C931.6041,629.3016 931.7341,629.6886 932.0821,629.1286 M479.0531,286.0126 C478.5991,285.2906 478.1001,286.1056 478.8901,286.3196 C478.9501,286.2066 479.0101,286.0936 479.0531,286.0126 M980.8121,313.5896 C980.3161,313.8526 980.6231,314.1496 980.7981,314.5186 C981.2721,314.2536 980.9901,313.9416 980.8121,313.5896 M686.1021,408.0276 C685.8511,407.6196 685.6881,407.6036 685.3951,407.9816 C685.6731,408.1426 685.9701,408.5056 686.1021,408.0276 M660.5331,345.0836 C658.6781,344.7936 658.1551,344.1106 657.1931,345.4826 C658.4611,346.5126 658.7861,345.7696 660.5331,345.0836 M932.0281,623.4446 C931.3871,624.2046 930.8281,624.8996 931.9171,625.1426 C932.8281,624.5336 933.1861,624.0956 932.0281,623.4446 M494.3681,489.7326 C493.4911,488.9956 492.8491,488.4656 492.5851,489.6106 C493.1511,490.3986 493.5981,490.8006 494.3681,489.7326 M495.0041,487.1146 C499.3481,483.9316 494.1071,483.0196 492.6081,480.6206 C492.0881,482.6956 486.2661,488.5596 490.2811,488.6766 C491.4021,486.7886 491.2641,481.7796 495.0041,487.1146 M514.3251,187.0466 C512.5121,181.0566 505.4401,185.9896 506.3611,190.8356 C510.0391,187.5586 513.2361,192.1026 514.3251,187.0466 M509.6971,663.1346 C507.5941,656.7256 502.5841,673.4056 503.2811,676.5606 C508.9271,674.3116 506.9271,667.8616 509.6971,663.1346 M629.4561,465.3266 C639.2711,476.7126 643.2711,459.6276 636.2391,460.6036 C635.2191,465.8646 635.6271,469.0546 629.4561,465.3266 M663.3151,340.4986 C670.3071,340.6636 682.5041,331.0156 663.8421,332.5276 C675.1221,341.3516 651.8051,338.5206 663.3151,340.4986 M957.5821,170.0996 C953.5381,171.8226 950.1061,184.7546 948.8661,189.6986 C952.8221,186.6476 954.4991,175.7756 957.5821,170.0996 M489.6931,410.3766 C490.8461,404.3286 494.4601,398.6426 491.9531,392.8236 C487.9491,397.3996 487.1761,404.6426 489.6931,410.3766 M961.6441,586.8516 C967.4941,584.3766 970.6761,575.2186 968.9421,568.4586 C966.1021,574.3666 964.1601,580.7686 961.6441,586.8516 M969.7511,305.2216 C967.8171,299.5976 962.4251,318.3096 964.0761,321.8266 C969.4411,318.7496 967.6331,310.9926 969.7511,305.2216 M665.0391,465.0756 C664.4101,455.7906 651.4541,462.4756 654.8431,466.4856 C658.0711,465.9986 659.5741,459.7316 660.0951,464.4756 C657.6521,472.1946 662.5601,472.6936 665.0391,465.0756 M508.7081,758.4726 C507.2641,757.1076 505.9101,755.4586 505.6301,755.6246 C495.1931,759.5966 504.3491,770.0096 508.7081,758.4726 M496.8461,568.8616 C491.0951,570.5796 488.2491,586.5246 486.7631,593.8696 C489.6861,597.8616 494.4181,574.9686 496.8461,568.8616 M958.9211,421.9096 C966.3471,419.1646 967.7361,406.9286 970.2871,399.8106 C964.1021,404.6036 963.0451,415.0306 958.9211,421.9096 M963.5221,180.2136 C959.6201,188.3466 949.2581,200.9096 951.3561,210.3446 C957.0431,201.1116 960.4461,190.5836 963.5221,180.2136 M957.8311,259.7726 C961.2711,248.6526 970.8811,239.0726 967.5021,228.7886 C963.1111,238.8966 959.3731,248.4776 957.8311,259.7726 M700.1181,302.1076 C689.2741,299.8276 684.4581,307.1856 695.6611,313.1426 C697.0641,309.6696 698.4671,306.1966 700.1181,302.1076 M620.7701,471.2546 C615.6581,469.4286 621.0191,461.1266 624.3371,465.7746 C626.9441,461.2296 621.4751,457.6296 621.2721,453.2046 C620.0661,458.7706 609.3171,476.0936 620.7701,471.2546 M509.6011,572.8816 C500.5751,574.9326 494.8281,601.4096 490.6931,612.4116 C499.2431,600.7106 504.3701,586.4846 509.6011,572.8816 M511.0851,353.4376 C508.8961,339.9916 500.8311,373.6586 498.4671,378.0496 C494.3961,378.7616 495.5151,384.9896 498.2211,385.3286 C503.4521,376.4676 505.0511,362.0736 511.0851,353.4376 M682.3961,363.3046 C680.3031,364.2646 676.9211,364.5956 678.6141,367.9486 C682.7021,387.5266 701.0801,371.9496 682.3961,363.3046 M484.5631,722.4436 C490.6061,725.6816 501.9601,690.9746 501.953103,680.0366 C496.0461,693.7436 491.2911,709.3226 484.5631,722.4436 M637.6661,355.2646 C636.4301,361.4716 642.2281,354.8596 645.5561,355.1856 C648.5561,355.0176 653.5731,359.2716 655.0341,355.1016 C652.7881,350.0656 659.2441,352.9736 659.8431,348.5196 C650.2981,348.6026 633.6591,340.9036 637.6661,355.2646 M714.0541,288.4396 C715.7481,291.1126 726.2971,286.4996 724.4751,283.7546 C720.4971,281.6996 709.8931,285.1956 707.7481,289.1746 C706.2631,293.1446 706.2851,288.3616 705.3451,286.4866 C703.0341,289.4546 702.8491,295.8076 698.0311,289.9816 C696.9051,288.6256 693.8361,288.8816 691.6571,288.3996 C687.7851,296.7956 696.5671,290.4046 698.0891,296.5046 C698.6801,296.3106 699.2611,296.0656 699.8671,295.9326 C708.5761,297.2916 711.3781,300.2416 714.0541,288.4396 M487.7431,332.8936 C490.3441,333.5476 488.7681,336.6336 489.9351,338.6186 C496.9471,317.2726 510.4761,302.3356 511.2731,280.5006 C503.0551,289.7176 498.3751,318.6316 487.7431,332.8936 M604.3091,515.5556 C609.2241,509.8896 601.2551,513.6996 601.2931,509.4236 C601.4081,504.4366 575.2621,532.1356 591.2091,532.4486 C595.1451,537.7576 599.0991,532.0666 596.4691,527.9476 C592.1151,526.2626 606.2211,521.0596 604.3091,515.5556 M945.6101,292.9546 C943.6711,293.8496 944.8411,302.8016 949.0301,300.3086 C944.0721,292.3396 952.2251,283.9396 951.9521,275.7366 C944.7001,264.7066 955.8741,256.3626 955.1761,244.4566 C946.8411,239.5576 943.4531,283.4796 945.6101,292.9546 M671.9101,327.9466 C687.7241,327.4246 677.5741,311.7946 686.5211,303.0646 C689.8751,292.0186 672.5191,297.2936 669.0011,303.7936 C666.9111,306.8076 669.7071,307.3126 672.3291,307.9846 C664.8391,311.7776 668.7281,322.1236 671.9101,327.9466 M720.7991,272.8496 C737.7951,271.4746 752.9631,255.0326 743.5741,239.4886 C735.9621,227.7796 715.7251,240.5816 705.3581,235.1606 C690.0931,247.3176 703.6461,270.6336 720.7991,272.8496 M722.9321,605.3856 C744.5041,610.0836 763.9341,567.0956 752.1731,568.5086 C739.9921,574.1736 684.7651,559.4176 690.1241,575.7396 C695.7911,592.1266 705.1791,602.7456 722.9321,605.3856 M630.1341,405.7386 C630.5541,404.1136 630.9741,402.4886 631.3941,400.8646 C625.7021,399.3926 632.1721,394.2216 628.9711,390.1426 C624.8611,393.0606 618.6671,435.8346 625.5831,431.5666 C634.4271,427.4296 634.5751,434.7136 639.9091,436.8686 C644.3591,428.1846 643.7301,448.1586 658.0511,447.7766 C664.6531,446.8276 670.6821,451.9246 667.4221,456.7536 C670.7201,463.0506 663.1281,468.1776 668.1421,472.4826 C669.0411,478.4236 662.0571,468.6166 661.6381,475.0686 C661.4841,478.2146 658.5971,483.4546 661.2931,485.5226 C664.0351,486.4096 662.9021,486.4466 660.9371,487.3116 C656.7401,491.1626 660.1671,497.6976 653.3101,500.1846 C636.4881,490.4086 648.5901,511.2876 633.5491,503.6126 C641.1751,498.9516 632.6531,499.1446 634.9941,491.9446 C631.9951,495.1666 627.0171,498.6926 627.1811,503.4866 C624.6951,506.2916 619.6851,507.3046 621.0231,512.4146 C625.5991,520.6056 616.9481,537.8036 617.3241,524.8946 C618.2841,519.2516 598.6501,531.9716 615.8891,531.5726 C614.4091,536.7736 601.7861,536.1966 609.2821,539.6186 C637.9701,548.7936 667.0381,550.2496 697.2231,553.1926 C719.3161,554.5436 916.4681,551.6616 854.3841,515.5166 C797.7331,454.4786 847.0351,327.1916 753.2451,288.7386 C735.7281,281.3906 704.8851,287.8346 738.7991,299.8466 C729.9731,306.8966 739.0011,316.1866 733.2391,322.5756 C726.5751,326.9226 733.8921,330.5856 733.0971,336.6186 C727.4081,342.8946 717.8841,320.7576 727.2671,322.5756 C719.0431,316.6126 725.1211,319.5866 726.5121,312.6566 C707.7381,317.0666 715.5481,295.4566 706.3571,319.0366 C723.2601,316.9916 706.8171,329.7006 712.9771,338.1186 C713.0661,338.2116 711.6711,339.6686 710.9661,340.4906 C707.5971,334.9936 707.4571,341.4396 707.7131,345.1186 C702.3971,352.9986 704.5631,338.5706 706.8331,334.5586 C697.5361,332.6836 712.6641,327.5016 711.7311,323.1976 C711.1491,322.3856 709.2091,321.4296 708.9101,321.7046 C704.9871,326.2966 697.2731,314.3836 697.8051,323.6826 C699.8621,329.9606 691.3091,317.3706 686.5111,328.8376 C683.7461,330.0386 680.2361,325.5196 678.3521,331.6186 C682.1961,337.0436 674.8331,337.7096 671.8321,341.3866 C685.8291,349.3786 669.2081,350.7276 675.0881,353.7246 C680.4661,355.1436 687.8541,350.0056 691.0571,358.5996 C695.9261,360.1666 691.0151,360.9946 688.3401,361.3686 C687.9121,367.7076 694.0461,364.2396 695.5041,369.5076 C695.5311,369.5886 696.7681,369.3626 696.7661,369.3396 C696.3861,365.0086 700.8121,363.1016 701.7551,360.3816 C703.1721,354.7736 707.9801,359.9376 710.6851,358.2046 C710.9161,352.2936 712.8351,352.4476 716.2241,356.4356 C725.9071,354.2326 726.4091,360.8706 717.5241,364.4096 C716.8601,364.7206 711.7191,366.7026 710.9781,361.9816 C703.3371,359.9856 713.9861,371.1116 705.4701,371.5206 C712.4211,380.1066 703.1461,376.3866 699.8551,373.6426 C691.9601,376.3816 704.2781,385.5736 695.4071,383.5856 C685.7161,384.5726 689.3191,399.6516 685.0581,403.8256 C686.5081,407.6286 686.8591,414.6156 692.0361,414.8696 C674.6501,424.5206 688.4461,423.8536 671.2191,419.7376 C663.4991,428.2656 668.0721,424.0726 658.8771,422.5156 C647.4131,434.1646 678.6061,430.5356 666.8431,445.4836 C664.9081,443.9396 658.3531,444.8336 658.5521,442.9116 C664.3881,437.1336 655.8231,440.8956 656.2531,439.5716 C651.3511,437.1446 648.7731,432.5316 646.0451,428.2556 C639.0881,430.4786 623.7971,430.6936 627.6911,419.0326 C632.0481,414.3966 638.7581,431.5046 639.1671,422.0796 C634.3161,415.3286 641.5501,413.2586 638.4741,406.8076 C634.4781,390.6676 631.9881,422.5586 630.1341,405.7386 M629.3201,379.6246 L628.6661,382.0966 C635.4571,380.2716 633.7691,393.0596 637.6811,378.2906 C640.3721,373.5716 649.3341,375.5376 649.1311,368.8726 C648.5301,348.4266 627.5891,367.8496 629.3201,379.6246 M665.2611,357.5786 C660.3861,357.8976 657.4311,376.2956 661.6011,372.6566 C667.2261,372.9896 668.3261,383.6546 673.2121,374.8466 C679.3081,375.0356 676.2501,367.5006 677.1051,363.5616 C669.4431,362.7566 669.5601,364.7796 665.1811,357.4476 C666.1961,357.9416 665.8541,356.5006 665.2611,357.5786 M614.3811,499.4956 C614.6221,502.5796 614.1091,487.3956 623.1511,489.1096 C631.8791,468.4516 590.7601,499.8346 614.3811,499.4956 M492.8621,727.8916 C490.0081,728.6816 484.5651,740.8876 485.4991,744.4596 C488.3631,740.6026 492.0881,727.3606 492.8621,727.8916 M504.9781,192.2946 C503.1391,196.0116 505.9311,193.7956 506.1051,191.3526 C505.7301,191.6666 505.3541,191.9806 504.9781,192.2946 M981.9701,673.5326 C980.2771,682.0036 962.6021,667.8936 955.0701,672.3906 C949.1991,669.2846 949.2511,675.6066 945.4301,672.3646 C940.6211,668.0666 933.9621,672.8976 930.5741,666.7376 C930.8451,643.4516 932.5521,620.2036 931.6621,596.9266 C932.5361,486.7466 934.1231,377.4566 935.9341,267.3956 C935.0871,258.1336 943.1031,198.7906 932.1751,203.5706 C891.2991,212.6506 848.9951,222.4036 807.2621,224.1046 C721.7941,243.2506 777.6211,218.4886 743.4181,273.2996 C792.4901,283.6806 822.9831,331.7546 829.9011,378.9206 C838.3061,416.0766 838.3811,456.0116 856.6361,490.1746 C864.6251,503.5596 872.0761,515.0186 884.2581,523.5376 C898.3251,562.7206 798.1441,560.9236 773.3001,566.9636 C765.3981,570.2156 765.5461,582.2546 761.9951,589.3256 C749.9991,624.9796 694.7171,625.2236 681.4911,591.4866 C677.4231,552.8156 637.3281,566.5946 608.8811,558.6116 C536.4181,538.3226 549.9151,547.0916 591.4721,496.1736 C626.2201,428.9646 594.4601,326.4126 673.8301,284.2416 C678.6971,275.1226 700.2011,277.0646 698.8611,270.4876 C680.5031,258.8386 698.2651,230.9496 682.1771,236.0776 C629.6491,234.2606 576.5051,231.9816 524.2501,225.5666 C516.2471,225.4876 521.4961,237.2686 520.3461,242.1356 C522.8101,261.9046 517.4251,285.1776 521.1611,302.9816 C519.6581,460.9646 519.4161,622.7666 519.1671,782.4186 C523.9921,816.4926 503.7871,792.9386 482.4971,794.9456 C466.2271,796.2516 477.8991,763.9846 474.3451,752.1596 C476.1331,621.0696 477.1771,488.7766 476.5261,358.7196 C477.4391,304.2386 480.5121,249.5506 479.7541,195.1386 C471.3031,170.3176 497.5761,167.9916 511.6891,175.3476 C541.8091,188.2786 485.3941,219.7546 563.5181,217.7376 C616.8741,216.2426 672.3561,232.3386 722.5021,213.5916 C763.6811,227.6416 810.1411,211.4796 852.9221,205.0556 C879.9471,203.4926 906.0401,196.6016 932.4861,191.2966 C942.3861,188.7336 936.3861,176.7456 937.6531,169.3896 C933.8981,159.8256 944.2171,159.7646 950.7611,158.3546 C974.7901,156.0426 986.4861,153.1016 980.5751,182.9666 C982.1671,244.9816 980.7501,306.7436 982.7341,368.6726 C979.7171,470.9266 982.8021,569.5556 981.9701,673.5326" id="Fill-3" fill="#0D0D0D"/>
        <path d="M1026.6246,934.2248 C1026.5986,934.1078 1026.6106,933.9368 1026.5376,933.8858 C1025.9086,933.4598 1026.0916,934.6918 1026.6246,934.2248 M944.1436,1147.3088 C945.4796,1146.2088 945.1756,1145.3788 943.9766,1144.8098 C942.2566,1145.2598 942.8016,1146.0678 944.1436,1147.3088 M982.0096,1204.7348 C984.1036,1198.0288 996.1396,1181.8088 986.4476,1179.6978 C948.5526,1167.2388 967.5046,1184.7388 982.0096,1204.7348 M1000.4926,1183.7448 C981.0446,1208.6038 1001.1546,1232.5878 1019.7916,1248.6938 C1057.4926,1195.6288 1076.0436,1195.1838 1000.4926,1183.7448 M1152.52121,1294.9108 C1152.3326,1306.5348 1220.1016,1225.4428 1211.2246,1223.5808 C1136.3606,1209.1878 1158.0506,1212.4018 1152.52121,1294.9108 M873.7476,1148.0838 C892.5596,1147.7508 910.9376,1157.6378 929.2076,1155.5218 C907.8656,1123.3568 879.2496,1096.1858 858.2446,1063.5758 C842.8366,1074.0708 840.8256,1116.4658 832.0876,1137.8728 C839.1426,1147.6598 862.6106,1143.7468 873.7476,1148.0838 M810.2736,1138.7108 C831.0426,1146.1888 828.2896,1096.4998 837.8506,1081.4928 C844.5626,1059.5098 854.5576,1052.3078 834.9836,1034.6978 C799.1936,974.9678 812.1836,1028.1238 771.2306,1074.1518 C723.4996,1154.1838 727.2086,1124.7038 810.2736,1138.7108 M1195.4766,1076.3498 C1181.0826,1072.4168 1162.9206,1047.2788 1149.9636,1053.0568 C1131.9816,1098.6448 1088.8156,1149.1978 1076.4906,1188.7748 C1198.5146,1217.3058 1118.4466,1199.1418 1195.4766,1076.3498 M1277.8386,1126.1128 C1254.5836,1111.6238 1227.8446,1092.0638 1202.6836,1084.5198 C1180.9786,1114.3228 1173.8956,1153.9868 1160.6536,1185.0998 C1155.3716,1216.8718 1171.5126,1202.5068 1195.4666,1212.2128 C1238.5426,1228.1948 1253.9126,1152.8448 1277.8386,1126.1128 M1021.3686,964.9138 C1022.1266,969.7998 1019.0176,992.3058 1011.8736,992.8238 C1009.8176,993.9458 1006.9806,995.7508 1010.8416,997.7218 C1005.8326,1052.2498 965.5966,1105.9828 945.9266,1154.9328 C954.6226,1170.5488 977.5366,1164.6658 992.3926,1170.6438 C1005.0136,1167.2148 1003.9026,1144.3208 1012.9776,1134.3628 C1017.0276,1128.4248 1035.0296,1087.0628 1036.4476,1110.4738 C1024.5776,1128.8338 1017.0186,1149.7798 1006.2686,1168.8438 C1004.7846,1179.9788 1029.5606,1176.3598 1037.6186,1180.7998 C1049.3346,1181.1418 1063.1396,1191.3958 1069.1936,1176.8848 C1071.6096,1173.2098 1072.4466,1168.0748 1078.0426,1165.6978 C1080.2246,1164.7708 1079.5206,1156.8188 1085.4536,1155.5678 C1085.4006,1147.8688 1091.1696,1141.0648 1095.2176,1134.9118 C1100.4676,1128.3998 1100.9906,1118.2768 1110.3676,1114.9208 C1109.1786,1108.6898 1116.1066,1104.0858 1116.6766,1097.1318 C1142.5146,1039.1598 1164.0576,1054.0508 1104.8466,1017.5368 C1088.8886,1012.6468 1047.4206,1111.7958 1035.8386,1093.3058 C1053.1076,1064.1258 1075.7876,1036.7238 1094.1456,1009.2128 C1071.0786,994.1258 1048.3746,978.5208 1025.7826,962.7428 C1023.6786,961.5978 1021.9206,962.4188 1021.3686,964.9138 M951.6626,1128.8818 C950.2316,1128.1498 948.6296,1129.0658 950.7936,1129.4498 C951.0186,1129.4748 951.2816,1129.1448 938.0686,1145.8808 C976.4686,1087.5558 999.7556,1018.5918 1013.8196,964.7568 C1019.5506,949.7878 991.1196,944.9188 982.3696,935.6278 C968.8556,930.9328 952.5336,910.0468 939.3076,915.2858 C921.0376,936.6128 905.4056,959.8198 891.1686,983.9818 C860.1846,1044.1698 848.0256,1038.2238 895.8906,1091.1488 C908.5676,1109.5568 925.3076,1124.2708 936.6296,1143.3988 C937.0796,1144.1038 937.4706,1144.8458 951.6626,1128.8818 M721.2086,1140.6278 C721.3616,1140.7538 721.5146,1140.8798 721.6676,1141.0048 C708.1396,1125.7168 703.5656,1163.9808 721.2086,1140.6278 M586.1726,1134.7148 C554.7536,1141.2418 567.5056,1114.2718 565.3936,1093.4798 C575.3346,1084.6218 596.1826,1092.1548 609.7456,1089.8708 C615.7006,1093.0168 603.4976,1102.5008 601.9876,1107.6408 C600.2976,1113.0808 600.3306,1119.1618 595.2506,1123.2498 C592.0506,1127.3058 597.4086,1129.9278 600.7766,1129.9418 C631.4396,1124.9568 663.7056,1127.7168 694.7716,1129.2448 C712.1916,1128.2838 705.1216,1095.3858 711.4506,1082.2368 C714.7286,1046.2708 725.5306,1012.6198 733.3356,977.7008 C757.3746,953.1998 735.6496,991.0268 734.5576,1002.5748 C726.7436,1049.7468 682.6956,1206.0058 756.2936,1083.4328 C790.1056,1021.8858 828.2926,1006.9168 772.5536,942.5048 C776.2076,932.8828 782.7706,934.8598 783.7066,943.8558 C793.9066,957.0778 801.6696,972.1028 811.9556,983.9668 C828.6756,968.4528 832.3486,883.5058 847.2196,889.7168 C844.3806,921.7458 833.9246,952.6418 822.2976,982.4358 C814.2506,993.3448 823.1596,999.0018 827.7306,1008.4498 C833.6046,1014.2828 849.3026,1039.0968 854.8146,1035.6368 C866.0516,1007.2048 880.4776,980.8318 898.4786,956.3738 C941.4906,894.0538 944.8616,911.6028 875.4636,881.0048 C860.7976,861.7448 926.3416,895.5978 935.0626,901.9428 C936.1736,900.8068 940.6036,902.0648 940.6116,901.1328 C942.1236,895.9388 948.3466,896.4748 950.9166,891.3558 C951.8566,883.1028 977.3766,877.0838 967.2176,869.6728 C959.8426,862.6598 971.0876,868.5948 975.2266,868.4608 C993.4126,879.3528 958.7786,889.4728 951.5316,901.9128 C945.9436,912.6598 974.5706,918.0318 981.2946,925.6608 C993.2096,930.8918 1005.0986,945.1458 1017.1676,945.5528 C1021.9526,930.7058 1019.8376,870.5348 1031.0076,910.4008 C1031.3386,924.7438 1021.6766,942.8088 1028.8366,955.4638 C1054.3086,967.1878 1077.5496,996.2858 1102.6156,1001.4578 C1106.1226,998.8238 1106.6066,992.1068 1113.0376,993.3398 C1113.9846,992.0288 1113.4156,988.6038 1114.4856,987.4248 C1118.3396,983.3318 1124.4856,975.8548 1128.8006,973.7128 C1132.5096,975.5298 1131.7466,974.1418 1131.5566,971.4838 C1169.2496,949.1728 1107.4516,999.1928 1109.7696,1010.1408 C1123.5496,1016.2568 1136.3966,1033.0378 1150.2816,1034.6248 C1155.1166,1025.4498 1174.5806,974.2978 1176.2276,999.4048 C1152.5176,1051.7908 1150.6486,1037.2248 1197.6026,1067.5888 C1209.5546,1071.5188 1223.2726,1028.3148 1232.0726,1040.6788 C1235.6056,1049.6408 1215.4926,1063.4818 1210.5096,1073.6388 C1228.4186,1089.6618 1257.5876,1100.1868 1279.0676,1114.5588 C1285.2036,1117.1108 1286.9556,1105.6038 1291.4986,1102.5398 C1297.0386,1106.6568 1293.9516,1110.8748 1292.3926,1116.9378 C1289.9496,1120.8108 1291.7886,1121.9828 1294.7806,1123.4298 C1300.1506,1126.0278 1302.8026,1131.7158 1301.0686,1136.5608 C1296.5626,1134.2558 1289.2276,1128.1648 1284.3426,1131.6978 C1268.2916,1158.0298 1253.2656,1186.0508 1235.5466,1210.6398 C1231.5896,1222.7528 1258.7396,1217.3848 1266.8566,1221.3008 C1261.7926,1237.4918 1241.0576,1225.0158 1229.0286,1226.6828 C1203.2176,1248.0418 1184.7896,1284.8148 1159.3726,1307.2098 C1124.4836,1307.8918 1154.6526,1237.2068 1143.8616,1212.7318 C1118.3496,1210.3978 1088.5826,1197.4138 1065.1626,1200.0248 C1052.7876,1215.5858 1044.0046,1233.9678 1031.6716,1249.4758 C1020.3316,1261.8148 1039.9336,1273.1828 1045.3036,1283.9638 C1052.9376,1293.1568 1079.4806,1316.5878 1051.1596,1310.5618 C1040.6376,1299.2958 1032.9916,1285.7028 1022.2436,1274.8148 C1011.4866,1262.6588 995.8616,1300.0898 984.8666,1308.8258 C961.8326,1319.2768 989.1706,1291.2448 996.2816,1281.5508 L996.2386,1281.5958 C999.2476,1274.0338 1012.5896,1265.6168 1008.8636,1257.8148 C1000.2236,1250.0488 994.3286,1232.8418 983.3746,1230.2808 C971.6376,1240.3488 974.2116,1323.3918 959.1656,1305.6858 C961.7206,1278.1108 964.9816,1250.8458 975.7806,1225.0518 C980.2706,1211.6308 962.5506,1202.0538 956.9716,1191.0238 C933.9926,1152.3688 930.9776,1177.9788 913.9026,1202.5288 C888.4906,1229.6828 864.5366,1286.0398 831.1606,1296.6448 C859.5996,1254.1528 895.8876,1215.8288 922.6866,1171.4858 C923.9726,1169.5938 926.4516,1166.6548 920.8176,1166.3578 C891.5696,1162.2538 862.3856,1156.6048 833.3286,1151.2098 C820.1146,1154.6918 824.3146,1177.7158 819.0636,1188.8028 C809.5976,1221.7038 813.6216,1258.4728 806.9616,1290.9978 C787.5756,1286.1808 809.0216,1216.3418 807.8856,1197.0218 C830.0526,1123.1358 804.1526,1153.6718 736.7566,1138.8268 C710.0836,1147.0518 706.0216,1180.7048 708.2176,1205.2218 C705.8396,1225.0838 714.3976,1247.2398 709.6006,1265.7168 C699.3586,1262.2848 703.1946,1247.7118 701.3846,1239.1118 C701.1916,1140.3528 699.6356,1192.2168 644.4836,1244.7468 C638.0056,1254.7048 623.8466,1250.6008 616.1906,1257.1138 C614.5836,1245.4998 611.7546,1235.5948 627.1686,1237.4548 C649.7936,1252.2508 679.5956,1184.4158 697.0546,1169.9158 C701.6796,1162.1648 708.5356,1138.2758 698.4086,1134.6358 C660.9826,1134.6488 623.4026,1130.2448 586.1726,1134.7148" id="Fill-5" fill="#023FA6"/>
        <path d="M828.7823,1296.8388 C828.4123,1297.1018 828.4123,1297.2738 828.7793,1297.5398 C829.1483,1297.2768 829.1503,1297.1048 828.7823,1296.8388 M819.7293,1296.0108 C819.1283,1295.2458 818.7003,1294.4018 818.1503,1295.4118 C818.1773,1296.6038 818.6643,1296.5088 819.7293,1296.0108 M644.4903,1244.7498 C727.0323,1149.5878 686.6113,1178.6898 706.3673,1268.3398 C719.6933,1242.4168 699.6603,1196.0258 710.4863,1165.2598 C729.7363,1122.2408 768.9013,1146.1108 805.6773,1146.9068 C818.7043,1150.2208 818.6533,1150.2058 815.5003,1163.4328 C804.8893,1202.6718 801.4793,1243.4198 799.3053,1283.8808 C815.4073,1329.6298 809.9073,1147.9738 833.3313,1151.2108 C929.9053,1176.5408 948.9903,1137.7648 878.5613,1234.8128 C795.3953,1332.8798 857.3423,1291.8458 777.3913,1288.4308 C775.6943,1287.7108 770.0993,1285.8888 775.0393,1283.8988 C773.8793,1278.3678 763.6093,1282.5408 772.3253,1285.6028 C758.6343,1276.3458 742.7133,1276.5778 726.3863,1274.8668 C720.6523,1268.8438 715.6743,1263.7178 703.9963,1270.9598 C702.2183,1271.4478 700.8213,1272.4828 700.6413,1269.3228 C696.7293,1263.3708 686.3613,1266.1728 683.1353,1258.6588 C669.7103,1253.5508 653.5663,1258.4588 644.4903,1244.7498" id="Fill-7" fill="#0C87DE"/>
        <path d="M1205.755,822.9033 C1205.614,823.1473 1205.46,823.2763 1205.86,823.2713 C1205.86,823.2723 1205.755,822.9033 1205.755,822.9033 M1230.067,818.1353 C1229.904,817.7973 1229.66,817.3703 1229.44,817.8703 C1229.591,818.2913 1229.72,818.6733 1230.067,818.1353 M919.127,812.0293 C918.853,811.5913 918.757,811.9233 918.662,812.2633 C918.907,812.3383 919.034,812.2623 919.127,812.0293 M1139.933,914.4453 C1140.441,914.0853 1140.05,913.9553 1139.636,913.8123 C1139.115,914.0413 1139.572,914.2623 1139.933,914.4453 M1017.74,685.5833 C1017.253,685.8233 1017.537,686.1083 1017.703,686.4663 C1018.185,686.2303 1017.915,685.9373 1017.74,685.5833 M1089.128,605.0213 C1088.813,604.5073 1088.674,604.8763 1088.521,605.2683 C1088.713,605.7733 1088.95,605.3483 1089.128,605.0213 M1156.722,744.3903 C1155.781,744.9653 1154.679,745.5813 1156.071,746.1133 C1157.262,745.6743 1158.251,745.3973 1156.722,744.3903 M1027.815,897.4263 C1025.505,896.6103 1017.952,895.6773 1020.697,893.1443 C1012.545,874.5283 1056.176,854.6993 1072.352,846.5603 C1307.123,743.9123 1086.645,770.1713 1129.142,690.7513 C1138.706,668.5263 1168.111,651.8153 1166.399,625.2373 C1155.764,580.5903 1096.636,593.3303 1071.92,618.6323 C1026.337,646.2283 1041.084,723.6843 985.036,738.3383 C968.912,743.0503 949.558,741.3123 935.673,751.9423 C910.643,781.8213 919.544,826.5533 931.18,860.5133 C905.801,861.0663 911.12,812.6713 907.399,793.0983 C909.764,708.5193 980.017,750.2653 1011.525,700.2143 C1038.646,568.8953 1201.554,543.3303 1172.949,650.7323 C1092.839,750.7833 1156.309,699.9803 1192.635,770.2753 C1183.059,831.0153 1137.508,802.6713 1228.485,817.1743 C1314.235,845.7223 1251.473,897.7173 1194.59,906.5953 C1173.354,911.4323 1014.822,938.0653 1105.961,910.7063 C1152.88,900.6343 1207.403,900.1633 1247.215,874.3943 C1294.732,832.8233 1198.356,818.7363 1169.677,824.6293 C1134.887,831.2493 1041.546,864.2263 1027.815,897.4263" id="Fill-9" fill="#0D0D0D"/>
        <g id="Group-13" transform="translate(168.000000, 556.070000)">
            <mask id="masterspot-illustrationsnotifications-mask-2" fill="#fff">
                <use xlink:href="#masterspot-illustrationsnotifications-path-1"/>
            </mask>
            <g id="Clip-12"/>
            <path d="M165.2342,320.6631 C130.2922,308.2801 -55.6358,312.2181 16.4682,244.5211 C47.5482,224.7851 83.5382,214.4631 120.2532,222.0721 C129.4572,222.3001 163.8422,241.1021 157.9982,228.4231 C126.4272,179.4261 80.2242,123.6111 92.7502,62.3471 C112.2962,-21.7199 231.0342,-19.7889 248.6822,66.3591 C262.3532,106.8831 267.3082,150.9551 276.7172,191.8661 C276.4422,210.7651 303.5592,244.5311 274.5102,243.9631 C246.9592,176.0011 260.2672,70.3901 205.7732,21.3411 C175.4872,1.1181 126.2172,15.5511 109.0782,48.2961 C81.4962,123.6211 150.9732,198.2591 193.7542,254.6201 C253.7942,324.7871 146.3702,231.2601 118.2942,232.3541 C83.7572,227.2881 38.5302,235.1841 14.9372,263.7951 C-3.0908,309.0571 223.2702,285.0661 165.2342,320.6631" id="Fill-11" fill="#0D0D0D" mask="url(#masterspot-illustrationsnotifications-mask-2)"/>
        </g>
        <path d="M839.5333,1298.8422 C838.9843,1299.3002 840.3873,1299.3272 839.8523,1298.8692 C839.7813,1298.8142 839.6423,1298.8472 839.5333,1298.8422 M865.7003,1299.0402 C865.3263,1298.8932 864.8163,1298.4622 864.6213,1298.9872 C864.9553,1299.7112 865.2583,1299.4882 865.7003,1299.0402 M833.3683,1297.7112 C867.0283,1277.5462 887.7883,1233.0442 913.9073,1202.5292 C923.3973,1194.6442 927.3193,1165.2562 941.8543,1171.3032 C1001.4403,1235.6982 960.5013,1229.1272 959.1633,1305.6842 C958.8183,1309.0372 960.4893,1309.3552 963.2713,1308.5092 C970.3263,1309.9952 961.3923,1312.2622 958.5193,1312.8502 C949.5123,1317.1612 941.9003,1310.3762 933.2423,1309.4672 C929.2413,1308.7272 923.7103,1312.3892 921.7763,1307.9912 C908.4253,1309.9612 910.9333,1302.7532 897.3273,1309.1032 C883.0183,1316.3032 882.6503,1313.0052 867.0953,1303.5952 C858.5733,1296.1842 845.3823,1305.2982 842.7913,1301.2742 C841.0853,1300.7202 831.9563,1300.2102 833.3683,1297.7112" id="Fill-14" fill="#0C87DE"/>
        <path d="M1064.752,1309.5566 C1037.593,1260.4806 1008.289,1276.1136 1053.136,1217.2756 C1059.433,1210.1676 1063.525,1193.1436 1075.768,1198.7006 C1097.596,1206.6956 1121.411,1206.8296 1143.865,1212.7296 C1149.278,1228.5246 1142.219,1249.1706 1143.416,1266.4816 C1142.502,1291.9166 1154.736,1314.3116 1120.306,1310.5656 C1115.976,1307.0506 1112.159,1310.1456 1108.237,1311.4586 C1104.492,1318.0676 1099.977,1303.9666 1093.179,1311.8216 C1091.578,1313.6836 1087.689,1315.8786 1085.056,1311.5086 C1079.085,1309.1996 1069.322,1316.0576 1064.752,1309.5566" id="Fill-16" fill="#0C87DE"/>
        <path d="M1192.7609,1003.8344 C1192.2999,1004.2674 1193.5149,1004.2434 1193.0369,1003.8474 C1192.9769,1003.8024 1192.8549,1003.8384 1192.7609,1003.8344 M1249.6529,1053.2384 C1250.9319,1052.4494 1251.9589,1051.9104 1250.2969,1051.3564 C1248.8409,1051.6364 1248.3289,1052.0324 1249.6529,1053.2384 M1291.4969,1102.5374 C1287.1239,1105.6274 1284.9799,1117.0834 1279.0709,1114.5584 C1256.2799,1101.3334 1233.1499,1088.6904 1210.3409,1075.4964 C1215.4649,1063.1924 1229.1519,1053.9504 1234.4629,1041.1724 C1229.6639,1040.8574 1230.2689,1033.0064 1225.0329,1040.4924 C1198.3359,1079.4244 1196.9739,1066.3924 1162.3649,1045.4064 C1150.3519,1038.8344 1174.7159,1011.4064 1176.2199,999.4044 C1180.6859,993.7194 1172.3549,995.7474 1172.5309,990.2394 C1161.9199,1003.1264 1159.0109,1026.0804 1147.1169,1035.3874 C1095.5489,1003.3374 1103.9249,1007.3034 1146.4039,968.4804 C1167.8209,989.8854 1197.0599,1001.0754 1217.0979,1024.3074 C1226.2199,1030.9084 1235.5949,1033.4044 1242.6909,1042.2794 C1246.8829,1049.1124 1255.0609,1054.0064 1258.0379,1061.9604 C1262.1529,1066.8314 1269.0139,1068.2074 1271.4439,1075.7484 C1277.0159,1083.0254 1281.6379,1093.5724 1289.9979,1097.6514 C1294.1249,1098.2934 1292.5919,1100.4304 1291.4969,1102.5374" id="Fill-18" fill="#0C87DE"/>
        <path d="M1078.2164,924.4863 C1091.0044,932.8863 1104.9574,938.7663 1116.5804,950.3043 C1124.2124,958.0103 1143.6944,960.8233 1131.5554,971.4813 C1131.7464,974.1423 1132.5094,975.5293 1128.8014,973.7143 C1124.4184,975.7093 1118.3844,983.5083 1114.4854,987.4243 C1112.7374,997.6843 1110.0574,988.9783 1102.6204,1001.4503 C1095.3384,1005.5103 1086.9794,994.6533 1081.3204,990.5173 C1064.8184,975.3533 1037.5414,967.6263 1025.9154,949.4093 C1031.4274,935.8613 1022.7684,899.7163 1040.2324,904.5673 C1040.5864,911.7803 1048.7544,905.8913 1054.1554,908.5133 C1056.6814,911.5673 1060.4624,917.6273 1064.5474,917.6133 C1069.7084,914.7173 1069.7524,931.1503 1078.2164,924.4863" id="Fill-20" fill="#0C87DE"/>
        <path d="M1159.376,1307.214 C1181.522,1284.027 1203.672,1256.661 1222.898,1229.55 C1234.052,1223.849 1253.406,1228.651 1264.329,1231.225 C1265.896,1232.886 1259.916,1236.882 1258.816,1238.791 C1258.546,1242.46 1258.001,1245.9 1255.254,1248.619 C1249.867,1255.391 1254.025,1264.541 1247.717,1270.407 C1243.729,1285.165 1226.328,1287.059 1217.106,1297.124 C1214.166,1298.9 1207.535,1296.005 1203.832,1296.559 C1212.076,1303.598 1165.659,1310.406 1159.376,1307.214" id="Fill-22" fill="#0C87DE"/>
        <path d="M1266.8588,1221.2975 C1259.3738,1218.1855 1225.1298,1221.4445 1237.7748,1208.9835 C1249.2078,1196.5045 1290.7458,1096.5405 1300.8018,1143.5455 C1301.7478,1152.5055 1299.0078,1163.3915 1296.4718,1171.4255 C1291.0988,1179.2415 1301.5388,1175.5035 1287.4378,1184.3155 C1284.3188,1187.5945 1287.7308,1196.8875 1280.4368,1195.6575 C1282.9648,1204.0125 1279.3918,1205.4045 1272.1008,1203.4485 C1269.1928,1211.0495 1280.7458,1212.6815 1266.8588,1221.2975" id="Fill-24" fill="#0C87DE"/>
        <path d="M474.849,794.6283 C508.096,792.5203 519.107,802.9263 514.347,835.7573 C514.395,838.7963 513.447,839.7763 510.378,839.7433 C497.937,836.6903 473.858,845.8653 467.181,835.4763 C470.573,823.3113 459.021,795.2053 474.849,794.6283" id="Fill-26" fill="#023FA6"/>
        <path d="M281.1939,942.3779 C326.1369,939.5069 318.7089,943.3749 318.2769,984.0809 C307.1699,990.9679 288.4839,985.3819 274.9009,987.5529 C264.8849,977.7219 272.6589,953.4529 281.1939,942.3779" id="Fill-28" fill="#023FA6"/>
        <path d="M321.3966,1209.0463 C313.9906,1176.2353 342.7146,1188.6603 364.0406,1186.7513 C369.5536,1191.4273 369.4016,1230.3933 364.0966,1235.2843 C335.9736,1237.6093 336.5916,1229.8343 321.3966,1209.0463" id="Fill-30" fill="#023FA6"/>
        <path d="M271.3407,1108.0602 C264.3207,1079.0992 296.4757,1092.3932 314.6247,1089.9232 C323.4457,1099.0042 316.0307,1118.2812 318.4677,1130.8102 C318.5007,1133.9082 317.3997,1134.8112 314.4127,1134.7662 C290.4207,1137.0122 274.5397,1135.2472 271.3407,1108.0602" id="Fill-32" fill="#023FA6"/>
        <path d="M479.3711,1277.4282 C478.3691,1276.2592 477.6531,1275.3312 476.9601,1276.7992 C477.2711,1278.3482 477.8851,1278.5382 479.3711,1277.4282 M467.2781,1277.1642 C464.9371,1228.6402 465.6681,1237.8932 510.2981,1237.5232 C519.7861,1241.5262 511.7201,1261.7692 514.1801,1271.3012 C509.4181,1269.7082 506.2571,1270.6852 505.5931,1276.3042 C496.6511,1281.3132 477.4171,1280.3492 467.2781,1277.1642" id="Fill-34" fill="#023FA6"/>
        <path d="M442.5062,800.0351 C473.7382,786.6611 463.7382,813.1701 465.2782,835.2731 C465.3322,838.7861 464.2372,839.8221 460.7562,839.7751 C448.6472,836.6191 424.2862,846.1331 418.3402,835.2421 C414.5532,814.0311 423.2242,806.5951 442.5062,800.0351" id="Fill-36" fill="#023FA6"/>
        <path d="M419.2053,1273.132 C421.7643,1262.96 413.6083,1242.208 423.2693,1237.498 C435.5593,1240.368 457.9703,1231.923 465.2703,1241.318 C463.0603,1247.96 470.2453,1281.138 460.7553,1276.238 C460.3653,1275.946 458.4783,1277.664 457.2923,1278.447 C451.1883,1276.074 452.6923,1275.98 443.3883,1276.466 C437.0433,1273.034 427.4113,1276.106 419.2053,1273.132" id="Fill-38" fill="#023FA6"/>
        <path d="M517.063,1272.5912 C513.443,1227.4482 521.116,1238.6142 559.243,1237.5182 C568.392,1240.7362 560.692,1259.2842 563.247,1267.8322 C560.75,1279.8612 539.269,1276.0032 529.73,1274.1662 C530.702,1275.2332 527.963,1276.4932 527.395,1277.5812 C522.536,1272.2652 517.689,1282.9402 517.063,1272.5912" id="Fill-40" fill="#023FA6"/>
        <path d="M966.2816,1309.5209 C975.2856,1287.7609 968.4586,1241.2929 987.1686,1230.6629 C1003.1616,1251.6539 1019.8966,1258.8359 995.8566,1281.3739 C989.2706,1290.6009 980.1136,1304.1349 970.5066,1311.3519 C968.1696,1312.2829 966.4006,1312.4219 966.2816,1309.5209" id="Fill-42" fill="#0C87DE"/>
        <path d="M341.1635,1237.8713 C354.2485,1237.8133 371.7755,1233.3003 367.1605,1252.7013 C370.5645,1258.3193 368.6325,1243.9513 369.4225,1241.2883 C379.3935,1232.4713 399.4325,1239.7873 412.7825,1237.7353 C420.3695,1243.6223 414.6475,1257.9713 416.2585,1266.8273 C417.7335,1276.9823 408.8835,1269.0343 404.1565,1267.0913 C383.6175,1261.1603 357.5255,1254.0253 341.1635,1237.8713" id="Fill-44" fill="#023FA6"/>
        <path d="M983.1275,1312.2565 C1009.9855,1277.9635 1013.8385,1252.7245 1043.3015,1301.0765 C1058.1925,1319.3755 1006.4555,1309.3855 993.7775,1314.3815 C988.6255,1313.4995 989.1295,1308.1715 983.1275,1312.2565" id="Fill-46" fill="#0C87DE"/>
        <path d="M574.0545,1272.6337 C557.9085,1274.3187 567.8025,1252.0117 565.4165,1241.2277 C575.4235,1232.5367 595.4275,1239.7547 608.7555,1237.7227 C616.2545,1241.8317 610.1615,1254.1787 611.1835,1261.3587 C605.6765,1262.9767 598.1245,1265.1467 595.0095,1271.1537 C592.0955,1263.5787 580.7665,1275.0847 574.0545,1272.6337" id="Fill-48" fill="#023FA6"/>
        <path d="M282.723,1137.6264 C292.787,1140.2704 314.551,1131.5764 318.479,1142.0054 C324.152,1218.1174 297.093,1178.6794 282.723,1137.6264" id="Fill-50" fill="#023FA6"/>
        <path d="M287.3163,935.5991 C287.7133,935.0881 288.3553,934.4811 287.4393,934.1991 C286.6173,934.7191 286.2203,934.9701 287.3163,935.5991 M318.3253,893.5651 C315.3993,928.4351 332.7823,946.4161 285.8313,939.9321 C275.3173,938.6471 311.1793,897.4611 318.3253,893.5651" id="Fill-52" fill="#023FA6"/>
        <path d="M333.2342,876.7331 C362.4982,853.5941 369.9312,830.9201 367.3122,884.5421 C361.9352,896.5601 335.5252,886.2781 323.0462,889.5091 C323.7732,879.6111 333.6052,885.9971 333.2342,876.7331" id="Fill-54" fill="#023FA6"/>
        <path d="M260.3603,989.5571 C278.2663,988.5961 265.4063,1018.6231 269.4003,1030.3211 C254.9393,1055.6791 256.1273,999.9521 260.3603,989.5571" id="Fill-56" fill="#023FA6"/>
        <path d="M257.7328,1039.6469 C269.2568,1039.5349 269.2568,1039.5349 269.2538,1051.2049 C270.2598,1126.9749 258.2508,1068.1019 257.7328,1039.6469" id="Fill-58" fill="#023FA6"/>
        <path d="M1295.8795,1177.4362 C1291.8875,1173.0212 1299.3165,1170.3282 1298.3355,1164.0862 C1299.5495,1151.5162 1307.6135,1132.0382 1294.7835,1123.4292 C1287.4805,1121.1472 1295.0165,1113.7592 1294.3005,1108.1072 C1303.9235,1111.3812 1304.4665,1128.0902 1308.2355,1139.3982 C1308.2355,1151.3812 1303.4885,1167.4362 1295.8795,1177.4362" id="Fill-60" fill="#32BDF3"/>
        <path d="M1219.7814,1301.2577 C1219.5684,1300.4917 1219.2044,1300.5217 1218.5684,1300.7557 C1218.8214,1301.5587 1219.0184,1301.8037 1219.7814,1301.2577 M1204.3434,1301.1507 C1205.8284,1298.9357 1206.9464,1297.6207 1203.8324,1296.5597 C1207.5164,1295.9797 1214.1674,1298.9477 1217.1084,1297.1257 C1221.4134,1290.8237 1230.0704,1289.9437 1235.0944,1284.5667 C1250.8354,1278.5057 1249.1234,1261.0647 1255.2534,1248.6187 C1257.1354,1256.2817 1252.0174,1263.4827 1251.3474,1270.3347 C1256.5964,1274.4227 1251.2644,1273.5677 1249.6194,1274.9727 C1235.9334,1288.6047 1226.0104,1308.2277 1204.3434,1301.1507" id="Fill-62" fill="#32BDF3"/>
        <path d="M1016.3577,1311.3945 C1027.8877,1313.8315 1038.1357,1312.1535 1049.3067,1308.4085 C1054.3057,1314.5645 1038.2547,1319.8255 1031.9587,1317.5145 C1026.6147,1313.4875 1012.8447,1321.6885 1016.3577,1311.3945" id="Fill-64" fill="#32BDF3"/>
        <path d="M1106.0884,941.5273 C1091.9014,929.4393 1068.1294,928.1763 1101.4464,921.9883 C1111.1804,920.6363 1096.6364,935.8483 1106.0884,941.5273" id="Fill-66" fill="#32BDF3"/>
        <path d="M444.4488,1280.1286 C445.2948,1279.0406 445.1028,1278.6896 444.1128,1278.0156 C443.2828,1279.0186 442.9308,1279.3226 444.4488,1280.1286 M422.8168,1273.6376 C427.1518,1274.2036 432.3028,1276.4806 435.6158,1274.9006 C441.8508,1272.9626 444.2418,1279.1286 450.3828,1276.0966 C462.4458,1277.4816 446.0158,1283.4366 441.2488,1279.9506 C436.8188,1283.2686 435.6198,1279.3446 431.3668,1277.9246 C426.8678,1284.3156 424.4088,1274.4936 420.5028,1276.5826 C421.2738,1275.6006 422.0458,1274.6186 422.8168,1273.6376" id="Fill-68" fill="#32BDF3"/>
        <path d="M269.1982,963.164 C267.0092,970.208 274.8972,989.251 263.1372,987.56 C258.1402,985.518 266.0972,968.031 269.1982,963.164" id="Fill-70" fill="#023FA6"/>
        <path d="M857.1175,1308.1367 C856.8765,1307.7437 856.7065,1307.7327 856.4165,1308.0907 C856.6825,1308.2947 856.9705,1308.6167 857.1175,1308.1367 M848.5925,1300.5327 C855.3985,1299.4767 881.1145,1304.9397 865.3495,1308.0567 C863.5865,1308.6837 861.6565,1310.5377 861.3925,1306.7467 C859.5975,1305.3667 856.9055,1309.9707 856.4975,1309.9447 C852.9105,1307.6007 849.5395,1304.9597 848.5925,1300.5327" id="Fill-72" fill="#32BDF3"/>
        <path d="M531.046,1278.0097 C530.574,1277.4877 530.585,1278.8487 531.028,1278.3187 C531.078,1278.2517 531.038,1278.1147 531.046,1278.0097 M530.247,1274.5637 C536.011,1276.8897 542.023,1274.8937 547.876,1275.5787 C543.565,1276.5517 532.954,1286.1267 532.916,1280.5937 C531.387,1278.6807 529.44,1280.8247 527.526,1280.2297 C528.202,1285.0097 526.842,1282.0837 525.218,1281.0457 C522.998,1279.7957 519.52,1281.1107 518.456,1277.8537 C524.133,1274.3097 527.2,1278.8837 530.247,1274.5637" id="Fill-74" fill="#32BDF3"/>
        <path d="M307.0937,1186.655 C322.0107,1184.267 317.8117,1194.335 318.2397,1205.076 C314.5247,1198.936 310.8087,1192.795 307.0937,1186.655" id="Fill-76" fill="#023FA6"/>
        <path d="M897.3272,1309.1039 C901.2602,1307.9249 907.8482,1304.7789 908.6802,1305.8999 C913.2962,1312.7749 920.7482,1303.3449 923.2502,1310.3519 C915.9562,1310.2589 909.9742,1314.6249 902.5742,1313.2289 C900.9232,1305.6519 900.4912,1312.8629 897.3272,1309.1039" id="Fill-78" fill="#32BDF3"/>
        <path d="M644.4902,1244.7497 C653.0302,1251.5167 655.4542,1258.4287 644.2252,1250.7647 C627.3392,1255.0617 636.9592,1251.6847 644.4902,1244.7497" id="Fill-80" fill="#32BDF3"/>
        <path d="M391.3696,1263.9333 C397.5236,1261.4223 409.2396,1265.4903 399.7876,1271.3663 C399.1546,1265.0633 380.7676,1267.6843 391.3696,1263.9333" id="Fill-82" fill="#32BDF3"/>
        <path d="M1110.647,1310.4994 C1113.49,1309.5844 1117.851,1306.5844 1119.275,1311.6064 C1115.338,1314.3544 1109.567,1319.1564 1108.2,1311.5244 C1109.797,1312.2254 1110.64,1312.5984 1110.647,1310.4994" id="Fill-84" fill="#32BDF3"/>
        <path d="M599.5894,1266.79 C602.2014,1263.313 605.4294,1261.446 609.9044,1262.851 C606.4654,1264.169 603.0274,1265.479 599.5894,1266.79" id="Fill-86" fill="#32BDF3"/>
        <path d="M576.5672,1272.3766 C578.4212,1272.3026 580.2762,1272.2296 582.1272,1272.1596 C580.2742,1272.3326 578.6252,1277.6926 576.5672,1272.3766" id="Fill-88" fill="#32BDF3"/>
        <path d="M1148.2364,1306.1806 C1149.2224,1306.7496 1150.2084,1307.3196 1151.1934,1307.8836 C1150.2064,1307.3116 1149.2214,1306.7466 1148.2364,1306.1806" id="Fill-90" fill="#0C87DE"/>
        <path d="M892.2603,1311.4579 C892.4953,1310.2809 892.7313,1309.1029 892.9663,1307.9259 C895.0073,1309.1139 893.2573,1310.1149 892.2603,1311.4579" id="Fill-92" fill="#32BDF3"/>
        <path d="M966.1924,1309.663 C967.5854,1312.248 966.9314,1312.45 964.2254,1312.216 C964.9404,1311.419 965.5674,1310.528 966.1924,1309.663" id="Fill-94" fill="#023FA6"/>
        <path d="M979.398,1310.7973 C979.991,1311.2423 980.585,1311.6873 981.175,1312.1323 C980.581,1311.6873 979.99,1311.2423 979.398,1310.7973" id="Fill-96" fill="#0C87DE"/>
        <path d="M455.2885,1281.04 L454.9225,1281.041 C454.9845,1281.028 455.3365,1281.228 455.2885,1281.04" id="Fill-98" fill="#32BDF3"/>
        <path d="M1295.7516,1178.4062 C1295.7516,1178.4062 1295.6626,1178.4302 1295.6626,1178.4302 C1295.9666,1178.6842 1295.9836,1178.8802 1295.7036,1179.1642 C1295.7196,1178.9112 1295.7356,1178.6592 1295.7516,1178.4062" id="Fill-100" fill="#32BDF3"/>
        <path d="M1120.2481,1310.5278 C1119.9591,1310.9178 1119.3081,1311.2328 1119.2751,1311.6068 C1119.5781,1311.2118 1120.1391,1310.9078 1120.2481,1310.5278" id="Fill-102" fill="#32BDF3"/>
        <path d="M970.4293,1311.4199 L970.5023,1312.0039 C970.2113,1311.8509 970.5683,1311.2979 970.4293,1311.4199" id="Fill-104" fill="#0C87DE"/>
        <path d="M733.3334,977.7011 C680.7074,1151.0091 758.5144,1129.0381 594.5064,1127.3971 C600.0104,1114.2131 604.9564,1097.3301 617.2354,1087.6131 C621.2514,1079.7781 640.4314,1071.6251 635.2514,1063.8651 C639.7804,1062.6921 644.2084,1064.2431 647.3104,1059.9871 C675.1964,1031.3671 701.6614,1002.8471 733.3334,977.7011" id="Fill-106" fill="#0C87DE"/>
        <path d="M586.1727,1134.7153 C723.8627,1128.0023 737.3457,1126.1643 642.6637,1238.9403 C638.0267,1244.1383 624.4317,1239.1853 627.8697,1232.5463 C619.7857,1228.0233 612.5037,1224.2153 607.3087,1216.5403 C585.8887,1193.3423 572.8237,1169.1183 586.1727,1134.7153" id="Fill-108" fill="#0C87DE"/>
        <path d="M931.3111,910.7197 C898.8401,947.1347 873.5861,1000.3227 851.4231,1036.2717 C839.7881,1022.1457 826.6071,1009.7377 818.6381,993.1407 C830.2291,957.1777 849.3001,918.8007 846.2641,879.5927 C850.4861,891.4187 861.5161,876.3867 869.2901,875.7257 C877.3061,889.5097 935.2491,892.6037 906.1761,908.3367 C900.0411,918.7917 925.1731,903.2857 931.3111,910.7197" id="Fill-110" fill="#0C87DE"/>
        <path d="M772.5591,942.5019 C828.3221,1006.9369 790.0481,1021.9569 756.2891,1083.4359 C743.6681,1096.7859 737.7021,1125.1279 719.4751,1128.8609 C718.1431,1126.1899 710.9971,1134.8769 713.0281,1125.5019 C717.0751,1071.6139 734.6191,1014.7439 743.2721,965.5279 C749.6331,967.1379 750.2241,960.5529 753.6351,958.0109 C760.3711,951.4049 768.0621,953.3019 772.5591,942.5019" id="Fill-112" fill="#0C87DE"/>
        <path d="M414.5427,812.5761 C426.4287,851.1401 401.7407,835.0961 376.1037,841.7491 C387.4337,844.8481 412.3907,834.9041 416.4717,847.0311 C413.1297,859.1421 422.9727,884.1181 411.6127,889.6561 C399.4197,886.5001 375.3617,895.8781 369.1457,885.1861 C361.2607,846.6691 382.3807,829.1541 414.5427,812.5761" id="Fill-114" fill="#023FA6"/>
        <path d="M845.2349,886.5649 C826.2939,912.4479 833.0409,961.3339 810.0999,983.3059 C804.1679,964.0699 768.6119,944.2629 788.9149,924.4569 C804.3889,915.8139 816.0779,901.8809 833.0129,894.9979 C837.8629,892.4369 838.5119,881.2939 845.2349,886.5649" id="Fill-116" fill="#0C87DE"/>
        <path d="M514.3185,1210.9145 C512.3665,1217.9425 518.8205,1233.3315 510.5475,1235.5565 C498.0185,1232.5365 474.1735,1241.4545 467.2035,1231.4055 C470.2085,1218.3975 461.2115,1194.0245 471.2655,1186.5575 C496.0775,1189.5125 520.7015,1174.5185 514.3185,1210.9145" id="Fill-118" fill="#023FA6"/>
        <path d="M369.2484,915.5546 C362.6594,879.3396 388.0004,894.5586 412.4124,891.5266 C422.3104,899.2886 413.4044,923.2956 416.3844,936.3876 C409.4784,946.5026 385.6204,937.5056 373.1284,940.5396 C364.6384,938.4876 371.2724,922.6176 369.2484,915.5546" id="Fill-120" fill="#023FA6"/>
        <path d="M514.2834,915.6003 C512.8914,923.1243 517.9544,935.6883 510.6934,940.2893 C497.3594,938.3573 477.5414,945.2093 467.3884,937.1233 C470.0854,923.7983 461.0194,899.2413 471.5484,891.5053 C495.9024,894.7063 520.7504,879.4503 514.2834,915.6003" id="Fill-122" fill="#023FA6"/>
        <path d="M416.2955,1211.5283 C422.8175,1247.5993 397.6245,1232.4363 373.3295,1235.5133 C363.1335,1227.9283 372.2475,1203.7363 369.2025,1190.6663 C376.0385,1180.5763 399.9245,1189.5703 412.3745,1186.5423 C420.9395,1188.4723 414.2695,1204.4843 416.2955,1211.5283" id="Fill-124" fill="#023FA6"/>
        <path d="M320.326,891.6681 C371.318,891.0541 369.017,883.4871 367.269,936.4711 C360.574,946.4111 337.281,937.5351 325.102,940.5491 C314.783,931.5171 323.615,905.9231 320.326,891.6681" id="Fill-126" fill="#023FA6"/>
        <path d="M416.3485,1063.7905 C422.9005,1099.8455 397.5095,1084.4815 373.3225,1087.5955 C363.1755,1080.4445 372.2355,1056.5535 369.1945,1043.8565 C375.4735,1033.2405 399.9325,1042.6235 412.2445,1039.4615 C421.0335,1041.0985 414.3255,1056.8855 416.3485,1063.7905" id="Fill-128" fill="#023FA6"/>
        <path d="M271.258,1063.4374 C264.071,1029.2754 291.836,1041.2294 314.642,1039.6774 C323.533,1049.9194 316.105,1070.4844 318.23,1084.1564 C307.979,1092.3864 288.297,1085.4674 274.943,1087.4244 C267.483,1083.2764 272.698,1070.7364 271.258,1063.4374" id="Fill-130" fill="#023FA6"/>
        <path d="M467.256,1063.5795 C469.179,1056.7025 462.81,1041.5655 471.005,1039.4735 C484.313,1041.8995 504.039,1034.5745 514.147,1043.1215 C512.018,1056.6925 519.529,1077.4475 510.48,1087.4205 C486.034,1084.9485 460.671,1099.5985 467.256,1063.5795" id="Fill-132" fill="#023FA6"/>
        <path d="M419.0979,915.5693 C412.6619,879.9263 437.0919,894.0413 461.4309,891.7683 C470.4509,902.0643 462.6839,922.8523 465.2589,936.6583 C458.0959,946.1253 435.8099,937.6293 423.6429,940.5243 C414.1429,939.3693 421.3329,922.5133 419.0979,915.5693" id="Fill-134" fill="#023FA6"/>
        <path d="M465.1981,1211.1855 C471.5411,1247.1855 447.7911,1232.7135 423.1911,1235.4795 C413.1471,1227.8755 422.1341,1203.6745 419.1061,1190.6215 C425.8401,1180.6595 449.2091,1189.5395 461.4321,1186.5405 C469.7101,1188.7975 463.1601,1204.2205 465.1981,1211.1855" id="Fill-136" fill="#023FA6"/>
        <path d="M563.1902,1211.0693 C561.7582,1218.4523 566.8582,1230.8773 559.8022,1235.3523 C546.6722,1233.4743 527.5132,1240.0633 517.3262,1232.2963 C519.2662,1218.1393 512.5972,1198.0803 520.3222,1186.7713 C544.2962,1188.8263 569.7732,1175.5253 563.1902,1211.0693" id="Fill-138" fill="#023FA6"/>
        <path d="M467.2608,865.5717 C469.1988,858.9937 462.6788,843.4577 471.4728,842.3767 C487.7358,845.7967 521.0618,831.7047 514.3028,858.4407 C511.8668,867.1987 519.6568,886.5727 510.1158,889.6307 C485.7538,886.6237 460.7758,901.6807 467.2608,865.5717" id="Fill-140" fill="#023FA6"/>
        <path d="M467.256,1160.7936 C460.709,1125.2456 486.537,1140.6396 510.235,1137.4406 C520.253,1144.4936 511.339,1167.8246 514.342,1180.2836 C507.96,1190.8316 483.619,1181.4856 471.28,1184.6516 C462.639,1183.0156 469.243,1167.5846 467.256,1160.7936" id="Fill-142" fill="#023FA6"/>
        <path d="M318.2473,1013.2016 C324.7933,1048.9856 299.1493,1033.6706 275.1313,1036.8096 C265.3883,1029.3346 274.1523,1006.0336 271.1763,993.3476 C278.7313,983.8256 301.6013,992.4196 314.2013,989.5026 C322.8733,990.6836 316.7023,1006.8656 318.2473,1013.2016" id="Fill-144" fill="#023FA6"/>
        <path d="M369.258,1013.5707 C371.192,1006.7467 364.768,991.3867 373.1,989.5247 C386.368,991.9597 406.161,984.5857 416.163,993.2217 C413.692,1005.9347 422.13,1029.2557 412.466,1036.8077 C390.526,1034.5387 362.122,1047.1497 369.258,1013.5707" id="Fill-146" fill="#023FA6"/>
        <path d="M416.2981,1161.434 C423.4891,1194.923 394.6891,1182.665 372.7631,1184.403 C364.3821,1174.174 371.5761,1154.668 369.1891,1141.362 C376.6611,1131.689 399.8221,1140.375 412.4591,1137.43 C420.8081,1139.23 414.4361,1154.717 416.2981,1161.434" id="Fill-148" fill="#023FA6"/>
        <path d="M465.2054,1064.0781 C471.6204,1099.5431 446.8454,1084.6421 422.9454,1087.6501 C413.3994,1079.7091 422.0614,1056.5291 419.0964,1043.5741 C425.8474,1033.5811 448.7894,1042.5051 460.9314,1039.4541 C470.0484,1040.9871 463.1404,1057.0591 465.2054,1064.0781" id="Fill-150" fill="#023FA6"/>
        <path d="M367.2313,1063.8581 C373.6853,1099.3141 348.9483,1085.0711 324.8533,1087.4181 C316.1163,1077.1431 323.4023,1056.8131 321.3393,1043.2061 C330.8663,1034.4881 350.3853,1041.8941 363.2643,1039.4731 C371.8343,1041.1221 365.2293,1057.0021 367.2313,1063.8581" id="Fill-152" fill="#023FA6"/>
        <path d="M465.1953,866.454 C472.1653,899.552 444.9143,887.587 423.0823,889.626 C413.1173,882.65 421.5933,859.231 418.3713,846.823 C423.6703,834.846 449.2013,845.508 461.3773,842.348 C469.6893,844.411 463.2493,859.583 465.1953,866.454" id="Fill-154" fill="#023FA6"/>
        <path d="M419.1737,1012.9738 C412.8007,977.7678 437.3457,992.4418 461.0997,989.5568 C471.3017,996.2568 462.2277,1020.3678 465.2707,1032.8068 C458.3777,1042.6068 435.4737,1033.8618 423.2897,1036.8198 C414.5427,1035.2738 421.1577,1019.7568 419.1737,1012.9738" id="Fill-156" fill="#023FA6"/>
        <path d="M563.1765,1161.0522 C561.2815,1167.7812 567.5845,1182.7142 559.4035,1184.6392 C547.2135,1181.6592 523.7645,1190.5142 517.1225,1180.5462 C519.9455,1167.8972 511.4665,1145.1342 520.9035,1137.4572 C544.9185,1140.4632 569.4675,1125.6062 563.1765,1161.0522" id="Fill-158" fill="#023FA6"/>
        <path d="M321.1425,1012.7668 C314.0815,979.5778 341.8675,991.3258 363.7865,989.7388 C372.0585,999.9168 365.1025,1019.6458 367.0715,1032.9748 C357.5185,1041.8328 337.6215,1034.5078 324.6135,1036.5718 C317.4905,1032.2928 322.6905,1019.9008 321.1425,1012.7668" id="Fill-160" fill="#023FA6"/>
        <path d="M419.1571,1160.6664 C412.0901,1127.5144 439.8711,1139.2364 461.7621,1137.6504 C469.9981,1148.0584 463.0211,1167.8784 465.0351,1181.3864 C454.8081,1189.1204 435.7071,1182.5404 422.5711,1184.4214 C415.5231,1180.1254 420.5901,1167.8854 419.1571,1160.6664" id="Fill-162" fill="#023FA6"/>
        <path d="M367.2269,1161.2602 C365.2979,1167.9582 371.7509,1183.0302 363.2309,1184.6492 C350.9039,1181.7552 328.4669,1190.2342 321.1289,1180.8202 C324.1299,1168.2622 315.2319,1144.5292 325.1939,1137.4532 C349.3189,1140.3532 373.5979,1125.6682 367.2269,1161.2602" id="Fill-164" fill="#023FA6"/>
        <path d="M920.2237,860.6804 C930.0367,858.9044 939.6597,864.9274 948.7877,860.1254 C947.7967,867.0024 951.7447,863.7794 954.5307,862.9324 C960.4027,864.3684 977.1197,871.7114 966.5277,877.1384 C953.7137,883.6914 948.3187,899.8294 935.2807,901.5884 C914.7627,892.3154 894.0507,875.6074 871.2267,875.3994 C886.1017,865.2814 905.3817,867.3184 920.2237,860.6804" id="Fill-166" fill="#0C87DE"/>
        <path d="M513.3141,999.4631 C509.2811,1008.8871 520.5411,1042.2581 506.0531,1036.5641 C495.0641,1034.2651 472.1041,1042.7851 467.1811,1032.2951 C467.7971,988.4071 458.0581,987.1911 506.1941,989.6681 C505.0341,994.0881 510.9941,992.9551 507.9911,996.6301 C507.5481,999.7041 511.1961,999.3821 513.3141,999.4631" id="Fill-168" fill="#023FA6"/>
        <path d="M490.5029,1134.6259 C455.8359,1140.9689 469.7529,1116.6679 467.4129,1093.0989 C472.1869,1087.3909 509.3809,1087.3849 514.1249,1093.1039 C512.8749,1115.5189 523.6409,1141.4959 490.5029,1134.6259" id="Fill-170" fill="#023FA6"/>
        <path d="M392.4771,1134.7016 C359.6941,1141.5246 371.0641,1115.4346 369.1921,1093.5756 C376.7751,1084.0256 399.6641,1092.6136 412.2951,1089.7466 C422.2731,1095.9926 413.4261,1118.8866 416.4131,1130.6546 C414.6971,1139.3146 399.2411,1132.6466 392.4771,1134.7016" id="Fill-172" fill="#023FA6"/>
        <path d="M392.5549,987.5707 C357.6899,993.7727 372.0679,970.2387 369.1779,946.5957 C376.1849,936.5687 399.5549,945.4977 411.9949,942.5077 C422.5099,948.1437 413.2979,971.8427 416.3979,983.5117 C414.8199,992.1957 399.3349,985.5857 392.5549,987.5707" id="Fill-174" fill="#023FA6"/>
        <path d="M343.9115,1134.7138 C311.5015,1141.5378 323.1165,1114.9638 321.1325,1093.5788 C328.4055,1084.0448 350.9405,1092.5748 363.2605,1089.7118 C373.0755,1096.1548 364.3435,1118.8358 367.3075,1130.6578 C365.7725,1139.2798 350.5875,1132.7588 343.9115,1134.7138" id="Fill-176" fill="#023FA6"/>
        <path d="M442.1101,987.57 C435.5811,985.695 420.6061,991.978 419.1061,983.673 C421.2871,970.976 414.8401,952.596 422.1331,942.693 C435.3761,944.684 454.9041,937.889 465.0561,945.844 C463.5121,967.775 474.9951,994.478 442.1101,987.57" id="Fill-178" fill="#023FA6"/>
        <path d="M442.4403,1089.779 C476.7943,1083.548 462.3323,1107.705 465.2413,1130.78 C458.1573,1140.419 435.4713,1131.796 423.2293,1134.744 C413.2273,1128.378 422.0763,1105.724 419.0973,1093.919 C420.5233,1085.196 435.8403,1091.786 442.4403,1089.779" id="Fill-180" fill="#023FA6"/>
        <path d="M367.2257,965.2538 C374.0907,997.6728 346.8157,985.3918 325.6087,987.6428 C314.8207,982.1678 324.1577,958.4848 320.9767,946.8698 C327.2407,936.2708 350.9727,945.5918 363.0907,942.4798 C371.7707,943.6378 365.3077,958.7748 367.2257,965.2538" id="Fill-182" fill="#023FA6"/>
        <path d="M540.5798,1089.8442 C572.5368,1083.1402 561.4008,1109.0042 563.1138,1130.2772 C556.5608,1140.8082 533.2448,1131.6732 521.1148,1134.6592 C511.3128,1128.2162 519.9688,1105.5232 517.0528,1093.7062 C518.5838,1085.3672 534.1648,1091.4812 540.5798,1089.8442" id="Fill-184" fill="#023FA6"/>
        <path d="M517.1294,1063.4404 C519.0674,1056.7314 512.5964,1040.9344 521.0834,1039.4854 C535.7724,1037.2674 546.9364,1043.1094 557.9294,1051.2544 C569.0644,1054.7634 560.7854,1074.8914 562.9634,1084.5094 C552.4014,1091.9684 533.5794,1085.6144 520.3284,1087.4144 C513.6594,1082.7644 518.4244,1070.6774 517.1294,1063.4404" id="Fill-186" fill="#023FA6"/>
        <path d="M491.3022,942.6367 C517.3082,941.3677 514.4022,941.9387 510.3342,965.4627 C511.2552,968.3407 513.2942,971.2907 507.7582,968.5187 C507.6252,968.4517 506.2852,969.8557 506.3532,970.4817 C515.9852,996.6867 485.9722,985.3417 469.7882,987.4127 C463.5302,976.3667 468.9182,958.9117 467.4112,945.8277 C471.9342,939.1337 484.2012,943.8287 491.3022,942.6367" id="Fill-188" fill="#023FA6"/>
        <path d="M369.1711,844.1044 C355.8851,867.3164 325.7151,838.6104 304.4161,837.2734 C304.6541,837.5004 304.8921,837.7254 305.1301,837.9514 C295.9251,833.5384 225.5341,837.0464 256.9811,820.5424 C295.1191,820.6004 336.2821,824.2324 369.1711,844.1044" id="Fill-190" fill="#0D0D0D"/>
        <path d="M584.1854,1186.643 C590.5174,1198.409 633.9544,1236.11 600.0074,1235.538 C590.1284,1232.87 568.9624,1241.403 565.1584,1230.971 C568.3524,1212.277 554.2124,1179.542 584.1854,1186.643" id="Fill-192" fill="#023FA6"/>
        <path d="M588.4823,1087.5717 C581.9383,1085.7177 567.3983,1091.7557 565.3293,1083.9917 C566.6143,1075.1437 562.3933,1061.6827 567.0953,1055.0787 C581.0093,1061.2517 601.9703,1057.4297 612.2473,1069.5937 C616.3233,1091.2277 605.7603,1088.1327 588.4823,1087.5717" id="Fill-194" fill="#023FA6"/>
        <path d="M517.1043,865.9765 C519.0113,859.3055 512.6463,844.1075 520.9963,842.4485 C528.4733,845.0275 552.9493,836.7385 550.9163,847.8365 C542.7603,860.7085 538.0123,875.9205 531.8413,889.1825 C513.5323,894.2125 517.1213,878.8565 517.1043,865.9765" id="Fill-196" fill="#023FA6"/>
        <path d="M518.3589,803.8158 C551.4549,818.8218 579.3049,845.5478 520.9349,839.5248 C513.9459,833.9188 515.7829,808.5638 518.3589,803.8158" id="Fill-198" fill="#023FA6"/>
        <path d="M586.2413,1137.5156 C579.7473,1152.6276 578.8123,1168.2776 584.2053,1184.4806 C554.5793,1191.7186 568.0943,1159.9566 565.1883,1141.3336 C566.4513,1133.3686 580.2053,1139.2946 586.2413,1137.5156" id="Fill-200" fill="#023FA6"/>
        <path d="M635.2469,1063.863 C640.4399,1071.611 621.2559,1079.785 617.2409,1087.616 C610.4819,1068.549 614.9629,1063.211 635.2469,1063.863" id="Fill-202" fill="#023FA6"/>
        <path d="M525.0633,907.998 C521.1563,944.85 511.3393,897.891 520.6913,891.799 C523.1483,891.539 534.7063,890.586 530.4213,894.478 C527.2793,898.448 529.6203,904.063 525.0633,907.998" id="Fill-204" fill="#023FA6"/>
        <path d="M535.2469,1035.5395 C518.7929,1040.2155 513.7929,1035.3525 517.1959,1015.1595 C523.5569,1011.3665 522.3429,1026.9065 530.2229,1029.6235 C525.8659,1037.3695 532.4089,1032.9745 535.2469,1035.5395" id="Fill-206" fill="#023FA6"/>
        <path d="M614.6819,1224.8708 C617.8349,1227.1408 634.4539,1233.7208 624.7839,1235.5438 C614.2169,1235.4208 614.2169,1235.4218 614.6819,1224.8708" id="Fill-208" fill="#023FA6"/>
        <path d="M511.9911,996.4872 C511.2721,996.0762 511.0601,996.3922 510.7861,997.0222 C511.4841,997.3822 511.7831,997.2472 511.9911,996.4872 M513.3141,999.4632 C504.2931,1000.4652 511.6421,994.7402 506.4831,992.6802 C506.1671,985.5722 518.6001,990.1152 513.3141,999.4632" id="Fill-210" fill="#0C87DE"/>
        <path d="M530.2016,1029.6044 C525.7516,1027.7624 522.5606,1022.2074 524.4086,1019.5164 C530.0076,1020.7734 530.0696,1025.2094 530.2016,1029.6044" id="Fill-212" fill="#0C87DE"/>
        <path d="M534.3641,1034.4023 C525.7191,1037.4823 528.4671,1026.5583 535.2621,1031.5633 C534.9631,1032.5093 534.6631,1033.4563 534.3641,1034.4023" id="Fill-214" fill="#0C87DE"/>
        <path d="M535.2469,1035.5395 C534.9609,1035.1985 534.6759,1034.8565 534.3909,1034.5155 C534.6769,1034.8565 534.9619,1035.1985 535.2469,1035.5395" id="Fill-216" fill="#0C87DE"/>
        <path d="M535.2464,1031.5785 C535.3884,1031.6495 535.5294,1031.7215 535.6714,1031.7925 C535.5344,1031.7165 535.3984,1031.6405 535.2624,1031.5635 C535.2624,1031.5635 535.2464,1031.5785 535.2464,1031.5785" id="Fill-218" fill="#0C87DE"/>
        <path d="M532.7113,896.3066 L532.5963,895.9516 C532.9863,895.9466 532.8633,896.0566 532.7113,896.3066" id="Fill-220" fill="#023FA6"/>
        <path d="M489.6926,410.3763 C487.1746,404.6503 487.9496,397.3943 491.9506,392.8233 C494.4596,398.6463 490.8466,404.3233 489.6926,410.3763" id="Fill-222" fill="#023FA6"/>
        <path d="M731.0698,296.2464 C732.6508,292.0444 732.4778,292.3454 727.7368,290.4944 C731.2048,288.4734 732.0608,294.3804 735.4458,294.2524 C742.7218,293.0914 739.7288,301.5884 731.0698,296.2464" id="Fill-224" fill="#023FA6"/>
        <path d="M736.5252,300.9615 C740.8652,307.1465 740.4602,308.2525 734.3032,312.4085 C733.4992,310.1275 736.1752,304.3955 736.5252,300.9615" id="Fill-226" fill="#023FA6"/>
        <path d="M494.3683,489.7328 C493.5983,490.7998 493.1503,490.3978 492.5853,489.6108 C492.8503,488.4658 493.4913,488.9958 494.3683,489.7328" id="Fill-228" fill="#32BDF3"/>
        <path d="M1021.3682,964.9135 C1021.9462,962.5875 1023.6492,961.4065 1025.7822,962.7435 C1048.3742,978.5205 1071.0782,994.1255 1094.1412,1009.2095 C1075.7822,1036.7325 1053.1122,1064.1195 1035.8402,1093.3085 C1047.4342,1111.7685 1089.0582,1012.4375 1104.8502,1017.5335 C1163.9712,1053.8195 1142.4102,1039.5805 1116.6802,1097.1365 C1116.1102,1104.0985 1109.1452,1108.6665 1110.3652,1114.9205 C1100.9912,1118.2765 1100.4672,1128.3995 1095.2182,1134.9115 C1091.1802,1141.0745 1085.3922,1147.8595 1085.4522,1155.5675 C1079.5212,1156.8185 1080.2242,1164.7705 1078.0432,1165.6975 C1072.4472,1168.0755 1071.6102,1173.2095 1069.1942,1176.8855 C1063.1362,1191.3745 1049.3372,1181.1615 1037.6212,1180.7955 C1029.5232,1176.5445 1004.8302,1179.8015 1006.2662,1168.8485 C1017.0182,1149.7805 1024.5772,1128.8335 1036.4442,1110.4725 C1034.9802,1087.1525 1017.1322,1128.2365 1012.9742,1134.3595 C1003.8742,1144.3685 1005.0492,1167.1545 992.3982,1170.6445 C977.5082,1164.6945 954.6562,1170.5185 945.9242,1154.9365 C965.5872,1105.9985 1005.8372,1052.2335 1010.8422,997.7225 C1007.1282,996.1785 1009.6512,993.4575 1011.8692,992.8205 C1018.9162,991.9435 1022.2152,970.1465 1021.3682,964.9135" id="Fill-230" fill="#0C87DE"/>
        <path d="M938.0684,1145.8803 C927.1804,1119.0013 857.9294,1062.2673 863.6584,1039.7953 C882.0694,994.6403 907.9334,952.6253 939.3064,915.2923 C952.5394,909.9633 968.8434,931.0203 982.3674,935.6253 C991.1624,944.8223 1019.5064,949.8713 1013.8234,964.7553 C999.7854,1018.5413 976.4454,1087.6083 938.0684,1145.8803" id="Fill-232" fill="#0C87DE"/>
        <path d="M1277.839,1126.1127 C1253.897,1152.8627 1238.576,1228.1547 1195.47,1212.2127 C1171.531,1202.4917 1155.382,1216.8957 1160.652,1185.1007 C1173.901,1153.9837 1180.975,1114.3257 1202.683,1084.5287 C1227.859,1092.0617 1254.564,1111.6307 1277.839,1126.1127" id="Fill-234" fill="#0C87DE"/>
        <path d="M1195.4767,1076.3503 C1173.3397,1115.8043 1155.9467,1154.5813 1149.3877,1199.6773 C1152.2017,1206.4293 1063.7537,1189.1673 1074.5277,1184.4523 C1102.1337,1142.1653 1127.3397,1098.1783 1149.9637,1053.0623 C1162.9537,1047.2573 1181.0357,1072.4553 1195.4767,1076.3503" id="Fill-236" fill="#0C87DE"/>
        <path d="M810.2733,1138.7104 C727.2403,1124.6744 723.4623,1154.2394 771.2403,1074.1544 C816.8993,1022.1634 794.9173,971.7494 842.6983,1044.8364 C854.6333,1052.1414 839.2723,1070.2114 837.8483,1081.4914 C828.2693,1096.5854 831.0683,1146.0724 810.2733,1138.7104" id="Fill-238" fill="#0C87DE"/>
        <path d="M975.2269,868.4594 C956.4469,868.7854 973.6389,852.8524 977.4579,843.2114 C992.8349,824.6174 1007.5889,827.4084 994.9099,799.4034 C993.1679,789.0094 974.7719,743.8444 997.5999,756.6004 C994.7119,759.4984 998.5689,760.4574 999.4019,762.0344 C1011.3579,776.6604 1002.9619,806.8074 1020.7559,810.8274 C1068.7949,794.8764 1052.5559,739.6274 1070.9289,703.8104 C1068.1869,694.8424 1095.5249,651.9544 1099.9149,664.7454 C1082.5699,697.5704 1073.7359,732.6084 1070.1449,769.4284 C1069.8009,771.7534 1069.0179,774.4414 1073.3739,772.6914 C1087.5499,767.2204 1101.5229,754.0074 1117.9289,759.3054 C1105.8619,775.3834 1078.4079,777.9194 1064.1389,791.5084 C1050.1309,815.2484 1020.3009,821.7734 1000.2669,838.6224 L1000.2989,838.5644 C999.9589,838.9194 999.6189,839.2744 999.2799,839.6304 L999.3209,839.6114 C986.5919,844.9694 980.7509,856.1864 975.2269,868.4594" id="Fill-240" fill="#0D0D0D"/>
        <path d="M873.7474,1148.0839 C862.5924,1143.7579 839.1654,1147.6489 832.0904,1137.8819 C840.7844,1116.5139 842.8584,1074.0139 858.2374,1063.5709 C879.2484,1096.1839 907.8674,1123.3579 929.2074,1155.5199 C910.9294,1157.6369 892.5664,1147.7489 873.7474,1148.0839" id="Fill-242" fill="#0C87DE"/>
        <path d="M1017.0887,827.6481 C1041.3877,817.9901 1055.7517,797.7971 1076.0167,784.0001 C1089.8107,845.6191 1081.5167,797.6041 1051.1977,822.6061 C1036.1647,842.8531 1056.0697,855.0541 1047.1737,859.0921 C1015.8647,880.1811 1023.4747,902.3741 982.9877,876.4351 C997.2007,866.1081 1019.9897,849.2051 1017.0887,827.6481" id="Fill-244" fill="#32BDF3"/>
        <path d="M982.9874,876.4413 C995.4974,882.5023 1007.9794,888.1543 1020.0004,893.1073 C1022.1154,909.9553 1023.6594,932.7703 1015.0434,946.6033 C1003.2504,940.0763 992.8354,932.5813 981.2994,925.6583 C935.6924,902.2333 947.6154,903.4573 982.9874,876.4413" id="Fill-246" fill="#0C87DE"/>
        <path d="M1152.522,1294.9111 C1158.086,1212.6981 1136.236,1209.0971 1211.215,1223.5811 C1220.472,1224.8451 1152.509,1306.4651 1152.522,1294.9111" id="Fill-248" fill="#0C87DE"/>
        <path d="M1000.4922,1183.7446 C1076.1412,1195.1716 1057.3992,1195.7186 1019.7872,1248.6956 C1001.1512,1232.5636 981.0422,1208.6166 1000.4922,1183.7446" id="Fill-250" fill="#0C87DE"/>
        <path d="M687.8631,1018.1318 C685.9881,1007.1568 681.7111,996.8078 678.8081,986.0908 C674.3521,951.7988 719.3941,947.6268 733.4631,976.5598 C717.6991,988.1108 703.7301,1006.8738 687.8631,1018.1318" id="Fill-252" fill="#32BDF3"/>
        <path d="M1040.2379,904.5698 C1002.0369,890.5128 1077.6629,856.7508 1094.4339,851.7138 C1106.1419,892.0858 1069.3169,888.2208 1040.2379,904.5698" id="Fill-254" fill="#32BDF3"/>
        <path d="M982.0091,1204.7343 C967.4751,1184.7103 948.5851,1167.2513 986.4461,1179.7003 C996.1541,1181.8293 984.0871,1197.9973 982.0091,1204.7343" id="Fill-256" fill="#0C87DE"/>
        <path d="M931.3111,910.7197 C921.8251,904.3637 912.7471,914.2797 903.5701,911.4067 C907.2781,905.8907 915.2011,905.6057 916.4111,897.8837 C919.7671,901.5857 939.0291,905.3887 931.3111,910.7197" id="Fill-258" fill="#32BDF3"/>
        <path d="M721.2067,1140.6293 C711.9497,1149.1903 708.5057,1153.9303 711.5017,1137.9413 C713.6207,1133.9143 718.7967,1139.5843 721.2067,1140.6293" id="Fill-260" fill="#0C87DE"/>
        <path d="M944.1439,1147.3085 C942.8009,1146.0685 942.2569,1145.2575 943.9769,1144.8095 C945.1749,1145.3805 945.4799,1146.2085 944.1439,1147.3085" id="Fill-262" fill="#0C87DE"/>
        <path d="M951.6624,1128.882 C950.8534,1129.752 950.3594,1129.361 949.4934,1128.995 C950.1774,1128.285 950.7674,1128.658 951.6624,1128.882" id="Fill-264" fill="#0C87DE"/>
        <path d="M1026.6246,934.2248 C1026.0916,934.6918 1025.9086,933.4598 1026.5376,933.8858 C1026.6106,933.9368 1026.5986,934.1078 1026.6246,934.2248" id="Fill-266" fill="#0C87DE"/>
        <path d="M644.4034,1244.7465 C644.1624,1245.3635 643.9214,1245.9805 643.6844,1246.5965 C643.9274,1245.9785 644.1654,1245.3625 644.4034,1244.7465" id="Fill-268" fill="#0C87DE"/>
        <path d="M721.3027,1140.5334 C721.4247,1140.6904 721.5467,1140.8474 721.6677,1141.0054 C721.5547,1140.8484 721.0937,1140.7024 721.3027,1140.5334" id="Fill-270" fill="#0C87DE"/>
        <path d="M935.2369,901.5463 C935.1789,901.6783 935.1209,901.8113 935.0629,901.9433 C935.1049,901.8143 935.3249,901.6583 935.2369,901.5463" id="Fill-272" fill="#0C87DE"/>
        <path d="M939.0069,859.6147 C938.8839,859.2447 938.6599,859.1547 938.5259,859.5627 C938.5819,859.9767 938.8139,859.9567 939.0069,859.6147 M1025.9369,699.6167 C1041.8829,723.1877 1065.7699,750.6507 1053.4499,781.8467 C1048.1059,797.8377 1009.8969,828.8377 1009.2589,793.5717 C1006.3019,758.6387 975.7329,728.7987 991.1599,785.8887 C950.1589,774.1067 944.1629,810.7107 943.1139,841.6637 C945.7159,855.9437 953.7729,866.9847 931.1779,860.5127 C883.6919,691.8717 989.9789,783.6947 1025.9369,699.6167" id="Fill-274" fill="#32BDF3"/>
        <path d="M1102.0347,891.8237 C1102.7187,899.0207 1099.8567,907.0337 1105.9647,910.7117 C1046.0287,929.9157 1037.2007,905.1387 1102.0347,891.8237" id="Fill-276" fill="#32BDF3"/>
        <path d="M1061.4171,851.0424 C1029.9221,825.1214 1095.4621,816.6954 1070.9221,848.0154 C1067.7301,848.8734 1064.5901,850.0664 1061.4171,851.0424" id="Fill-278" fill="#32BDF3"/>
        <path d="M1068.2784,920.693 C1073.2034,919.91 1077.1604,918.341 1078.2164,924.487 C1075.8344,927.328 1070.4144,925.259 1068.2784,920.693" id="Fill-280" fill="#023FA6"/>
        <path d="M1020.0005,893.1069 C1020.0965,893.2799 1020.4865,893.1079 1020.6975,893.1449 C1020.4365,893.3499 1020.2385,893.3359 1020.0005,893.1069" id="Fill-282" fill="#023FA6"/>
        <path d="M919.1275,812.029 C919.0335,812.262 918.9075,812.338 918.6615,812.263 C918.7565,811.924 918.8535,811.591 919.1275,812.029" id="Fill-284" fill="#32BDF3"/>
        <path d="M865.6998,1299.0402 C865.2578,1299.4882 864.9548,1299.7112 864.6218,1298.9872 C864.8178,1298.4622 865.3258,1298.8922 865.6998,1299.0402" id="Fill-286" fill="#32BDF3"/>
        <path d="M1234.2472,1041.5617 C1234.3192,1041.4317 1234.3912,1041.3017 1234.4622,1041.1727 C1234.3842,1041.2867 1234.3492,1041.4967 1234.2472,1041.5617" id="Fill-288" fill="#023FA6"/>
        <path d="M1172.2335,990.5219 C1172.3325,990.4279 1172.4315,990.3339 1172.5305,990.2389 C1172.4325,990.3199 1172.3375,990.6469 1172.2335,990.5219" id="Fill-290" fill="#023FA6"/>
        <path d="M1102.0347,891.8237 C934.4087,944.0927 1184.5067,836.8457 1230.7977,855.7107 C1256.3517,869.3297 1116.9987,878.6807 1102.0347,891.8237" id="Fill-292" fill="#0D0D0D"/>
        <path d="M1041.4131,908.6039 C1041.6361,908.6559 1041.7371,908.7959 1041.7121,909.0179 C1041.6511,908.8609 1041.5531,908.7259 1041.4131,908.6039" id="Fill-294" fill="#32BDF3"/>
        <path d="M530.1585,1274.6633 C530.0155,1274.4973 529.8725,1274.3313 529.7295,1274.1663 C529.8575,1274.3303 530.3515,1274.4713 530.1585,1274.6633" id="Fill-296" fill="#32BDF3"/>
        <path d="M996.282,1281.5512 C996.14,1281.4922 995.999,1281.4332 995.857,1281.3742 C995.995,1281.4162 996.162,1281.6372 996.282,1281.5512" id="Fill-298" fill="#023FA6"/>
        <path d="M592.6654,763.7433 C601.5674,753.6633 599.7134,714.2033 620.7334,729.8323 C658.7214,746.3743 588.6204,795.9363 592.6654,763.7433" id="Fill-300" fill="#32BDF3"/>
        <path d="M779.2411,648.1166 C767.0101,646.2586 762.8781,632.2326 759.5701,622.2276 C770.8131,618.5166 797.1231,642.9196 779.2411,648.1166" id="Fill-302" fill="#0D0D0D"/>
        <path d="M669.2581,649.7084 C649.3241,644.8864 691.2261,604.4024 689.1911,625.0844 C683.0921,634.0024 678.8641,643.7914 669.2581,649.7084" id="Fill-304" fill="#0D0D0D"/>
        <path d="M729.3196,638.7826 C732.5086,647.5856 724.1256,668.2196 716.6026,653.3966 C712.2326,639.2936 726.1476,609.2546 729.3196,638.7826" id="Fill-306" fill="#0D0D0D"/>
        <path d="M792.1779,684.6244 C806.3199,678.8064 793.0109,702.3324 787.0429,703.4554 C781.0879,705.3634 780.7729,700.0494 779.4899,697.1664 C774.4279,689.4994 787.5319,688.1534 792.2829,684.5544 L792.1779,684.6244 Z" id="Fill-308" fill="#32BDF3"/>
        <path d="M792.2833,684.5544 C791.3083,683.7404 792.3953,683.6164 792.1783,684.6244 C792.1783,684.6244 792.2833,684.5544 792.2833,684.5544" id="Fill-310" fill="#32BDF3"/>
        <path d="M414.5427,812.5761 C387.3577,843.9681 355.6877,722.9371 341.8527,707.4931 C341.9377,694.5851 310.0937,623.7911 328.7237,627.8701 C356.7647,689.3801 376.8877,755.3741 414.5427,812.5761" id="Fill-312" fill="#0D0D0D"/>
        <path d="M410.3088,647.5031 C409.9318,647.5311 409.7618,647.7391 409.8088,648.1131 C409.9758,647.9101 410.1418,647.7061 410.3088,647.5031" id="Fill-314" fill="#0D0D0D"/>
        <path d="M341.8901,707.3163 C341.9511,707.3943 342.0121,707.4723 342.0731,707.5493 C341.9141,707.5043 341.8091,707.4963 341.8901,707.3163" id="Fill-316" fill="#0D0D0D"/>
        <path d="M345.453,715.0336 L345.569,714.8586 C345.683,714.9956 345.573,715.0096 345.453,715.0336" id="Fill-318" fill="#0D0D0D"/>
        <path d="M632.6749,874.0073 C628.5809,855.1253 643.7909,841.3393 662.3029,843.2203 C705.8369,863.8133 668.5689,947.5963 632.6749,874.0073" id="Fill-320" fill="#32BDF3"/>
        <path d="M727.4418,787.3173 C709.6578,784.4103 705.9668,753.8433 718.5168,743.2453 C756.7308,725.6233 763.4918,782.4613 727.4418,787.3173" id="Fill-322" fill="#32BDF3"/>
        <path d="M882.9002,768.068 C894.2182,778.264 892.9922,796.652 882.0062,806.139 C850.2082,818.518 842.7022,745.692 882.9002,768.068" id="Fill-324" fill="#32BDF3"/>
        <path d="M881.8765,767.1825 C883.0615,766.3765 882.9795,766.9125 882.8945,768.0675 C882.5595,767.7725 882.2175,767.4775 881.8765,767.1825" id="Fill-326" fill="#32BDF3"/>
        <path d="M948.7879,860.124 C950.6009,861.265 954.3559,858.447 954.5289,862.935 C951.7449,863.78 947.7959,867.002 948.7879,860.124" id="Fill-328" fill="#32BDF3"/>
        <path d="M960.7198,864.8798 C961.4908,865.3278 962.2628,865.7768 963.0328,866.2208 C962.2608,865.7708 961.4898,865.3248 960.7198,864.8798" id="Fill-330" fill="#023FA6"/>
        <path d="M838.4439,851.5839 C842.4689,857.1009 851.0529,861.5099 841.9429,864.6809 C838.0559,864.1069 833.2719,855.6829 838.4439,851.5839" id="Fill-332" fill="#32BDF3"/>
        <path d="M511.9911,996.4872 C511.7831,997.2472 511.4841,997.3832 510.7861,997.0222 C511.0611,996.3922 511.2721,996.0762 511.9911,996.4872" id="Fill-334" fill="#023FA6"/>
        <path d="M729.9716,377.6522 C722.1206,383.1852 715.5416,383.5022 727.0226,386.3452 C721.1686,390.8972 725.4856,393.5632 716.7656,391.4732 C708.9976,393.7022 712.2906,387.9682 708.1606,385.5082 C715.9406,372.8522 712.3846,363.6482 729.9716,377.6522" id="Fill-336" fill="#0D0D0D"/>
        <path d="M644.2176,530.4588 C641.0816,550.4328 615.4236,516.1838 634.1546,521.0858 C636.2666,522.0408 638.0916,522.0558 637.6666,519.2758 C636.8006,514.3998 646.5976,512.7078 647.0026,516.0448 C637.6286,522.6068 637.5776,517.2128 644.2176,530.4588" id="Fill-338" fill="#0D0D0D"/>
        <path d="M713.3466,409.1045 C712.2196,410.3485 712.7786,411.1445 713.9926,411.3645 C715.5356,410.5305 715.0216,409.8855 713.3466,409.1045 M713.9016,399.7915 C712.6236,402.9065 710.1366,404.0795 713.5786,405.6635 C715.2176,403.2845 716.1246,402.8845 713.9016,399.7915 M735.6406,400.2925 C735.7226,401.7715 735.8046,403.2495 735.8866,404.7275 C732.5396,401.4815 733.8306,406.6315 732.2766,406.6655 C720.2686,398.6585 714.9126,414.3275 710.0196,418.6425 C703.3726,415.7035 712.7466,392.1015 720.6456,401.3525 C726.7336,409.1895 729.9076,389.8195 735.6406,400.2925" id="Fill-340" fill="#023FA6"/>
        <path d="M694.9556,476.6291 C696.8566,474.5771 698.6856,473.7851 701.3696,474.9731 C698.7816,476.4261 695.4756,479.9621 699.5716,481.3431 C705.8156,480.2491 700.7756,483.1431 700.3066,483.6761 C696.2896,486.3661 706.9626,485.4661 702.8786,491.7991 C698.4076,499.1651 696.8716,485.9931 687.7206,495.2101 C691.8196,488.6891 681.8656,484.6671 691.0556,481.5471 C695.1526,478.7981 688.4196,477.9671 694.9556,476.6291" id="Fill-342" fill="#023FA6"/>
        <path d="M731.3162,440.5173 C712.7132,440.4143 736.8492,435.3563 727.7572,430.2123 C726.6212,428.9263 724.1772,428.0593 728.3452,427.2423 C730.2932,426.2773 733.3622,422.1023 736.4082,425.0713 C734.6572,424.9663 733.0532,425.0303 732.0282,426.6413 C738.3562,426.4933 727.3582,432.9083 734.3512,432.8143 C742.9652,440.7803 726.0742,433.8673 731.3162,440.5173" id="Fill-344" fill="#0D0D0D"/>
        <path d="M735.8011,404.6536 C737.3041,405.5046 738.8181,406.3296 740.1301,407.4786 C735.3461,406.4546 736.5181,411.5716 739.6311,412.4046 C743.6601,413.0526 746.5981,411.4626 745.7111,415.6936 C743.8581,420.1586 742.1341,413.6326 740.0991,416.2556 C743.2821,417.9166 741.6741,426.8846 737.5301,420.9716 C739.9131,418.1586 735.6621,417.7616 736.0661,415.1776 C736.2311,414.8676 734.8961,413.4436 734.0191,412.9806 C728.7071,411.0836 736.4961,411.2166 732.2761,406.6656 C733.4511,405.9946 734.6261,405.3246 735.8011,404.6536" id="Fill-346" fill="#0D0D0D"/>
        <path d="M694.9556,476.6291 C686.0736,480.6001 694.1576,473.4161 689.8326,469.7381 C687.8326,460.9151 698.9606,465.2101 702.7606,469.3131 C702.9216,470.4901 703.2196,474.1331 700.3016,470.6511 C699.3556,473.3921 692.3726,470.7321 694.9556,476.6291" id="Fill-348" fill="#32BDF3"/>
        <path d="M681.7951,443.1917 C681.2281,430.6067 690.5931,440.8637 691.6981,429.6067 C697.6551,433.3717 688.8411,441.5747 688.2301,447.1477 C686.3381,452.8037 683.0241,444.8237 681.7951,443.1917" id="Fill-350" fill="#0D0D0D"/>
        <path d="M707.0311,395.2276 C695.3921,404.6966 686.9131,412.3236 697.1271,391.7126 C700.3191,386.6266 701.3781,394.8926 707.0311,395.2276" id="Fill-352" fill="#0D0D0D"/>
        <path d="M691.8356,355.3553 C685.6426,349.1973 691.1966,342.6093 698.2996,345.6033 C695.6506,348.2913 700.5056,355.0693 691.8356,355.3553" id="Fill-354" fill="#0D0D0D"/>
        <path d="M731.3162,440.5173 C735.7922,439.2653 736.8902,443.9093 739.6342,445.6833 C735.5602,450.3563 729.9772,446.8353 731.3162,440.5173" id="Fill-356" fill="#023FA6"/>
        <path d="M745.278,326.5807 C742.874,321.5707 743.929,320.2037 749.422,320.5817 C743.571,323.0637 753.281,329.0487 748.297,327.8097 C747.334,327.0407 746.524,325.5037 745.278,326.5807" id="Fill-358" fill="#32BDF3"/>
        <path d="M745.2303,326.5346 C745.2483,329.0626 743.7693,330.6676 742.0613,332.3126 C739.3903,329.9516 743.4023,327.5056 745.2303,326.5346" id="Fill-360" fill="#32BDF3"/>
        <path d="M721.1401,368.4351 C722.0891,369.3031 722.0711,369.6851 721.3571,370.5811 C720.2941,369.8291 719.9321,369.6191 721.1401,368.4351" id="Fill-362" fill="#0D0D0D"/>
        <path d="M656.102,439.4944 C655.919,440.3934 656.547,441.7484 655.116,441.4534 C655.344,440.8274 656.326,439.9724 656.102,439.4944" id="Fill-364" fill="#0D0D0D"/>
        <path d="M692.0363,414.8699 C691.7473,414.6389 691.0853,414.6169 691.2353,414.1499 C691.5033,414.3899 691.7673,414.6329 692.0363,414.8699" id="Fill-366" fill="#0D0D0D"/>
        <path d="M614.9831,524.9283 C614.7881,525.2673 614.4781,525.3083 614.3511,524.9403 C614.4661,524.5593 614.7641,524.5963 614.9831,524.9283" id="Fill-368" fill="#0D0D0D"/>
        <path d="M630.2424,405.6271 C628.2404,404.6121 628.8944,404.4271 630.7124,403.8901 C630.6174,404.3821 630.0474,405.6331 630.2424,405.6271" id="Fill-370" fill="#0D0D0D"/>
        <path d="M630.3115,380.6276 C629.9435,380.2586 629.5755,379.8896 629.2065,379.5206 C629.5755,379.8896 629.9435,380.2586 630.3115,380.6276" id="Fill-372" fill="#0D0D0D"/>
        <path d="M967.7464,858.5761 C950.8114,848.5061 959.0944,825.2091 959.8014,809.2581 C961.1064,791.6781 983.0384,800.4631 994.9144,799.4031 C1009.6214,836.0871 985.1424,822.1981 967.7464,858.5761" id="Fill-374" fill="#32BDF3"/>
        <path d="M999.3214,839.611 C996.9154,848.51 990.8354,855.543 982.1144,857.485 C980.4424,849.003 993.4114,843.981 999.3214,839.611" id="Fill-376" fill="#32BDF3"/>
        <path d="M1001.6783,837.4194 C1001.2083,837.8204 1000.7373,838.2214 1000.2663,838.6224 C1000.7373,838.2214 1001.2083,837.8204 1001.6783,837.4194" id="Fill-378" fill="#32BDF3"/>
        <path d="M1000.2984,838.5644 C999.9584,838.9194 999.6194,839.2744 999.2794,839.6304 C999.6194,839.2744 999.9584,838.9194 1000.2984,838.5644" id="Fill-380" fill="#32BDF3"/>
        <path d="M1009.2901,793.5983 C1009.0591,793.9993 1009.0081,794.7533 1008.5021,794.2703 C1008.7841,794.0633 1009.0011,793.6943 1009.2901,793.5983" id="Fill-382" fill="#32BDF3"/>
        <path d="M939.0069,859.6147 C938.8149,859.9567 938.5809,859.9767 938.5259,859.5617 C938.6599,859.1557 938.8839,859.2447 939.0069,859.6147" id="Fill-384" fill="#0C87DE"/>
    </g>
</svg>
