<svg id="Layer_1" enable-background="new 0 0 512.002 512.002" height="512" viewBox="0 0 512.002 512.002" width="512" xmlns="http://www.w3.org/2000/svg"><g><g><path d="m482.002 186.001h-82.198v-87.398c0-35.101-28.557-63.658-63.658-63.658h-17.543c-9.839 0-18.788 3.878-25.401 10.186-8.314-11.575-21.892-19.129-37.199-19.129h-49.017c-52.267 0-94.788 42.521-94.788 94.788v65.212h-82.198c-16.542 0-30 13.458-30 30v240c0 16.542 13.458 30 30 30h452.002c16.542 0 30-13.458 30-30v-240c0-16.543-13.458-30.001-30-30.001zm-136.573 241.774c-5.522 0-10 4.477-10 10v28.226h-158.856v-28.226c0-5.523-4.477-10-10-10s-10 4.477-10 10v28.226h-33.408c2.747-45.16 28.021-84.921 66.069-106.917-4.982 31.23-.468 58.248 13.068 75.889 11.883 15.487 30.431 23.672 53.637 23.672 23.197 0 41.739-8.179 53.623-23.653 13.556-17.651 18.073-44.71 13.071-75.984 38.122 21.982 63.455 61.787 66.206 106.993h-33.408v-28.226c-.002-5.523-4.479-10-10.002-10zm-210.157-229.742 4.812-.001c11.854 0 22.004-7.434 26.033-17.886h71.999c22.515 0 42.337-11.75 53.659-29.438 11.32 17.689 31.143 29.438 53.657 29.438h.453c4.028 10.451 14.179 17.884 26.032 17.884l4.814.003c6.814 0 12.358 5.544 12.358 12.358s-5.544 12.358-12.358 12.358h-4.814c-5.225 0-9.569 4.022-9.971 9.232-4.09 53.109-47.349 95.218-100.624 97.95-56.963 2.935-106.884-41.018-111.268-97.95-.401-5.21-4.746-9.232-9.971-9.232h-4.815c-6.814 0-12.357-5.544-12.357-12.358s5.545-12.358 12.361-12.358zm244.532-19.85c-1.012-.096-2.036-.15-3.072-.15l-4.793-.003c-.007 0-.015 0-.021 0-4.349 0-7.886-3.537-7.887-7.885-.001-5.522-4.478-9.999-10-9.999h-8.599c-24.072 0-43.657-19.585-43.657-43.658v-1.287c11.393 10.695 26.712 17.257 43.534 17.257h34.495zm-157.513 167.305c6.614 1.845 13.387 3.137 20.26 3.87l-16.156 13.746-9.368-16.116c1.738-.533 3.492-1.034 5.264-1.5zm39.128 34.061c-2.989 2.989-7.85 2.988-10.836 0l-5.817-5.817 11.235-9.559 11.235 9.559zm-53.557-8.529 7.254 12.479c1.489 2.562 4.037 4.331 6.957 4.831 2.591.444 5.233-.156 7.371-1.634l3.54 3.54-5.143 41.367c-3.732-2.354-6.969-5.282-9.673-8.805-8.875-11.568-12.397-30.033-10.306-51.778zm43.883 30.429c1.41.218 2.832.332 4.256.332 1.467 0 2.934-.122 4.386-.354l4.91 36.618c-2.959.397-6.077.601-9.358.601-3.059 0-5.973-.179-8.752-.524zm32.823 29.825-5.508-41.081 3.498-3.498c2.138 1.479 4.78 2.078 7.372 1.635 2.92-.5 5.468-2.27 6.957-4.831l7.205-12.395c2.164 21.784-1.367 39.953-10.393 51.706-2.574 3.352-5.625 6.171-9.131 8.464zm1.04-68.17-16.183-13.769c6.918-.745 13.676-2.043 20.222-3.863 1.794.471 3.57.977 5.329 1.516zm90.03 15.855c-15.573-19.498-35.727-34.919-58.292-44.894 33.455-18.697 57.634-52.145 63.528-91.58 15.894-2.039 28.216-15.655 28.216-32.094 0-1.49-.11-2.953-.306-4.39h43.216v260h-43.144c-1.729-31.551-13.364-62.185-33.218-87.042zm-57.035-324.015h17.543c24.073 0 43.658 19.585 43.658 43.658v13.855h-34.495c-23.022 0-41.926-17.916-43.534-40.535v-.149c0-9.279 7.549-16.829 16.828-16.829zm-111.617-8.943h49.017c13.325 0 24.32 10.164 25.64 23.146-.189 23.913-19.693 43.31-43.649 43.31h-25.795c-5.523 0-10 4.477-10 10s4.477 10 10 10h25.795c16.945 0 32.364-6.657 43.782-17.491v1.521c0 24.073-19.585 43.658-43.659 43.658h-80.146c-5.523 0-10 4.477-10 10 0 4.348-3.538 7.886-7.889 7.886l-4.812.001c-1.036 0-2.06.054-3.072.15v-57.394c0-41.237 33.55-74.787 74.788-74.787zm-176.986 420c-5.514 0-10-4.486-10-10v-240c0-5.514 4.486-10 10-10h10.001v70c0 5.523 4.477 10 10 10v100c-5.523 0-10 4.477-10 10v70zm30.001-197.315v-62.684h43.216c-.196 1.437-.306 2.901-.306 4.39 0 16.438 12.321 30.053 28.213 32.094 4.381 29.407 18.972 56.161 41.678 76.091 6.814 5.981 14.144 11.152 21.864 15.484-22.555 9.969-42.701 25.378-58.274 44.864-19.865 24.856-31.509 55.49-33.245 87.077h-43.146v-62.684c5.974-3.463 10-9.928 10-17.316v-100c0-7.389-4.025-13.854-10-17.316zm432.001 187.315c0 5.514-4.486 10-10 10h-10.002v-260h10.002c5.514 0 10 4.486 10 10z"/><path d="m291.775 224.862c5.522 0 10-4.477 10-10v-.006c0-5.523-4.478-9.997-10-9.997s-10 4.48-10 10.003 4.477 10 10 10z"/><path d="m220.228 224.862c5.523 0 10-4.477 10-10v-.006c0-5.523-4.477-9.997-10-9.997s-10 4.48-10 10.003 4.477 10 10 10z"/><path d="m191.448 276.962c12.09 10.214 23.157 16.027 33.833 17.77 11.022 1.797 21.324-.703 30.72-7.444 7.427 5.329 15.418 8.009 23.888 8.009 2.244 0 4.522-.188 6.832-.565 10.676-1.743 21.743-7.555 33.833-17.77 2.729-2.305 4.021-5.891 3.39-9.407-.632-3.516-3.091-6.428-6.452-7.639-7.141-2.574-11.864-8.72-16.865-15.227-8.09-10.527-20.072-26.117-44.625-15.391-24.553-10.725-36.535 4.865-44.625 15.392-5.001 6.507-9.725 12.653-16.865 15.227-3.36 1.211-5.82 4.124-6.451 7.639-.634 3.515.658 7.101 3.387 9.406zm35.785-20.086c8.607-11.199 11.205-14.58 24.013-7.656 2.967 1.604 6.544 1.603 9.51 0 12.81-6.925 15.406-3.542 24.012 7.656 3.209 4.175 6.843 8.903 11.51 13.084-16.427 9.784-25.706 4.64-33.206-2.86-1.875-1.875-4.419-2.929-7.071-2.929s-5.196 1.054-7.071 2.929c-7.5 7.5-16.777 12.645-33.206 2.86 4.667-4.182 8.301-8.909 11.509-13.084z"/><path d="m167.201 132.458c5.523 0 10-4.477 10-10s-4.477-10-10-10h-.007c-5.523 0-9.996 4.477-9.996 10s4.48 10 10.003 10z"/></g></g></svg>