<?xml version="1.0" encoding="UTF-8"?>
<svg xmlns="http://www.w3.org/2000/svg" id="Layer_3" data-name="Layer 3" viewBox="0 0 64 64" width="512" height="512"><path d="M62,41H61V35.2a7.021,7.021,0,0,0-4.608-6.578L50,26.3V25.05A9.039,9.039,0,0,0,54.05,21H55a2.991,2.991,0,0,0,2.044-5.183l.435-2.611A10.481,10.481,0,0,0,47.139,1H44.861a10.481,10.481,0,0,0-10.34,12.206l.435,2.611A2.991,2.991,0,0,0,37,21h.95A9.039,9.039,0,0,0,42,25.05V26.3l-6.392,2.324A7.021,7.021,0,0,0,31,35.2V41H26v2H61v4H31.959a5.992,5.992,0,0,0-2.73-2.186L23,42.323v-.477a4.02,4.02,0,0,0,2.673-2.409h0L25.841,39H27a2.995,2.995,0,0,0,1.069-5.794l.527-1.37A9.444,9.444,0,0,0,19.781,19H16.219A9.444,9.444,0,0,0,7.4,31.836l.527,1.37A2.995,2.995,0,0,0,9,39h1.159l.168.437A4.02,4.02,0,0,0,13,41.846v.477L6.772,44.814A6,6,0,0,0,4.041,47H3V43h7V41H2a1,1,0,0,0-1,1v6a1,1,0,0,0,1,1H3.176A6.053,6.053,0,0,0,3,50.385V62a1,1,0,0,0,1,1H32a1,1,0,0,0,1-1V50.385A6.053,6.053,0,0,0,32.824,49H59V63h2V49h1a1,1,0,0,0,1-1V42A1,1,0,0,0,62,41ZM15,42h6v.586l-.293.293a3.923,3.923,0,0,1-5.414,0L15,42.586Zm13-6a1,1,0,0,1-1,1h-.39l.742-1.929A1,1,0,0,1,28,36ZM9,37a1,1,0,0,1-.352-1.929L9.39,37Zm3.194,1.718L10,33.014V33H9.995l-.724-1.883A7.445,7.445,0,0,1,16.219,21h3.562a7.445,7.445,0,0,1,6.948,10.117L26.005,33h0v.013l-2.193,5.705A2.016,2.016,0,0,1,21.939,40H14.061A2.013,2.013,0,0,1,12.194,38.718ZM31,61H27V54H25v7H11V54H9v7H5V50.385a3.978,3.978,0,0,1,2.515-3.713l6.245-2.5.119.119a5.828,5.828,0,0,0,8.242,0l.119-.119,6.246,2.5A3.978,3.978,0,0,1,31,50.385ZM59,35.2V41H56V36H54v5H48.867l-.823-5.763,1.09-1.637.266.2a1,1,0,0,0,1.58-.6l.823-4.113,3.905,1.42A5.016,5.016,0,0,1,59,35.2ZM42.743,28.157l1.735,1.735-1.809,1.356L42.1,28.392Zm6.514,0,.645.235-.571,2.856-1.809-1.356ZM46,31.25,47.532,32.4,46.465,34h-.93l-1.068-1.6ZM45.867,36h.266l.714,5H45.153ZM55,19h-.232A8.971,8.971,0,0,0,55,17a1,1,0,0,1,0,2ZM37,19a1,1,0,0,1,0-2,8.971,8.971,0,0,0,.232,2Zm0-6v2c-.052,0-.1.013-.151.015l-.356-2.137A8.483,8.483,0,0,1,44.861,3h2.278a8.483,8.483,0,0,1,8.368,9.878l-.356,2.137c-.051,0-.1-.015-.151-.015V13a1,1,0,0,0-1-1H52.472A6.2,6.2,0,0,1,46.9,8.553a1.042,1.042,0,0,0-1.79,0A6.2,6.2,0,0,1,39.528,12H38A1,1,0,0,0,37,13Zm2,4V14h.528A8.185,8.185,0,0,0,46,10.862,8.185,8.185,0,0,0,52.472,14H53v3a7,7,0,0,1-14,0Zm7,9a8.971,8.971,0,0,0,2-.232v.818l-2,2-2-2v-.818A8.971,8.971,0,0,0,46,26ZM33,35.2a5.016,5.016,0,0,1,3.292-4.7l3.905-1.42L41.02,33.2a1,1,0,0,0,1.58.6l.265-.2,1.091,1.636L43.133,41H38V36H36v5H33Z"/><path d="M2,16H28a1,1,0,0,0,1-1V12.618l3.447-1.724a1,1,0,0,0,0-1.79L29,7.382V5a1,1,0,0,0-1-1H2A1,1,0,0,0,1,5V15A1,1,0,0,0,2,16ZM3,6H27V8a1,1,0,0,0,.553.895L29.764,10l-2.211,1.106A1,1,0,0,0,27,12v2H3Z"/><rect x="5" y="9" width="16" height="2"/><rect x="23" y="9" width="2" height="2"/></svg>
