<svg id="Layer_1" enable-background="new 0 0 512.003 512.003" height="512" viewBox="0 0 512.003 512.003" width="512" xmlns="http://www.w3.org/2000/svg"><g><g><path d="m480.826 72.002h-86.823c-5.007-8.66-11.199-16.712-18.503-23.948-21.042-20.846-48.748-32.447-78.271-32.834-18.93-9.965-40.211-15.22-61.721-15.22-51.295 0-95.878 29.28-117.92 72.002h-86.411c-17.191 0-31.177 13.986-31.177 31.177v317.647c0 17.19 13.985 31.176 31.176 31.176h170.996l-5 39.999h-31.173c-5.523 0-10 4.477-10 10s4.477 10 10 10h39.871c.096.002.191.002.287 0h99.688c.048.001.096.001.144.001s.096 0 .144-.001h39.871c5.522 0 10-4.477 10-10s-4.478-10-10-10h-31.174l-5-39.999h170.996c17.191 0 31.177-13.986 31.177-31.176v-317.647c-.001-17.191-13.986-31.177-31.177-31.177zm-460.826 60.002h82.919c-.001.198-.008.394-.008.592 0 11.899 1.577 23.66 4.687 35.035-2.973 4.891-4.687 10.629-4.687 16.759 0 10.004 4.568 18.956 11.723 24.896 1.937 22.847-2.528 45.138-6.502 64.93-3.841 19.132-7.469 37.204-5.069 53.455 2.36 15.976 10.333 28.461 24.237 37.939-5.383 8.34-9.964 17.18-13.632 26.391h-93.668zm327.755-29.771h37.572c2.476 8.46 3.763 17.324 3.763 26.393 0 8.427-1.132 16.693-3.325 24.698-2.869-.836-5.898-1.292-9.033-1.292l-4.794-.003c-.007 0-.015 0-.021 0-4.349 0-7.886-3.537-7.887-7.885-.001-5.522-4.478-9.999-10-9.999h-8.598c-24.024 0-43.575-19.506-43.654-43.512l.346-7.724c11.575 11.909 27.752 19.324 45.631 19.324zm25.042 247.309c-4.443-5.251-9.229-10.225-14.353-14.855-12.224-11.045-26.151-20.028-41.096-26.624 28.724-16.054 50.609-42.982 59.954-75.237 1.096 16.119 4.144 31.309 6.959 45.327 7.474 37.228 10.283 57.174-11.464 71.389zm-85.818 2.519h-61.954l-7.45-31.221c1.571-.48 3.155-.925 4.747-1.345 10.841 3.021 22.104 4.575 33.539 4.575 2.156 0 4.319-.055 6.485-.167 9.391-.481 18.519-1.994 27.273-4.425 1.613.425 3.218.876 4.81 1.362zm-133.387-17.405c-5.137 4.639-9.935 9.624-14.388 14.887-21.744-14.211-18.927-34.212-11.463-71.391 2.812-14.006 5.858-29.182 6.957-45.285 6.624 22.906 19.697 43.55 38.105 59.708 6.814 5.981 14.143 11.151 21.862 15.483-14.935 6.59-28.853 15.565-41.073 26.598zm138.183-209.95c11.32 17.688 31.144 29.438 53.658 29.438h.452c1.397 3.623 3.542 6.87 6.227 9.584l-15.082 10.603c-3.698-3.555-8.708-5.755-14.23-5.755h-42.824c-9.852 0-18.1 6.969-20.092 16.235h-7.763c-1.992-9.266-10.24-16.235-20.093-16.235h-42.824c-5.522 0-10.533 2.2-14.23 5.755l-15.081-10.601c2.684-2.714 4.83-5.962 6.226-9.585h71.999c22.513 0 42.337-11.75 53.657-29.439zm31.584 64.429v11.351c0 6.568-5.343 11.911-11.91 11.911h-20.122c-6.567 0-11.91-5.343-11.91-11.911v-11.351c0-.287.271-.559.559-.559h42.824c.287 0 .559.272.559.559zm-90.773 0v11.351c0 6.568-5.343 11.911-11.91 11.911h-20.122c-6.567 0-11.911-5.343-11.911-11.911v-11.351c0-.287.272-.559.56-.559h42.824c.287 0 .559.272.559.559zm-97.313-17.103h1.65l31.72 22.298v6.157c0 17.596 14.315 31.911 31.911 31.911h20.122c16.128 0 29.491-12.03 31.609-27.586h7.433c2.118 15.556 15.481 27.586 31.609 27.586h20.122c17.596 0 31.91-14.315 31.91-31.911v-6.157l31.719-22.298 1.655.001c6.813 0 12.357 5.544 12.357 12.358s-5.544 12.358-12.357 12.358h-4.815c-5.226 0-9.569 4.022-9.971 9.232-4.089 53.109-47.348 95.218-100.625 97.95-56.954 2.927-106.882-41.018-111.266-97.95-.401-5.21-4.746-9.232-9.971-9.232h-4.815c-6.814 0-12.358-5.544-12.358-12.358s5.544-12.359 12.361-12.359zm30.73 178.543-1.258 37.533c-.045 1.356.19 2.674.654 3.892h-29.935c7.414-15.698 17.884-29.755 30.539-41.425zm40.674 41.425c-.727-.616-1.537-1.143-2.433-1.536l-19.283-8.458 1.578-47.06c3.954-2.452 8.04-4.695 12.236-6.726l15.218 63.78zm27.878 0-4.758-19.939h52.409l-4.758 19.939zm78.674-63.778c4.195 2.031 8.282 4.273 12.236 6.725l1.577 47.06-19.283 8.457c-.896.393-1.706.921-2.434 1.537h-7.316zm32.771 22.354c12.655 11.67 23.125 25.728 30.539 41.424h-29.934c.464-1.219.699-2.536.654-3.892zm52.335 41.424c-3.668-9.211-8.25-18.052-13.634-26.394 13.964-9.519 21.95-22.071 24.271-38.155 2.336-16.192-1.276-34.186-5.102-53.236-3.974-19.793-8.439-42.083-6.502-64.93 7.154-5.94 11.722-14.892 11.722-24.896 0-7.059-2.279-13.593-6.13-18.917 3.705-10.774 5.741-21.995 6.075-33.468h82.967v259.996zm82.491-299.998c6.163 0 11.177 5.014 11.177 11.177v8.825h-84.115c-.997-6.842-2.613-13.53-4.812-20.002zm-104.018-9.769h-29.052c-24.024 0-43.575-19.506-43.654-43.513l.14-3.13c21.552 1.937 41.596 11.231 57.182 26.672 6.085 6.029 11.235 12.744 15.384 19.971zm-141.3-62.233c16.959 0 33.74 3.853 48.91 11.169l-.508 11.351c-2.001 22.231-20.728 39.714-43.472 39.714h-26.572c-5.523 0-10 4.477-10 10s4.477 10 10 10h26.572c15.838 0 30.339-5.82 41.49-15.426l-.145 3.232c-.003.077.003.151.001.228-.002.074-.011.145-.011.219 0 24.073-19.585 43.658-43.658 43.658h-80.146c-5.523 0-10 4.477-10 10 0 4.348-3.538 7.886-7.889 7.886l-4.812.001c-3.627 0-7.112.609-10.37 1.714-1.319-6.939-1.988-14.014-1.988-21.15.002-62.086 50.512-112.596 112.598-112.596zm-204.331 72.002h78.099c-2.085 6.467-3.689 13.147-4.763 20.002h-84.513v-8.825c0-6.163 5.014-11.177 11.177-11.177zm263.496 399.999h-77.345l5-39.999h67.345zm186.153-59.999h-449.649c-6.163 0-11.176-5.014-11.176-11.176v-8.826h472.002v8.826c-.001 6.163-5.014 11.176-11.177 11.176z"/><path d="m256.001 276.08c11.212 0 21.752-4.366 29.678-12.294 3.905-3.905 3.905-10.237-.001-14.142-3.904-3.904-10.237-3.905-14.142.001-4.149 4.149-9.666 6.435-15.536 6.435-5.869 0-11.386-2.285-15.536-6.435-3.904-3.905-10.236-3.906-14.142 0-3.905 3.905-3.906 10.237 0 14.142 7.928 7.927 18.468 12.293 29.679 12.293z"/><path d="m168.871 102.233c5.523 0 10-4.477 10-10s-4.477-10-10-10h-.007c-5.523 0-9.996 4.477-9.996 10s4.48 10 10.003 10z"/></g></g></svg>